<svg width="953" height="892" xmlns="http://www.w3.org/2000/svg"><path d="M50.3 82.1c65.3-107 231.6-79.2 238.2-78h.3c26.5 15.3 47.3 36.6 57.6 63 22.3 57.3 72.2 119.4 184.2 103 101.8-15 180-13.7 232.4 5.1 0 0 162.5 48.6 186.2 221.5 3 10.3 3.6 21 2.7 32l.2 11.1h-1.7C940.2 497.2 891.2 562 874 621.3c-30.3 104.5-106.2 124.1-121.4 124.3h-4.3c-13.6 0-28.7-.4-41.5 7.7-13 8.1-15.9 22.9-18 37.9l-.2 1.3-.6 4-.1 1.3-.2 1.4a122.2 122.2 0 01-26 61c-20.7 24.1-50 32.2-76.6 31.4-117.5-3.4-198.8-150.1-317.3-140.8-24.5 2-78-10.7-97.3-19.6-16.4-7.6-32.4 14.6-93.8-110C36 538.6 18.2 436 10.8 376.7-2.6 290.7-15.4 189.9 50.3 82z" fill="#FFF" fill-rule="nonzero"/></svg>