<?xml version="1.0" encoding="UTF-8" standalone="no"?> <svg height="512pt" viewBox="-61 0 512 512" width="512pt" xmlns="http://www.w3.org/2000/svg"><path d="m270 15v76l-30 30h-90l-30-30v-76zm0 0" fill="#e3eeff"/><path d="m270 15v76l-30 30h-45v-106zm0 0" fill="#c4d9f2"/><path d="m390 316c0 102.300781-79.5 187.597656-180 195.097656l-15-14.097656-15 14.097656c-100.5-7.5-180-92.796875-180-195.097656 0-78.601562 47.699219-149.699219 120-179.699219v-45.300781h150v45.300781c72.300781 30 120 101.097657 120 179.699219zm0 0" fill="#b3f2e7"/><path d="m390 316c0 102.300781-79.5 187.597656-180 195.097656l-15-14.097656v-406h75v45.300781c72.300781 30 120 101.097657 120 179.699219zm0 0" fill="#6cb"/><path d="m202.800781 183.101562-7.800781-4.503906-7.800781 4.503906c-3.898438 2.398438-97.199219 59.097657-97.199219 132.898438s93.300781 130.5 97.199219 132.898438l7.800781 4.5 7.800781-4.5c3.898438-2.398438 97.199219-59.097657 97.199219-132.898438s-93.300781-130.5-97.199219-132.898438zm0 0" fill="#daf569"/><path d="m300 316c0 73.800781-93.300781 130.5-97.199219 132.898438l-7.800781 4.5v-274.800782l7.800781 4.503906c3.898438 2.398438 97.199219 59.097657 97.199219 132.898438zm0 0" fill="#b9df47"/><path d="m90 0h210v30h-210zm0 0" fill="#c4d9f2"/><path d="m195 0h105v30h-105zm0 0" fill="#a9c3ea"/><path d="m250.5 311.5-55.5 55.800781-55.5-55.800781 21-21 34.5 34.199219 34.5-34.199219zm0 0" fill="#b9df47"/><path d="m250.5 311.5-55.5 55.800781v-42.601562l34.5-34.199219zm0 0" fill="#96cc29"/><path d="m210 256v255.097656c-5.097656.601563-9.902344.902344-15 .902344s-9.902344-.300781-15-.902344v-255.097656zm0 0" fill="#b9df47"/><path d="m210 256v255.097656c-5.097656.601563-9.902344.902344-15 .902344v-256zm0 0" fill="#96cc29"/></svg>