<svg width="172" height="148" xmlns="http://www.w3.org/2000/svg"><g fill="none" fill-rule="evenodd"><path d="M172 74c0 13.277-3.473 25.736-9.554 36.508a73.948 73.948 0 01-4.071 6.418c-13.237 18.684-34.887 30.91-59.381 31.071-.164.003-.33.003-.494.003a72.968 72.968 0 01-22.764-3.618c-13.537-4.434-25.348-12.717-34.16-23.566C31.216 108.062 25 91.76 25 74 25 33.131 57.906 0 98.5 0c38.43 0 69.972 29.694 73.223 67.538.183 2.13.277 4.285.277 6.462" fill="#FFE6EA"/><path d="M163 111a72.783 72.783 0 01-4.106 6.334C145.542 135.774 123.706 147.841 99 148v-37h64" fill="#FFF"/><path d="M127.02 122c-1.06 0-2.12-.45-2.927-1.352l-.275-.305c-1.365-1.526-3.586-1.524-4.952 0l-.168.187c-1.615 1.802-4.24 1.802-5.855 0l-.346-.385c-1.365-1.525-3.587-1.525-4.952 0a.298.298 0 01-.452 0 .39.39 0 010-.505c1.614-1.803 4.242-1.803 5.856 0l.345.386c1.365 1.523 3.588 1.525 4.953 0l.167-.188c.783-.873 1.823-1.355 2.928-1.355 1.106 0 2.145.482 2.928 1.355l.275.307c.66.738 1.54 1.145 2.475 1.145.936 0 1.815-.407 2.477-1.145l.488-.545c.781-.873 1.82-1.353 2.927-1.353 1.106 0 2.146.48 2.927 1.353 1.366 1.524 3.588 1.524 4.953 0l.221-.247c.782-.872 1.822-1.353 2.928-1.353 1.106 0 2.146.48 2.927 1.353l.336.375c.662.739 1.542 1.145 2.477 1.145.176 0 .319.16.319.357 0 .197-.143.356-.32.356-1.105 0-2.145-.48-2.927-1.353l-.336-.375c-.661-.739-1.541-1.145-2.476-1.145s-1.815.406-2.477 1.145l-.22.247c-1.615 1.802-4.242 1.802-5.855 0-1.366-1.525-3.588-1.525-4.954 0l-.486.543c-.807.901-1.869 1.352-2.929 1.352M127.103 131c-1.064 0-2.129-.452-2.94-1.355l-.275-.307c-1.37-1.528-3.601-1.527-4.972 0l-.17.188c-1.62 1.807-4.259 1.807-5.879 0l-.347-.385c-1.371-1.53-3.602-1.53-4.973 0a.3.3 0 01-.454 0 .39.39 0 010-.506c1.621-1.807 4.26-1.807 5.88 0l.347.387c1.371 1.528 3.603 1.526 4.974 0l.168-.189c.786-.874 1.83-1.357 2.94-1.357 1.11 0 2.154.483 2.94 1.357l.276.308c1.37 1.527 3.601 1.527 4.972 0l.49-.546c1.621-1.807 4.258-1.807 5.88 0 .664.74 1.547 1.147 2.486 1.147.939 0 1.823-.407 2.487-1.147l.222-.248c1.612-1.796 4.139-1.796 5.75 0a.387.387 0 010 .506.298.298 0 01-.452 0c-.664-.74-1.525-1.147-2.423-1.147-.897 0-1.758.407-2.422 1.147l-.222.248c-.785.874-1.83 1.356-2.94 1.356-1.11 0-2.155-.482-2.94-1.356-.664-.74-1.547-1.148-2.486-1.148-.94 0-1.823.407-2.487 1.148l-.489.544c-.81.903-1.876 1.355-2.94 1.355M127.42 140c-1.08 0-2.162-.364-2.985-1.092l-.28-.247c-1.393-1.231-3.659-1.231-5.051 0l-.172.15c-.798.706-1.858 1.095-2.986 1.095-1.128 0-2.189-.389-2.986-1.094l-.353-.311c-.674-.597-1.571-.925-2.525-.925-.955 0-1.851.328-2.526.925a.356.356 0 01-.461 0 .267.267 0 010-.408c.798-.705 1.859-1.093 2.987-1.093 1.128 0 2.189.388 2.986 1.093l.352.312c.675.597 1.572.925 2.526.925.953 0 1.851-.328 2.526-.925l.17-.152c.8-.705 1.86-1.093 2.988-1.093 1.127 0 2.187.388 2.986 1.093l.28.248c.673.596 1.571.924 2.525.924.955 0 1.85-.328 2.526-.924l.497-.44a.355.355 0 01.46 0 .264.264 0 010 .407l-.496.44c-.823.728-1.906 1.092-2.987 1.092" fill="#000838"/><path d="M32 42v23.512c0 .27-.224.488-.5.488a.494.494 0 01-.5-.488V43.947c.321-.654.656-1.303 1-1.947M40 30v35.52a.49.49 0 01-.5.48.49.49 0 01-.5-.48V31.2c.329-.404.661-.803 1-1.2M47 21v44.515a.493.493 0 01-.5.485.493.493 0 01-.5-.485V21.882c.33-.298.663-.592 1-.882M55 15v50.52a.49.49 0 01-.5.48.49.49 0 01-.5-.48V15.664c.331-.225.666-.446 1-.665M63 10v55.518a.49.49 0 01-.5.482.491.491 0 01-.5-.482V10.506c.331-.172.666-.34 1-.506M70 6v59.516a.492.492 0 01-.5.484.491.491 0 01-.5-.484V6.38c.331-.13.664-.256 1-.38M78 3v62.513c0 .27-.224.487-.5.487a.493.493 0 01-.5-.487V3.267c.333-.09.666-.18 1-.267M86 1v56.514a.493.493 0 01-.5.486.493.493 0 01-.5-.486V1.165c.333-.058.666-.112 1-.165" fill="#FFF"/><path d="M88.66 76.094l-43.903 26.394a3.182 3.182 0 01-4.195-.834L22.559 77.34c-1.171-1.582-.044-3.825 1.923-3.825h63.463c1.406 0 1.92 1.854.714 2.58zM0 65l38.503 52L125 65H0z" fill="#FFCF00"/><path d="M88.328 76.533l-44.002 26.069a2.859 2.859 0 01-3.734-.733L22.474 77.755C21.306 76.202 22.43 74 24.39 74h63.226c1.401 0 1.912 1.82.712 2.533" fill="#FFE6EA"/><path fill="#000838" d="M7 69h1v-3H7zM12 69h1v-3h-1zM18 69h1v-3h-1zM23 69h1v-3h-1zM28 69h1v-3h-1zM33 69h1v-3h-1zM39 69h1v-3h-1zM44 69h1v-3h-1zM49 69h1v-3h-1zM55 69h1v-3h-1zM60 69h1v-3h-1zM65 69h1v-3h-1zM71 69h1v-3h-1zM76 69h1v-3h-1zM81 69h1v-3h-1zM87 69h1v-3h-1zM92 69h1v-3h-1zM97 69h1v-3h-1zM103 69h1v-3h-1zM108 69h1v-3h-1zM113 69h1v-3h-1z"/><path d="M172 74.323c0 15.91-5.081 30.641-13.721 42.677L137.34 82.79c-1.235-2.02-3.65-2.978-5.956-2.411a15.086 15.086 0 01-13.987-3.706l-20.05-19.319 1.893-1.828a5.92 5.92 0 016.187-.422l7.005 4.25c.856.45 1.783.667 2.7.667a5.798 5.798 0 004.413-2.03 5.726 5.726 0 00-.239-7.707l-10.223-10.523-6.545 5.677a8.418 8.418 0 01-8.43 1.533l-1.595-.59a.78.78 0 01-.273-1.294l15.279-14.707a4.95 4.95 0 017.085.233l13.337 14.53-9.51-10.608 5.296-.827a7.5 7.5 0 016.98 2.677l5.382 6.631-6.228-7.7 4.444-.694a5.67 5.67 0 015.252 1.993l3.653 4.434-3.883-4.732 3.64-.301a4.851 4.851 0 014.156 1.76l24.598 30.122a73.95 73.95 0 01.279 6.425" fill="#94545C"/><path d="M127.679 45a.323.323 0 01-.241-.106l-9.357-10.366a.315.315 0 01.027-.448.325.325 0 01.454.026l9.357 10.366a.315.315 0 01-.027.448.324.324 0 01-.213.08M137.67 44a.344.344 0 01-.258-.114l-7.337-8.383a.292.292 0 01.048-.434.347.347 0 01.465.045l7.338 8.383a.294.294 0 01-.048.434.344.344 0 01-.208.069M144.656 43a.35.35 0 01-.267-.123l-5.31-6.33a.327.327 0 01.047-.472.351.351 0 01.485.048l5.312 6.331a.329.329 0 01-.05.47.347.347 0 01-.217.076M103.013 62a.306.306 0 01-.212-.086.327.327 0 01-.017-.453 2.32 2.32 0 00-.115-3.213 2.175 2.175 0 00-3.128.118.306.306 0 01-.441.016.327.327 0 01-.016-.453 2.79 2.79 0 014.011-.15c1.147 1.093 1.213 2.941.146 4.119a.307.307 0 01-.228.102" fill="#000838"/><path d="M93.254 60L89 54.58l65.703-51.009a2.722 2.722 0 013.806.466l.917 1.169a2.687 2.687 0 01-.47 3.784L93.255 60" fill="#FD6679"/><path fill="#000838" d="M93 60.183l-5.012 1.138L85 62l3.78-7L93 60.183"/><path fill="#FFF" d="M90.317 57L90 56.59 151.682 8l.318.41L90.317 57"/><path fill="#000838" d="M155.08 12L150 5.498 151.92 4l5.08 6.502L155.08 12"/><path d="M88 61.128l-2.457.85c-.367.126-.683-.303-.479-.65L86.431 59A5.609 5.609 0 0188 61.128" fill="#FFF"/><path d="M100.933 87.488l-15.23 32.853a10.617 10.617 0 01-5.765 5.425c-2.097.819-2.82 2.803-2.82 5.254V145a62.912 62.912 0 01-1.545-.484c-13.558-4.426-25.387-12.693-34.212-23.52A74.601 74.601 0 0139 117.941l4.375-34.426 4.932-16.865a1.451 1.451 0 011.404-1.127c1.555-.01 2.19 1.233 2.2 2.776 0 .045 0 .09-.002.135l-.207 12.195 1.755 11.18 1.847-31.796a3.387 3.387 0 013.358-3.194 3.382 3.382 0 013.396 3.37l.106 16.954-.113-18.398A3.717 3.717 0 0165.74 55a3.697 3.697 0 012.602 1.046 3.726 3.726 0 011.13 2.575l.83 30.475c.007.25.367.274.406.027L74.87 62.65a2.665 2.665 0 012.696-2.254l.076.002a2.751 2.751 0 012.68 2.739l.205 32.897c.015 2.453 3.027 3.607 4.668 1.787l8.188-9.085a7.075 7.075 0 015.683-2.327l1.274.078c.496.031.804.55.594 1.001" fill="#94545C"/><path d="M58.5 57.663h-.012c-.49.003-.95.197-1.295.546a1.84 1.84 0 001.307 3.128h.012a1.84 1.84 0 001.279-3.144 1.825 1.825 0 00-1.29-.53zm0 4.337a2.484 2.484 0 01-1.757-.721A2.484 2.484 0 0156 59.516a2.483 2.483 0 01.721-1.773A2.484 2.484 0 0158.484 57h.016a2.503 2.503 0 012.5 2.484A2.503 2.503 0 0158.516 62H58.5zM48.841 70c-.19 0-.382-.024-.571-.072-.195-.05-.31-.239-.257-.422a.37.37 0 01.45-.241 1.5 1.5 0 001.084-.13c.332-.178.57-.466.67-.812.1-.346.051-.708-.138-1.02a1.411 1.411 0 00-.865-.628c-.195-.05-.31-.239-.257-.422a.37.37 0 01.449-.24c.557.142 1.021.48 1.308.95.287.47.36 1.017.209 1.54-.152.523-.511.96-1.012 1.229a2.256 2.256 0 01-1.07.268M65.5 56.663h-.012a1.84 1.84 0 00-1.825 1.849 1.84 1.84 0 001.837 1.825h.012c.49-.003.95-.197 1.295-.546a1.84 1.84 0 00-1.307-3.128zm0 4.337a2.503 2.503 0 01-2.5-2.484A2.503 2.503 0 0165.484 56h.016c.662 0 1.285.256 1.757.721.475.47.739 1.095.743 1.763A2.503 2.503 0 0165.516 61H65.5zM77 61.578h-.009c-.38.002-.736.152-1.003.423-.267.27-.412.628-.41 1.008.002.38.152.736.423 1.003.27.267.626.408 1.008.41.38-.002.736-.153 1.003-.423A1.424 1.424 0 0077 61.578zM77 65c-.53 0-1.028-.205-1.405-.577a1.987 1.987 0 01-.595-1.41 1.987 1.987 0 01.577-1.418A2.001 2.001 0 1177.013 65H77zM98.692 92a.33.33 0 01-.13-.027c-1.347-.603-1.937-2.156-1.314-3.46.623-1.304 2.226-1.875 3.573-1.273.154.069.222.247.15.396a.313.313 0 01-.409.146c-1.038-.465-2.274-.024-2.754.981s-.025 2.203 1.013 2.667c.155.07.222.246.151.397a.31.31 0 01-.28.173M62.608 92c-.215 0-.39-.144-.392-.322L62 63.326c-.001-.179.173-.325.39-.326h.002c.215 0 .39.144.392.322L63 91.674c.001.18-.173.325-.39.326h-.002" fill="#000838"/></g></svg>