<svg width="48" height="48" viewBox="0 0 48 48" fill="none" xmlns="http://www.w3.org/2000/svg">
<mask id="mask0" mask-type="alpha" maskUnits="userSpaceOnUse" x="0" y="0" width="48" height="48">
<path d="M48 24C48 37.2548 37.2548 48 24 48C10.7452 48 0 37.2548 0 24C0 10.7452 10.7452 0 24 0C37.2548 0 48 10.7452 48 24Z" fill="#E8EFFF"/>
</mask>
<g mask="url(#mask0)">
<path d="M48 24C48 37.2548 37.2548 48 24 48C10.7452 48 0 37.2548 0 24C0 10.7452 10.7452 0 24 0C37.2548 0 48 10.7452 48 24Z" fill="#E8EFFF"/>
<path d="M15.2021 20.8698C15.2479 16.1129 19.1413 12.2938 23.8982 12.3397L50.5391 12.3397C55.296 12.3855 53.9412 16.4857 53.8954 21.2426L53.8135 29.7387C53.7677 34.4956 49.8743 38.3146 45.1174 38.2688L32.127 38.1436C31.8912 38.1413 31.6574 38.1875 31.4401 38.2793L23.1613 41.7763C22.019 42.2588 20.7564 41.4127 20.7683 40.1727L20.7797 38.993C20.7848 38.4635 20.3597 38.0302 19.8303 38.0251C17.1832 37.9996 15.0579 35.833 15.0834 33.1858L15.2021 20.8698Z" fill="#506FFF"/>
<path d="M27.6207 27.202C27.6151 26.6286 28.0755 26.1593 28.6488 26.1538L42.1449 26.0238C42.7182 26.0182 43.1875 26.4786 43.193 27.0519C43.1986 27.6253 42.7382 28.0946 42.1649 28.1001L28.6688 28.2301C28.0955 28.2357 27.6262 27.7753 27.6207 27.202Z" fill="white"/>
<path d="M33.9198 21.4098C33.9143 20.8365 34.3746 20.3672 34.9479 20.3617L42.2151 20.2916C42.7884 20.2861 43.2577 20.7464 43.2632 21.3198C43.2687 21.8932 42.8084 22.3624 42.2351 22.368L34.968 22.438C34.3946 22.4435 33.9253 21.9832 33.9198 21.4098Z" fill="#A7B7FF"/>
<circle cx="15.5" cy="19.5" r="10.5" fill="#F4A42B"/>
<path d="M10.8398 22.2383V16.5986C10.8398 16.3057 10.9066 16.0859 11.04 15.9395C11.1735 15.793 11.346 15.7197 11.5576 15.7197C11.7757 15.7197 11.9515 15.793 12.085 15.9395C12.2217 16.0827 12.29 16.3024 12.29 16.5986V22.2383C12.29 22.5345 12.2217 22.7559 12.085 22.9023C11.9515 23.0488 11.7757 23.1221 11.5576 23.1221C11.3493 23.1221 11.1768 23.0488 11.04 22.9023C10.9066 22.7526 10.8398 22.5312 10.8398 22.2383ZM14.8145 15.8418H16.7041C17.1956 15.8418 17.6172 15.8874 17.9688 15.9785C18.3203 16.0697 18.6393 16.2406 18.9258 16.4912C19.6712 17.1292 20.0439 18.0993 20.0439 19.4014C20.0439 19.8311 20.0065 20.2233 19.9316 20.5781C19.8568 20.9329 19.7412 21.2536 19.585 21.54C19.4287 21.8232 19.2285 22.0771 18.9844 22.3018C18.7923 22.4743 18.5824 22.6126 18.3545 22.7168C18.1266 22.821 17.8809 22.8942 17.6172 22.9365C17.3568 22.9788 17.0622 23 16.7334 23H14.8438C14.5801 23 14.3815 22.9609 14.248 22.8828C14.1146 22.8014 14.0267 22.6891 13.9844 22.5459C13.9453 22.3994 13.9258 22.2106 13.9258 21.9795V16.7305C13.9258 16.418 13.9958 16.1917 14.1357 16.0518C14.2757 15.9118 14.502 15.8418 14.8145 15.8418ZM15.376 16.9893V21.8477H16.4746C16.7155 21.8477 16.9043 21.8411 17.041 21.8281C17.1777 21.8151 17.3193 21.7826 17.4658 21.7305C17.6123 21.6784 17.7393 21.6051 17.8467 21.5107C18.3317 21.1006 18.5742 20.3942 18.5742 19.3916C18.5742 18.6852 18.4668 18.1562 18.252 17.8047C18.0404 17.4531 17.7783 17.2301 17.4658 17.1357C17.1533 17.0381 16.7757 16.9893 16.333 16.9893H15.376Z" fill="white"/>
<circle cx="14.5" cy="17.5" r="10.35" stroke="white" stroke-width="0.3"/>
</g>
</svg>
