<svg width="48" height="48" viewBox="0 0 48 48" fill="none" xmlns="http://www.w3.org/2000/svg">
<mask id="mask0" mask-type="alpha" maskUnits="userSpaceOnUse" x="0" y="0" width="48" height="48">
<circle cx="24" cy="24" r="24" fill="#ECF2FF"/>
</mask>
<g mask="url(#mask0)">
<circle cx="24" cy="24" r="24" fill="#ECF2FF"/>
<rect x="15" y="5" width="34" height="50" rx="8" fill="#506FFF"/>
<rect x="32" y="28" width="12.1528" height="1.73611" rx="0.868056" fill="white"/>
<rect x="20" y="10" width="29" height="16" rx="5" fill="#6F89FF"/>
<rect x="35" y="31.4722" width="8.68056" height="1.73611" rx="0.868056" fill="#A7B7FF"/>
<circle cx="14" cy="34" r="13" fill="#48C5A1"/>
<circle cx="17" cy="30" r="12.9" stroke="white" stroke-width="0.2"/>
<path d="M13.567 34.811C13.567 35.2217 13.457 35.5993 13.237 35.944C13.017 36.2887 12.6907 36.5637 12.258 36.769C11.8253 36.9743 11.3047 37.077 10.696 37.077V37.957H10.223V37.055C9.42367 36.989 8.771 36.747 8.265 36.329C7.76633 35.911 7.49133 35.3537 7.44 34.657H9.442C9.464 34.8917 9.541 35.0897 9.673 35.251C9.81233 35.4123 9.99567 35.5223 10.223 35.581V33.832C10.0983 33.7953 10.0177 33.7697 9.981 33.755C9.44567 33.601 9.00567 33.447 8.661 33.293C8.32367 33.1317 8.03033 32.897 7.781 32.589C7.539 32.2737 7.418 31.8593 7.418 31.346C7.418 30.8987 7.539 30.5063 7.781 30.169C8.03033 29.8317 8.36767 29.575 8.793 29.399C9.21833 29.2157 9.695 29.1167 10.223 29.102V28.2H10.696V29.113C11.5027 29.1643 12.1443 29.3953 12.621 29.806C13.0977 30.2093 13.3653 30.7447 13.424 31.412H11.389C11.3597 31.192 11.2863 31.0123 11.169 30.873C11.0517 30.7337 10.894 30.6383 10.696 30.587V32.303L11.037 32.413C11.5723 32.5817 12.005 32.7467 12.335 32.908C12.6723 33.062 12.962 33.293 13.204 33.601C13.446 33.909 13.567 34.3123 13.567 34.811ZM9.431 31.269C9.431 31.467 9.497 31.6357 9.629 31.775C9.76833 31.907 9.96633 32.028 10.223 32.138V30.543C9.97367 30.5577 9.77933 30.6273 9.64 30.752C9.50067 30.8767 9.431 31.049 9.431 31.269ZM10.696 35.636C10.96 35.6287 11.169 35.5553 11.323 35.416C11.477 35.2693 11.554 35.0823 11.554 34.855C11.554 34.6497 11.4807 34.481 11.334 34.349C11.1873 34.2097 10.9747 34.0887 10.696 33.986V35.636ZM14.4229 33.029C14.4229 34.2463 14.6686 35.2107 15.1599 35.922C15.6513 36.6333 16.4359 36.989 17.5139 36.989C18.5846 36.989 19.3656 36.6333 19.8569 35.922C20.3556 35.2107 20.6049 34.2463 20.6049 33.029C20.6049 31.819 20.3556 30.862 19.8569 30.158C19.3656 29.4467 18.5846 29.091 17.5139 29.091C16.4359 29.091 15.6513 29.4467 15.1599 30.158C14.6686 30.862 14.4229 31.819 14.4229 33.029ZM18.7349 33.029C18.7349 33.7257 18.6506 34.2647 18.4819 34.646C18.3206 35.02 17.9979 35.207 17.5139 35.207C17.0226 35.207 16.6926 35.02 16.5239 34.646C16.3553 34.2647 16.2709 33.7257 16.2709 33.029C16.2709 32.3397 16.3553 31.808 16.5239 31.434C16.6926 31.06 17.0226 30.873 17.5139 30.873C17.9979 30.873 18.3206 31.06 18.4819 31.434C18.6506 31.8007 18.7349 32.3323 18.7349 33.029Z" fill="white"/>
<path d="M36.5 17.134C37.1667 17.5189 37.1667 18.4811 36.5 18.866L33.5 20.5981C32.8333 20.983 32 20.5019 32 19.7321L32 16.2679C32 15.4981 32.8333 15.017 33.5 15.4019L36.5 17.134Z" fill="white"/>
</g>
</svg>
