<svg width="48" height="48" viewBox="0 0 48 48" fill="none" xmlns="http://www.w3.org/2000/svg">
<mask id="mask0" mask-type="alpha" maskUnits="userSpaceOnUse" x="0" y="0" width="48" height="48">
<path d="M48 24C48 37.2548 37.2548 48 24 48C10.7452 48 0 37.2548 0 24C0 10.7452 10.7452 0 24 0C37.2548 0 48 10.7452 48 24Z" fill="#E8EFFF"/>
</mask>
<g mask="url(#mask0)">
<path d="M48 24C48 37.2548 37.2548 48 24 48C10.7452 48 0 37.2548 0 24C0 10.7452 10.7452 0 24 0C37.2548 0 48 10.7452 48 24Z" fill="#E8EFFF"/>
<circle cx="3" cy="9" r="1" fill="#C6D4F2"/>
<circle cx="3" cy="4" r="1" fill="#F65D6D"/>
<circle cx="3" cy="14" r="1" fill="#C6D4F2"/>
<circle cx="7" cy="9" r="1" fill="#48C5A1"/>
<circle cx="7" cy="4" r="1" fill="#C6D4F2"/>
<circle cx="7" cy="14" r="1" fill="#C6D4F2"/>
<circle cx="11" cy="9" r="1" fill="#C6D4F2"/>
<circle cx="11" cy="4" r="1" fill="#C6D4F2"/>
<circle cx="11" cy="14" r="1" fill="#C6D4F2"/>
<circle cx="15" cy="9" r="1" fill="#C6D4F2"/>
<circle cx="15" cy="4" r="1" fill="#C6D4F2"/>
<circle cx="15" cy="14" r="1" fill="#F65D6D"/>
<path d="M34.1643 30.1643C35.7304 39.0916 29.763 47.5981 20.8357 49.1643C11.9084 50.7304 3.40183 44.763 1.83571 35.8357C0.26959 26.9084 6.237 18.4018 15.1643 16.8357C24.0916 15.2696 32.5982 21.237 34.1643 30.1643Z" fill="#3D58FF"/>
<path fill-rule="evenodd" clip-rule="evenodd" d="M33.6945 28.1977C31.7106 21.6848 25.9001 17.1328 19.243 16.6321L18.829 19.8576C18.513 22.3203 20.2532 24.573 22.7159 24.889L29.4412 25.7522C29.5633 25.7678 29.6808 25.8084 29.7866 25.8714L33.6945 28.1977Z" fill="#3146CC"/>
<path fill-rule="evenodd" clip-rule="evenodd" d="M24 25L7 32.0588L11.4737 33.8235L12.8158 39.5588L15.9474 36.9118L20.4211 40L24 25L15.0526 33.8235L13.7105 36.0294L13.2632 32.9412L24 25Z" fill="white"/>
<path d="M42.6472 15.3257C42.9867 12.5852 41.0402 10.0884 38.2998 9.74896L25.9324 8.21706C23.1919 7.87761 20.6951 9.82403 20.3557 12.5645L19.7494 17.4591C19.41 20.1996 21.3564 22.6964 24.0969 23.0359L31.5807 23.9629C31.7166 23.9797 31.8476 24.0242 31.9655 24.0937L36.46 26.7425C37.0801 27.1079 37.8716 26.7182 37.9601 26.0039L38.0443 25.3242C38.0821 25.0192 38.36 24.8026 38.665 24.8403C40.19 25.0292 41.5794 23.9461 41.7683 22.421L42.6472 15.3257Z" fill="#48C5A1"/>
<path d="M29.3334 12.0676C29.3797 11.6945 29.7195 11.4296 30.0926 11.4758L38.8741 12.5635C39.2472 12.6097 39.5122 12.9496 39.466 13.3227C39.4197 13.6957 39.0798 13.9607 38.7068 13.9145L29.9253 12.8268C29.5522 12.7806 29.2872 12.4407 29.3334 12.0676Z" fill="white"/>
<path fill-rule="evenodd" clip-rule="evenodd" d="M24.0364 6.91231L36.4038 8.4442C38.9798 8.76329 40.8094 11.1103 40.4904 13.6863L39.6115 20.7817C39.4429 22.1423 38.2033 23.1087 36.8427 22.9401C36.3733 22.882 35.9456 23.2154 35.8874 23.6848L35.8032 24.3645C35.7413 24.8646 35.1872 25.1374 34.7531 24.8815L30.2587 22.2328C30.1054 22.1424 29.9351 22.0845 29.7585 22.0626L22.2746 21.1357C19.6986 20.8166 17.8689 18.4696 18.188 15.8935L18.7943 10.9989C19.1134 8.42286 21.4603 6.59323 24.0364 6.91231ZM36.4406 8.14648C39.1811 8.48593 41.1275 10.9827 40.7881 13.7232L39.9092 20.8186C39.7203 22.3436 38.3309 23.4268 36.8058 23.2379C36.5008 23.2001 36.2229 23.4167 36.1852 23.7217L36.101 24.4014C36.0125 25.1157 35.221 25.5055 34.6008 25.14L30.1064 22.4913C29.9885 22.4218 29.8575 22.3772 29.7216 22.3604L22.2377 21.4334C19.4973 21.0939 17.5508 18.5971 17.8903 15.8567L18.4966 10.962C18.836 8.22155 21.3328 6.27513 24.0733 6.61459L36.4406 8.14648Z" fill="white"/>
<path d="M32.8007 17.2981C32.8469 16.9251 33.1868 16.6601 33.5599 16.7063L38.2884 17.292C38.6615 17.3382 38.9264 17.6781 38.8802 18.0512C38.834 18.4242 38.4941 18.6892 38.1211 18.643L33.3926 18.0573C33.0195 18.0111 32.7545 17.6712 32.8007 17.2981Z" fill="white"/>
</g>
</svg>
