<svg width="148" height="149" xmlns="http://www.w3.org/2000/svg"><g fill="none" fill-rule="evenodd"><path d="M147.815 74.244c0 40.768-33.048 73.815-73.815 73.815-40.767 0-73.815-33.047-73.815-73.815C.185 33.477 33.233.429 74 .429c40.767 0 73.815 33.048 73.815 73.815" fill="#DAEBFF"/><path d="M136.342 41.798H123.97c1.218-2.306 3.524-3.879 6.183-3.943a.134.134 0 01.033 0c2.652.061 4.95 1.637 6.157 3.943" fill="#000838"/><path d="M130.128 37.853a6.222 6.222 0 00-6.222 6.222v62.203H78.718V44.075a6.222 6.222 0 016.222-6.222h45.188" fill="#007FFF"/><path fill="#FFF" d="M68.292 110.269h50.279v-65.85h-50.28z"/><path d="M103.138 55.112c-.598 0-1.083.486-1.083 1.083v7.592c0 .597.485 1.082 1.083 1.082h7.591c.598 0 1.083-.485 1.083-1.082v-7.592c0-.597-.485-1.083-1.083-1.083h-7.591zm7.591 10.401h-7.591a1.728 1.728 0 01-1.727-1.726v-7.592c0-.952.774-1.727 1.727-1.727h7.591c.953 0 1.727.775 1.727 1.727v7.592c0 .952-.774 1.726-1.727 1.726zM103.138 71.716c-.598 0-1.083.486-1.083 1.083v7.592c0 .597.485 1.083 1.083 1.083h7.591c.598 0 1.083-.486 1.083-1.083v-7.592c0-.597-.485-1.083-1.083-1.083h-7.591zm7.591 10.401h-7.591a1.727 1.727 0 01-1.727-1.726v-7.592c0-.952.774-1.726 1.727-1.726h7.591c.953 0 1.727.774 1.727 1.726v7.592c0 .953-.774 1.726-1.727 1.726zM103.138 88.321c-.598 0-1.083.486-1.083 1.083v7.592c0 .597.485 1.083 1.083 1.083h7.591c.598 0 1.083-.486 1.083-1.083v-7.592c0-.597-.485-1.083-1.083-1.083h-7.591zm7.591 10.401h-7.591a1.728 1.728 0 01-1.727-1.726v-7.592c0-.953.774-1.726 1.727-1.726h7.591c.953 0 1.727.773 1.727 1.726v7.592c0 .951-.774 1.726-1.727 1.726z" fill="#000838"/><path d="M106.15 62.465a.836.836 0 01-.741-.449l-1.71-3.263a.836.836 0 111.483-.777l.96 1.835 4.393-8.547a.837.837 0 111.488.765l-5.129 9.982a.838.838 0 01-.741.454h-.003M106.15 79.785h-.024a.838.838 0 01-.717-.448l-1.71-3.264a.837.837 0 011.483-.776l1.017 1.942 4.363-7.271a.836.836 0 111.434.86l-5.129 8.551a.834.834 0 01-.717.406" fill="#FD6679"/><path d="M94.763 57.688h-19.52a.322.322 0 010-.643h19.52a.322.322 0 010 .643M94.763 61.827h-19.52a.322.322 0 010-.644h19.52a.322.322 0 010 .644M94.763 73.864h-19.52a.322.322 0 010-.644h19.52a.322.322 0 010 .644M94.763 78.002h-19.52a.322.322 0 010-.644h19.52a.322.322 0 010 .644M94.763 91.183h-19.52a.322.322 0 010-.643h19.52a.322.322 0 010 .643M87.605 95.322H75.242a.322.322 0 010-.643h12.363a.321.321 0 110 .643" fill="#000838"/><path d="M131.238 101.367l-22.68 21.59a12.24 12.24 0 01-9.743 4.836H72.23a7.688 7.688 0 00-7.334 5.377l-4.388 13.658a73.443 73.443 0 01-30.784-13.517l34.45-28.781a13.745 13.745 0 018.653-3.067h25.561v.601a5.056 5.056 0 01-3.91 4.925l-10.08 2.341c-.4.093-.333.681.078.681h22.118l13.327-11.567a7.906 7.906 0 015.189-1.939h1.43c.866 0 1.358.992.833 1.682l-.958 1.261a7.897 7.897 0 012.383-.368h1.526c1.197 0 1.78 1.461.914 2.287" fill="#D7ABB0"/><path d="M109.956 121.61a.322.322 0 01-.254-.52l16.716-21.496a.322.322 0 11.508.395l-16.715 21.496a.32.32 0 01-.255.125M95.304 104.473a2.647 2.647 0 01-2.644-2.644.322.322 0 01.643 0c0 1.103.899 2 2 2 1.104 0 2.001-.897 2.001-2a.322.322 0 01.644 0 2.647 2.647 0 01-2.644 2.644" fill="#000838"/><path d="M124.472 101.844a.322.322 0 01-.276-.158 2.65 2.65 0 01.235-3.03 2.655 2.655 0 012.704-.879.323.323 0 01-.162.623 2.01 2.01 0 00-2.046.665 2.006 2.006 0 00-.178 2.293.323.323 0 01-.277.486M127.942 104.267a.323.323 0 01-.3-.205 2.648 2.648 0 01.72-2.953 2.655 2.655 0 012.81-.431.322.322 0 01-.259.59 2.008 2.008 0 00-2.127.325 2.007 2.007 0 00-.545 2.235.32.32 0 01-.3.44M20.844 4.344a2.456 2.456 0 00-2.454 2.453V28.23c0 4.569 1.841 5.817 5.51 8.304.384.26.785.533 1.203.821l7.143 4.942a.623.623 0 01.067.053 4.56 4.56 0 011.476 3.37 4.56 4.56 0 01-1.476 3.37.639.639 0 01-.067.053l-7.143 4.942c-4.548 3.146-6.713 5.506-6.713 10.413V84.64c0 1.353 1.101 2.453 2.454 2.453H53.4c1.353 0 2.454-1.1 2.454-2.453V64.497c0-4.907-2.165-7.267-6.712-10.413l-7.144-4.942a.667.667 0 01-.067-.053 4.56 4.56 0 01-1.476-3.37 4.56 4.56 0 011.476-3.37.65.65 0 01.067-.053l7.144-4.942c.417-.288.818-.56 1.203-.821 3.668-2.487 5.509-3.735 5.509-8.304V6.797c0-1.353-1.101-2.453-2.454-2.453H20.844zM53.4 88.382H20.844a3.746 3.746 0 01-3.741-3.741V64.497c0-5.97 3.15-8.624 7.267-11.472l7.107-4.916a3.272 3.272 0 001.025-2.39c0-.912-.373-1.78-1.025-2.39l-7.107-4.916c-.414-.286-.812-.556-1.193-.815-3.658-2.48-6.074-4.118-6.074-9.37V6.799a3.745 3.745 0 013.741-3.742H53.4a3.745 3.745 0 013.741 3.741V28.23c0 5.251-2.416 6.89-6.074 9.37-.381.258-.78.528-1.193.814l-7.107 4.916a3.271 3.271 0 00-1.025 2.39c0 .912.373 1.78 1.025 2.39l7.107 4.916c4.117 2.848 7.267 5.502 7.267 11.472V84.64a3.746 3.746 0 01-3.74 3.74zM59.498 91.442H14.745a.644.644 0 010-1.287h44.753a.644.644 0 010 1.287M58.96 1.283H15.284a.644.644 0 110-1.288h43.674a.644.644 0 010 1.288" fill="#000838"/><path d="M25.545 18.49a.612.612 0 11-1.225 0 .612.612 0 011.225 0M28.248 18.49a.612.612 0 11-1.224 0 .612.612 0 011.224 0M30.952 18.49a.612.612 0 11-1.225 0 .612.612 0 011.225 0M33.655 18.49a.612.612 0 11-1.224 0 .612.612 0 011.224 0M36.359 18.49a.612.612 0 11-1.225 0 .612.612 0 011.225 0M39.062 18.49a.612.612 0 11-1.224 0 .612.612 0 011.224 0M41.766 18.49a.612.612 0 11-1.224 0 .612.612 0 011.224 0M44.47 18.49a.612.612 0 11-1.225 0 .612.612 0 011.224 0M47.173 18.49a.612.612 0 11-1.224 0 .612.612 0 011.224 0M49.876 18.49a.612.612 0 11-1.224 0 .612.612 0 011.224 0M24.193 20.689a.612.612 0 11-1.224 0 .612.612 0 011.224 0M26.896 20.689a.612.612 0 11-1.224 0 .612.612 0 011.224 0M29.6 20.689a.612.612 0 11-1.224 0 .612.612 0 011.224 0M32.304 20.689a.612.612 0 11-1.225 0 .612.612 0 011.225 0M35.007 20.689a.612.612 0 11-1.224 0 .612.612 0 011.224 0M37.71 20.689a.612.612 0 11-1.224 0 .612.612 0 011.225 0M40.414 20.689a.612.612 0 11-1.224 0 .612.612 0 011.224 0M43.118 20.689a.612.612 0 11-1.224 0 .612.612 0 011.224 0M45.821 20.689a.612.612 0 11-1.224 0 .612.612 0 011.224 0M48.525 20.689a.612.612 0 11-1.224 0 .612.612 0 011.224 0M51.228 20.689a.612.612 0 11-1.224 0 .612.612 0 011.224 0M22.841 22.887a.612.612 0 11-1.224 0 .612.612 0 011.224 0M25.545 22.887a.612.612 0 11-1.225 0 .612.612 0 011.225 0M28.248 22.887a.612.612 0 11-1.224 0 .612.612 0 011.224 0M30.952 22.887a.612.612 0 11-1.225 0 .612.612 0 011.225 0M33.655 22.887a.612.612 0 11-1.224 0 .612.612 0 011.224 0M36.359 22.887a.612.612 0 11-1.225 0 .612.612 0 011.225 0M39.062 22.887a.612.612 0 11-1.224 0 .612.612 0 011.224 0M41.766 22.887a.612.612 0 11-1.224 0 .612.612 0 011.224 0M44.47 22.887a.612.612 0 11-1.225 0 .612.612 0 011.224 0M47.173 22.887a.612.612 0 11-1.224 0 .612.612 0 011.224 0M49.876 22.887a.612.612 0 11-1.224 0 .612.612 0 011.224 0M52.58 22.887a.612.612 0 11-1.224 0 .612.612 0 011.224 0M24.193 25.085a.612.612 0 11-1.224 0 .612.612 0 011.224 0M26.896 25.085a.612.612 0 11-1.224 0 .612.612 0 011.224 0M29.6 25.085a.612.612 0 11-1.224 0 .612.612 0 011.224 0M32.304 25.085a.612.612 0 11-1.225 0 .612.612 0 011.225 0M35.007 25.085a.612.612 0 11-1.224 0 .612.612 0 011.224 0M37.71 25.085a.612.612 0 11-1.224 0 .612.612 0 011.225 0M40.414 25.085a.612.612 0 11-1.224 0 .612.612 0 011.224 0M43.118 25.085a.612.612 0 11-1.225 0 .612.612 0 011.225 0M45.821 25.085a.612.612 0 11-1.224 0 .612.612 0 011.224 0M48.525 25.085a.612.612 0 11-1.225 0 .612.612 0 011.225 0M51.228 25.085a.612.612 0 11-1.224 0 .612.612 0 011.224 0M22.841 27.284a.612.612 0 11-1.224 0 .612.612 0 011.224 0M25.545 27.284a.612.612 0 11-1.225 0 .612.612 0 011.225 0M28.248 27.284a.612.612 0 11-1.224 0 .612.612 0 011.224 0M30.952 27.284a.612.612 0 11-1.225 0 .612.612 0 011.225 0M33.655 27.284a.612.612 0 11-1.224 0 .612.612 0 011.224 0M36.359 27.284a.612.612 0 11-1.225 0 .612.612 0 011.225 0M39.062 27.284a.612.612 0 11-1.224 0 .612.612 0 011.224 0M41.766 27.284a.612.612 0 11-1.224 0 .612.612 0 011.224 0M44.47 27.284a.612.612 0 11-1.225 0 .612.612 0 011.224 0M47.173 27.284a.612.612 0 11-1.224 0 .612.612 0 011.224 0M49.876 27.284a.612.612 0 11-1.224 0 .612.612 0 011.224 0M52.58 27.284a.612.612 0 11-1.224 0 .612.612 0 011.224 0M24.193 29.482a.612.612 0 11-1.224 0 .612.612 0 011.224 0M26.896 29.482a.612.612 0 11-1.224 0 .612.612 0 011.224 0M29.6 29.482a.612.612 0 11-1.224 0 .612.612 0 011.224 0M32.304 29.482a.612.612 0 11-1.225 0 .612.612 0 011.225 0M35.007 29.482a.612.612 0 11-1.224 0 .612.612 0 011.224 0M37.71 29.482a.612.612 0 11-1.224 0 .612.612 0 011.225 0M40.414 29.482a.612.612 0 11-1.224 0 .612.612 0 011.224 0M43.118 29.482a.612.612 0 11-1.225 0 .612.612 0 011.225 0M45.821 29.482a.612.612 0 11-1.224 0 .612.612 0 011.224 0M48.525 29.482a.612.612 0 11-1.225 0 .612.612 0 011.225 0M51.228 29.482a.612.612 0 11-1.224 0 .612.612 0 011.224 0M25.545 31.68a.612.612 0 11-1.225 0 .612.612 0 011.225 0M28.248 31.68a.612.612 0 11-1.224 0 .612.612 0 011.224 0M30.952 31.68a.612.612 0 11-1.225 0 .612.612 0 011.225 0M33.655 31.68a.612.612 0 11-1.224 0 .612.612 0 011.224 0M36.359 31.68a.612.612 0 11-1.225 0 .612.612 0 011.225 0M39.062 31.68a.612.612 0 11-1.224 0 .612.612 0 011.224 0M41.766 31.68a.612.612 0 11-1.224 0 .612.612 0 011.224 0M44.47 31.68a.612.612 0 11-1.225 0 .612.612 0 011.224 0M47.173 31.68a.612.612 0 11-1.224 0 .612.612 0 011.224 0M49.876 31.68a.612.612 0 11-1.224 0 .612.612 0 011.224 0M26.896 33.88a.612.612 0 11-1.224 0 .612.612 0 011.224 0M29.6 33.88a.612.612 0 11-1.224 0 .612.612 0 011.224 0M32.304 33.88a.612.612 0 11-1.225 0 .612.612 0 011.225 0M35.007 33.88a.612.612 0 11-1.224 0 .612.612 0 011.224 0M37.71 33.88a.612.612 0 11-1.224 0 .612.612 0 011.225 0M40.414 33.88a.612.612 0 11-1.224 0 .612.612 0 011.224 0M43.118 33.88a.612.612 0 11-1.225 0 .612.612 0 011.225 0M45.821 33.88a.612.612 0 11-1.224 0 .612.612 0 011.224 0M48.525 33.88a.612.612 0 11-1.225 0 .612.612 0 011.225 0M30.952 36.078a.612.612 0 11-1.225 0 .612.612 0 011.225 0M33.655 36.078a.612.612 0 11-1.224 0 .612.612 0 011.224 0M36.359 36.078a.612.612 0 11-1.225 0 .612.612 0 011.225 0M39.062 36.078a.612.612 0 11-1.224 0 .612.612 0 011.224 0M41.766 36.078a.612.612 0 11-1.224 0 .612.612 0 011.224 0M44.47 36.078a.612.612 0 11-1.225 0 .612.612 0 011.224 0M35.007 38.276a.612.612 0 11-1.224 0 .612.612 0 011.224 0M37.71 38.276a.612.612 0 11-1.224 0 .612.612 0 011.225 0M40.414 38.276a.612.612 0 11-1.224 0 .612.612 0 011.224 0M36.359 40.475a.612.612 0 11-1.224 0 .612.612 0 011.224 0M39.062 40.475a.612.612 0 11-1.224 0 .612.612 0 011.224 0M37.71 42.673a.612.612 0 11-1.224 0 .612.612 0 011.225 0M51.42 83.87a.612.612 0 111.225-.001.612.612 0 01-1.225 0M48.717 83.87a.612.612 0 111.224-.001.612.612 0 01-1.224 0M46.013 83.87a.612.612 0 111.225-.001.612.612 0 01-1.225 0M43.31 83.87a.612.612 0 111.224-.001.612.612 0 01-1.224 0M40.606 83.87a.612.612 0 111.225-.001.612.612 0 01-1.225 0M37.903 83.87a.612.612 0 111.224-.001.612.612 0 01-1.224 0M35.199 83.87a.612.612 0 111.225-.001.612.612 0 01-1.225 0M32.495 83.87a.612.612 0 111.225-.001.612.612 0 01-1.225 0M29.792 83.87a.612.612 0 111.225-.001.612.612 0 01-1.225 0M27.088 83.87a.612.612 0 111.225-.001.612.612 0 01-1.225 0M24.385 83.87a.612.612 0 111.224-.001.612.612 0 01-1.224 0M21.681 83.87a.612.612 0 111.225-.001.612.612 0 01-1.225 0M50.068 81.67a.611.611 0 111.223 0 .611.611 0 01-1.223 0M47.365 81.67a.611.611 0 111.222 0 .611.611 0 01-1.222 0M44.661 81.67a.611.611 0 111.223 0 .611.611 0 01-1.223 0M41.958 81.67a.611.611 0 111.222 0 .611.611 0 01-1.222 0M39.254 81.67a.611.611 0 111.223 0 .611.611 0 01-1.223 0M36.55 81.67a.611.611 0 111.223 0 .611.611 0 01-1.222 0M33.847 81.67a.611.611 0 111.223 0 .611.611 0 01-1.223 0M31.144 81.67a.611.611 0 111.222 0 .611.611 0 01-1.222 0M28.44 81.67a.611.611 0 111.223 0 .611.611 0 01-1.223 0M25.737 81.67a.611.611 0 111.222 0 .611.611 0 01-1.222 0M23.033 81.67a.611.611 0 111.222 0 .611.611 0 01-1.222 0M48.717 79.472a.612.612 0 111.224 0 .612.612 0 01-1.224 0M46.013 79.472a.612.612 0 111.224 0 .612.612 0 01-1.224 0M43.31 79.472a.612.612 0 111.224 0 .612.612 0 01-1.224 0M40.606 79.472a.612.612 0 111.224 0 .612.612 0 01-1.224 0M37.903 79.472a.612.612 0 111.224 0 .612.612 0 01-1.224 0M35.199 79.472a.612.612 0 111.224 0 .612.612 0 01-1.224 0M32.495 79.472a.612.612 0 111.224 0 .612.612 0 01-1.224 0M29.792 79.472a.612.612 0 111.224 0 .612.612 0 01-1.224 0M27.088 79.472a.612.612 0 111.224 0 .612.612 0 01-1.224 0M44.661 77.274a.612.612 0 111.225 0 .612.612 0 01-1.225 0M41.958 77.274a.612.612 0 111.224 0 .612.612 0 01-1.224 0M39.254 77.274a.612.612 0 111.225 0 .612.612 0 01-1.225 0M36.55 77.274a.612.612 0 111.225 0 .612.612 0 01-1.224 0M33.847 77.274a.612.612 0 111.225 0 .612.612 0 01-1.225 0M31.144 77.274a.612.612 0 111.224 0 .612.612 0 01-1.224 0M43.31 75.075a.612.612 0 111.224 0 .612.612 0 01-1.224 0M40.606 75.075a.612.612 0 111.225 0 .612.612 0 01-1.225 0M37.903 75.075a.612.612 0 111.224 0 .612.612 0 01-1.224 0M35.199 75.075a.612.612 0 111.225 0 .612.612 0 01-1.225 0M32.495 75.075a.612.612 0 111.225 0 .612.612 0 01-1.225 0M39.254 72.877a.612.612 0 111.224 0 .612.612 0 01-1.224 0M36.55 72.877a.612.612 0 111.225 0 .612.612 0 01-1.224 0M37.903 70.678a.612.612 0 111.224 0 .612.612 0 01-1.224 0M36.359 44.872a.612.612 0 11-1.224 0 .612.612 0 011.224 0M37.131 51.438a.612.612 0 11-1.224 0 .612.612 0 011.224 0M37.131 56.716a.612.612 0 11-1.224 0 .612.612 0 011.224 0M37.131 61.994a.612.612 0 11-1.224 0 .612.612 0 011.224 0M38.547 59.934a.612.612 0 11-1.224 0 .612.612 0 011.224 0M38.547 66.5a.612.612 0 11-1.224 0 .612.612 0 011.224 0M38.419 53.24a.612.612 0 11-1.224 0 .612.612 0 011.224 0M37.775 46.16a.612.612 0 11-1.224 0 .612.612 0 011.224 0M37.71 48.358a.612.612 0 11-1.224 0 .612.612 0 011.225 0" fill="#000838"/></g></svg>