<svg width="200" height="217" xmlns="http://www.w3.org/2000/svg"><g fill="none" fill-rule="evenodd"><path d="M199.717 116.93c0 55.072-44.646 99.717-99.717 99.717-55.072 0-99.716-44.645-99.716-99.717 0-55.072 44.644-99.716 99.716-99.716 55.071 0 99.717 44.644 99.717 99.716" fill="#C3F3F5"/><path d="M71.847 175.094c1.508-7.153.12-16.287-3.885-22.19l-3.32-4.897c-4.245-6.257.238-14.715 7.8-14.715h2.219c5.118.538 9.422 5.07 9.8 10.226l.209-2.076a10.492 10.492 0 018.55-9.273l-.142.007c39.938-6.404 56.82-38.033 56.82-38.033a40.729 40.729 0 015.232 20.001v24.225c0 4.8 1.764 9.43 4.957 13.012l2.737 3.071c1.23 1.376.66 3.557-1.186 3.557-1.433 0-3.139.58-4.08 1.52a5.173 5.173 0 00-1.52 3.676v12.952c0 5.66-4.601 10.243-10.264 10.22l-15.358-.062v25.607c-9.588 3.068-19.809 4.723-30.416 4.723-12.805 0-25.045-2.414-36.294-6.81l8.141-34.741" fill="#94545C"/><path d="M63.706 209.831c-29.908-11.688-52.788-37.405-60.555-69.059a49.028 49.028 0 0120.623-4.515c5.476 0 10.744.894 15.666 2.545a52.104 52.104 0 01-2.9-17.098c0-15.302 6.66-28.817 16.53-38.51 12.947-12.716 32.118-18.844 51.544-13.777l19.977 5.207a40.801 40.801 0 0124.072 17.465l1.234 2.054s-16.881 31.63-56.819 38.033l.141-.007a10.492 10.492 0 00-8.55 9.273l-.208 2.076c-.378-5.156-4.682-9.688-9.8-10.226h-2.22c-7.561 0-12.044 8.458-7.8 14.715l3.32 4.897c3.975 5.858 5.373 14.898 3.919 22.028l-8.174 34.9" fill="#FD6679"/><path d="M130.416 186.315c-16.409-2.425-21.863-6-21.863-6l21.863 18.875v-12.875" fill="#000838"/><path d="M169.59 125.807c-5.173 0-9.381 5.316-9.381 11.85s4.208 11.85 9.38 11.85c5.174 0 9.383-5.316 9.383-11.85s-4.209-11.85-9.382-11.85zm0 24.916c-5.844 0-10.599-5.86-10.599-13.066 0-7.207 4.755-13.067 10.599-13.067 5.845 0 10.6 5.86 10.6 13.067 0 7.206-4.755 13.066-10.6 13.066zM136.186 124.68c-7.056 0-12.795 5.74-12.795 12.797 0 7.053 5.74 12.794 12.795 12.794 7.056 0 12.797-5.74 12.797-12.794 0-7.056-5.741-12.797-12.797-12.797zm0 26.809c-7.727 0-14.012-6.286-14.012-14.012 0-7.727 6.285-14.014 14.012-14.014s14.014 6.287 14.014 14.014c0 7.726-6.287 14.012-14.014 14.012z" fill="#F5B500"/><path d="M78.428 145.344a.521.521 0 01-.522-.521 4.44 4.44 0 00-4.435-4.435.521.521 0 110-1.044 5.485 5.485 0 015.479 5.479.521.521 0 01-.522.521M142.929 137.998a.523.523 0 01-.444-.245 7.384 7.384 0 00-6.297-3.492 7.384 7.384 0 00-6.3 3.492.523.523 0 01-.885-.555 8.429 8.429 0 017.185-3.98 8.428 8.428 0 017.182 3.98.523.523 0 01-.441.8" fill="#000838"/><path d="M136.188 134.26a.521.521 0 01-.522-.52v-2.177a.521.521 0 111.044 0v2.176a.521.521 0 01-.522.522M138.753 134.475a.52.52 0 01-.468-.751l.856-1.748a.521.521 0 11.937.457l-.855 1.75a.523.523 0 01-.47.292M141.32 135.758a.523.523 0 01-.4-.857l1.283-1.534a.521.521 0 11.8.67l-1.281 1.533a.525.525 0 01-.402.188M131.27 135.758a.525.525 0 01-.402-.188l-1.284-1.533a.523.523 0 01.802-.67l1.284 1.534a.523.523 0 01-.4.857M133.835 134.475a.52.52 0 01-.468-.292l-.856-1.75a.522.522 0 11.938-.457l.855 1.747a.522.522 0 01-.47.752" fill="#000838"/><path d="M149.958 53.18l-8.772 46.04a.524.524 0 01-.61.413.521.521 0 01-.416-.609l8.772-46.038a.909.909 0 00-.892-1.08h-3.588l-8.996 47.216h-71.35L55.11 51.906h-3.588a.909.909 0 00-.892 1.08l8.772 46.038a.521.521 0 01-1.026.195l-8.773-46.038c-.11-.574.042-1.16.414-1.61.373-.451.92-.708 1.505-.708h3.864c2.863-3.541 12.365-7.61 23.647-7.61 8.736 0 16.404 3.232 20.748 5.48 4.344-2.248 12.012-5.48 20.748-5.48 11.281 0 20.784 4.069 23.647 7.61h3.864c.583 0 1.132.257 1.504.707.373.45.524 1.037.414 1.61" fill="#FFF"/><path d="M99.78 99.034a.435.435 0 01-.434-.435V48.733a.435.435 0 11.87 0v49.866c0 .24-.195.435-.435.435" fill="#000838"/><path d="M100.395 99.121H64.118c3.02-3.152 10.005-5.36 18.137-5.36 8.134 0 15.118 2.208 18.14 5.36" fill="#000838"/><path d="M135.525 99.121H99.248c3.022-3.152 10.006-5.36 18.138-5.36 8.134 0 15.118 2.208 18.14 5.36" fill="#000838"/><path d="M119.393 41.522c.045 6.151-2.743 11.653-7.136 15.278-2.93 2.418-4.574 6.06-4.574 9.86v3.93c0 3.577-2.899 6.476-6.476 6.476h-2.853a6.477 6.477 0 01-6.476-6.476v-3.931c0-3.86-1.75-7.487-4.704-9.969-4.284-3.597-7.007-8.992-7.007-15.024 0-10.922 8.928-19.759 19.887-19.61 10.617.143 19.264 8.847 19.339 19.466" fill="#FDD042"/><path d="M99.78 22.575a18.956 18.956 0 00-13.408 5.5 18.953 18.953 0 00-5.683 13.59 19.057 19.057 0 006.82 14.626c3.108 2.61 4.89 6.388 4.89 10.368v3.93a5.961 5.961 0 005.955 5.956h2.853a5.962 5.962 0 005.955-5.955v-3.93c0-4.025 1.735-7.765 4.763-10.263a19.028 19.028 0 006.946-14.871c-.073-10.31-8.518-18.81-18.824-18.95l-.267-.001zm1.427 55.013h-2.853a7.006 7.006 0 01-6.998-6.998v-3.931c0-3.67-1.647-7.158-4.518-9.57a20.099 20.099 0 01-7.193-15.423 19.99 19.99 0 015.994-14.333 19.994 19.994 0 0114.422-5.8c10.87.148 19.777 9.113 19.854 19.985a20.064 20.064 0 01-7.327 15.684c-2.785 2.299-4.383 5.746-4.383 9.458v3.93a7.006 7.006 0 01-6.998 6.998z" fill="#FFF"/><path d="M86.43 35.767a.696.696 0 01-.63-.99 14.942 14.942 0 019.365-8.043.695.695 0 11.389 1.336 13.55 13.55 0 00-8.492 7.295.696.696 0 01-.631.402M84.81 42.691a.696.696 0 01-.695-.696c0-.716.054-1.44.158-2.15a.695.695 0 111.376.2 13.58 13.58 0 00-.143 1.951.696.696 0 01-.695.695" fill="#FFF"/><path d="M104.897 80.308H94.664a.609.609 0 110-1.217h10.233a.609.609 0 010 1.217M104.897 82.947H94.664a.609.609 0 110-1.217h10.233a.609.609 0 010 1.217M102.943 85.587h-6.324a.608.608 0 110-1.217h6.324a.609.609 0 010 1.217" fill="#FDD042"/><path d="M99.863 43.053a4.05 4.05 0 01-2.873-1.188l-.32-.32a3.024 3.024 0 00-4.272 0 .522.522 0 11-.737-.738 4.068 4.068 0 015.746 0l.32.32a3.023 3.023 0 004.271 0l.157-.156a4.036 4.036 0 012.873-1.19c1.085 0 2.106.423 2.873 1.19a.522.522 0 01-.738.738 3.003 3.003 0 00-2.135-.884 3 3 0 00-2.136.884l-.156.156a4.051 4.051 0 01-2.873 1.188M99.766 10.82a.87.87 0 01-.87-.87V1.615a.87.87 0 011.739 0V9.95c0 .48-.39.87-.87.87M112.089 12.746a.867.867 0 01-.719-1.358l4.14-6.099a.87.87 0 011.438.977l-4.14 6.099a.87.87 0 01-.72.38M87.65 12.746a.869.869 0 01-.72-.381l-4.14-6.1a.87.87 0 111.438-.976l4.14 6.099a.87.87 0 01-.718 1.358" fill="#000838"/></g></svg>