<svg width="600" height="600" xmlns="http://www.w3.org/2000/svg"><g fill="none" fill-rule="evenodd"><g transform="translate(131.413 59)" fill-rule="nonzero"><path fill="#FFCF2D" d="M271.673 13.933l36.599 35.34 36.784 199.222H.018z"/><path d="M308.586 48.996l-36.71-35.452 6.14-6.383c9.044-9.4 25.337-8.327 34.731.703 9.395 9.048 11.041 25.349 1.998 34.748l-6.159 6.384z" fill="#FFF"/><path d="M308.605 49.791l-37.506-36.228 6.529-6.79c4.401-4.59 10.67-6.977 17.643-6.736 6.695.24 13.204 2.942 17.865 7.42 4.66 4.477 7.6 10.898 8.081 17.596.5 6.976-1.664 13.34-6.065 17.93l-6.547 6.808zm-35.952-36.247l35.915 34.675 5.77-5.977c4.198-4.348 6.232-10.417 5.751-17.078-.462-6.439-3.273-12.582-7.748-16.875-4.476-4.292-10.708-6.883-17.126-7.105-6.657-.24-12.63 2.036-16.81 6.384l-5.752 5.976z" fill="#FFCF2D"/><path d="M314.726 43.167a.597.597 0 01-.388-.148L277.609 7.568a.553.553 0 010-.777.566.566 0 01.759-.019l36.747 35.452a.553.553 0 01.018.777.574.574 0 01-.407.166z" fill="#FFCF2D"/><path d="M385.668 247.534a.546.546 0 01-.555-.556c0-.074.019-.148.056-.222l51.505-114.94L335.975 9.176V9.16c-3.883-5.273-11.318-6.402-16.588-2.516-.056.037-.111.092-.167.13l-4.105 3.145a.564.564 0 01-.777-.148.566.566 0 01.092-.74l4.106-3.146c5.696-4.367 13.833-3.275 18.198 2.405.037.056.092.111.13.185L437.986 131.63l-.148.315L386.186 247.2c-.093.203-.296.351-.518.334z" fill="#3FB1B5"/><ellipse fill="#FFF" cx="435.675" cy="132.333" rx="5.659" ry="5.662"/><path d="M435.675 138.55a6.205 6.205 0 01-6.214-6.217 6.205 6.205 0 016.214-6.217 6.205 6.205 0 016.214 6.217 6.205 6.205 0 01-6.214 6.217zm0-11.324a5.116 5.116 0 00-5.104 5.107 5.116 5.116 0 005.104 5.107 5.116 5.116 0 005.104-5.107c0-2.812-2.293-5.088-5.104-5.107z" fill="#FFCF2D"/><path d="M371.317 234.1h27.574c7.934 0 14.351 6.42 14.351 14.358v.407h-56.295v-.407c.019-7.92 6.436-14.34 14.37-14.359z" fill="#FFF"/><path d="M413.797 249.42h-57.404v-.962c.018-8.234 6.694-14.895 14.924-14.914h27.574c8.23.019 14.888 6.68 14.906 14.914v.962zm-56.295-1.11h55.185c-.092-7.568-6.232-13.655-13.796-13.655h-27.574c-7.564.018-13.704 6.106-13.815 13.655z" fill="#FFCF2D"/></g><g fill-rule="nonzero"><path d="M368.445 266.06H194.437c-6.526 0-11.835-5.33-11.835-11.904V131.535c0-6.574 5.29-11.922 11.817-11.922h174.026c6.526 0 11.836 5.33 11.836 11.904v122.602c.018 6.574-5.273 11.922-11.799 11.94h-.037z" fill="#FFF"/><path d="M368.445 266.617H194.437c-6.84 0-12.388-5.59-12.388-12.48V131.535c0-6.89 5.549-12.48 12.388-12.48h174.008c6.84 0 12.389 5.59 12.389 12.48V254.12c.018 6.89-5.512 12.48-12.352 12.498h-.037zM194.437 120.17c-6.23 0-11.282 5.088-11.282 11.365v122.602c0 6.277 5.051 11.366 11.282 11.366h174.008c6.231 0 11.283-5.089 11.283-11.347V131.535c0-6.277-5.052-11.365-11.283-11.365H194.437z" fill="#3FB1B5"/><path d="M368.556 254.657h-172.33c-2.563 0-4.628-2.08-4.628-4.66V132.704c0-2.581 2.065-4.661 4.627-4.661h172.331c2.562 0 4.627 2.08 4.627 4.661v117.273c.019 2.562-2.046 4.66-4.59 4.68h-.037z" fill="#5A9DFF"/><path d="M368.556 255.215h-172.33c-2.858 0-5.18-2.34-5.18-5.219V132.705c0-2.878 2.322-5.218 5.18-5.218h172.33c2.857 0 5.18 2.34 5.18 5.218v117.273c.019 2.878-2.286 5.218-5.143 5.237h-.037zM196.226 128.6c-2.25 0-4.075 1.838-4.075 4.104v117.291c0 2.266 1.825 4.104 4.074 4.104h172.331c2.25 0 4.074-1.838 4.074-4.085v-117.31c0-2.266-1.825-4.104-4.074-4.104h-172.33z" fill="#5A9DFF"/><path d="M202.401 139.558h-2.728a2.187 2.187 0 01-2.176-2.192v-2.748c0-1.207.978-2.192 2.176-2.192h2.728c1.198 0 2.176.985 2.176 2.192v2.748a2.176 2.176 0 01-2.176 2.192zm-2.728-6.017c-.59 0-1.07.483-1.07 1.077v2.748c0 .594.48 1.077 1.07 1.077h2.728c.59 0 1.07-.483 1.07-1.095v-2.73c0-.594-.48-1.077-1.07-1.077h-2.728zM214.808 139.558h-2.728a2.187 2.187 0 01-2.176-2.192v-2.748c0-1.207.977-2.192 2.176-2.192h2.728c1.198 0 2.175.985 2.175 2.192v2.748a2.176 2.176 0 01-2.175 2.192zm-2.728-6.017c-.59 0-1.07.483-1.07 1.077v2.748c0 .594.48 1.077 1.07 1.077h2.728c.59 0 1.07-.483 1.07-1.077v-2.748c0-.594-.48-1.077-1.07-1.077h-2.728zM227.215 139.558h-2.729a2.187 2.187 0 01-2.175-2.192v-2.748c0-1.207.977-2.192 2.175-2.192h2.729c1.198 0 2.175.985 2.175 2.192v2.748a2.176 2.176 0 01-2.175 2.192zm-2.729-6.017c-.59 0-1.069.483-1.069 1.077v2.748c0 .594.48 1.077 1.07 1.077h2.728c.59 0 1.069-.464 1.069-1.058V134.618c0-.594-.48-1.077-1.07-1.077h-2.728zM318.173 307.862h-67.546l13.255-41.802H304.9z" fill="#FFF"/><path d="M318.929 308.419h-69.058l13.605-42.916h41.83l13.623 42.916zm-67.546-1.114h66.034l-12.923-40.688h-40.206l-12.905 40.688z" fill="#3FB1B5"/><path fill="#3FB1B5" d="M255.936 291.13l7.946-25.07H304.9z"/><path d="M358.527 167.06h-32.832c-3.374 0-6.12-2.767-6.12-6.165v-21.356c0-3.398 2.746-6.165 6.12-6.165h32.832c3.374 0 6.12 2.767 6.12 6.165v21.356c0 3.417-2.746 6.165-6.12 6.165zm-32.832-32.572c-2.766 0-5.015 2.265-5.015 5.051v21.356c0 2.786 2.25 5.051 5.015 5.051h32.832c2.766 0 5.015-2.265 5.015-5.051v-21.356c0-2.786-2.25-5.051-5.015-5.051h-32.832z" fill="#FFF"/><path d="M354.564 142.102H329.51a.545.545 0 01-.553-.557c0-.316.24-.558.553-.558h25.053c.313 0 .553.242.553.558 0 .315-.24.557-.553.557zM354.564 147.859H329.51a.545.545 0 01-.553-.558c0-.315.24-.557.553-.557h25.053c.313 0 .553.242.553.557 0 .316-.24.558-.553.558zM354.564 153.615H329.51a.545.545 0 01-.553-.557c0-.315.24-.557.553-.557h25.053c.313 0 .553.242.553.557 0 .316-.24.557-.553.557zM354.564 159.372H329.51a.545.545 0 01-.553-.557c0-.316.24-.557.553-.557h25.053c.313 0 .553.241.553.557 0 .316-.24.557-.553.557z" fill="#FFF"/><g><path d="M367.597 254.657H237.096l-7.65 11.05c-8.647 12.48-26.916 12.665-35.801.353l-46.604-64.57c1.954 2.451 10.895-.278 19.412-5.924 8.646-5.738 14.232-12.962 12.48-15.636l32.317 41.486 9.9-17.605a19.564 19.564 0 0112.443-9.23l33.681-7.186h29.035l32.003 7.113c5.568 1.281 10.287 4.94 12.96 10.01l26.325 50.14z" fill="#FFF"/><path d="M211.397 275.754c-7.208.037-14.01-3.455-18.213-9.36l-46.586-64.57.867-.687c1.567 1.969 9.881-.204 18.675-6.035 4.092-2.711 7.65-5.85 10.01-8.858 2.138-2.712 3.005-4.959 2.323-6.017l.903-.65 31.8 40.836 9.494-16.88c2.802-4.791 7.43-8.227 12.794-9.49l33.755-7.205h29.145l.056.019 32.003 7.112a20.201 20.201 0 0113.329 10.288l26.749 50.958H237.372l-7.484 10.808a22.282 22.282 0 01-18.27 9.712l-.22.019zm-62.679-72.871l45.369 62.842c4 5.609 10.453 8.933 17.31 8.896h.222a21.094 21.094 0 0017.365-9.23l7.817-11.29h129.875l-25.902-49.324c-2.599-4.94-7.19-8.487-12.59-9.73l-31.93-7.095h-28.925l-33.625 7.168a19.08 19.08 0 00-12.075 8.97l-10.305 18.329-31.58-40.558c-.258 1.393-1.16 3.139-2.71 5.088-2.433 3.083-6.083 6.314-10.268 9.081-5.844 3.863-12.867 6.909-17.052 6.909-.332.018-.664 0-.996-.056z" fill="#3FB1B5"/><path d="M331.778 254.453a.559.559 0 01-.498-.297l-9.272-18.44a.536.536 0 01.24-.743c.276-.13.608-.037.737.241l9.272 18.44a.536.536 0 01-.24.743.507.507 0 01-.239.056zM236.359 256.18a.545.545 0 01-.554-.557.66.66 0 01.056-.26l9.18-18.255c.148-.278.48-.39.738-.241.258.148.387.483.24.743l-9.181 18.254a.5.5 0 01-.48.316zM219.712 232.967a.548.548 0 01-.443-.223l-21.034-27.094a.564.564 0 01.11-.78.565.565 0 01.756.093l21.035 27.094a.561.561 0 01-.092.78.443.443 0 01-.332.13zM293.083 206.597l-8.093-9.935a.542.542 0 01.055-.78.533.533 0 01.775.056l.018.018 7.393 9.044 16.904-14.448a.533.533 0 01.775.074.543.543 0 01-.074.78l-17.753 15.191zM272.067 206.968l-19.486-15.543a.583.583 0 01-.129-.78.573.573 0 01.775-.13l.036.037 18.601 14.838 7.172-9.23a.554.554 0 01.774-.111c.24.186.295.538.11.78l-.018.018-7.835 10.121zM155.908 211.537c-1.751 0-2.655-.539-3.134-1.114a.561.561 0 01.092-.78.551.551 0 01.775.092c.774.985 3.3.929 6.747-.111 3.687-1.114 8.093-3.306 12.13-5.998 4.111-2.749 7.687-5.924 10.066-8.97 2.156-2.748 3.023-5.014 2.322-6.091a.561.561 0 01.093-.78.551.551 0 01.774.093c.018.019.037.056.055.074.996 1.542.148 4.16-2.378 7.391-2.452 3.12-6.12 6.389-10.324 9.193-4.166 2.785-8.572 4.977-12.406 6.146-2.084.613-3.65.855-4.812.855z" fill="#3FB1B5"/><path d="M179.56 193.486a2.645 2.645 0 01-2.636-2.655 2.645 2.645 0 012.636-2.656 2.645 2.645 0 012.636 2.656 2.645 2.645 0 01-2.636 2.655zm0-4.197c-.848 0-1.53.687-1.53 1.542 0 .854.682 1.541 1.53 1.541s1.53-.687 1.53-1.541c0-.836-.682-1.542-1.53-1.542zM282.428 206.671a2.645 2.645 0 01-2.637-2.655 2.645 2.645 0 012.637-2.656 2.645 2.645 0 012.636 2.656 2.645 2.645 0 01-2.636 2.655zm0-4.197c-.848 0-1.53.687-1.53 1.542 0 .854.682 1.541 1.53 1.541s1.53-.687 1.53-1.541c0-.836-.682-1.542-1.53-1.542zM282.428 223.57a2.645 2.645 0 01-2.637-2.655 2.645 2.645 0 012.637-2.656 2.645 2.645 0 012.636 2.656 2.645 2.645 0 01-2.636 2.655zm0-4.197c-.848 0-1.53.688-1.53 1.542 0 .854.682 1.541 1.53 1.541s1.53-.687 1.53-1.541c0-.836-.682-1.542-1.53-1.542zM228.782 266.598l8.314-11.94v11.94z" fill="#3FB1B5"/><g><path d="M166.25 195.009c-8.517 5.645-17.458 8.375-19.412 5.924a.564.564 0 01-.092-.13c-.406-.613-.369-1.449 0-2.47 1.272-3.361 6.526-8.56 13.2-12.98 5.309-3.529 10.544-5.98 14.176-6.742 2.101-.427 3.668-.297 4.424.52l.185.223c1.733 2.674-3.835 9.917-12.48 15.655z" fill="#FF6576"/><path d="M166.25 195.009c-4.848 3.213-9.844 5.497-13.605 6.388l-16.831-23.919c-2.341-3.324-1.567-7.948 1.751-10.306l.019-.019 15.153-10.733-8.59-14.727a4.497 4.497 0 011.567-6.128c.018 0 .018-.019.036-.019a4.391 4.391 0 012.213-.594 4.44 4.44 0 013.742 2.061l26.86 42.081.184.297c1.715 2.637-3.853 9.88-12.499 15.618z" fill="#E57281"/><path d="M157.493 177.757a3.477 3.477 0 01-2.931-1.597l-8.867-13.37a.569.569 0 01.148-.78.56.56 0 01.774.148l8.867 13.37a2.394 2.394 0 003.318.706l2.084-1.374a2.433 2.433 0 00.718-3.324l-9.383-14.652a.577.577 0 01.074-.78.569.569 0 01.774.074c.019.037.037.056.055.093l9.384 14.652a3.567 3.567 0 01-1.051 4.866l-2.083 1.374a3.192 3.192 0 01-1.88.594z" fill="#000838"/><path d="M150.617 182.195a3.565 3.565 0 01-2.95-1.578c-.147-.26-.073-.613.203-.762a.545.545 0 01.72.149 2.406 2.406 0 003.3.706l1.898-1.207a2.445 2.445 0 00.719-3.38.561.561 0 01.092-.78.551.551 0 01.774.093c.019.018.037.055.056.074a3.562 3.562 0 01-1.033 4.921s-.018 0-.018.019l-1.88 1.207a3.52 3.52 0 01-1.88.538z" fill="#000838"/><path d="M143.87 186.355a3.507 3.507 0 01-2.876-1.504l-5.051-7.131a.565.565 0 01.129-.78c.258-.186.59-.112.774.13l5.033 7.15a2.387 2.387 0 003.245.65l.036-.02 1.752-.983a2.458 2.458 0 001.069-1.523 2.438 2.438 0 00-.332-1.857l-8.683-13a.569.569 0 01.148-.78.56.56 0 01.774.15l8.683 12.998a3.532 3.532 0 01-.996 4.885c-.018.018-.055.037-.073.055l-.019.019-1.751.965a3.283 3.283 0 01-1.862.576z" fill="#000838"/><path d="M172.297 169.289l-4.406-6.89a4.774 4.774 0 00-6.618-1.467c-.037.019-.074.056-.11.074l-10.933 7.466s3.17 5.738 10.877 1.188l2.58 4.142c-5.216 3.324-6.765 10.288-3.447 15.543.037.056.074.111.092.149l11.965-20.205z" fill="#E57281"/><path d="M160.332 190.05a.55.55 0 01-.46-.24c-3.485-5.33-2.12-12.48 3.06-16.157l-2.01-3.231c-2.636 1.467-5.07 1.894-7.19 1.318a6.824 6.824 0 01-3.981-2.971l-.24-.446 10.766-7.577a5.319 5.319 0 017.43 1.43c.036.038.055.093.073.13l4.406 6.89a.558.558 0 01-.258.743.541.541 0 01-.664-.149l-4.406-6.89a4.24 4.24 0 00-5.88-1.28c-.019.018-.056.036-.074.055l-9.9 6.964a5.865 5.865 0 003.024 2.043c1.954.538 4.24.037 6.802-1.467l.461-.279 3.152 5.07-.46.297c-4.96 3.175-6.416 9.787-3.282 14.782.037.056.055.093.092.149a.573.573 0 01-.166.78c-.055.018-.165.055-.295.037z" fill="#000838"/><path d="M166.25 195.009c-4.848 3.213-9.844 5.497-13.605 6.388l-4.185-5.942c2.342-3.083 6.526-6.797 11.485-10.084 5.31-3.528 10.545-5.98 14.177-6.741 2.101-.427 3.668-.297 4.424.52l.185.223c.018.037.037.055.055.093l.037.074c.018.037.037.055.055.093 1.254 2.84-4.258 9.805-12.628 15.376z" fill="#BC6170"/></g><g transform="translate(259.034 137.57)"><path d="M37.257 33.483v16.323c0 4.736-6.526 8.561-14.545 8.561-8.02 0-14.545-3.825-14.545-8.561V33.483h29.09z" fill="#E57281"/><path d="M12.425 55.86c-2.636-1.541-4.277-3.696-4.277-6.054V33.483h29.11v4.53c0 4.7-2.84 8.915-7.154 10.679L12.425 55.86z" fill="#BC6170"/><path d="M45.369 32.517v.278c0 2.823-2.268 5.107-5.07 5.107h-3.337c-1.161 4.68-5.328 7.967-10.12 7.967h-8.26c-4.793 0-8.959-3.287-10.102-7.967H5.143c-2.802 0-5.07-2.284-5.07-5.107v-.278c0-2.823 2.268-5.107 5.07-5.107h3.024v-4.03c0-4.252 3.097-7.855 7.263-8.468.903 1.523 3.632 5.163 9.2 4.958a28.531 28.531 0 007.06-1.188c2.323-.669 4.738.668 5.42 3.008 0 .037.018.056.018.093.092.52.148 1.04.148 1.579v4.03h3.023c2.802.018 5.07 2.302 5.07 5.125z" fill="#E57281"/><path d="M39.58 27.391h-2.323v-4.475c0-.39-.055-.761-.147-1.133-.627-2.358-3.005-3.751-5.346-3.12-.037 0-.056.019-.093.019a28.531 28.531 0 01-7.06 1.188c-5.568.205-8.296-3.435-9.2-4.958-4.166.613-7.263 4.216-7.263 8.468v4.03H5.254s-3.318-12.09-.83-15.506c2.452-3.362 5.402-1.895 5.402-1.895S8.056-.056 17.937.13c9.881.186 22.694 11.718 23.634 13.835 1.475 3.25-1.991 13.426-1.991 13.426zM38.382 33.928a.458.458 0 01-.461-.464c0-2.228 1.806-4.048 4.019-4.048.258 0 .46.204.46.464s-.202.464-.46.464a3.103 3.103 0 00-3.097 3.12c0 .26-.203.464-.461.464zM7.079 33.928a.458.458 0 01-.46-.464 3.103 3.103 0 00-3.098-3.12.458.458 0 01-.46-.464c0-.26.202-.464.46-.464 2.212 0 4.019 1.82 4.019 4.048 0 .26-.203.464-.461.464z" fill="#000838"/><path d="M32.612 23.845a.546.546 0 01-.277-.093 5.823 5.823 0 00-5.512-.483.475.475 0 01-.608-.26.48.48 0 01.258-.613 6.764 6.764 0 016.397.594.455.455 0 01.092.65c-.055.149-.203.205-.35.205zM12.628 23.845a.458.458 0 01-.46-.465c0-.148.073-.297.183-.371a6.769 6.769 0 016.397-.594.45.45 0 01.24.612c-.092.242-.369.353-.608.242a5.823 5.823 0 00-5.512.483c-.056.074-.148.093-.24.093zM23.873 39.5a7.166 7.166 0 01-2.488-.502.462.462 0 01-.277-.594.457.457 0 01.59-.279c3.871 1.449 5.143-1.114 5.199-1.225a.472.472 0 01.626-.205.465.465 0 01.222.595c-.037.018-1.07 2.21-3.872 2.21zM22.564 35.99c-.424 0-.884 0-1.272-.038a.46.46 0 01-.424-.5.46.46 0 01.498-.428c1.088.074 2.765 0 2.784 0 .258-.019.46.186.48.446.018.26-.185.464-.443.482-.056.019-.793.038-1.623.038z" fill="#000838"/><ellipse fill="#000838" cx="29.644" cy="29.564" rx="1" ry="1.56"/><ellipse fill="#000838" cx="16.426" cy="29.564" rx="1" ry="1.56"/><path d="M18.62 35.284h-5.808a2.488 2.488 0 01-2.488-2.507v-5.85a2.488 2.488 0 012.488-2.507h5.807a2.488 2.488 0 012.49 2.507v5.85c0 .65-.24 1.281-.701 1.746-.48.5-1.125.78-1.789.76zm-5.808-9.935c-.866 0-1.567.705-1.567 1.578v5.85c0 .873.7 1.578 1.567 1.578h5.807c.424 0 .83-.167 1.125-.482.295-.298.442-.688.442-1.096v-5.85c0-.873-.7-1.578-1.567-1.578h-5.807zM32.833 35.284h-5.807a2.488 2.488 0 01-2.489-2.507v-5.85a2.488 2.488 0 012.489-2.507h5.807a2.488 2.488 0 012.488 2.507v5.85a2.488 2.488 0 01-2.488 2.507zm-5.807-9.935c-.867 0-1.567.705-1.567 1.578v5.85c0 .873.7 1.578 1.567 1.578h5.807c.866 0 1.567-.705 1.567-1.578v-5.85c0-.873-.7-1.578-1.567-1.578h-5.807z" fill="#FFF"/><path fill="#FFF" d="M20.666 28.283h4.332v1h-4.332z"/></g></g><g fill="#5A9DFF"><path d="M293.396 248.01h-20.149c-2.138 0-3.871-1.746-3.871-3.9v-10.79c0-2.154 1.733-3.9 3.871-3.9h20.15c2.138 0 3.87 1.746 3.87 3.9v10.79c0 2.154-1.732 3.9-3.87 3.9zm-20.149-17.476a2.772 2.772 0 00-2.765 2.786v10.79a2.772 2.772 0 002.765 2.785h20.15a2.772 2.772 0 002.765-2.786v-10.79a2.772 2.772 0 00-2.766-2.785h-20.149z"/><path d="M283.829 243.107h-6.821a1.982 1.982 0 01-1.973-1.987v-4.81c0-1.096.885-1.987 1.973-1.987h6.82c1.088 0 1.973.891 1.973 1.987v4.81a1.982 1.982 0 01-1.972 1.987zM290.465 242.977l-2.101-1.412a2.157 2.157 0 01-.922-1.783v-2.117c0-.705.332-1.374.922-1.782l2.101-1.412a.734.734 0 011.014.205c.092.13.13.297.13.464v7.187a.744.744 0 01-.701.78.731.731 0 01-.443-.13z"/></g></g><g fill-rule="nonzero"><path d="M563.114 307.113H73.06a.545.545 0 01-.554-.556c0-.316.24-.557.554-.557h490.055c.314 0 .554.241.554.557 0 .315-.24.556-.554.556z" fill="#3FB1B5"/><path d="M230.836 309.804v229.101h-12.867v-43.608c0-4.064-3.286-7.367-7.328-7.367h-92.097c-4.043 0-7.328 3.303-7.328 7.367v43.608H98.349v-229.1h132.487z" fill="#FFF"/><path d="M231.39 539.462h-13.975v-44.165c0-3.767-3.027-6.81-6.774-6.81h-92.097c-3.747 0-6.775 3.043-6.775 6.81v44.165H97.795V309.247H231.39v230.215zm-12.867-1.114h11.759V310.361H98.902v227.987h11.76v-43.051c0-4.38 3.526-7.924 7.882-7.924h92.097c4.356 0 7.882 3.545 7.882 7.924v43.051z" fill="#3FB1B5"/><path fill="#D0F0E4" d="M231.223 309.804v60.792L98.35 480.58l.018-170.777z"/><path d="M211.028 376.33h-92.853c-4.135 0-7.495-3.377-7.495-7.534v-41.549c0-4.156 3.36-7.534 7.495-7.534h92.853c4.135 0 7.495 3.378 7.495 7.534v41.549c0 4.175-3.36 7.534-7.495 7.534zm-92.853-55.503c-3.526 0-6.387 2.876-6.387 6.42v41.549c0 3.544 2.861 6.42 6.387 6.42h92.853c3.526 0 6.387-2.876 6.387-6.42v-41.549c0-3.544-2.86-6.42-6.387-6.42h-92.853z" fill="#3FB1B5"/><path fill="#FFCF2D" d="M188.212 407.245h-45.707l-1.901-13.156h45.725z"/><path d="M212.597 386.499c-5.704 0-10.319 4.64-10.319 10.355v10.391h-38.895v-10.373c0-5.734 4.615-10.373 10.3-10.373h38.914z" fill="#FFF"/><path d="M202.832 407.802H162.83v-10.93c.018-6.03 4.873-10.911 10.872-10.93h38.895v1.114c-5.39.018-9.746 4.398-9.765 9.816v10.93zm-38.895-1.113h37.788v-9.817c0-4.175 2.362-7.98 6.091-9.816h-34.114c-5.39.018-9.746 4.398-9.765 9.816v9.817z" fill="#3FB1B5"/><path d="M222.289 394.089h-38.895a10.327 10.327 0 00-9.95-7.59h38.895a10.387 10.387 0 019.95 7.59z" fill="#FFF"/><path d="M223.027 394.645H182.97l-.11-.408c-1.182-4.25-5.022-7.181-9.415-7.181v-1.114h38.895c4.873.019 9.156 3.285 10.485 7.998l.203.705zm-39.227-1.113h37.732a9.837 9.837 0 00-9.193-6.476h-34.114a10.972 10.972 0 015.575 6.476zM211.028 463.305h-92.853c-4.135 0-7.495-3.377-7.495-7.534v-41.548c0-4.157 3.36-7.534 7.495-7.534h92.853c4.135 0 7.495 3.377 7.495 7.534v41.548c0 4.175-3.36 7.534-7.495 7.534zm-92.853-55.503c-3.526 0-6.387 2.876-6.387 6.42v41.55c0 3.543 2.861 6.42 6.387 6.42h92.853c3.526 0 6.387-2.877 6.387-6.42v-41.55c0-3.544-2.86-6.42-6.387-6.42h-92.853zM183.634 347.753a.545.545 0 01-.554-.557c0-3.006-2.418-5.437-5.409-5.437h-26.12c-2.991 0-5.41 2.43-5.41 5.437 0 .315-.24.557-.553.557a.545.545 0 01-.554-.557c0-3.619 2.917-6.55 6.517-6.55h26.12c3.6 0 6.517 2.931 6.517 6.55 0 .315-.24.557-.554.557z" fill="#3FB1B5"/><path d="M183.634 434.728a.545.545 0 01-.554-.557c0-3.006-2.418-5.437-5.409-5.437h-26.12c-2.991 0-5.41 2.43-5.41 5.437 0 .316-.24.557-.553.557a.545.545 0 01-.554-.557c0-3.618 2.917-6.55 6.517-6.55h26.12c3.6 0 6.517 2.932 6.517 6.55 0 .316-.24.557-.554.557z" fill="#3FB1B5"/><path fill="#FFF" d="M529.887 309.804h13.716v229.602h-13.716z"/><path d="M544.156 539.963h-14.823V309.247h14.823v230.716zm-13.716-1.114h12.608V310.361H530.44v228.488z" fill="#3FB1B5"/><path d="M596.748 539.963h-286.24a.545.545 0 01-.553-.557c0-.315.24-.557.554-.557h286.24c.313 0 .553.242.553.557 0 .316-.24.557-.554.557z" fill="#3FB1B5"/></g><g fill-rule="nonzero"><path d="M137.448 277.198h-8.26s-11.792-49.06-22.149-50.657c-10.357-1.598-10.89 17.283-10.89 17.283s.184-28.708 26.067-24.777c25.884 3.93 15.232 58.151 15.232 58.151z" fill="#FFF"/><path d="M137.908 277.749h-9.143l-.11-.422c-.037-.129-2.999-12.38-7.175-24.686-6.917-20.333-11.718-25.127-14.514-25.55-1.914-.293-3.606.148-5.004 1.323-4.875 4.041-5.243 15.319-5.243 15.429l-1.104-.019c.092-2.644.46-5.253 1.122-7.806.994-3.985 3.146-9.55 7.616-13.371 4.544-3.876 10.578-5.271 17.974-4.151 4.783.735 8.664 3.177 11.552 7.273 4.636 6.594 6.752 17.266 6.255 31.758-.24 6.63-.938 13.242-2.115 19.763l-.11.459zm-8.278-1.102h7.358a142.743 142.743 0 002.024-19.157c.331-9.772-.46-23.106-6.052-31.06-2.705-3.857-6.347-6.152-10.817-6.814-7.046-1.065-12.804.24-17.09 3.894a18.703 18.703 0 00-3.312 3.71c1.564-1.102 3.367-1.487 5.39-1.175 4.507.698 9.695 9.55 15.398 26.302 3.753 11.002 6.53 22.04 7.1 24.3z" fill="#3FB1B5"/><path d="M133.824 277.014a.542.542 0 01-.552-.55c-.607-36.533-8.352-49.446-14.753-53.835-2.54-1.745-4.894-2.15-6.42-2.186a8.762 8.762 0 00-2.76.349.549.549 0 01-.7-.35.559.559 0 01.313-.697c.203-.074 4.82-1.708 10.155 1.928 4.12 2.829 7.487 8.009 9.99 15.429 3.219 9.551 5.003 22.776 5.26 39.325.02.33-.22.587-.533.587z" fill="#3FB1B5"/><path fill="#FF6576" d="M121.149 276.463h38.798V308h-38.798z"/><path d="M168.115 292.24c-2.465 1.066-5.409.938-8.15-.256a14.143 14.143 0 01-5.482-4.317c-2.134-2.755-3.569-6.52-3.569-11.204 0-11.35-9.05-18.477-12.767-3.453a42.232 42.232 0 00-.699 3.453v-.11c0-.055 0-.092.019-.147v-.073a43.461 43.461 0 011.195-7.053c.626-2.48 1.564-5.235 2.962-7.788a19.556 19.556 0 012.465-3.563c2.465-2.829 5.85-4.813 10.468-4.813 8.499 0 14.717 9.992 17.09 19.947 2.079 8.651 1.232 17.302-3.532 19.378z" fill="#FFF"/><path d="M164.49 293.527a12.045 12.045 0 01-4.746-1.029 14.637 14.637 0 01-5.702-4.482c-2.41-3.104-3.68-7.108-3.68-11.534 0-5.18-2.28-11.02-5.684-11.425-2.465-.294-4.636 2.663-5.997 8.1a51.028 51.028 0 00-.7 3.416l-1.103-.091v-.11c0-.074 0-.148.018-.221v-.037a42.964 42.964 0 011.214-7.145 33.016 33.016 0 013.017-7.916 19.981 19.981 0 012.54-3.655c2.887-3.325 6.548-4.996 10.89-4.996 8.83 0 15.213 10.23 17.623 20.37 1.067 4.463 1.362 8.852.81 12.36-.607 3.95-2.226 6.576-4.655 7.641a10.17 10.17 0 01-3.844.754zm-20.143-29.609c.147 0 .313 0 .46.037 3.679.44 6.66 6.061 6.66 12.527 0 4.187 1.195 7.953 3.458 10.873a13.65 13.65 0 005.261 4.151c2.63 1.139 5.445 1.23 7.708.257 4.12-1.8 5.445-9.496 3.22-18.753-1.233-5.198-3.422-9.992-6.145-13.5-3.072-3.949-6.66-6.024-10.412-6.024-3.992 0-7.377 1.56-10.045 4.628a18.787 18.787 0 00-2.391 3.472 30.54 30.54 0 00-2.355 5.675c.276-.477.607-.937.957-1.377 1.306-1.562 2.63-1.966 3.624-1.966z" fill="#3FB1B5"/><path d="M166.146 293.14a.556.556 0 01-.552-.495c-2.685-25.182-8.811-32.97-13.466-35.063-4.157-1.874-7.67.569-7.708.587a.554.554 0 01-.772-.091.552.552 0 01.092-.772l.037-.037c.165-.11 4.065-2.828 8.793-.698 3.127 1.415 5.85 4.629 8.076 9.533 2.796 6.153 4.82 15.043 6.034 26.412a.553.553 0 01-.497.606l-.037.019zM95.597 243.824c0 3.031-.35 14.62 10.725 15.154 11.074.532 12.178-16.164 12.178-16.164s-5.445-14.767-11.46-16.273c-10.174-2.553-11.443 17.283-11.443 17.283z" fill="#3FB1B5"/><path d="M150.914 276.463h-13.466c3.11-19.45 13.466-12.14 13.466 0z" fill="#3FB1B5"/></g><g fill="#FFF" fill-rule="nonzero" opacity=".4"><path d="M380.376 131.858v121.36c0 6.527-5.294 11.803-11.841 11.803H229.187c-8.743 12.006-26.763 12.061-35.58 0l-.018-.018a11.771 11.771 0 01-8.595-4.651l3.21-2.758 81.893-70.452 77.983-67.087h20.455c6.529.019 11.841 5.295 11.841 11.803zM168.339 291.202c-2.453 1.103-5.423.937-8.171-.258v15.48H131.45l23.24-19.984 5.496-4.725 4.187-3.603 8.097-6.858c2.361 10.038 1.052 17.576-4.131 19.948z"/></g><g fill-rule="nonzero"><path fill="#A0505A" d="M412.866 373.64v102.957h-23.744L374 434.294l-21.657-60.654z"/><path fill="#874853" d="M352.343 373.64h60.523v33.055l-53.322-12.91z"/><path d="M413.42 477.152h-24.686l-15.75-44.06 1.275.702c.037.019 3.102 1.665 9.342 2.479 5.761.758 15.51.925 29.117-2.534l.683-.185v43.598h.019zm-23.91-1.11h22.802v-41.046c-13.478 3.33-23.153 3.145-28.932 2.387-4.191-.555-6.96-1.462-8.42-2.054l14.55 40.713z" fill="#FFF"/><path d="M386.352 444.782a3.257 3.257 0 01-3.25-3.256 3.257 3.257 0 013.25-3.256 3.257 3.257 0 013.25 3.256 3.246 3.246 0 01-3.25 3.256zm0-5.402a2.145 2.145 0 000 4.292 2.145 2.145 0 000-4.292zM399.203 453.494a3.257 3.257 0 01-3.25-3.256 3.257 3.257 0 013.25-3.255 3.257 3.257 0 013.25 3.255 3.246 3.246 0 01-3.25 3.256zm0-5.401a2.145 2.145 0 000 4.291 2.145 2.145 0 000-4.291zM408.767 443.82a3.257 3.257 0 01-3.25-3.256 3.257 3.257 0 013.25-3.255 3.257 3.257 0 013.25 3.255 3.246 3.246 0 01-3.25 3.256zm0-5.402a2.145 2.145 0 000 4.292 2.145 2.145 0 000-4.292zM404.982 463.63a3.257 3.257 0 01-3.25-3.255 3.257 3.257 0 013.25-3.256 3.257 3.257 0 013.25 3.256 3.246 3.246 0 01-3.25 3.255zm0-5.4a2.145 2.145 0 000 4.29 2.145 2.145 0 000-4.29zM389.048 458.71a3.257 3.257 0 01-3.25-3.255 3.257 3.257 0 013.25-3.256 3.257 3.257 0 013.25 3.256 3.246 3.246 0 01-3.25 3.255zm0-5.401a2.145 2.145 0 000 4.291 2.145 2.145 0 000-4.291zM393.442 473.508a3.257 3.257 0 01-3.25-3.255 3.257 3.257 0 013.25-3.256 3.257 3.257 0 013.25 3.256 3.246 3.246 0 01-3.25 3.255zm0-5.401a2.145 2.145 0 000 4.291 2.145 2.145 0 000-4.291z" fill="#FFF"/><path d="M424.092 495.798l-16.285 33.868a14.734 14.734 0 01-13.57 9.009h-20.772c-5.318 0-8.549-5.402-6.518-10.322l20.882-50.461a16.018 16.018 0 015.78-7.417 15.665 15.665 0 018.954-2.812c4.542 0 9.047 3.089 12.038 6.511l7.238 7.824a13.148 13.148 0 012.253 13.8z" fill="#5A9DFF"/><path d="M424.092 495.798l-16.285 33.868a14.734 14.734 0 01-13.57 9.009h-22.083c-2.05 0-3.213-1.277-3.896-3.034h4.912a14.734 14.734 0 0013.57-9.008l18.777-39.233a10.583 10.583 0 019.528-6.012c5.299 0 9.324 3.885 10.062 8.805a13.2 13.2 0 01-1.015 5.605z" fill="#FFF"/><path d="M394.236 539.23h-22.082c-2.05 0-3.545-1.147-4.413-3.385a.568.568 0 01.314-.722.663.663 0 01.203-.037h4.912a14.138 14.138 0 0013.053-8.675s0-.019.019-.019l18.777-39.233a11.213 11.213 0 0110.026-6.326c5.335 0 9.804 3.903 10.616 9.267v.056a13.8 13.8 0 01-1.052 5.845l-.019.019-16.285 33.85a15.208 15.208 0 01-14.069 9.36zm-25.11-3.034c.702 1.313 1.68 1.924 3.028 1.924h22.082a14.138 14.138 0 0013.054-8.676l.018-.018 16.285-33.85a12.52 12.52 0 00.96-5.328c-.738-4.809-4.726-8.305-9.508-8.305a10.08 10.08 0 00-9.03 5.697l-18.776 39.215a15.302 15.302 0 01-14.088 9.341h-4.025z" fill="#5A9DFF"/><path d="M420.344 480.37c-1.958-1.072-4.32-1.849-6.389-1.849a10.428 10.428 0 00-9.36 5.9l-19.443 40.621c-2.474 5.864-8.216 9.674-14.567 9.656h-3.582a5.801 5.801 0 01-.443-1.11h4.025a14.71 14.71 0 0013.552-8.99l.018-.018 19.46-40.64a11.56 11.56 0 0110.359-6.529c1.403 0 3.083.463 4.523.962l1.847 1.998z" fill="#FFF"/><g><path d="M352.343 373.64l-4.634 60.654-2.068 27.172s-13.497 15.057-28.859 5.771l-7.108-32.925-16.266-75.34c-4.395-20.366 9.49-40.177 30.113-42.933l28.822 57.601z" fill="#A0505A"/><path d="M327.177 471.547c-3.305 0-6.942-.832-10.672-3.089l-.203-.13-7.348-34.811.886.277c17.485 5.253 37.536.037 37.74-.018l.756-.204-2.141 28.875-.13.148a31.514 31.514 0 01-8.844 6.492c-2.677 1.314-6.148 2.46-10.044 2.46zm-9.896-3.921c6.13 3.625 12.666 3.773 19.423.462a31.144 31.144 0 008.401-6.122l1.994-26.951a88.556 88.556 0 01-11.669 1.85c-6.48.61-15.989.758-25.036-1.758l6.887 32.519z" fill="#FFF"/><path d="M326.494 451.626a3.257 3.257 0 01-3.25-3.256 3.257 3.257 0 013.25-3.255 3.257 3.257 0 013.25 3.255 3.246 3.246 0 01-3.25 3.256zm0-5.402a2.145 2.145 0 000 4.292 2.145 2.145 0 000-4.292zM343.628 447.482a3.257 3.257 0 01-3.25-3.255 3.257 3.257 0 013.25-3.256 3.257 3.257 0 013.25 3.256 3.246 3.246 0 01-3.25 3.255zm0-5.401a2.145 2.145 0 000 4.291 2.145 2.145 0 000-4.291zM316.155 443.82a3.257 3.257 0 01-3.25-3.256 3.257 3.257 0 013.25-3.255 3.257 3.257 0 013.25 3.255 3.246 3.246 0 01-3.25 3.256zm0-5.402a2.145 2.145 0 000 4.292 2.145 2.145 0 000-4.292zM323.798 466.331a3.257 3.257 0 01-3.25-3.255 3.257 3.257 0 013.25-3.256 3.257 3.257 0 013.25 3.256 3.246 3.246 0 01-3.25 3.255zm0-5.401a2.145 2.145 0 000 4.291 2.145 2.145 0 000-4.291zM336.372 460.93a3.257 3.257 0 01-3.25-3.256 3.257 3.257 0 013.25-3.255 3.257 3.257 0 013.25 3.255 3.246 3.246 0 01-3.25 3.256zm0-5.401a2.145 2.145 0 000 4.291 2.145 2.145 0 000-4.291z" fill="#FFF"/><path d="M363.44 467.94l-17.8 71.308h-5.612c-.259 0-.499-.018-.757-.037-4.247-.388-7.829-3.977-8.733-8.213l-13.774-63.797c15.361 9.304 28.877-5.753 28.877-5.753l17.798 6.492z" fill="#5A9DFF"/><path d="M364.344 504.528c3.748-19.829 4.782-34.978-1.68-36.2-6.462-1.22-17.965 11.932-21.713 31.761-3.748 19.83-1.791 37.365 4.671 38.586 6.462 1.22 14.974-14.299 18.722-34.147z" fill="#FFF"/><path d="M346.36 539.304c-.276 0-.553-.019-.849-.074-3.36-.63-5.705-5.18-6.61-12.8-.867-7.344-.332-16.74 1.496-26.433 1.736-9.157 5.262-17.684 9.933-24.01 4.284-5.79 8.937-8.86 12.426-8.195 3.36.63 5.022 4.44 5.115 11.654.073 5.882-.905 14.113-2.992 25.193-1.477 7.806-3.71 15.15-6.462 21.235-2.714 6.012-5.686 10.23-8.585 12.209-1.182.814-2.345 1.22-3.471 1.22zm15.436-70.494c-2.954 0-6.924 2.922-10.561 7.843-4.579 6.196-8.05 14.557-9.749 23.547-1.81 9.6-2.345 18.867-1.495 26.1.83 6.992 2.917 11.302 5.723 11.838 1.071.204 2.253-.13 3.509-.98 5.668-3.866 11.668-17.314 14.567-32.722 2.086-10.988 3.047-19.163 2.973-24.972-.074-6.51-1.496-10.062-4.228-10.58a3.126 3.126 0 00-.739-.074z" fill="#5A9DFF"/><path d="M338.366 499.775c-1.939 10.284-2.511 20.217-1.588 27.986.665 5.586 2.068 9.563 3.988 11.487h-.738c-.259 0-.499-.018-.757-.037-1.736-2.294-2.973-6.141-3.6-11.32-.942-7.862-.37-17.924 1.606-28.32 1.864-9.84 5.631-19.07 10.635-26.007 2.99-4.144 6.13-7.048 8.991-8.361l1.662.555c-6.591 1.96-16.599 14.983-20.199 34.017z" fill="#FFF"/></g><g><path d="M323.521 316.02l84.23-8.693 84.194 23.658-.72 11.21c-1.145 17.683-16.359 31.445-34.047 31.445H352.361l-28.84-57.62z" fill="#FF6576"/><path d="M453.467 366.426H348.65a.545.545 0 01-.554-.555c0-.314.24-.555.554-.555h104.817c8.013 0 16.414-4.235 23.06-11.653 6.297-7.029 10.063-15.797 10.063-23.492 0-.314.24-.555.554-.555.314 0 .554.24.554.555 0 7.954-3.859 17.018-10.34 24.25-6.868 7.64-15.564 12.005-23.891 12.005z" fill="#FFF"/><path d="M445.214 357.178h-100.81a.545.545 0 01-.554-.555c0-.315.24-.555.554-.555h100.81c6.997 0 14.235-3.293 20.346-9.286 5.743-5.605 9.768-12.874 11.06-19.903.055-.296.332-.518.628-.463.295.056.517.333.461.63v.036c-2.603 14.243-16.598 30.096-32.495 30.096z" fill="#FFF"/><path d="M436.333 347.744h-97.284a.545.545 0 01-.554-.555c0-.315.24-.555.554-.555h97.284c13.294 0 24.852-11.986 28.95-23.251.111-.296.425-.444.702-.333a.542.542 0 01.332.703c-2.289 6.27-6.425 12.171-11.668 16.61-5.724 4.847-12.039 7.38-18.316 7.38z" fill="#FFF"/><path d="M431.532 337.57H334.25a.545.545 0 01-.554-.555c0-.314.24-.555.554-.555h97.283c9.158 0 18.76-5.974 25.074-15.574a.565.565 0 01.757-.204c.258.148.35.5.203.758-.019.019-.019.037-.037.056-6.518 9.915-16.47 16.074-25.997 16.074z" fill="#FFF"/><path d="M426.917 328.322h-97.284a.545.545 0 01-.554-.555c0-.315.24-.555.554-.555h97.284c7.053 0 14.142-3.256 20.014-9.157a.548.548 0 01.775.777c-6.056 6.123-13.441 9.49-20.79 9.49zM421.931 318.888h-97.283a.545.545 0 01-.554-.555c0-.315.24-.555.554-.555h97.283c4.155 0 8.327-1.184 12.426-3.496a.565.565 0 01.757.203.567.567 0 01-.203.759c-4.265 2.423-8.64 3.644-12.98 3.644z" fill="#FFF"/><path d="M352.158 374.195a.544.544 0 01-.498-.314l-28.822-57.62c-.129-.277 0-.61.277-.74a.541.541 0 01.702.24l28.821 57.62c.13.278.019.61-.24.74a.37.37 0 01-.24.074z" fill="#FFF"/></g><g><path d="M496.56 253.777c-7.939 2.256-15.749 1.59-16.58-.833-.775-2.312 2.733-6.27 9.841-8.897.351-.13.72-.259 1.09-.388a31.988 31.988 0 016.296-1.425c5.963-.758 10.82.315 11.429 2.128.83 2.423-3.675 7.029-12.075 9.415z" fill="#FFF"/><path d="M487.107 255.719c-4.025 0-7.071-.906-7.662-2.59-.997-2.96 3.379-7.084 10.173-9.6.351-.13.72-.259 1.09-.388h.018a31.794 31.794 0 016.407-1.443c6.111-.777 11.281.296 12.02 2.497.258.721.129 1.61-.351 2.534-1.551 2.96-6.296 5.956-12.094 7.603a35.853 35.853 0 01-9.6 1.387zm13.885-13.17c-1.237 0-2.474.092-3.711.24a30.89 30.89 0 00-6.186 1.406c-.369.13-.738.259-1.07.389-3.213 1.183-5.946 2.756-7.681 4.439-1.459 1.406-2.142 2.812-1.828 3.755.61 1.794 7.718 2.812 15.897.48 4.523-1.275 9.804-3.958 11.41-7.047.333-.647.443-1.22.296-1.664-.333-.98-2.955-1.998-7.127-1.998z" fill="#3FB1B5"/><path d="M491.538 307.715h-3.046l-7.995-54.068v-.037l-.203-1.35c.388-2.46 4.228-5.938 11.004-8.194a32.629 32.629 0 019.601-1.684l2.918 8.01.277.758 9.231 25.36c5.54 15.15-5.668 31.205-21.787 31.205z" fill="#A0505A"/><path d="M504.001 250.965c-1.938 1.221-4.45 2.35-7.44 3.2-6.869 1.942-13.83 1.147-16.064-.518v-.037l-.203-1.35c.388-2.46 4.228-5.938 11.004-8.194a32.629 32.629 0 019.601-1.684l3.102 8.583z" fill="#874853"/><g><path d="M392.648 263.229l-9.693 24.158c-4.8 11.93-16.34 19.755-29.19 19.755H223.468v-11.95a6.928 6.928 0 014.468-6.492l13.386-5.087c1.2-.462 2.493-.703 3.785-.703h15.196l86.002-8.694 14.845-34.053 31.498 23.066z" fill="#A0505A"/><path d="M224.022 300.242a.545.545 0 01-.554-.555 5.76 5.76 0 013.73-5.42l10.1-3.828a.56.56 0 01.72.314.555.555 0 01-.333.722l-10.1 3.829a4.662 4.662 0 00-3.027 4.383.519.519 0 01-.536.555zM224.022 306.347a.545.545 0 01-.554-.555 5.76 5.76 0 013.73-5.42l10.1-3.83a.56.56 0 01.72.315.555.555 0 01-.333.722l-10.1 3.829a4.662 4.662 0 00-3.027 4.384.519.519 0 01-.536.555zM227.4 307.142a.556.556 0 01-.553-.555c0-.24.148-.444.37-.518l10.099-3.644a.56.56 0 01.738.278c.13.277 0 .61-.277.74-.018.018-.055.018-.073.018l-10.1 3.644c-.074.037-.148.037-.203.037z" fill="#000838"/><path d="M236.448 285.666s9.453-24.176 12.481-23.769c3.028.407-8.382 22.216-8.382 22.216l-4.099 1.553z" fill="#FF6576"/><path fill="#874853" d="M361.15 240.181l-2.179 4.976 27.898 32.463 5.78-14.391z"/></g></g><g><path d="M480.497 253.666l11.448 77.32-84.175-23.66-15.122-44.116-39.031-28.578 13.7-16.352a64.342 64.342 0 0149.278-23.03h27.05c23.522 0 45.18 12.875 56.46 33.555l8.77 15.205s-2.64-3.884-16.875.019c-12.537 3.459-11.503 9.637-11.503 9.637z" fill="#3FB1B5"/><path d="M392.648 263.414c-.036 0-.092 0-.129-.019a.552.552 0 01-.406-.665l4.376-19.016a.567.567 0 01.683-.388.54.54 0 01.388.629l-4.376 19.015a.534.534 0 01-.536.444zM489.821 313.487a.558.558 0 01-.554-.463l-14.235-88.658a.561.561 0 01.462-.648.551.551 0 01.646.463l14.235 88.658a.534.534 0 01-.461.63c-.037.018-.074.018-.093.018zM491.76 331.54c-.055 0-.11 0-.148-.018l-84.008-24.01a.579.579 0 01-.425-.666c.056-.296.37-.48.665-.425.018 0 .037.018.074.018l84.008 24.01c.296.074.462.388.388.684-.092.24-.295.407-.554.407z" fill="#FFF"/></g><g><path fill="#A0505A" d="M412.294 182.894v12.43l21.897-.184v-21.938z"/><g transform="translate(395.861 144.92)"><path d="M40.103 24.454v.333c0 3.33-2.512 6.03-5.835 6.03h-1.292c-.831 3.292-8.217 7.14-13.46 7.14h-6.112c-6 0-10.856-4.865-10.856-10.877 0-.592.055-1.184.148-1.757l.295-1.794-1.81-1.018C.24 21.975-.11 20.773.426 19.83c.037-.074.092-.148.147-.222l3.915-5.179.849-5.105a12.42 12.42 0 017.09-9.305c1.44 16.26 15.768 18.184 19.553 18.405h2.104c3.324 0 6.02 2.701 6.02 6.03z" fill="#A0505A"/><path d="M30.41 26.6a.545.545 0 01-.555-.556c0-2.922 2.382-5.308 5.3-5.308.313 0 .553.24.553.555 0 .314-.24.555-.554.555a4.204 4.204 0 00-4.19 4.198c0 .315-.24.555-.555.555z" fill="#000838"/><ellipse fill="#000838" cx="10.395" cy="16.407" rx="1" ry="2.183"/><path d="M14.235 13.651a.55.55 0 01-.443-.222c-2.419-3.348-4.69-3.218-4.782-3.218-.314.037-.572-.204-.61-.5-.036-.314.204-.573.5-.61.11-.019 2.954-.24 5.778 3.662.185.24.13.592-.129.777a.5.5 0 01-.314.111z" fill="#000838"/></g><path d="M427.84 163.343h2.105c3.323 0 6.019 2.7 6.019 6.03v.333c0 3.33-2.511 6.03-5.835 6.03l-1.422.999c-5.982 3.847-14.253 18.978-12.222 29.688 2.29 12.042 12.758 14.724 22.433 12.874 9.675-1.85 16.728-7.491 14.438-19.551a23.88 23.88 0 00-1.218-4.255c.166.056.313.111.48.167 11.632 3.181 25.294 3.551 29.061-5.55 3.767-9.1 2.917-18.109-8.4-22.807-6.574-2.738-15.51-2.719-22.434-.832 3.49-12.153-2.714-25.675-14.106-27.025-17.891-2.127-28.157 5.272-28.434 5.475-.018 2.146 1.44 17.37 19.535 18.424z" fill="#000838"/><path d="M452.618 196.231a.537.537 0 01-.536-.444c-1.957-10.266-10.358-15.926-10.432-15.982a.544.544 0 01-.166-.758c.037-.055.092-.111.148-.166 5.724-4.051 8.198-9.897 9.158-13.004a.56.56 0 111.07.333c-.96 3.144-3.397 8.916-8.936 13.133 2.068 1.572 8.512 7.084 10.266 16.24a.562.562 0 01-.443.648h-.13z" fill="#FFF"/><path d="M456.329 166.191h-4.893a.545.545 0 01-.554-.555v-4.901c0-2.868 2.326-5.198 5.188-5.198h.259c2.862 0 5.188 2.33 5.188 5.198v.258c.018 1.37-.535 2.683-1.496 3.663a5.072 5.072 0 01-3.692 1.535zm-4.34-1.11h4.34c1.09 0 2.141-.425 2.898-1.202a4.064 4.064 0 001.182-2.867v-.259a4.085 4.085 0 00-4.08-4.088h-.259a4.085 4.085 0 00-4.08 4.088v4.328z" fill="#FF6576"/><path d="M459.061 173.72a5.897 5.897 0 01-5.003-2.738l-3.139-4.994c-.166-.26-.092-.61.166-.759l4.985-3.144c2.751-1.739 6.389-.907 8.124 1.831l.296.463c1.735 2.756.904 6.4-1.828 8.157l-.462.296c-.923.573-2.012.87-3.139.888zm-6.905-7.862l2.843 4.532a4.835 4.835 0 006.629 1.48l.461-.296c2.234-1.406 2.9-4.365 1.496-6.604l-.296-.462c-1.403-2.238-4.375-2.904-6.61-1.498l-4.523 2.848zM428.818 188.518c-.129 0-.258 0-.387-.019a5.097 5.097 0 01-3.545-1.794l-.167-.204a5.124 5.124 0 01-1.255-3.736 5.207 5.207 0 011.772-3.57l3.471-3.348a.55.55 0 01.776.018l.018.019 3.416 3.866c1.883 2.164 1.643 5.438-.517 7.325l-.018.018-.203.167a5.083 5.083 0 01-3.36 1.258zm.259-11.469l-3.065 2.96-.019.018a4.106 4.106 0 00-1.403 2.83 4.07 4.07 0 00.979 2.942l.018.018.166.204a4.056 4.056 0 005.724.425s.018 0 .018-.019l.222-.184a4.08 4.08 0 00.406-5.753l-3.046-3.44z" fill="#FF6576"/><path d="M435.89 186.483a5.934 5.934 0 01-5.705-4.328l-1.57-5.68a.568.568 0 01.388-.684l5.668-1.572a5.9 5.9 0 017.256 4.088v.019l.148.536a5.915 5.915 0 01-4.08 7.27h-.019l-.535.148a6.377 6.377 0 01-1.551.203zm-4.635-4.624a4.813 4.813 0 005.89 3.348l.536-.148c2.548-.703 4.025-3.348 3.323-5.883v-.018l-.148-.536a4.768 4.768 0 00-5.871-3.33h-.018l-5.133 1.424 1.421 5.143z" fill="#FF6576"/></g><g><path d="M348.17 539.23c-.037 0-.074 0-.11-.019-.296-.055-.48-.351-.425-.666l32.163-150.81a.579.579 0 01.646-.462.58.58 0 01.462.647c0 .019 0 .037-.019.056l-32.163 150.81a.588.588 0 01-.554.444zM494.806 539.23a.552.552 0 01-.535-.444l-32.163-150.81a.568.568 0 01.388-.685.567.567 0 01.683.389c0 .018 0 .037.018.055l32.163 150.81a.579.579 0 01-.424.666c-.056.019-.093.019-.13.019z" fill="#FFCF2D"/><path d="M487.236 505.75H355.297a.545.545 0 01-.554-.556c0-.314.24-.555.554-.555h131.94c.313 0 .553.24.553.555 0 .315-.24.555-.554.555z" fill="#FFCF2D"/><path d="M487.957 387.865H355.002a3.052 3.052 0 01-3.047-3.052v-8.12a3.052 3.052 0 013.047-3.053h132.955a3.052 3.052 0 013.046 3.052v8.12a3.052 3.052 0 01-3.046 3.053z" fill="#FFF"/><path d="M487.957 388.42H355.002c-1.994 0-3.6-1.61-3.6-3.607v-8.12a3.597 3.597 0 013.6-3.608h132.955c1.994 0 3.6 1.61 3.6 3.607v8.12a3.597 3.597 0 01-3.6 3.608zm-132.955-14.225a2.484 2.484 0 00-2.493 2.497v8.12a2.484 2.484 0 002.493 2.498h132.955a2.484 2.484 0 002.492-2.497v-8.12a2.484 2.484 0 00-2.492-2.498H355.002z" fill="#5A9DFF"/></g></g><g stroke="#7CAEFF" stroke-linecap="round"><path d="M69.436 184.476l-4.409-54.83a3 3 0 015.124-2.35l39.983 40.448h0M68.26 163.79l26.695-11.33" stroke-width="1.25"/><path stroke-width="1.24" d="M103.306 129.904l6.056 14.267M113.355 133.689l-14.267 6.056"/></g><g fill-rule="nonzero"><path d="M107.445 91.788a.538.538 0 01-.487-.623.546.546 0 01.396-.471l1.794-.46a.534.534 0 01.72.306.537.537 0 01-.306.722c-.038.015-.096.029-.153.042l-1.794.461a.443.443 0 01-.17.023zm4.504-1.141a.538.538 0 01-.487-.623.546.546 0 01.396-.47l1.794-.462a.582.582 0 01.63.486.564.564 0 01-.35.587l-1.795.46c-.059.033-.133.027-.188.022zm4.506-1.16a.538.538 0 01-.487-.623.546.546 0 01.396-.47l1.794-.461a.534.534 0 01.72.306.537.537 0 01-.306.722c-.038.016-.096.03-.153.043l-1.794.46a.178.178 0 01-.17.023zm4.504-1.14a.538.538 0 01-.487-.624.546.546 0 01.396-.47l1.794-.461a.582.582 0 01.63.486.564.564 0 01-.35.587l-1.795.46c-.059.033-.134.045-.188.021zm4.504-1.142a.538.538 0 01-.487-.622.546.546 0 01.396-.471l1.795-.461a.582.582 0 01.629.486.564.564 0 01-.35.587l-1.795.46c-.058.033-.134.045-.188.021zm4.523-1.139a.538.538 0 01-.487-.623.546.546 0 01.396-.47l1.794-.461a.534.534 0 01.72.306.537.537 0 01-.306.722c-.038.015-.096.03-.153.043l-1.794.46a.178.178 0 01-.17.023zm4.504-1.14a.538.538 0 01-.487-.624.546.546 0 01.396-.47l1.795-.461a.582.582 0 01.629.485.564.564 0 01-.35.588l-1.795.46a.659.659 0 01-.188.021zm4.504-1.142a.538.538 0 01-.487-.623.546.546 0 01.396-.47l1.795-.461a.582.582 0 01.63.486.564.564 0 01-.35.587l-1.795.46a.659.659 0 01-.189.021zm4.504-1.14a.538.538 0 01-.486-.623.546.546 0 01.395-.471l1.795-.461a.582.582 0 01.63.486.564.564 0 01-.35.587l-1.795.46c-.06.033-.133.026-.189.021zm4.504-1.142a.538.538 0 01-.486-.622.546.546 0 01.395-.471l1.795-.46a.582.582 0 01.63.485.564.564 0 01-.35.587l-1.795.46c-.059.033-.133.026-.189.021zm4.505-1.14a.538.538 0 01-.487-.623.546.546 0 01.396-.471l1.794-.46a.534.534 0 01.72.305.537.537 0 01-.306.723c-.038.015-.096.029-.153.042l-1.794.461c-.04.034-.115.027-.17.023zm4.505-1.16a.538.538 0 01-.486-.623.546.546 0 01.395-.47l1.795-.461a.582.582 0 01.63.485.564.564 0 01-.35.587l-1.795.461c-.059.032-.135.045-.189.021zm4.505-1.14a.538.538 0 01-.487-.624.546.546 0 01.396-.47l1.794-.461a.582.582 0 01.63.485.564.564 0 01-.35.587l-1.795.461c-.059.033-.134.045-.188.021zm4.522-1.14a.538.538 0 01-.486-.623.546.546 0 01.395-.47l1.795-.462a.582.582 0 01.63.486.564.564 0 01-.35.587l-1.795.46c-.059.033-.135.045-.189.022zm4.504-1.141a.538.538 0 01-.486-.623.546.546 0 01.396-.47l1.794-.461a.534.534 0 01.72.306.537.537 0 01-.306.722c-.039.015-.096.029-.153.043l-1.795.46a.178.178 0 01-.17.023zm4.505-1.14a.538.538 0 01-.487-.624.546.546 0 01.396-.47l1.794-.461a.582.582 0 01.63.485.564.564 0 01-.35.587l-1.795.461c-.059.032-.134.044-.188.021zm4.504-1.142a.538.538 0 01-.487-.623.546.546 0 01.396-.47l1.795-.461a.582.582 0 01.629.485.564.564 0 01-.35.587l-1.795.461c-.058.032-.133.026-.188.021zm4.504-1.14a.538.538 0 01-.487-.624.546.546 0 01.396-.47l1.795-.461a.534.534 0 01.72.306.537.537 0 01-.306.722c-.04.015-.096.03-.153.043l-1.795.46c-.04.035-.114.028-.17.023z" fill="#FFCF2D"/><path d="M127.15 93.512a.549.549 0 01-.506-.606c.44-5.035-.795-8.83-3.7-11.256a10.208 10.208 0 00-4.531-2.175.55.55 0 01-.467-.64c.045-.295.307-.516.602-.471l.018.002a11.08 11.08 0 015.054 2.389c4.018 3.346 4.462 8.514 4.135 12.248a.549.549 0 01-.604.509z" fill="#3FB1B5"/><path d="M215.643 101.254l-108.198-9.466a.56.56 0 01-.473-.36.544.544 0 01.106-.57l49.113-54.95a.564.564 0 01.408-.19.53.53 0 01.413.186l59.105 64.418c.153.163.188.41.094.626a.567.567 0 01-.568.306zM108.653 90.77l105.662 9.244-57.707-62.91-47.955 53.666z" fill="#3FB1B5"/><path d="M97.383 94.801c-2.648-.232-4.608-2.575-4.376-5.231.233-2.657 2.57-4.624 5.218-4.392 2.649.232 4.608 2.575 4.376 5.231-.232 2.657-2.57 4.624-5.218 4.392zm.746-8.527a3.703 3.703 0 00-4.009 3.375 3.703 3.703 0 003.362 4.019 3.703 3.703 0 004.01-3.375c.177-2.024-1.326-3.84-3.363-4.019z" fill="#FFCF2D"/><path fill="#FFCF2D" d="M101.49 90.312l1.11.097-.371 4.254-1.111-.098zM160.233 32.573c-2.648-.231-4.608-2.574-4.376-5.23.233-2.657 2.57-4.624 5.218-4.392 2.649.231 4.609 2.574 4.376 5.23-.232 2.657-2.57 4.624-5.218 4.392zm.746-8.526c-2.035-.197-3.848 1.329-4.046 3.37-.197 2.043 1.324 3.86 3.36 4.057 2.035.197 3.848-1.33 4.045-3.371l.002-.019c.197-2.041-1.306-3.839-3.36-4.037.018.001 0 0 0 0z"/><path fill="#FFCF2D" d="M156.472 19.89l1.11.097-1.022 11.685-1.11-.097zM223.964 105.763c-2.648-.232-4.608-2.575-4.376-5.231.233-2.657 2.57-4.624 5.218-4.392l-.098 1.115a3.703 3.703 0 00-4.009 3.374 3.703 3.703 0 003.363 4.02l-.098 1.114z"/></g></g></svg>