<svg width="1437" height="718" xmlns="http://www.w3.org/2000/svg"><g fill="none" fill-rule="evenodd"><path d="M1380.254 551.988c0-29.727 14.02-53.826 31.315-53.826s31.315 24.1 31.315 53.826h-62.63" fill="#DEEBFE"/><path d="M1361.784 538.796c-.294.98-.455 1.857-.47 2.584-.019.89.183 1.391.378 1.565.073.067.113.064.177.028.263-.141.618-.794.447-1.947a13.03 13.03 0 00-.532-2.23zm-9.86 14.783c-6.233 0-11.304-5.1-11.304-11.372v-.82c0-6.271 5.071-11.373 11.304-11.373 4.448 0 8.26 2.455 10.31 6.33a.69.69 0 01.197.384 14.019 14.019 0 011.252 4.098c.229 1.543-.227 2.863-1.159 3.364a1.507 1.507 0 01-1.755-.218c-1.182-1.056-1.101-3.682.204-7.057a10.94 10.94 0 00-2.11-2.788c-1.89-1.788-4.288-2.733-6.939-2.733-5.47 0-9.923 4.483-9.923 9.993v.82c0 5.51 4.453 9.992 9.923 9.992a.691.691 0 110 1.38z" fill="#BFD8FE"/><path d="M1361.992 537.675c-.019 0-.036 0-.054-.002a.69.69 0 01-.635-.741c.457-5.884 3.198-11.349 7.518-14.996 3.954-3.336 8.89-4.924 13.902-4.47 4.405.398 8.454 2.3 11.709 5.499a.69.69 0 11-.97.984c-3.023-2.973-6.78-4.74-10.864-5.11-4.64-.419-9.216 1.056-12.884 4.152-4.042 3.41-6.605 8.53-7.034 14.047a.69.69 0 01-.688.637M1454.805 552.678a.69.69 0 01-.691-.69c0-2.312-2.044-5.337-5.208-7.707-3.702-2.772-8.257-4.299-12.824-4.299-4.61 0-9.167 1.489-12.829 4.189-3.209 2.366-5.203 5.362-5.203 7.817a.69.69 0 01-1.381 0c0-2.929 2.154-6.265 5.763-8.928 3.898-2.874 8.745-4.458 13.65-4.458 4.864 0 9.713 1.625 13.653 4.576 3.553 2.66 5.76 6.037 5.76 8.81 0 .38-.31.69-.69.69M1334.197 543.149c-.762 0-1.383.618-1.383 1.38a1.383 1.383 0 002.765 0c0-.762-.621-1.38-1.382-1.38zm0 4.139a2.765 2.765 0 01-2.764-2.76 2.764 2.764 0 015.527 0c0 1.522-1.24 2.76-2.763 2.76zM1444.994 526.964c-.763 0-1.382.619-1.382 1.38a1.381 1.381 0 002.763 0c0-.761-.619-1.38-1.381-1.38zm0 4.14a2.763 2.763 0 01-2.763-2.76 2.764 2.764 0 015.525 0c0 1.523-1.24 2.76-2.762 2.76zM1410.37 524.33c-.686 1.49-2.061 5.13-1.145 8.77.923 3.67 3.931 6.394 5.252 7.443.686-1.49 2.06-5.13 1.145-8.771-.924-3.67-3.931-6.394-5.252-7.443zm4.586 18.244l-.615-.41c-.208-.14-5.135-3.475-6.455-8.728-1.324-5.264 1.515-10.286 1.636-10.497l.369-.64.614.41c.209.14 5.135 3.474 6.456 8.727 1.324 5.266-1.515 10.286-1.637 10.498l-.368.64z" fill="#BFD8FE"/><path d="M1258.992 715.247c-9.886-22.42-25.62-44.621-45.505-64.204-20.38-20.07-44.654-36.879-70.195-48.61l.64-1.394c25.703 11.805 50.127 28.719 70.633 48.912 20.021 19.717 35.87 42.083 45.831 64.678l-1.404.618M1169.01 573.129v32.56a288.987 288.987 0 00-17.025-9.505v-12.757l17.025-10.298M1174.537 607.682h1.535v-34.553h-1.535zM1226.513 573.129v79.292a240.79 240.79 0 00-17.024-16.886v-52.108l17.024-10.298M1233.421 656.256l-1.535-.003.154-83.126 1.535.003-.154 83.126M1266.99 717.147h17.026V573.13l-17.026 10.298v133.72M1289.543 717.147h1.535V573.13h-1.535zM1439.053 552.04v12.265h-282.027-32.432l-5.272-5.205 4.978-7.06h314.753M1152.502 568.62h286.551v-1.576h-286.551z" fill="#CEDDFC"/><path d="M1140.148 560.324l5.858 3.98h-40.33l-6.555-5.204 6.19-7.06h47.35l-12.513 8.284" fill="#729CF8"/><g><path d="M1431.968 698.317h-28.35c-5.3-15.898-10.399-35.148-10.786-51.202-.825-34.17 21.45-73.585 21.45-73.585s21.696 32.95 24.439 67.019c1.894 23.563-1.808 43.06-6.753 57.768" fill="#A5BFFA"/><path d="M1428.132 698.317h-24.514c-5.3-15.898-10.399-35.148-10.786-51.202a81.216 81.216 0 01.062-5.601c26.533 15.354 33.809 48.546 35.238 56.803" fill="#30364D"/><path d="M1428.555 698.317s-13.034-61.736-72.935-57.313c-59.9 4.425-60.305 57.313-60.305 57.313h133.24" fill="#EAB729"/><path d="M1319.876 698.317s-6.073-43.313-63.758-66.334c0 0 .523 45.095 24.228 66.334h39.53" fill="#2A5AD9"/><path d="M1295.287 676.272a1.042 1.042 0 11-2.084.001 1.042 1.042 0 012.084-.001M1305.266 677.314a1.044 1.044 0 01-2.088 0 1.044 1.044 0 012.088 0M1305.266 669.803a1.043 1.043 0 01-2.088 0c0-.574.467-1.04 1.044-1.04.576 0 1.044.466 1.044 1.04M1265.262 662.454c.85 1.116-.411 2.376-1.528 1.527-.85-1.115.41-2.377 1.528-1.527M1276.581 669.567c.851 1.116-.412 2.376-1.529 1.526-.85-1.115.413-2.377 1.53-1.526M1275.738 662.585c.851 1.115-.412 2.375-1.529 1.525-.85-1.115.412-2.375 1.53-1.525M1282.628 671.813a1.042 1.042 0 11-2.085 0 1.042 1.042 0 012.085 0M1275.816 681.488a1.042 1.042 0 11-2.084.001 1.042 1.042 0 012.084-.001M1288.589 677.11a1.045 1.045 0 01-2.049.408 1.044 1.044 0 012.049-.407M1300.522 681.758a1.045 1.045 0 01-2.048.409 1.044 1.044 0 012.048-.409M1293.927 683.856a1.045 1.045 0 01-2.048.409 1.046 1.046 0 012.048-.41M1286.755 682.837a1.045 1.045 0 01-2.047.408 1.044 1.044 0 012.047-.408M1307.868 682.075c.851 1.116-.412 2.376-1.527 1.526-.851-1.116.41-2.376 1.527-1.526M1306.826 686.1c.85 1.115-.412 2.377-1.529 1.527-.85-1.116.412-2.377 1.53-1.527M1313.299 689.665a1.045 1.045 0 01-1.227 1.228 1.044 1.044 0 111.227-1.227M1312.255 695.904a1.045 1.045 0 01-2.047.409 1.044 1.044 0 012.047-.41M1298.435 695.904a1.046 1.046 0 01-2.048.409 1.045 1.045 0 012.048-.41M1306.29 693.11a1.043 1.043 0 11-2.048.405 1.043 1.043 0 012.048-.405M1293.927 693.11a1.044 1.044 0 01-2.048.409 1.045 1.045 0 012.048-.409M1283.653 693.987a1.045 1.045 0 01-2.049.407 1.044 1.044 0 012.049-.407M1278.669 689.5c.85 1.115-.412 2.375-1.53 1.525-.85-1.116.412-2.376 1.53-1.526M1287.51 690.708a1.044 1.044 0 01-2.048.407 1.045 1.045 0 012.049-.407M1299.478 689.016a1.043 1.043 0 11-2.048.405 1.043 1.043 0 012.048-.405M1282.61 678.154a1.045 1.045 0 01-2.05.407 1.046 1.046 0 012.05-.407M1281.306 684.34c.85 1.115-.413 2.376-1.53 1.526-.85-1.115.413-2.377 1.53-1.527M1288.18 670.33a1.044 1.044 0 01-2.088 0 1.043 1.043 0 012.088 0M1299.498 670.33a1.043 1.043 0 11-2.087-.001 1.043 1.043 0 012.087.001M1271.31 659.33a1.043 1.043 0 11-2.087-.002 1.043 1.043 0 012.087.001M1270.435 668.487a1.043 1.043 0 11-2.088-.002 1.043 1.043 0 012.088.002M1272.333 676.068a1.044 1.044 0 01-2.049.407 1.045 1.045 0 012.05-.407M1282.628 663.348a1.042 1.042 0 11-2.085 0 1.042 1.042 0 012.085 0M1289.651 662.174a1.043 1.043 0 11-2.088-.002 1.043 1.043 0 012.088.002M1292.884 656.264a1.044 1.044 0 01-2.047.407 1.043 1.043 0 012.047-.407M1297.392 662.13a1.045 1.045 0 01-2.049.41 1.046 1.046 0 012.049-.41M1293.927 668.284a1.044 1.044 0 01-2.048.407 1.045 1.045 0 012.048-.407M1265.542 656.467a1.043 1.043 0 11-2.087-.001 1.043 1.043 0 012.087.001M1276.86 656.467a1.043 1.043 0 11-2.087-.001 1.043 1.043 0 012.087.001M1284.715 656.467a1.044 1.044 0 01-2.087 0 1.043 1.043 0 012.088 0M1261.034 649.693a1.042 1.042 0 11-2.085.001 1.042 1.042 0 012.085-.001M1271.31 649.693a1.043 1.043 0 11-2.087-.002 1.043 1.043 0 012.087.002M1282.628 649.693a1.042 1.042 0 11-2.085 0 1.042 1.042 0 012.085 0M1259.991 636.038a1.043 1.043 0 01-2.087 0c0-.575.466-1.04 1.044-1.04.575 0 1.043.465 1.043 1.04M1276.86 646.257a1.042 1.042 0 11-2.085 0 1.042 1.042 0 012.085 0M1261.034 641.156a1.042 1.042 0 11-2.085.002 1.042 1.042 0 012.085-.002M1266.585 646.752a1.043 1.043 0 11-2.086-.004 1.043 1.043 0 012.086.004M1269.222 640.114a1.044 1.044 0 01-2.088 0 1.044 1.044 0 012.088 0" fill="#007FFF"/><path d="M1286.64 698.317h-6.294c-9.684-8.676-15.498-21.332-18.989-33.268 21.103 9.172 25.283 33.268 25.283 33.268" fill="#30364D"/><path d="M1286.487 698.317s-12.488-35.1-59.106-27.412c0 0 10.187 22.86 31.688 27.412h27.418" fill="#007FFF"/><path d="M1406.524 698.317h-73.477c3.206-5.808 7.876-11.082 13.86-15.227 18.833-13.046 43.574-9.983 55.257 6.846 1.308 1.881 3.081 5.42 4.36 8.381" fill="#A5BFFA"/><path d="M1406.524 698.317h-73.477a43.283 43.283 0 012.76-4.365 44.278 44.278 0 013.04-3.774 44.81 44.81 0 012.748-2.801c.186-.177.376-.351.567-.527a45.993 45.993 0 013.418-2.806 46.49 46.49 0 013.05-2.094c.214-.133.427-.266.643-.395a45.06 45.06 0 013.808-2.078 45.3 45.3 0 013.123-1.375 43.844 43.844 0 014.463-1.503 43.223 43.223 0 013.933-.904 42.786 42.786 0 014.138-.548 42.71 42.71 0 014.37-.134 40.024 40.024 0 018.693 1.144 36.723 36.723 0 016.6 2.304h.002a34.586 34.586 0 016.767 4.099 33.478 33.478 0 016.994 7.376c1.308 1.881 3.081 5.42 4.36 8.381" fill="#A5BFFA"/><path d="M1338.235 698.317h-.86l-2.05-3.683c.16-.228.32-.455.483-.682l2.427 4.365M1343.376 698.317h-.859l-4.197-7.54c.173-.203.35-.401.527-.599l4.529 8.139M1348.542 698.317h-.86l-6.087-10.94c.186-.177.376-.351.567-.527l6.38 11.467M1353.658 698.317h-.865l-7.818-13.813c.2-.157.401-.31.605-.46l8.078 14.273M1358.552 698.317h-.862l-9.06-16.368c.214-.132.427-.265.643-.394l9.279 16.762M1363.564 698.317h-.862l-10.296-18.504c.224-.113.45-.225.675-.336l10.483 18.84M1368.509 698.317h-.863l-11.442-20.215c.237-.095.473-.185.71-.275l11.595 20.49M1372.956 698.317h-.863l-12.17-21.501c.248-.076.495-.146.744-.216l12.29 21.717M1377.404 698.317h-.865l-12.717-22.472c.258-.053.518-.103.778-.15l12.804 22.622M1381.851 698.317h-.865l-13.07-23.094c.274-.026.55-.053.822-.076l13.113 23.17M1386.298 698.317h-.865l-13.195-23.315c.29 0 .58.004.87.011l13.19 23.304M1390.744 698.317h-.863l-13.047-23.052c.311.036.623.073.93.117l12.98 22.935M1395.191 698.317h-.863l-12.488-22.065a.305.305 0 01-.039-.095c.335.082.668.17.997.26l12.393 21.9M1399.639 698.317h-.865l-11.524-20.36c.388.16.77.329 1.151.504h.002l11.236 19.856M1404.086 698.317h-.863l-9.533-16.84c.503.347.996.707 1.48 1.083l8.916 15.757" fill="#FFF"/><path d="M1398.301 566.42c-.597 0-1.083.484-1.083 1.08a1.083 1.083 0 002.164 0c0-.596-.485-1.08-1.08-1.08zm0 2.928a1.85 1.85 0 01-1.85-1.847 1.85 1.85 0 013.7 0c0 1.018-.831 1.847-1.85 1.847zM1398.301 572.704c-.597 0-1.083.485-1.083 1.08a1.083 1.083 0 002.164 0c0-.595-.485-1.08-1.08-1.08zm0 2.928a1.85 1.85 0 01-1.85-1.848 1.85 1.85 0 011.85-1.847c1.019 0 1.85.83 1.85 1.847a1.85 1.85 0 01-1.85 1.848zM1395.154 569.563c-.596 0-1.081.485-1.081 1.08a1.082 1.082 0 002.164 0c0-.595-.486-1.08-1.083-1.08zm0 2.927a1.85 1.85 0 01-1.85-1.847 1.85 1.85 0 013.7 0 1.85 1.85 0 01-1.85 1.847zM1401.446 569.563c-.597 0-1.082.485-1.082 1.08a1.083 1.083 0 002.165 0c0-.595-.487-1.08-1.083-1.08zm0 2.927a1.85 1.85 0 01-1.85-1.847 1.85 1.85 0 011.85-1.848c1.02 0 1.85.83 1.85 1.848a1.85 1.85 0 01-1.85 1.847z" fill="#DBAB07"/><path d="M1269.392 685.783c-.596 0-1.082.484-1.082 1.08a1.082 1.082 0 002.164 0c0-.596-.485-1.08-1.082-1.08zm0 2.927a1.85 1.85 0 01-1.85-1.848 1.85 1.85 0 013.7 0 1.85 1.85 0 01-1.85 1.848zM1269.392 692.066a1.082 1.082 0 101.083 1.081c0-.595-.486-1.08-1.083-1.08zm0 2.929a1.85 1.85 0 01-1.85-1.847 1.85 1.85 0 013.7 0 1.85 1.85 0 01-1.85 1.847zM1266.246 688.924c-.596 0-1.082.485-1.082 1.082a1.084 1.084 0 002.165 0c0-.597-.487-1.082-1.083-1.082zm0 2.93a1.85 1.85 0 01-1.85-1.848 1.85 1.85 0 013.7 0 1.85 1.85 0 01-1.85 1.847zM1272.538 688.924c-.597 0-1.082.485-1.082 1.082a1.083 1.083 0 002.164 0c0-.597-.486-1.082-1.082-1.082zm0 2.93a1.85 1.85 0 01-1.85-1.848 1.85 1.85 0 013.698 0 1.85 1.85 0 01-1.848 1.847zM1319.68 679.791c-3.947 0-7.157 3.207-7.157 7.15 0 3.941 3.21 7.148 7.157 7.148 3.946 0 7.157-3.207 7.157-7.149s-3.21-7.149-7.157-7.149zm0 15.333c-4.518 0-8.193-3.672-8.193-8.184 0-4.512 3.675-8.184 8.193-8.184 4.517 0 8.193 3.672 8.193 8.184 0 4.512-3.676 8.184-8.193 8.184z" fill="#FFF"/><path d="M1246.484 649.407c-.555 0-1.006.45-1.006 1.004a1.007 1.007 0 002.011 0c0-.553-.45-1.004-1.005-1.004zm0 2.929a1.929 1.929 0 01-1.927-1.925c0-1.06.865-1.924 1.927-1.924 1.061 0 1.926.864 1.926 1.924a1.928 1.928 0 01-1.926 1.925zM1246.484 655.692c-.555 0-1.006.45-1.006 1.004a1.006 1.006 0 002.011 0c0-.553-.45-1.004-1.005-1.004zm0 2.927a1.927 1.927 0 01-1.927-1.923c0-1.061.865-1.925 1.927-1.925 1.061 0 1.926.864 1.926 1.925a1.927 1.927 0 01-1.926 1.923zM1243.337 652.549c-.553 0-1.004.45-1.004 1.005a1.006 1.006 0 002.01 0c0-.555-.45-1.005-1.006-1.005zm0 2.929a1.928 1.928 0 01-1.925-1.924c0-1.061.865-1.925 1.925-1.925 1.063 0 1.928.864 1.928 1.925 0 1.06-.865 1.924-1.928 1.924zM1249.63 652.549c-.554 0-1.005.45-1.005 1.005a1.006 1.006 0 002.01 0c0-.555-.452-1.005-1.005-1.005zm0 2.929a1.928 1.928 0 01-1.928-1.924 1.927 1.927 0 013.853 0c0 1.06-.863 1.924-1.925 1.924z" fill="#CEDDFC"/><path d="M1421.813 698.325a.391.391 0 01-.245-.086c-.028-.023-2.794-2.243-6.85-6.477-3.736-3.904-9.37-10.37-14.994-19.014-6.32-9.717-11.34-20.15-14.917-31.007-4.473-13.574-6.692-27.855-6.6-42.447a.393.393 0 01.394-.39h.002a.394.394 0 01.392.397c-.093 14.498 2.112 28.687 6.554 42.174 3.552 10.79 8.54 21.16 14.818 30.818 5.589 8.595 11.189 15.025 14.902 18.905 4.024 4.204 6.762 6.404 6.79 6.426a.393.393 0 01-.246.7" fill="#007FFF"/><path d="M1376.814 594.369c-.678 3.48.653 4.78 1.898 5.02 1.246.24 3.081-.875 3.382-4.408.336-3.956-.078-7.999-.924-8.198-.918-.216-3.678 4.104-4.356 7.586M1370.548 608.707c1.839 2.256 3.595 2.322 4.581 1.53.987-.793.903-2.434-.936-4.69-1.839-2.256-5.13-3.855-5.824-3.32-.739.568.34 4.224 2.18 6.48M1381.683 606.616c-1.705 2.357-1.302 4.055-.27 4.789 1.03.733 2.6.217 4.305-2.142 1.705-2.358 2.386-5.932 1.683-6.454-.748-.556-4.013 1.448-5.718 3.807M1372.619 624.985c2.204 2.705 4.309 2.78 5.49 1.832 1.182-.95 1.082-2.917-1.122-5.62-2.204-2.706-6.15-4.621-6.982-3.981-.885.682.41 5.065 2.614 7.769M1384.665 620.94c-1.668 2.971-.97 4.893.327 5.61 1.297.719 3.058-.09 4.725-3.06 1.668-2.971 1.98-7.22 1.092-7.736-.944-.549-4.476 2.217-6.144 5.186M1375.889 645.414c3.955 2.481 6.648 1.683 7.732-.02 1.086-1.703.11-4.147-3.847-6.627-3.954-2.482-9.769-3.226-10.545-2.06-.824 1.238 2.705 6.227 6.66 8.707M1388.695 637.216c-1.955 3.484-1.138 5.738.385 6.58 1.521.842 3.585-.105 5.542-3.589 1.956-3.485 2.324-8.47 1.282-9.074-1.11-.643-5.252 2.598-7.209 6.083M1383.408 664.11c4.21 1.696 6.645.471 7.386-1.34.742-1.814-.616-3.981-4.825-5.675-4.21-1.695-9.895-1.412-10.435-.166-.573 1.324 3.666 5.488 7.874 7.181M1397.027 654.733c-2.42 4.312-1.41 7.103.475 8.145 1.883 1.041 4.439-.132 6.86-4.444 2.42-4.311 2.876-10.48 1.586-11.229-1.372-.795-6.499 3.217-8.92 7.528M1390.632 681.093c4.903.94 7.27-.893 7.68-3.005.412-2.111-1.517-4.164-6.42-5.104-4.903-.94-10.976.564-11.292 2.022-.336 1.549 5.129 5.147 10.032 6.087M1401.526 694.204c4.926-1.11 6.367-3.762 5.883-5.884-.484-2.121-3.111-3.243-8.038-2.133-4.926 1.109-9.935 4.953-9.63 6.43.323 1.57 6.858 2.695 11.785 1.587M1404.51 668.219c-2.423 4.311-1.412 7.102.474 8.145 1.884 1.04 4.438-.133 6.858-4.444 2.422-4.312 2.876-10.48 1.587-11.23-1.372-.797-6.5 3.217-8.92 7.529M1415.173 676.774c-2.42 4.312-1.41 7.102.474 8.143 1.884 1.043 4.44-.13 6.86-4.442s2.876-10.482 1.587-11.23c-1.372-.796-6.5 3.217-8.921 7.529" fill="#EA6F79"/></g><g><path d="M33.353 553.633c0-18.239 15.064-33.023 33.647-33.023 18.582 0 33.647 14.784 33.647 33.023H33.353" fill="#DEEBFE"/><path d="M131.736 543.442a.69.69 0 01-.637-.956 17.77 17.77 0 00.586-11.99 17.654 17.654 0 00-8.65-10.501 17.684 17.684 0 00-13.55-1.313c-4.702 1.431-8.506 4.638-10.712 9.027a.692.692 0 01-1.235-.618c2.377-4.731 6.477-8.187 11.544-9.73a19.057 19.057 0 0114.602 1.417 19.02 19.02 0 019.322 11.315 19.155 19.155 0 01-.631 12.924.692.692 0 01-.639.425M114.35 553.863a.69.69 0 01-.691-.69c0-8.68-7.19-15.741-16.026-15.741-8.836 0-16.025 7.061-16.025 15.74a.69.69 0 01-1.382 0c0-9.44 7.809-17.12 17.407-17.12 9.598 0 17.407 7.68 17.407 17.12 0 .382-.31.69-.69.69" fill="#BFD8FE"/><path d="M151.793 553.863a.69.69 0 01-.69-.69c0-6.646-5.413-12.053-12.066-12.053-2.482 0-4.866.746-6.893 2.158a.69.69 0 11-.79-1.13 13.383 13.383 0 017.683-2.408c7.415 0 13.447 6.026 13.447 13.433 0 .38-.309.69-.69.69M138.636 531.917c-.762 0-1.382.619-1.382 1.38a1.382 1.382 0 002.763 0c0-.761-.62-1.38-1.381-1.38zm0 4.14a2.764 2.764 0 01-2.763-2.76c0-1.521 1.24-2.76 2.763-2.76a2.765 2.765 0 012.763 2.76c0 1.523-1.24 2.76-2.763 2.76zM97.59 504.923c-1.2 1.507-4.124 5.695-4.04 10.592.085 4.932 3.191 9.249 4.436 10.784 1.198-1.508 4.123-5.695 4.039-10.594-.085-4.932-3.191-9.247-4.436-10.782zm.4 23.131a.688.688 0 01-.505-.217c-.212-.225-5.201-5.615-5.316-12.297-.115-6.693 4.706-11.934 4.912-12.155a.69.69 0 011.01 0c.21.225 5.2 5.615 5.315 12.297.115 6.693-4.706 11.934-4.912 12.153a.69.69 0 01-.504.22z" fill="#BFD8FE"/><path d="M155.908 714.629c10.956-24.847 28.263-48.955 50.052-69.72a252.786 252.786 0 0136.275-28.697c13.403-8.735 27.616-16.181 42.248-22.127l.579 1.42c-14.542 5.91-28.668 13.308-41.987 21.992a251.3 251.3 0 00-36.056 28.521c-21.643 20.627-38.83 44.566-49.706 69.23l-1.405-.62zM129.004 717.147h17.026V573.13l-17.026 10.298v133.72M151.556 717.147h1.535V573.13h-1.535zM203.533 573.129v62.6a239.967 239.967 0 00-17.026 16.927v-69.229l17.026-10.298M209.058 630.515h1.536v-57.386h-1.536zM261.034 573.129v23.167a289.195 289.195 0 00-17.025 9.523v-22.392l17.025-10.298M266.561 593.229h1.536v-20.1h-1.536zM306.38 553.007l-7.843 7.207.722 4.09H.977v-11.297h305.404M62.762 568.62h212.787v-1.576H62.762z" fill="#CEDDFC"/><path d="M332.651 560l1.04 4.09h-45.094l8.712-3.806-12.172-7.491h58.818L332.651 560" fill="#729CF8"/></g><g><path d="M1.224 697.564s10.085-74.71 59.897-65.096c49.813 9.615 44.312 65.096 44.312 65.096H1.224" fill="#39F"/><path d="M183.288 697.746h-76.599s12.158-23.037 40.196-22.984c17.643.034 31.773 11.65 36.403 22.984" fill="#EAB729"/><path d="M43.938 674.596a.457.457 0 01-.444-.57c.05-.198 5.058-20.05 4.77-47.929-.17-16.366-2.105-32.256-5.752-47.227-4.557-18.706-11.814-36.024-21.571-51.472a.458.458 0 01.774-.488c9.813 15.536 17.11 32.951 21.69 51.761 3.663 15.043 5.606 31.006 5.774 47.445.287 27.992-4.748 47.939-4.799 48.136a.457.457 0 01-.442.344" fill="#30364D"/><path d="M25.357 539.654c.32-2.276 1.403-3.04 2.32-2.913.917.129 1.422 1.283 1.102 3.56-.32 2.274-1.746 4.692-2.384 4.618-.677-.08-1.358-2.988-1.038-5.265M37.15 567.023c1.979-1.175 3.254-.808 3.727-.013.473.796-.113 1.91-2.091 3.084-1.979 1.175-4.76 1.573-5.1 1.03-.36-.579 1.486-2.927 3.464-4.101" fill="#30364D"/><path d="M40.417 568.659c-2.252-.476-2.94-1.608-2.749-2.513.192-.904 1.379-1.328 3.63-.853 2.251.476 4.566 2.065 4.448 2.696-.127.668-3.078 1.147-5.33.67M28.426 538.747c-2.293-.2-3.114-1.242-3.033-2.163.08-.921 1.208-1.485 3.5-1.285 2.293.2 4.783 1.498 4.741 2.138-.044.68-2.916 1.51-5.208 1.31" fill="#30364D"/><path d="M23.709 525.156c2.9 3.842 2.064 6.217.698 7.245-1.366 1.029-4.255.76-6.728-3.37-2.77-4.625-4.683-9.8-3.776-10.545.982-.805 6.905 2.827 9.806 6.67" fill="#D64361"/><path d="M31.173 531.33c-.65 4.869-3.115 6.496-5.229 6.214-2.114-.282-3.44-2.727-2.788-7.595.651-4.866 3.966-10.054 5.435-9.888 1.561.176 3.233 6.403 2.582 11.27" fill="#EA6F79"/><path d="M23.201 531.199c4.209 1.401 5.235 3.858 4.626 5.682-.608 1.822-3.002 2.582-7.21 1.18-4.208-1.4-8.709-5.215-8.313-6.488.42-1.352 6.69-1.776 10.897-.374M38.763 555.197c4.512 4.506 4.17 8.406 2.135 10.437-2.034 2.032-5.66 1.53-10.172-2.976-4.511-4.506-7.159-12.102-5.778-13.538 1.469-1.526 9.304 1.57 13.815 6.077" fill="#FEC2C2"/><path d="M42.919 555.385c1.033 6.126-1.07 8.968-3.474 9.374-2.404.404-4.724-2.09-5.757-8.217-1.033-6.126.722-13.581 2.381-13.9 1.764-.338 5.816 6.616 6.85 12.743" fill="#EA6F79"/><path d="M47.838 559.279c-2.087 6.296-6.136 7.716-9.226 6.693-3.09-1.02-4.318-4.686-2.232-10.982 2.087-6.297 8.034-12.206 10.188-11.538 2.289.711 3.356 9.53 1.27 15.827" fill="#D64361"/><path d="M50.316 644.485c-2.856-2.415-2.968-4.567-1.995-5.715.973-1.148 2.999-.84 5.855 1.574 2.856 2.415 4.944 6.473 4.288 7.284-.697.861-5.291-.728-8.148-3.143" fill="#30364D"/><path d="M43.578 641.994c2.063-3.118 4.189-3.483 5.445-2.654 1.256.83 1.19 2.875-.873 5.993-2.063 3.119-5.85 5.67-6.734 5.114-.939-.59.099-5.334 2.162-8.453" fill="#30364D"/><path d="M49.31 588.236c4.855 7.302 2.88 12.766-.848 15.24-3.729 2.472-8.813 1.03-13.667-6.271-4.855-7.301-5.829-18.611-3.276-20.37 2.713-1.87 12.937 4.1 17.791 11.401" fill="#D64361"/><path d="M50.98 585.609c-.696 7.073-4.204 9.55-7.301 9.245-3.097-.303-4.812-3.74-4.116-10.814.696-7.075 4.914-14.775 7.064-14.609 2.286.177 5.048 9.104 4.352 16.178" fill="#FEC2C2"/><path d="M49.295 620.212c6.681 8.184 5.04 14.899.942 18.238-4.099 3.34-10.304 2.158-16.985-6.026-6.681-8.182-9.28-21.549-6.482-23.912 2.975-2.514 15.844 3.516 22.525 11.7" fill="#D64361"/><path d="M63.468 624.918c-1.914 11.744-7.657 15.57-12.435 14.792-4.778-.777-7.571-6.746-5.658-18.49 1.914-11.743 9.91-22.233 13.232-21.768 3.532.495 6.775 13.723 4.861 25.466" fill="#EA6F79"/><path d="M63.468 624.918c-1.576 9.665-5.745 13.967-9.834 14.753-1.942-.164-1.938-.933-3.328-2.076-3.874-3.179-3.967-9.119 2.324-16.768 3.422-4.156 6.58-7.478 10.932-9.295.442 4.328.608 9.085-.094 13.386" fill="#D64361"/><path d="M65.183 636.948c-7.275 6.72-13.7 5.536-17.104 1.86-3.404-3.677-2.688-9.575 4.587-16.295 7.275-6.72 19.689-9.877 22.092-7.373 2.555 2.663-2.3 15.087-9.575 21.808" fill="#FEC2C2"/><path d="M55.519 595.067c-2.837 8.254-7.699 10.228-11.283 9-3.585-1.23-6.561-6.449-3.724-14.702 2.837-8.254 11.95-15.636 14.45-14.836 2.659.85 3.394 12.284.557 20.538" fill="#EA6F79"/><path d="M167.947 673.261a5.227 5.227 0 00-5.225 5.22 5.227 5.227 0 005.225 5.218 5.227 5.227 0 005.223-5.219 5.227 5.227 0 00-5.223-5.219zm0 11.358c-3.39 0-6.146-2.753-6.146-6.139 0-3.384 2.756-6.139 6.146-6.139 3.388 0 6.144 2.755 6.144 6.14s-2.756 6.138-6.144 6.138z" fill="#007FFF"/><path d="M72.29 666.85c-.596 0-1.081.485-1.081 1.082a1.082 1.082 0 002.163 0c0-.597-.485-1.082-1.082-1.082zm0 2.929c-1.02 0-1.85-.83-1.85-1.847a1.85 1.85 0 013.7 0c0 1.017-.83 1.847-1.85 1.847zM72.29 673.135c-.596 0-1.081.485-1.081 1.08a1.083 1.083 0 002.163 0c0-.595-.485-1.08-1.082-1.08zm0 2.927a1.85 1.85 0 01-1.85-1.847c0-1.018.83-1.847 1.85-1.847s1.85.83 1.85 1.847a1.85 1.85 0 01-1.85 1.847zM69.145 669.992a1.083 1.083 0 000 2.163 1.083 1.083 0 000-2.163zm0 2.929a1.85 1.85 0 01-1.85-1.848 1.85 1.85 0 013.7 0 1.85 1.85 0 01-1.85 1.848zM75.436 669.992c-.596 0-1.082.485-1.082 1.081 0 .595.486 1.082 1.082 1.082a1.083 1.083 0 000-2.163zm0 2.929a1.85 1.85 0 01-1.85-1.848 1.85 1.85 0 013.7 0 1.85 1.85 0 01-1.85 1.848z" fill="#FFF"/><path d="M13.675 626.149c-.554 0-1.005.45-1.005 1.004a1.006 1.006 0 002.01 0c0-.554-.45-1.004-1.005-1.004zm0 2.929a1.928 1.928 0 01-1.926-1.925c0-1.06.864-1.924 1.926-1.924 1.062 0 1.927.864 1.927 1.924a1.928 1.928 0 01-1.927 1.925zM13.675 632.434c-.554 0-1.005.45-1.005 1.004a1.006 1.006 0 002.01 0c0-.554-.45-1.004-1.005-1.004zm0 2.927a1.927 1.927 0 01-1.926-1.923 1.927 1.927 0 013.853 0 1.927 1.927 0 01-1.927 1.923zM10.53 629.292a1.005 1.005 0 10-.001 2.01 1.005 1.005 0 000-2.01zm0 2.927a1.927 1.927 0 01-1.927-1.923c0-1.061.864-1.925 1.927-1.925 1.062 0 1.926.864 1.926 1.925a1.927 1.927 0 01-1.926 1.923zM16.821 629.292a1.005 1.005 0 100 2.01 1.005 1.005 0 000-2.01zm0 2.927a1.927 1.927 0 01-1.926-1.923c0-1.061.864-1.925 1.926-1.925 1.062 0 1.926.864 1.926 1.925a1.927 1.927 0 01-1.926 1.923z" fill="#CEDDFC"/><path d="M56.232 555.551c-.597 0-1.082.485-1.082 1.08a1.083 1.083 0 002.164 0c0-.595-.485-1.08-1.082-1.08zm0 2.927a1.85 1.85 0 01-1.85-1.847c0-1.018.83-1.847 1.85-1.847s1.85.83 1.85 1.847a1.85 1.85 0 01-1.85 1.847zM56.232 561.835c-.597 0-1.082.484-1.082 1.081a1.082 1.082 0 002.164 0c0-.597-.485-1.081-1.082-1.081zm0 2.928c-1.02 0-1.85-.83-1.85-1.847a1.85 1.85 0 013.7 0c0 1.018-.83 1.847-1.85 1.847zM53.086 558.693c-.596 0-1.082.485-1.082 1.081a1.082 1.082 0 002.164 0c0-.596-.485-1.081-1.082-1.081zm0 2.929c-1.02 0-1.85-.83-1.85-1.848a1.85 1.85 0 013.7 0c0 1.018-.83 1.848-1.85 1.848zM59.378 558.693c-.597 0-1.082.485-1.082 1.081a1.082 1.082 0 002.164 0c0-.596-.486-1.081-1.082-1.081zm0 2.929c-1.02 0-1.85-.83-1.85-1.848a1.85 1.85 0 013.7 0c0 1.018-.83 1.848-1.85 1.848z" fill="#DBAB07"/><path d="M23.38 516.418c-.719 0-1.304.584-1.304 1.302a1.305 1.305 0 002.61 0c0-.718-.586-1.302-1.306-1.302zm0 3.525a2.227 2.227 0 01-2.225-2.223c0-1.226.998-2.224 2.225-2.224 1.228 0 2.226.998 2.226 2.224a2.227 2.227 0 01-2.226 2.223z" fill="#007FFF"/><path d="M140.318 686.046c-18.457 14.349-43.831 11.644-43.831 11.644s4.55-25.972 23.007-40.323c18.457-14.35 43.831-11.645 43.831-11.645s-4.55 25.973-23.007 40.324" fill="#A5BFFA"/><path d="M96.487 697.982a.292.292 0 01-.18-.522l66.625-51.802a.293.293 0 01.359.462L96.666 697.92a.297.297 0 01-.179.06" fill="#FFF"/><path d="M161.606 652.516c-.059.192-.118.389-.18.586l-5.18-1.476a.306.306 0 11.17-.589l5.19 1.48M162.529 649.233c-.05.193-.101.39-.156.594l-2.79-.796a.306.306 0 11.168-.589l2.778.791M160.354 656.322c-.07.192-.138.385-.208.58l-7.819-2.229a.308.308 0 01-.213-.377.31.31 0 01.381-.213l7.86 2.239M158.943 660.02l-.236.57-10.237-2.917a.306.306 0 01-.21-.379.304.304 0 01.378-.211l10.305 2.937M157.344 663.682a96.46 96.46 0 00-.266.56l-12.485-3.556a.305.305 0 01-.21-.379.304.304 0 01.38-.21l12.581 3.585M155.617 667.152c-.096.184-.194.368-.295.553l-14.576-4.025a.306.306 0 01-.214-.377.309.309 0 01.378-.215l14.707 4.064M153.645 670.648c-.109.181-.22.362-.33.542l-16.23-4.666a.31.31 0 01-.209-.38.306.306 0 01.38-.21l16.389 4.714M151.494 673.99c-.122.178-.245.354-.37.533l-17.8-5.075a.305.305 0 01-.212-.378.307.307 0 01.38-.21l18.002 5.13M149.2 677.118c-.138.174-.276.35-.416.522l-19.179-5.296a.308.308 0 01-.214-.379.306.306 0 01.376-.213l19.432 5.366M146.804 679.972c-.153.17-.305.339-.462.508l-20.073-5.544a.306.306 0 11.163-.59l20.372 5.626M144.125 682.747c-.171.166-.345.33-.52.492l-20.673-5.708a.307.307 0 01.164-.592l21.029 5.808M141.096 685.426c-.194.16-.392.315-.59.472l-20.91-5.774a.306.306 0 11.164-.59l21.336 5.892M137.634 687.983c-.226.154-.453.302-.68.45l-20.693-5.716a.305.305 0 01-.214-.376.309.309 0 01.378-.216l21.209 5.858M133.639 690.395c-.263.144-.524.284-.789.42l-19.925-5.503a.308.308 0 01-.215-.377.31.31 0 01.378-.215l20.55 5.675M128.999 692.629c-.307.13-.615.258-.921.382l-18.489-5.106a.307.307 0 11.163-.59l19.247 5.314M123.535 694.636c-.365.115-.732.227-1.096.333l-16.187-4.47a.306.306 0 11.164-.59l17.12 4.727M116.96 696.333c-.454.096-.904.183-1.349.266l-12.695-3.505a.307.307 0 01.165-.592l13.878 3.831M108.665 697.56c-.61.055-1.205.105-1.782.144l-7.302-2.017a.306.306 0 11.164-.59l8.92 2.462" fill="#FFF"/><path d="M76.902 697.592h-68.3s5.779-32.945 36.647-32.945c16.085 0 27.433 14.773 31.653 32.945" fill="#30364D"/><path d="M104.745 697.592H69.859s4.893-15.126 19.067-15.126c7.386 0 13.881 6.782 15.819 15.126" fill="#30364D"/><path d="M97.07 697.746H.927s5.777-34.872 36.646-34.872c13.626 0 23.854 11.223 29.227 26.347 3.013-3.823 7.67-7.487 14.45-7.487 7.385 0 13.882 7.18 15.818 16.012" fill="#007FFF"/><path d="M49.28 677.14a1.042 1.042 0 11-1.41 1.534 1.044 1.044 0 011.41-1.535M54.645 671.82a1.042 1.042 0 11-1.411 1.534 1.044 1.044 0 011.41-1.535M41.135 667.445a1.042 1.042 0 11-1.411 1.535 1.042 1.042 0 111.411-1.535M18.788 689.896c1.398.127 1.474 1.91.093 2.156-1.399-.127-1.476-1.91-.093-2.156M31.687 686.373c1.398.13 1.475 1.91.093 2.159-1.399-.13-1.475-1.912-.093-2.159M25.966 682.273c1.398.129 1.475 1.91.093 2.158-1.398-.129-1.475-1.911-.093-2.158M37.432 683.441c.425.39.453 1.05.064 1.473-.39.425-1.05.453-1.475.064a1.042 1.042 0 01-.063-1.473 1.045 1.045 0 011.474-.064M39.964 694.995c.425.39.453 1.05.064 1.473-.39.425-1.05.452-1.475.064a1.042 1.042 0 01-.063-1.473 1.045 1.045 0 011.474-.064M45.37 682.637a1.044 1.044 0 11-1.085 1.783 1.044 1.044 0 011.085-1.783M56.866 676.996a1.042 1.042 0 11-1.081 1.783 1.042 1.042 0 011.081-1.783M53.956 683.267a1.044 1.044 0 11-1.085 1.784 1.044 1.044 0 011.085-1.784M48.355 687.857a1.042 1.042 0 11-1.082 1.782 1.042 1.042 0 011.082-1.782M45.779 665.113c1.398.129 1.474 1.91.092 2.158-1.398-.129-1.475-1.911-.092-2.158M11.16 690.713c1.399.128 1.475 1.91.094 2.157-1.399-.128-1.475-1.91-.093-2.157M59.164 693.623a1.042 1.042 0 11-1.158.049 1.042 1.042 0 011.158-.049M69.769 691.16a1.044 1.044 0 11-1.085 1.785 1.044 1.044 0 011.085-1.784M73.876 685.482a1.044 1.044 0 11-1.084 1.783 1.044 1.044 0 011.084-1.783M76.224 689.821a1.044 1.044 0 11-1.084 1.784 1.044 1.044 0 011.084-1.784M73.27 693.623a1.042 1.042 0 11-1.158.049 1.042 1.042 0 011.159-.049M78.488 694.873a1.042 1.042 0 11-1.082 1.782 1.042 1.042 0 011.082-1.782M81.48 691.16a1.044 1.044 0 11-1.084 1.785 1.044 1.044 0 011.084-1.784M86.31 693.828a1.044 1.044 0 11-1.085 1.784 1.044 1.044 0 011.084-1.784M84.737 687.64a1.042 1.042 0 11-1.082 1.782 1.042 1.042 0 011.082-1.782M79.393 684.25a1.044 1.044 0 11-1.084 1.785 1.044 1.044 0 011.084-1.784M84.222 682.67a1.042 1.042 0 11-1.081 1.783 1.042 1.042 0 011.081-1.782M89.018 685.648a1.042 1.042 0 11-1.158.048 1.042 1.042 0 011.158-.048M89.467 690.598a1.044 1.044 0 11-1.084 1.784 1.044 1.044 0 011.084-1.784M93.593 694.15a1.042 1.042 0 11-1.082 1.782 1.042 1.042 0 011.082-1.782M66.197 688.095a1.044 1.044 0 11-1.085 1.784 1.044 1.044 0 011.085-1.784M64.486 694.382a1.044 1.044 0 11-1.084 1.784 1.044 1.044 0 011.084-1.784M60.782 688.05a1.043 1.043 0 11-1.082 1.782 1.043 1.043 0 011.082-1.782M52.912 694.666a1.044 1.044 0 11-1.085 1.784 1.044 1.044 0 011.085-1.784M29.392 694.48c1.398.128 1.475 1.91.093 2.158-1.398-.13-1.475-1.911-.093-2.159M55.715 689.523a1.044 1.044 0 11-1.084 1.784 1.044 1.044 0 011.084-1.784M61.514 682.67a1.042 1.042 0 11-1.081 1.783 1.042 1.042 0 011.081-1.782M42.096 687.742a1.044 1.044 0 11-1.085 1.784 1.044 1.044 0 011.085-1.784M45.779 692.884c1.398.127 1.474 1.91.092 2.158-1.398-.129-1.475-1.911-.092-2.158M40.091 678.354a1.044 1.044 0 11-1.411 1.532 1.044 1.044 0 011.411-1.532M47.743 670.023c.425.388.453 1.049.064 1.473a1.042 1.042 0 11-1.538-1.41 1.045 1.045 0 011.474-.063M20.571 683.333a1.042 1.042 0 11-1.41 1.535 1.044 1.044 0 011.411-1.535M26.364 688.485a1.04 1.04 0 01.063 1.471 1.042 1.042 0 11-.063-1.471M35.573 691.498a1.044 1.044 0 11-1.084 1.784 1.044 1.044 0 011.084-1.784M31.187 677.719a1.042 1.042 0 11-1.411 1.536 1.042 1.042 0 011.411-1.536M35.07 671.757a1.042 1.042 0 11-1.41 1.535 1.044 1.044 0 011.41-1.535M29.98 665.38a1.044 1.044 0 11-1.084 1.784 1.044 1.044 0 011.084-1.784M36.662 664.257a1.042 1.042 0 11-1.08 1.782 1.042 1.042 0 011.08-1.782M42.468 672.739a1.044 1.044 0 11-1.085 1.784 1.044 1.044 0 011.085-1.784M14.56 685.643a1.044 1.044 0 11-1.474.062 1.044 1.044 0 011.474-.062M22.212 677.312c.425.39.454 1.049.064 1.473a1.042 1.042 0 11-.063-1.473M26.754 670.826a1.042 1.042 0 11-1.41 1.535 1.044 1.044 0 011.41-1.535M10.27 681.505a1.042 1.042 0 11-1.41 1.536 1.044 1.044 0 011.411-1.535M17.14 674.523c.424.39.452 1.048.063 1.473-.39.424-1.05.452-1.475.063a1.042 1.042 0 01-.063-1.473 1.045 1.045 0 011.474-.063M21.115 668.488a1.044 1.044 0 11-1.411 1.532 1.044 1.044 0 011.41-1.532M23.256 692.979a1.044 1.044 0 11-1.411 1.532 1.044 1.044 0 011.411-1.532M15.173 679.504c.424.39.453 1.049.063 1.473a1.042 1.042 0 11-1.538-1.41 1.045 1.045 0 011.475-.063M6.029 694.273c.424.39.453 1.049.063 1.473a1.042 1.042 0 11-1.538-1.41 1.045 1.045 0 011.475-.063M8.098 687.35a1.042 1.042 0 11-1.41 1.537 1.042 1.042 0 111.41-1.536M16.458 694.995a1.042 1.042 0 11-1.41 1.537 1.042 1.042 0 01-.064-1.473 1.045 1.045 0 011.474-.064" fill="#2A5AD9"/><path d="M95.306 697.486c-.02 0-.04-.002-.059-.003a.461.461 0 01-.398-.516c.015-.118 1.6-12.001 8.767-28.689 4.206-9.795 9.486-19.312 15.692-28.287 7.757-11.216 16.99-21.614 27.446-30.903a.46.46 0 01.613.689c-10.4 9.238-19.586 19.58-27.301 30.738-6.172 8.923-11.421 18.388-15.604 28.127-7.116 16.57-8.685 28.325-8.7 28.443a.46.46 0 01-.456.401" fill="#007FFF"/><path d="M134.594 610.014c-.414 2.853.754 4.161 2.03 4.335 1.274.174 2.442-.997 2.854-3.85.413-2.853-.672-6.307-1.552-6.445-.935-.146-2.92 3.11-3.332 5.96M147.112 606.302c-2.285 1.838-2.329 3.57-1.508 4.531.822.962 2.499.86 4.782-.979 2.285-1.838 3.88-5.1 3.324-5.778-.59-.72-4.315.388-6.598 2.226M143.591 616.618c-2.941.37-3.932 1.808-3.766 3.048.165 1.24 1.638 2.022 4.582 1.652 2.943-.37 6.085-2.3 5.988-3.16-.1-.916-3.86-1.91-6.804-1.54M122.195 621.946c.051 3.452 1.682 4.792 3.225 4.77 1.543-.02 2.704-1.618 2.653-5.07-.051-3.453-1.99-7.35-3.059-7.356-1.137-.007-2.87 4.202-2.819 7.656M136.053 629.003c-3.374.811-4.329 2.615-3.967 4.037.363 1.42 2.186 2.14 5.56 1.33 3.374-.811 6.768-3.464 6.538-4.453-.244-1.052-4.757-1.723-8.13-.914M109.054 635.092c.885 4.53 3.347 5.93 5.37 5.557 2.024-.373 3.174-2.732 2.29-7.26-.885-4.529-4.356-9.221-5.764-8.991-1.496.244-2.78 6.167-1.896 10.694M124.41 642.547c-3.959.951-5.078 3.066-4.653 4.733.425 1.667 2.563 2.513 6.521 1.562 3.959-.951 7.938-4.063 7.669-5.224-.288-1.234-5.58-2.022-9.538-1.07M99.798 651.758c1.648 4.18 4.249 5.104 6.117 4.411 1.867-.694 2.547-3.14.899-7.32-1.649-4.18-5.797-8.082-7.101-7.629-1.387.485-1.563 6.359.085 10.538M116.55 657.69c-4.899 1.178-6.284 3.796-5.758 5.86.526 2.062 3.172 3.107 8.07 1.931 4.9-1.178 9.824-5.028 9.491-6.465-.355-1.526-6.904-2.502-11.803-1.325M91.478 669.57c2.692 4.168 5.7 4.63 7.563 3.495 1.863-1.134 2.061-3.912-.631-8.081-2.693-4.169-8.023-7.523-9.33-6.765-1.39.808-.295 7.18 2.398 11.35" fill="#EAB729"/></g><g fill="#BFD8FE"><path d="M72.19 293.054H43.25a.777.777 0 110-1.553h28.94c7.577 0 13.74-6.157 13.74-13.724v-1.116c0-7.567-6.163-13.723-13.74-13.723-7.575 0-13.739 6.156-13.739 13.723v2.603a.777.777 0 01-1.555 0v-2.603c0-8.424 6.861-15.277 15.295-15.277 8.433 0 15.295 6.853 15.295 15.277v1.116c0 8.424-6.862 15.277-15.295 15.277M171.299 283.88h-4.087a.778.778 0 110-1.553h4.087a.777.777 0 110 1.553M160.503 283.88H134.81a.778.778 0 110-1.553c6.477 0 11.749-4.893 11.749-10.906v-.9c0-6.013-5.272-10.905-11.75-10.905s-11.748 4.892-11.748 10.906a.777.777 0 01-1.556 0c0-6.87 5.969-12.46 13.305-12.46 7.336 0 13.305 5.59 13.305 12.46v.899c0 4.688-2.78 8.78-6.876 10.906h19.264a.777.777 0 110 1.553"/><path d="M122.928 266.485c-.4 0-.74-.307-.774-.712-1.005-11.97-11.57-20.89-23.553-19.887-7.501.628-14.056 4.99-17.536 11.668a.778.778 0 01-1.38-.718c3.728-7.153 10.75-11.825 18.785-12.498 12.84-1.076 24.158 8.482 25.235 21.305a.777.777 0 01-.777.842"/></g><g fill="#BFD8FE"><path d="M1366.739 321.403h-49.97c-8.051 0-14.602-6.543-14.602-14.585v-1.063c0-8.042 6.55-14.585 14.602-14.585s14.602 6.543 14.602 14.585v2.479a.778.778 0 01-1.555 0v-2.479c0-7.185-5.852-13.031-13.047-13.031-7.194 0-13.046 5.846-13.046 13.031v1.063c0 7.185 5.852 13.032 13.046 13.032h49.97a.778.778 0 110 1.553"/><path d="M1343.694 321.403a.778.778 0 110-1.553c11.432 0 20.731-9.29 20.731-20.707 0-11.418-9.299-20.707-20.73-20.707-7.155 0-13.711 3.612-17.538 9.662a.776.776 0 11-1.314-.83c4.113-6.503 11.16-10.385 18.851-10.385 12.29 0 22.287 9.986 22.287 22.26 0 12.274-9.998 22.26-22.287 22.26M1406.384 321.403h-.016l-12.75-.26.48-1.07a13.991 13.991 0 00.308-10.782 14.004 14.004 0 00-7.414-7.843 14.003 14.003 0 00-8.952-.87 14.22 14.22 0 00-7.54 4.562.778.778 0 01-1.182-1.01 15.793 15.793 0 018.37-5.066 15.547 15.547 0 019.94.966 15.558 15.558 0 018.232 8.707 15.517 15.517 0 01.092 10.9l10.44.213a3.697 3.697 0 003.686-3.691 3.696 3.696 0 00-3.694-3.69.778.778 0 110-1.554 5.253 5.253 0 015.25 5.244 5.253 5.253 0 01-5.25 5.244M1298.227 321.168h-10.783a.778.778 0 110-1.554h10.783a.778.778 0 110 1.554"/></g><g><path d="M1270.436 553.53h-30.433s-.112-3.695 3.636-5.09c4.193-1.561 4.728-6 4.728-6s8.241 2.849 23.823-.686l1.142 8.41a2.927 2.927 0 01-2.896 3.366" fill="#282C40"/><path d="M1273.348 550.275v.002a3.36 3.36 0 01-.515.749 3.36 3.36 0 01-2.474 1.089h-30.148c.054-.2.124-.41.215-.63h29.933c.761 0 1.492-.323 2.009-.885.513-.563.768-1.32.7-2.076a.335.335 0 01.021-.148l.243 1.786.016.113M1250.448 545.336h-3.556a.316.316 0 01-.316-.316c0-.172.142-.314.316-.314h3.556c.174 0 .316.142.316.314a.316.316 0 01-.316.316M1250.448 547.068h-4.975a.315.315 0 110-.63h4.975a.315.315 0 110 .63" fill="#007FFF"/><path d="M1188.999 535.166l-.299 9.15a3.097 3.097 0 01-3.668 2.935l-31.052-5.438s.183-3.96 4.189-4.975c5.155-1.307 6.176-5.297 6.176-5.297s12.18 6.899 24.654 3.625" fill="#282C40"/><path d="M1188.736 543.198l-.036 1.118a2.424 2.424 0 01-.01.153 3.424 3.424 0 01-3.4 1.361l-31.015-5.404c.066-.19.144-.392.238-.597l30.89 5.38a2.784 2.784 0 002.256-.56c.467-.376.882-.884 1.077-1.451M1166.518 534.501a.34.34 0 01-.067-.008l-3.628-.769a.317.317 0 01-.244-.374.318.318 0 01.375-.243l3.63.771a.315.315 0 01-.066.623M1166.141 536.192a.342.342 0 01-.068-.008l-4.857-1.077a.314.314 0 11.137-.615l4.857 1.077a.315.315 0 01-.068.623" fill="#007FFF"/><path d="M1177.236 455.191a14.382 14.382 0 00-5.67 9.7l-7.221 66.65s12.18 6.899 24.654 3.625l9.865-60.977 32.133-18.715 17.37 86.965s8.241 2.85 23.823-.685l-15.078-122.095-36.921 4.303-42.955 31.23z" fill="#1C3F96"/><path fill="#282C40" d="M1230.997 455.474l-3.707-19.752-5.612 25.18 9.32-5.428M1257.803 425.26c-5.334 1.227-20.404 2.482-38.695-.51l1.083-.788 36.92-4.303.692 5.6M1193.025 477.212a.393.393 0 01-.17-.749l5.516-2.628a.393.393 0 11.34.71l-5.517 2.628a.386.386 0 01-.17.039"/><path d="M1268.035 543.443a.393.393 0 01-.389-.342l-16.258-120.884a.394.394 0 01.782-.104l16.257 120.883a.394.394 0 01-.392.447" fill="#282C40"/><path d="M1253.845 437.657a.392.392 0 01-.164-.037c-3.827-1.778-7.117-5.316-9.203-7.97-2.253-2.863-3.63-5.35-3.643-5.374a.394.394 0 01.69-.38c.055.097 5.42 9.726 12.487 13.009a.394.394 0 01-.167.752" fill="#282C40"/><path d="M1255.6 440.253l4.908-9.37c.57-1.073 1.88-2.232 3.187-2.951l4.485-28.692-7.742-11.284 16.15-10.702 7.793 13.496c2.088 3.472 2.526 7.638 1.497 11.555l-12.604 40.437a2.144 2.144 0 01-1.652 1.346l-1.737.263a2.824 2.824 0 01-1.96 1.323l-2.075.317a2.683 2.683 0 01-2.693 1.408l-6.602-.794a.832.832 0 01-.656-1.175l.053-.113a2.938 2.938 0 012.546-1.712l4.091-.336 1.307-3.218c.485-1.013.58-2.079-.381-2.664a2.189 2.189 0 00-1.831-.21 2.185 2.185 0 00-.893.56l-2.013 2.37c-.936 1.21-3.178.146-3.178.146" fill="#E7A868"/><path d="M1265.903 446.097a.315.315 0 01-.294-.427l2.171-5.667a.315.315 0 01.588.225l-2.171 5.667a.312.312 0 01-.294.202M1269.862 444.48a.318.318 0 01-.296-.427l1.664-4.413a.314.314 0 01.406-.184c.164.06.246.243.184.406l-1.664 4.412a.312.312 0 01-.294.206M1276.588 377.254l-16.15 10.702 2.242 3.266 14.28-13.322-.372-.646" fill="#94545C"/><path d="M1153.02 428.396l1.39-1.204c-.201.179-.66.592-1.39 1.204zm-2.372 4.825l54.735-38.938-11.294-16.3-37.245 32.411-11.804.996s-.594 1.876 1.34 2.41l3.958.998c.948.313 1.055 1.114.392 1.915l-8.882 7.886a1.307 1.307 0 001.772 1.917l6.676-4.035c-.124.185-2.498 2.35-6.578 5.799-1.481 1.252.351 3.211 1.825 2.152l7.214-5.695-7.098 5.553c-1.303 1.175.367 3.16 1.917 2.037 2.09-1.518 4.41-3.062 5.424-3.912-.845.73-2.564 1.989-3.761 2.904a1.184 1.184 0 001.409 1.902z" fill="#E7A868"/><path fill="#94545C" d="M1194.089 377.982l-.716.625 8.728 18.007 3.282-2.331-11.294-16.3M1149.637 431.226a.322.322 0 01-.248-.12.317.317 0 01.052-.443l5.035-3.988a.314.314 0 11.39.492l-5.033 3.99a.317.317 0 01-.196.069M1145.66 430.606a.317.317 0 01-.2-.56l6.933-5.637a.315.315 0 11.398.488l-6.933 5.639a.318.318 0 01-.199.07M1155.02 417.341a5.059 5.059 0 01-2.97-.938.315.315 0 01.363-.515c1.578 1.116 3.623 1.091 5.764-.068a.315.315 0 11.3.553c-1.19.645-2.36.968-3.456.968"/><path d="M1273.041 364.68l5.746 11.116-19.458 12.895.384 30.752s-19.26 6.405-42.027 4.59l-5.438-31.656-5.82 3.712-13.87-20.32 9.892-12.119c3.224-3.743 6.054-5.318 10.473-6.184l8.186-1.978.463-2.964s10.942.657 17.555-2.232l1.739 2.797 19.129 1.596c6.136 1.081 10.019 4.554 13.046 9.995z" fill="#007FFF"/><path d="M1212.248 392.377c-.58-2.322-1.736-9.118-2.56-14.132-.112-.68-1.111-.615-1.134.073l.09 16.36 3.604-2.301M1259.329 388.534l-3.16-5.413c-.488-.853-1.793-.33-1.557.623l4.903 22-.186-17.21" fill="#2A5AD9"/><path d="M1225.057 369.792a.236.236 0 01-.237-.237v-16.664a.235.235 0 01.392-.177l3.662 3.244c.92-.063 8.16-.632 11.861-3.066a.237.237 0 11.26.395c-1.7 1.118-4.272 1.988-7.64 2.586-2.498.443-4.53.562-4.551.563a.24.24 0 01-.17-.06l-3.34-2.96v16.14c0 .13-.107.236-.237.236" fill="#FFF"/><path d="M1223.207 356.575a.23.23 0 01-.034-.003c-1.117-.16-2.156-.81-2.2-.838a.236.236 0 01-.073-.326.237.237 0 01.327-.073c.01.005.894.559 1.848.742l1.69-3.294a.236.236 0 11.42.215l-1.768 3.448a.236.236 0 01-.21.129M1227.196 357.631a.552.552 0 100 1.104.552.552 0 000-1.104zm0 1.575a1.025 1.025 0 111.024-1.023c0 .564-.46 1.023-1.024 1.023zM1227.196 362.749a.552.552 0 100 1.104.552.552 0 000-1.104zm0 1.574c-.567 0-1.026-.46-1.026-1.023a1.025 1.025 0 012.05 0c0 .564-.46 1.023-1.024 1.023zM1227.196 367.866a.552.552 0 100 1.104.552.552 0 000-1.104zm0 1.574c-.567 0-1.026-.459-1.026-1.023a1.025 1.025 0 012.05 0c0 .564-.46 1.023-1.024 1.023zM1252.435 374.11a.236.236 0 01-.23-.183c-1.78-7.772 2.112-11.987 4.59-13.807 3.998-2.939 9.148-3.48 11.449-2.142.112.066.15.21.085.323a.237.237 0 01-.323.085c-2.127-1.236-7.139-.672-10.931 2.114-2.385 1.752-6.13 5.813-4.41 13.321a.237.237 0 01-.23.29M1258.31 386.567a.236.236 0 01-.13-.434c1.393-.905 18.921-12.9 19.098-13.021a.236.236 0 01.268.39c-.177.12-17.712 12.119-19.107 13.028a.248.248 0 01-.13.037M1208.645 394.757a.237.237 0 01-.196-.103l-14.332-20.741a.236.236 0 01.06-.329.235.235 0 01.328.06l14.335 20.743a.236.236 0 01-.195.37" fill="#FFF"/><path d="M1239.127 350.292c-4.29 1.876-10.405 2.256-14.17 2.292-1.994.02-3.329-.057-3.383-.06v-8.635h14.655l2.898 6.403" fill="#E7A868"/><path d="M1231.209 343.89l-.2 3.697-6.052 4.997c-1.994.02-3.329-.057-3.383-.06l-.002-8.635h9.637M1231.946 341.294c-2.769-1.726-.563-8.99-.563-8.99l-.017-.004c-.684.795-2.214.825-3.536.621-.61-.092-1.264-.54-1.644-.9-.593-.56-1.573-.542-2.316-.203-1.207.551-2.582.575-3.091.207-1.478-.984-1.921-2.574-1.526-3.827.554-1.762 2.332-2.633 4.102-2.586.642.017 1.311.238 1.817.646.608.496 1.453.305 2.034-.222.81-.73 1.968-.948 3.157-.766a3.793 3.793 0 012.884 2.127c.312.67.975 1.09 1.712 1.128.139.007.279.02.42.042 2.006.306 3.57 1.985 3.301 3.75-.112.733-.558 1.365-1.157 1.832l-2.51 7.21-3.067-.065" fill="#94545C"/><path d="M1236.913 341.973l-.006.207a2.575 2.575 0 01-2.503 2.492l-3.016.081c-.274 1.34-.626 2.598-1.004 2.774-.85.394-9.171 1.364-10.832.192-.895-.629-.315-13.398 1.336-15.628.577.297 1.852.243 2.982-.273.743-.339 1.723-.358 2.316.203.38.36 1.034.808 1.644.9 1.322.204 2.852.174 3.536-.621l.017.004s-2.2 7.242.55 8.983c.247-1.12 1.149-1.933 2.331-1.966v-.001a2.577 2.577 0 012.65 2.653" fill="#E7A868"/><path d="M1233.338 342.346a.301.301 0 01-.292-.38c.247-.936 1.04-1.477 1.97-1.347a.302.302 0 01-.083.598c-.635-.088-1.131.258-1.302.904a.303.303 0 01-.293.225M1229.66 348.321a.301.301 0 01-.046-.6 1.464 1.464 0 001.208-1.126l.28-1.267a1.15 1.15 0 011.116-.897h.991a.302.302 0 010 .604h-.99a.544.544 0 00-.528.423l-.278 1.267a2.07 2.07 0 01-1.708 1.593.308.308 0 01-.045.003M1223.352 344.031c-.258 0-.426-.022-.448-.025a.315.315 0 01.087-.624c.015.002 1.414.18 2.442-.64a.316.316 0 01.394.493c-.86.685-1.895.796-2.475.796" fill="#94545C"/><path d="M1226.057 343.686a.317.317 0 01-.31-.256.564.564 0 00-.356-.433.314.314 0 11.173-.605c.247.07.695.344.804.921a.316.316 0 01-.311.373M1222.664 342.156c-.112 0-.227-.006-.342-.02a.99.99 0 01-.76-.5 1.016 1.016 0 01-.038-.926c1.168-2.533-.436-4.597-.504-4.683a.316.316 0 01.05-.443.316.316 0 01.443.05c.078.098 1.918 2.446.585 5.34a.385.385 0 00.012.352c.06.104.162.172.282.185.336.037.65.007.932-.092a.315.315 0 11.207.595c-.271.095-.56.142-.867.142M1225.435 338.83c-.022.436.172.8.432.813.261.013.489-.33.51-.768.022-.436-.172-.8-.432-.813-.261-.012-.489.331-.51.768M1220.017 338.718c-.02.393.175.722.437.734.26.013.487-.295.505-.689.019-.393-.177-.722-.437-.734-.261-.013-.487.296-.505.689M1225.181 336.678l2.304.533a.666.666 0 00.796-.496l.064-.277a.664.664 0 00-.496-.794l-2.305-.532a.665.665 0 00-.795.495l-.064.277a.663.663 0 00.496.794" fill="#94545C"/><path d="M1220.952 336.817l-1.338.065a.638.638 0 01-.664-.606l-.014-.33a.637.637 0 01.606-.663l1.34-.065a.637.637 0 01.662.606l.014.33a.636.636 0 01-.606.663" fill="#94545C"/></g><g><path d="M270.138 545.963c-10.14-1.537-13.367 4.361-13.367 4.361-1.265-3.343-4.448-4.538-4.448-4.538.4-4.616.358-8.453.354-8.742 6.129-.018 11.122-.944 14.465-1.811.247 4.861 1.474 8.303 2.996 10.73" fill="#94545C"/><path d="M277.245 552.727c0 .868-.705 1.572-1.574 1.572h-22.206c-1.226 0-2.16-1.105-1.941-2.309.375-2.065.628-4.208.8-6.204 0 0 3.182 1.195 4.447 4.538 0 0 3.226-5.898 13.367-4.361h.001c2.077 3.319 4.701 4.742 6.107 5.301a1.569 1.569 0 011 1.463" fill="#30364D"/><path d="M277.247 552.727c0 .146-.02.289-.058.422h-23.722a2.207 2.207 0 01-1.945-1.159c.083-.443.157-.89.226-1.34h.003a1.706 1.706 0 00.373 1.412c.333.399.822.627 1.343.627h2.484c.1-.68.554-2.731 2.607-4.454 2.502-2.1 6.369-2.91 11.502-2.406.08.128.188.296.317.493-5.18-.563-9.053.197-11.514 2.256-1.86 1.558-2.33 3.437-2.444 4.111h20.826a.312.312 0 01.002.038" fill="#FDD042"/><path d="M267.213 536.278l-14.536 4.237v-3.47h.006c6.12-.02 11.113-.945 14.454-1.812h.005l.071 1.045" fill="#30364D"/><path d="M227.237 537.64c-.929 3.727-.742 6.494-.047 8.536-6.89-.285-12.973 5.56-12.973 5.56-1.71-3.863-5.935-4.993-5.935-4.993l2.576-11.023c5.226 1.526 12.017 1.873 16.38 1.916l-.001.005" fill="#94545C"/><path d="M232.742 552.742c0 .86-.698 1.557-1.559 1.557h-21.94a2.16 2.16 0 01-2.107-2.65l1.146-4.906s4.225 1.13 5.935 4.994c0 0 6.084-5.846 12.973-5.561 1.075 3.148 3.362 4.577 4.64 5.15.279.126.506.327.665.572.158.247.247.538.247.844" fill="#30364D"/><path d="M232.742 552.74c0 .142-.019.279-.054.41h-23.446a2.38 2.38 0 01-2.14-1.323c.007-.06.02-.12.034-.179l.177-.76c.025.386.167.759.414 1.07.369.464.92.731 1.515.731h4.17c.604-.817 4.915-6.223 13.711-6.724.04.127.094.289.153.453-7.999.412-12.22 4.952-13.285 6.271h18.75l.001.052" fill="#FDD042"/><path d="M227.238 537.636l-.346 1.62-17.346 2.081 1.312-5.617c5.226 1.526 12.017 1.873 16.38 1.916" fill="#30364D"/><path d="M253.67 409.347s6.626 4.27 8.636 14.972c2.008 10.7 9.473 109.419 9.473 109.419s-9.377 4.072-23.271 3.176l-6.69-64.538-10.212 65.204s-17.742.836-25.102-3.685c0 0 13.378-99.167 15.897-107.224 3.347-10.712 10.213-14.021 10.213-14.021l21.057-3.303" fill="#007FFF"/><path d="M255.876 411.281c-6.458 3.59-14.773 6.47-29.865 7.746 3.187-4.73 6.603-6.377 6.603-6.377l21.057-3.305s1.384 1.044 2.205 1.936M241.817 472.376l5.386-39.051-1.848 73.173-3.538-34.122M252.299 534.052c-1.268 0-2.59-.04-3.96-.128a.23.23 0 01-.214-.244.232.232 0 01.244-.216c7.143.46 12.977-.42 16.612-1.243 3.94-.89 6.22-1.903 6.244-1.912a.23.23 0 01.188.42c-.023.008-2.335 1.037-6.315 1.937-2.971.672-7.397 1.386-12.8 1.386M228.671 534.651c-1.7 0-3.926-.045-6.334-.208-6.992-.475-12.1-1.676-15.186-3.572a.231.231 0 01-.076-.317.231.231 0 01.318-.074c7.214 4.432 24.338 3.659 24.509 3.65a.23.23 0 01.023.46 74.77 74.77 0 01-3.254.061M224.053 396.685c-11.78-2.233-16.74-6.11-16.04-7.345 11.222.993 16.04 7.345 16.04 7.345" fill="#30364D"/><path d="M272.051 382.154l-6.141-9.477c-2.108-3.055-5.575-4.76-9.173-4.512l-6.512.44c-.77.052-1.174-.388-1.512-1.114l-.446-1.39a1.09 1.09 0 00-1.049-.643l-13.507.038c-.41.024-.935.288-1.101.682l-1.027 2.543a2.065 2.065 0 01-1.54 1.18l-9.038 1.508c-3.753.606-6.958 3.156-8.515 6.774l-4.477 11.157c11.222.993 16.04 7.345 16.04 7.345l4.315 12.34a4.9 4.9 0 004.828 3.69c11.051-.175 17.222-1.689 20.77-3.128a5.805 5.805 0 003.61-5.127l.813-13.593s8.946-4.061 13.662-8.713" fill="#FDD042"/><path d="M246.257 412.028h-.01a.228.228 0 01-.22-.237c.584-16.273-2.396-36.07-3.323-41.75-.151-.915-.935-1.93-1.862-1.98a.23.23 0 01.023-.46c1.189.065 2.114 1.279 2.293 2.367.929 5.69 3.915 25.525 3.327 41.84a.227.227 0 01-.228.22" fill="#30364D"/><path d="M241.463 374.249a.687.687 0 10.001 1.373.687.687 0 00-.001-1.373zm0 1.831a1.148 1.148 0 01-1.147-1.146 1.148 1.148 0 012.295 0c0 .632-.515 1.146-1.148 1.146zM242.537 384.265a.687.687 0 10.003 1.375.687.687 0 00-.003-1.375zm0 1.832a1.148 1.148 0 01-1.146-1.145 1.148 1.148 0 012.294 0c0 .631-.514 1.145-1.148 1.145zM243.458 394.284a.687.687 0 00-.686.685.687.687 0 001.374 0 .687.687 0 00-.688-.685zm0 1.83a1.147 1.147 0 01-1.146-1.145 1.147 1.147 0 012.294 0c0 .633-.515 1.146-1.148 1.146zM243.919 404.301a.687.687 0 10.001 1.374.687.687 0 00-.001-1.374zm0 1.832a1.148 1.148 0 01-1.147-1.146 1.148 1.148 0 012.295 0c0 .632-.515 1.146-1.148 1.146zM258.544 391.097h-.003a.23.23 0 01-.227-.233c.06-3.9-.093-7.51-.095-7.545a.23.23 0 01.46-.02c.002.037.156 3.66.095 7.573a.229.229 0 01-.23.225M223.858 396.662a.23.23 0 01-.222-.17l-1.839-6.762a.23.23 0 01.162-.283.228.228 0 01.281.162l1.84 6.762a.232.232 0 01-.222.29" fill="#30364D"/><path d="M318.17 383.944a1.008 1.008 0 01-.619 1.261l-7.035 2.533 5.956-1.54a.967.967 0 01.588 1.837l-13.932 5.466-21.82 15.389a9.786 9.786 0 01-13.287-2.486l-9.75-13.574.118-1.963s7.382-3.351 12.27-7.451l7.006 10.867 19.36-9.656c-.038-1.145 1.009-2.35 1.88-3.04l7.263-5.435s1.342.78.624 2.09l-1.464 1.853c-.355.556.124 1.279.74 1.119 2.063-.53 6.71-1.747 9.024-2.348a1.03 1.03 0 011.235.668 1.03 1.03 0 01-.635 1.3l-6.427 2.252c1.291-.301 5.223-1.537 7.57-2.185a1.115 1.115 0 011.386.834c.122.559-.2 1.118-.743 1.295l-5.513 1.801 4.944-1.54a1.01 1.01 0 011.262.653" fill="#94545C"/><path d="M270.89 383.776c-2.611 4.453-11.458 10.67-11.458 10.67l-1.16-1.616.117-1.963s7.382-3.351 12.27-7.451l.232.36M309.506 385.937a.31.31 0 01-.093-.607l7.403-2.334a.311.311 0 11.186.592l-7.401 2.334a.337.337 0 01-.095.015M301.428 386.806a.312.312 0 01-.076-.612c2.7-.684 3.453-3.414 3.46-3.442a.311.311 0 01.601.159c-.032.125-.846 3.11-3.909 3.886a.32.32 0 01-.076.009M274.462 396.6a.311.311 0 01-.146-.585l3.51-1.854a.31.31 0 11.29.548l-3.51 1.856a.316.316 0 01-.144.036" fill="#30364D"/><path d="M195.205 453.595a.751.751 0 00.336.932l.018.011c.374.2.903.204 1.214-.293.98-1.565 3.207-5.645 4.586-7.956.356-.593 1.256-.444 1.396.233l.382 3.383c.054 1.616 1.984 1.386 1.984 1.386l1.442-10.833c.158-1.176.067-3.019-.808-3.82l18.291-39.963c-.197-.253-4.315-5.42-13.5-7.006L195.87 432.47l-6.916 14.021a.763.763 0 00.222 1.049c.305.204.71.162.97-.096l3.67-4.015-3.766 7.843c-.23.45-.071 1.16.364 1.417a.952.952 0 00.722.104c.24-.06.454-.21.588-.436l-.208.35a1.049 1.049 0 00.365 1.437 1.045 1.045 0 001.43-.345c1.12-1.789 3.33-4.876 4.24-6.33l-2.347 6.126" fill="#94545C"/><path d="M192.224 451.832a.297.297 0 01-.158-.045.31.31 0 01-.11-.426l4.08-6.832a.311.311 0 11.534.319l-4.078 6.831a.31.31 0 01-.268.153M224.046 396.675l-2.26 4.957c-.736-6.663-10.92-11.858-11.232-11.961 9.18 1.586 13.295 6.751 13.492 7.004M205.652 436.6a.247.247 0 01-.103-.023l-2.46-1.166a.239.239 0 01-.114-.318c.057-.12.2-.171.32-.115l2.461 1.165a.24.24 0 01-.104.457M199.143 433.385a.241.241 0 01-.107-.025l-2.707-1.364a.24.24 0 01-.107-.322.242.242 0 01.324-.105l2.706 1.362a.24.24 0 01-.109.454M206.697 434.133a.234.234 0 01-.096-.02l-2.45-1.09a.241.241 0 01-.123-.317c.054-.121.196-.175.317-.121l2.45 1.09c.122.052.176.195.122.315a.238.238 0 01-.22.143M200.461 431.199a.235.235 0 01-.115-.03l-3.158-1.748a.24.24 0 01-.095-.326.242.242 0 01.327-.093l3.158 1.748a.239.239 0 01-.117.449" fill="#30364D"/><path d="M201.696 430.935a2.234 2.234 0 00-1.68.755 2.223 2.223 0 00-.558 1.619 2.235 2.235 0 002.374 2.1 2.231 2.231 0 001.541-.751 2.23 2.23 0 00.56-1.62 2.245 2.245 0 00-2.237-2.103zm-.005 4.956c-.664 0-1.298-.239-1.8-.682a2.703 2.703 0 01-.912-1.87 2.72 2.72 0 015.432-.331 2.692 2.692 0 01-.679 1.967 2.705 2.705 0 01-2.04.916z" fill="#30364D"/><path d="M202.465 434.502a.24.24 0 01-.2-.104l-.56-.822-.362.606a.24.24 0 01-.412-.247l.555-.927a.242.242 0 01.2-.117.25.25 0 01.205.104l.771 1.133a.24.24 0 01-.062.334.242.242 0 01-.135.04" fill="#30364D"/><path d="M247.296 366.555c.015.264-.117.339-.336.424-5.395 2.077-10.53.703-12.392.094-.55-.18-.675-.696-.5-1.32l1.826-6.87 10.991.697.41 6.975" fill="#94545C"/><path d="M247.27 366.538c-5.588-.29-8.295-6.041-8.881-7.467l8.495.509.385 6.958M250.197 347.658c-2.126 2.44-7.94 7.63-14.476 8.062 0 0-4.85-7.668.13-11.852 4.426-3.72 10.916.046 13.61 1.914.734.509 1.322 1.202.736 1.876" fill="#30364D"/><path d="M238.258 343.902v1.79s-4.895-6.793-10.097-3.293c-5.54 3.727.916 17.721-12.193 18.086-3.722.104-7.174-3.18-8.355-5.27-1.958 6.227-6.236 9.49-16.383 8.76-17.285-1.245-16.398-30.42 2.07-31.586 13.837-.874 18.577 8.07 20.166 12.854.25.757 1.3.81 1.625.082 1.806-4.04 5.52-12.868 13.345-12.626 10.301.318 9.822 11.203 9.822 11.203" fill="#30364D"/><path d="M207.613 356.814h-.009a.32.32 0 01-.311-.329c.084-3.117-1.738-6.077-4.531-7.366-2.435-1.123-5.076-.726-7.067 1.062a.32.32 0 01-.428-.475c2.187-1.964 5.088-2.4 7.762-1.168 3.07 1.417 4.997 4.543 4.905 7.965a.32.32 0 01-.32.31" fill="#FFF"/><path d="M249.107 361c-2.468 2.209-8.788-.925-10.158-1.648l-2.274.15a2.441 2.441 0 01-2.598-2.272l-.036-.541a2.374 2.374 0 012.214-2.525l.034-.002a2.342 2.342 0 012.15 1.11c4.648-1.204 8.666-4.438 10.856-6.647 1.418 4.246.86 11.439-.188 12.376" fill="#94545C"/><path d="M237.364 357.086a.321.321 0 01-.32-.298.868.868 0 00-.298-.603.873.873 0 00-.638-.216l-.017.002a.32.32 0 11-.044-.638l.02-.001a1.51 1.51 0 011.1.372c.306.267.49.637.516 1.041a.32.32 0 01-.32.341M247.464 356.64a.306.306 0 01-.302-.259c-.835-5.25 2.49-5.863 2.525-5.868a.307.307 0 01.101.605c-.117.02-2.753.547-2.02 5.167a.308.308 0 01-.304.355M247.154 358.47c-.64 0-1.01-.364-1.132-.613a.306.306 0 01.549-.275c.028.05.277.45 1.064.187a.305.305 0 01.387.193.305.305 0 01-.193.388c-.252.085-.476.12-.675.12M244.97 354.268c.002.488-.211.885-.474.886-.263 0-.476-.395-.478-.884-.001-.489.212-.886.475-.886s.476.395.477.884" fill="#30364D"/><path d="M249.469 353.69c.005.44-.185.8-.422.802-.238.002-.432-.353-.437-.795-.004-.44.185-.8.422-.802.238-.003.434.353.437.795" fill="#30364D"/></g><g><path d="M588.806 641.756c0 1.04-.379 1.98-.988 2.663-.612.68-1.455 1.102-2.386 1.102H425.17c.932 0 1.773-.421 2.385-1.102.61-.682.988-1.622.988-2.663 0-2.08-1.511-3.767-3.373-3.767h160.262c1.863 0 3.374 1.687 3.374 3.767M588.806 698.095v.304c0 1.995-1.511 3.614-3.374 3.614H425.17c1.862 0 3.373-1.619 3.373-3.614v-.304c0-1.998-1.511-3.614-3.373-3.614h160.262c1.863 0 3.374 1.616 3.374 3.614" fill="#39F"/><path d="M428.187 698.345v.285a3.384 3.384 0 01-3.382 3.383H320.22a23.908 23.908 0 01-16.985-7.051 23.954 23.954 0 01-7.013-16.968v-15.236c0-6.77 2.797-12.881 7.298-17.248a23.892 23.892 0 0116.697-6.768h104.588a3.384 3.384 0 010 6.768H322.897c-10.273 0-18.6 8.334-18.6 18.615v12.224c0 10.28 8.327 18.613 18.6 18.613h101.908a3.383 3.383 0 013.382 3.383" fill="#2A5AD9"/><path d="M584.282 695.234h-260.44c-10.257 0-18.57-8.377-18.57-18.711v-12.289c0-10.335 8.313-18.713 18.57-18.713h260.154l.286 49.713" fill="#C6D6FC"/><path fill="#E9F1FF" d="M419.892 695.234h163.636V645.52H419.892z"/><path d="M549.133 638.742h-219.27c-2.752 0-4.985-2.204-4.985-4.923v-13.503c0-2.72 2.233-4.923 4.985-4.923h219.27c2.754 0 4.985 2.203 4.985 4.923v13.503c0 2.719-2.23 4.923-4.985 4.923" fill="#FFF"/><path d="M329.827 615.486c-2.672 0-4.847 2.154-4.847 4.8v13.56c0 2.647 2.175 4.801 4.847 4.801H549.17c2.673 0 4.847-2.154 4.847-4.8v-13.56c0-2.647-2.174-4.8-4.847-4.8H329.827zm219.343 24.01H329.827c-3.145 0-5.704-2.535-5.704-5.65v-13.56c0-3.113 2.559-5.647 5.704-5.647H549.17c3.144 0 5.702 2.534 5.702 5.648v13.56c0 3.114-2.558 5.649-5.702 5.649z" fill="#EAB729"/><path d="M349.008 617.651a.754.754 0 11-1.507.001.754.754 0 011.507 0M355.795 617.651a.754.754 0 11-1.508 0 .754.754 0 011.508 0M363.336 617.651a.754.754 0 11-1.508.001.754.754 0 011.508 0M370.877 617.651a.754.754 0 11-1.509 0 .754.754 0 011.509 0M377.663 617.651a.754.754 0 11-1.507.001.754.754 0 011.507 0M345.992 622.173a.754.754 0 11-1.508-.003.754.754 0 011.508.003M352.024 622.173a.753.753 0 11-1.506-.002.753.753 0 011.506.002M359.565 622.173a.753.753 0 11-1.506-.002.753.753 0 011.506.002M366.352 622.173a.754.754 0 11-1.507-.003.754.754 0 011.507.003M373.139 622.173a.753.753 0 11-1.507-.002.753.753 0 011.507.002M380.68 622.173a.753.753 0 11-1.507-.002.753.753 0 011.507.002M349.008 626.69a.754.754 0 11-1.507.001.754.754 0 011.507-.001M355.795 626.69a.754.754 0 11-1.508 0 .754.754 0 011.508 0M363.336 626.69a.754.754 0 11-1.508 0 .754.754 0 011.508 0M370.877 626.69a.754.754 0 11-1.509 0 .754.754 0 011.509 0M377.663 626.69a.754.754 0 11-1.507 0 .754.754 0 011.507 0M345.992 631.964a.754.754 0 11-1.508-.002.754.754 0 011.508.002M352.024 631.964a.753.753 0 11-1.506-.002.753.753 0 011.506.002M359.565 631.964a.753.753 0 11-1.506-.002.753.753 0 011.506.002M366.352 631.964a.754.754 0 11-1.507-.002.754.754 0 011.507.002M373.139 631.964a.753.753 0 11-1.507-.002.753.753 0 011.507.002M380.68 631.964a.753.753 0 11-1.507-.002.753.753 0 011.507.002M349.008 635.73a.753.753 0 11-1.506-.001.753.753 0 011.506.002M355.795 635.73a.754.754 0 11-1.508-.002.754.754 0 011.508.003M363.336 635.73a.753.753 0 11-1.507-.002.753.753 0 011.507.003M370.877 635.73a.754.754 0 11-1.508-.002.754.754 0 011.508.003M377.663 635.73a.753.753 0 11-1.506-.002.753.753 0 011.506.003M329.402 617.651a.754.754 0 11-1.507.001.754.754 0 011.507 0M333.927 622.173a.754.754 0 11-1.508-.003.754.754 0 011.508.003M329.402 626.692a.753.753 0 11-1.507-.002.753.753 0 011.507.002M333.927 631.964a.754.754 0 11-1.508-.001.754.754 0 011.508 0M329.402 636.484a.753.753 0 11-1.507-.002.753.753 0 011.507.002M336.189 636.484a.753.753 0 11-1.507-.002.753.753 0 011.507.002M342.221 636.484a.754.754 0 11-1.507-.003.754.754 0 011.507.003M340.713 631.964a.754.754 0 11-1.507-.002.754.754 0 011.507.002M336.189 626.692a.753.753 0 11-1.507-.002.753.753 0 011.507.002M342.221 626.692a.754.754 0 11-1.507-.003.754.754 0 011.507.003M339.96 622.173a.754.754 0 11-1.508-.003.754.754 0 011.507.003M336.189 617.651a.754.754 0 11-1.508.001.754.754 0 011.508 0M342.221 617.651a.754.754 0 11-1.508 0 .754.754 0 011.508 0M385.204 635.73a.753.753 0 11-1.507-.002.753.753 0 011.507.003M391.237 635.73a.754.754 0 11-1.508-.002.754.754 0 011.508.003M391.237 626.692a.754.754 0 11-1.508-.003.754.754 0 011.508.003M391.237 617.651a.754.754 0 11-1.509 0 .754.754 0 011.509 0M388.22 631.963a.754.754 0 11-1.508 0 .754.754 0 011.508 0M388.22 622.173a.754.754 0 11-1.507-.003.754.754 0 011.507.003M385.204 626.692a.753.753 0 11-1.507-.002.753.753 0 011.507.002M385.204 617.651a.754.754 0 11-1.507.001.754.754 0 011.507 0M444.022 617.651a.754.754 0 11-1.507.001.754.754 0 011.507 0M451.563 617.651a.754.754 0 11-1.508 0 .754.754 0 011.508 0M458.35 617.651a.754.754 0 11-1.507.001.754.754 0 011.507 0M465.137 617.651a.754.754 0 11-1.509 0 .754.754 0 011.509 0M471.923 617.651a.754.754 0 11-1.508 0 .754.754 0 011.508 0M440.252 622.17a.754.754 0 11-1.508 0 .754.754 0 011.508 0M447.039 622.17a.754.754 0 11-1.508 0 .754.754 0 011.508 0M454.58 622.17a.754.754 0 11-1.508.002.754.754 0 011.508-.001M461.366 622.17a.754.754 0 11-1.508 0 .754.754 0 011.508 0M468.907 622.17a.754.754 0 11-1.507.002.754.754 0 011.507-.001M476.448 622.17a.754.754 0 11-1.508.002.754.754 0 011.508-.001M444.022 626.69a.754.754 0 11-1.507 0 .754.754 0 011.507 0M451.563 626.69a.754.754 0 11-1.508 0 .754.754 0 011.508 0M458.35 626.69a.754.754 0 11-1.507 0 .754.754 0 011.507 0M465.137 626.69a.754.754 0 11-1.509 0 .754.754 0 011.509 0M471.923 626.69a.754.754 0 11-1.508 0 .754.754 0 011.508 0M440.252 631.964a.754.754 0 11-1.507-.002.754.754 0 011.507.002M447.039 631.964a.754.754 0 11-1.508-.002.754.754 0 011.508.002M454.58 631.964a.753.753 0 11-1.507-.002.753.753 0 011.507.002M461.366 631.964a.754.754 0 11-1.507-.002.754.754 0 011.507.002M468.907 631.964a.753.753 0 11-1.507-.002.753.753 0 011.507.002M476.448 631.964a.753.753 0 11-1.507-.002.753.753 0 011.507.002M444.022 635.73a.753.753 0 11-1.506-.002.753.753 0 011.506.003M451.563 635.73a.754.754 0 11-1.507-.002.754.754 0 011.507.003M458.35 635.73a.753.753 0 11-1.507-.002.753.753 0 011.507.003M465.137 635.73a.754.754 0 11-1.508-.002.754.754 0 011.508.003M471.923 635.73a.754.754 0 11-1.507-.002.754.754 0 011.507.003M397.27 617.651a.754.754 0 11-1.509 0 .754.754 0 011.508 0M403.302 617.651a.754.754 0 11-1.508 0 .754.754 0 011.508 0M410.843 617.651a.754.754 0 11-1.508.001.754.754 0 011.508 0M416.876 617.651a.754.754 0 11-1.509 0 .754.754 0 011.509 0M424.416 617.651a.754.754 0 11-1.507.001.754.754 0 011.507 0M391.99 621.42a.754.754 0 11-1.507-.004.754.754 0 011.508.003M399.532 621.42a.753.753 0 11-1.507-.003.753.753 0 011.507.002M406.318 621.42a.754.754 0 11-1.509-.003.754.754 0 011.51.002M413.86 621.42a.754.754 0 11-1.508-.004.754.754 0 011.507.003M420.646 621.42a.753.753 0 11-1.507-.003.753.753 0 011.507.002M428.187 621.42a.754.754 0 11-1.508-.004.754.754 0 011.508.003M397.27 626.69a.754.754 0 11-1.509 0 .754.754 0 011.508 0M403.302 626.69a.754.754 0 11-1.508 0 .754.754 0 011.508 0M410.843 626.69a.754.754 0 11-1.508 0 .754.754 0 011.508 0M416.876 626.69a.754.754 0 11-1.509 0 .754.754 0 011.509 0M424.416 626.69a.754.754 0 11-1.507 0 .754.754 0 011.507 0M391.99 631.964a.754.754 0 11-1.507-.002.754.754 0 011.508.002M399.532 631.964a.753.753 0 11-1.507-.002.753.753 0 011.507.002M406.318 631.964a.754.754 0 11-1.509-.003.754.754 0 011.51.003M413.86 631.964a.754.754 0 11-1.508-.002.754.754 0 011.507.002M420.646 631.964a.753.753 0 11-1.507-.002.753.753 0 011.507.002M428.187 631.964a.754.754 0 11-1.508-.002.754.754 0 011.508.002M397.27 636.482a.754.754 0 11-1.509 0 .754.754 0 011.508 0M403.302 636.482a.754.754 0 11-1.508 0 .754.754 0 011.508 0M410.843 636.482a.754.754 0 11-1.508 0 .754.754 0 011.508 0M416.876 636.482a.754.754 0 11-1.509 0 .754.754 0 011.509 0M424.416 636.482a.754.754 0 11-1.507 0 .754.754 0 011.507 0M431.203 636.482a.754.754 0 11-1.507 0 .754.754 0 011.507 0M438.744 636.482a.754.754 0 11-1.508 0 .754.754 0 011.508 0M434.973 631.21a.754.754 0 11-1.508 0 .754.754 0 011.508 0M431.203 626.69a.754.754 0 11-1.507 0 .754.754 0 011.507 0M438.744 626.69a.754.754 0 11-1.508 0 .754.754 0 011.508 0M434.973 621.42a.754.754 0 11-1.507-.004.754.754 0 011.507.003M431.203 617.651a.754.754 0 11-1.507.001.754.754 0 011.507 0M438.744 617.651a.754.754 0 11-1.508 0 .754.754 0 011.508 0M479.464 635.73a.753.753 0 11-1.506-.002.753.753 0 011.506.003M485.497 635.73a.754.754 0 11-1.508-.002.754.754 0 011.508.003M485.497 626.69a.754.754 0 11-1.508 0 .754.754 0 011.508 0M485.497 617.651a.754.754 0 11-1.508 0 .754.754 0 011.508 0M482.48 631.964a.754.754 0 11-1.507-.002.754.754 0 011.508.002M482.48 622.17a.754.754 0 11-1.508 0 .754.754 0 011.509 0M479.464 626.69a.754.754 0 11-1.507 0 .754.754 0 011.507 0M479.464 617.651a.754.754 0 11-1.507.001.754.754 0 011.507 0M540.545 617.653a.753.753 0 11-1.507-.002.753.753 0 011.507.002M548.086 617.653a.754.754 0 11-1.508-.003.754.754 0 011.508.003M537.529 622.17a.754.754 0 11-1.508 0 .754.754 0 011.508 0M544.315 622.17a.754.754 0 11-1.508 0 .754.754 0 011.508 0M551.102 622.17a.754.754 0 11-1.507.002.754.754 0 011.507-.001M540.545 626.692a.753.753 0 11-1.507-.002.753.753 0 011.507.002M548.086 626.692a.754.754 0 11-1.508-.003.754.754 0 011.508.003M537.529 631.963a.754.754 0 11-1.508 0 .754.754 0 011.508 0M544.315 631.963a.754.754 0 11-1.508 0 .754.754 0 011.508 0M551.102 631.963a.754.754 0 11-1.507 0 .754.754 0 011.507 0M540.545 635.729a.754.754 0 11-1.508 0 .754.754 0 011.508 0M548.086 635.729a.754.754 0 11-1.509 0 .754.754 0 011.509 0M493.038 617.653a.754.754 0 01-1.508 0 .754.754 0 111.508 0M499.824 617.653a.754.754 0 11-1.507-.003.754.754 0 011.507.003M507.365 617.653a.753.753 0 11-1.506-.002.753.753 0 011.506.002M513.398 617.653a.754.754 0 11-1.508-.003.754.754 0 011.508.003M520.939 617.653a.753.753 0 11-1.507-.002.753.753 0 011.507.002M488.513 621.418a.754.754 0 11-1.508 0 .754.754 0 011.508 0M496.054 621.418a.754.754 0 11-1.507 0 .754.754 0 011.507 0M503.595 621.418a.754.754 0 11-1.508 0 .754.754 0 011.508 0M510.382 621.418a.754.754 0 11-1.509 0 .754.754 0 011.509 0M517.922 621.418a.754.754 0 11-1.507 0 .754.754 0 011.507 0M525.463 621.418a.754.754 0 11-1.507 0 .754.754 0 011.507 0M493.038 626.69a.755.755 0 01-1.508 0 .753.753 0 011.508 0M499.824 626.69a.754.754 0 11-1.508 0 .754.754 0 011.508 0M507.365 626.69a.754.754 0 11-1.507 0 .754.754 0 011.507 0M513.398 626.69a.754.754 0 11-1.508 0 .754.754 0 011.508 0M520.939 626.69a.754.754 0 11-1.508 0 .754.754 0 011.508 0M488.513 631.964a.754.754 0 11-1.507-.002.754.754 0 011.507.002M496.054 631.964a.753.753 0 11-1.507-.002.753.753 0 011.507.002M503.595 631.964a.753.753 0 11-1.507-.002.753.753 0 011.507.002M510.382 631.964a.754.754 0 11-1.508-.002.754.754 0 011.508.002M517.922 631.964a.753.753 0 11-1.506-.002.753.753 0 011.506.002M525.463 631.964a.753.753 0 11-1.506-.002.753.753 0 011.506.002M493.038 636.482a.755.755 0 01-1.508 0 .753.753 0 011.508 0M499.824 636.482a.754.754 0 11-1.508 0 .754.754 0 011.508 0M507.365 636.482a.754.754 0 11-1.507 0 .754.754 0 011.507 0M513.398 636.482a.754.754 0 11-1.508 0 .754.754 0 011.508 0M520.939 636.482a.754.754 0 11-1.508 0 .754.754 0 011.508 0M527.726 636.482a.754.754 0 11-1.508 0 .754.754 0 011.508 0M534.512 636.482a.754.754 0 11-1.508 0 .754.754 0 011.508 0M532.25 631.21a.754.754 0 11-1.508 0 .754.754 0 011.508 0M527.726 626.69a.754.754 0 11-1.508 0 .754.754 0 011.508 0M534.512 626.69a.754.754 0 11-1.508 0 .754.754 0 011.508 0M532.25 621.418a.754.754 0 11-1.507 0 .754.754 0 011.507 0M527.726 617.653a.753.753 0 11-1.507-.002.753.753 0 011.507.002M534.512 617.653a.754.754 0 11-1.507-.003.754.754 0 011.507.003" fill="#EAB729"/><path d="M480.218 614.64H331.62c-14.136 0-25.594-10.12-25.594-22.597 0-6.24 2.862-11.89 7.496-15.98 4.631-4.088 11.03-6.617 18.098-6.617h148.598c-7.067 0-13.466 2.53-18.097 6.618-4.632 4.088-7.497 9.74-7.497 15.979 0 12.477 11.46 22.596 25.594 22.596" fill="#9DBFFF"/><path d="M566.938 611.881c0 .762-.36 1.45-.941 1.95-.58.5-1.382.808-2.267.808h-82.698c-14.193 0-25.698-10.12-25.698-22.596 0-6.24 2.876-11.89 7.527-15.98 4.65-4.088 11.075-6.617 18.17-6.617h82.699c1.77 0 3.208 1.234 3.208 2.757 0 .761-.36 1.45-.941 1.948-.58.5-1.382.808-2.267.808h-83.031c-10.73 0-19.429 7.648-19.429 17.084 0 9.434 8.699 17.082 19.429 17.082h83.03c1.771 0 3.209 1.235 3.209 2.756" fill="#B8CCFC"/><path d="M480.81 574.719h80.095v33.895h-80.094c-10.739 0-19.445-7.587-19.445-16.947v-.002c0-9.36 8.706-16.946 19.445-16.946" fill="#E9F1FF"/><path d="M480.81 608.614c-10.738 0-19.444-7.587-19.444-16.947v-.002c0-9.36 8.706-16.946 19.445-16.946h80.094l-80.094 33.895" fill="#CEDDFC"/></g><g><path d="M787.13 623.68c0 1.248.471 2.376 1.23 3.195.76.817 1.81 1.322 2.968 1.322h199.404c-1.16 0-2.206-.505-2.967-1.322a4.682 4.682 0 01-1.23-3.196c0-2.497 1.88-4.52 4.197-4.52H791.328c-2.318 0-4.198 2.023-4.198 4.52M787.13 693.545v.365c0 2.395 1.88 4.337 4.198 4.337h199.404c-2.316 0-4.197-1.942-4.197-4.337v-.365c0-2.397 1.88-4.337 4.197-4.337H791.328c-2.318 0-4.198 1.94-4.198 4.337" fill="#39F"/><path d="M984.699 693.662v.356c0 2.335 1.905 4.229 4.252 4.229h131.478a30.142 30.142 0 0021.352-8.814c5.448-5.432 8.816-12.93 8.816-21.21v-19.045c0-8.462-3.516-16.101-9.174-21.56a30.125 30.125 0 00-20.99-8.46H988.95c-2.347 0-4.252 1.895-4.252 4.232 0 1.168.476 2.224 1.246 2.99a4.252 4.252 0 003.006 1.239h128.112c12.915 0 23.382 10.416 23.382 23.268v15.28c0 12.85-10.467 23.266-23.382 23.266H988.95c-2.347 0-4.252 1.892-4.252 4.229" fill="#2A5AD9"/><path d="M1116.952 689.208c12.752 0 23.088-10.408 23.088-23.247v-15.267c0-12.842-10.336-23.25-23.088-23.25H793.518l-.356 61.764h323.79z" fill="#C6D6FC"/><path fill="#E9F1FF" d="M996.764 689.208H793.162v-61.764h203.602z"/></g><g><path d="M1023.157 619.159H860.406c-15.481 0-28.032-10.963-28.032-24.48 0-6.76 3.136-12.881 8.21-17.31 5.073-4.43 12.081-7.17 19.822-7.17h162.751c-7.74 0-14.748 2.74-19.821 7.17-5.073 4.429-8.21 10.55-8.21 17.31 0 13.517 12.55 24.48 28.031 24.48" fill="#C3F3F5"/><path d="M1116.663 616.171c0 .825-.39 1.57-1.023 2.112-.63.541-1.503.876-2.466.876h-89.962c-15.44 0-27.956-10.963-27.956-24.48 0-6.76 3.13-12.881 8.188-17.31 5.059-4.43 12.048-7.17 19.768-7.17h89.962c1.926 0 3.49 1.337 3.49 2.987 0 .824-.392 1.57-1.024 2.11-.63.541-1.503.875-2.466.875h-90.325c-11.672 0-21.135 8.286-21.135 18.508 0 10.22 9.463 18.506 21.135 18.506h90.325c1.926 0 3.49 1.338 3.49 2.986" fill="#98DFE2"/><path d="M1023.107 576.225h86.77v36.908h-86.77c-11.633 0-21.064-8.261-21.064-18.453v-.002c0-10.191 9.431-18.453 21.064-18.453" fill="#C3F3F5"/><path d="M1023.107 613.133c-11.633 0-21.064-8.261-21.064-18.453v-.002c0-10.191 9.431-18.453 21.064-18.453h86.77l-86.77 36.908" fill="#6EC3C7"/></g><g><path d="M831.62 590.913c0 11.856-11.577 21.467-25.856 21.467H572.429c-.892 0-1.699-.293-2.284-.768-.583-.473-.945-1.128-.945-1.85 0-1.448 1.445-2.62 3.229-2.62h68.113c8.727 0 15.801-7.265 15.801-16.229 0-4.482-1.768-8.54-4.627-11.476-2.86-2.938-6.812-4.754-11.174-4.754h-68.113c-.892 0-1.699-.293-2.284-.766-.583-.475-.945-1.13-.945-1.852 0-1.446 1.445-2.619 3.229-2.619h233.335c7.14 0 13.603 2.403 18.282 6.287 4.681 3.886 7.574 9.253 7.574 15.18" fill="#D64361"/><path d="M664.214 590.913c0 6.08-2.468 11.803-6.95 16.113-2.465 2.372-5.43 4.179-8.716 5.354H643.1c5.111-.732 9.714-2.902 13.235-6.287 4.224-4.063 6.55-9.453 6.55-15.18s-2.326-11.118-6.55-15.18c-3.521-3.385-8.124-5.555-13.235-6.287h5.448c3.286 1.175 6.25 2.982 8.717 5.354 4.481 4.31 6.95 10.033 6.95 16.113" fill="#FFF"/><path d="M640.158 574.719h-64.925v32.388h64.925c8.705 0 15.761-7.249 15.761-16.193 0-8.944-7.056-16.195-15.76-16.195" fill="#E9F1FF"/><path d="M649.707 603.341c3.776-2.99 6.212-7.706 6.212-13.015 0-9.036-7.056-16.36-15.76-16.36h-64.926l74.474 29.375" fill="#CEDDFC"/><path d="M591.51 606.488a.75.75 0 01-.297-1.188l21.29-24.477a.747.747 0 111.127.98l-21.289 24.478a.75.75 0 01-.831.207" fill="#CEDDFC"/><path d="M612.937 602.816v24.628l7.283-4.163 7.285 4.163v-24.628c0-2.531 1.378-4.789 3.53-6.254h-11.519c-2.8 0-5.32 1.558-6.164 3.89a6.941 6.941 0 00-.415 2.364" fill="#007FFF"/></g><g><g fill="#C5CEE0"><path d="M639.974 607.107l-.946-.269L696.34 69.99 571.605 605.744l-.897-.55L697.226 61.776l.922.41-58.174 544.92M814.128 607.107L703.427 80.36l.9-.506 110.704 526.748-.903.505"/></g><g fill="#007FFF"><path d="M700.02 61.73c-6.721 0-12.575-4.677-13.921-11.12a.762.762 0 01.607-.9.775.775 0 01.916.593c1.198 5.738 6.411 9.902 12.397 9.902 6.978 0 12.654-5.563 12.654-12.402 0-6.838-5.676-12.402-12.654-12.402a.77.77 0 01-.778-.762V21.167a.77.77 0 01.778-.763.77.77 0 01.779.763v12.73c7.473.398 13.432 6.483 13.432 13.906 0 7.68-6.374 13.927-14.21 13.927M700.02 11.493c-1.348 0-2.444 1.075-2.444 2.395s1.096 2.395 2.443 2.395c1.348 0 2.444-1.074 2.444-2.395 0-1.32-1.096-2.395-2.444-2.395zm0 6.315c-2.205 0-4-1.759-4-3.92s1.795-3.92 4-3.92c2.204 0 4 1.759 4 3.92s-1.796 3.92-4 3.92zM700.02 8.115a.77.77 0 01-.779-.762v-9.59A.77.77 0 01700.02-3a.77.77 0 01.779.762v9.591a.77.77 0 01-.779.762"/></g></g></g></svg>