<svg xmlns="http://www.w3.org/2000/svg" viewBox="0 0 1503 1047"><g fill="none" fill-rule="nonzero"><path fill="#D0F0E4" d="M1196.77 1044.74H194.91l409.4-876h183.06z" opacity=".5"/><path fill="#FFCF2D" d="M712.38 97.33L695.84 80.8l-16.53 16.53-1.65-1.65 18.18-18.19 18.2 18.19z"/><path fill="#FFCF2D" d="M694.67.14h2v79h-2z"/><g transform="translate(666.48 142.64)"><circle cx="29.37" cy="29.37" r="27.95" fill="#FFCF2D"/><path fill="#FFF" d="M29.37 58.5A29.17 29.17 0 01.24 29.37 29.17 29.17 0 0129.37.24 29.17 29.17 0 0158.5 29.37 29.17 29.17 0 0129.37 58.5zm0-55.9A26.8 26.8 0 002.6 29.37a26.8 26.8 0 0026.77 26.77 26.8 26.8 0 0026.77-26.77A26.8 26.8 0 0029.37 2.6z"/></g><path fill="#000838" d="M788.83 170.83H602.86l2.76-12.56c8.15-37.2 46.1-64.25 90.22-64.25 21.34 0 42.13 6.42 58.54 18.11 16.46 11.65 27.68 28.03 31.65 46.1l2.8 12.6zm-183.02-2.37h180.06l-2.12-9.76c-3.82-17.48-14.72-33.34-30.7-44.68-16.03-11.38-36.34-17.63-57.2-17.63-43.03 0-80.04 26.21-87.95 62.35l-2.09 9.72z"/><g><path fill="#5A9DFF" d="M959.32 699.58h18.58V816.9h-18.58z"/><path fill="#000838" d="M1315.3 816.9h-105.77a6.31 6.31 0 01-6.3-7.1l14.72-124.27a6.37 6.37 0 016.3-5.59h105.78c3.82 0 6.77 3.3 6.3 7.09L1321.6 811.3a6.37 6.37 0 01-6.3 5.6z"/><path fill="#FFF" d="M1257.67 816.9h-83.53a8.58 8.58 0 01-8.5-9.57l10.7-90.5a8.59 8.59 0 018.5-7.56h85.55l-12.72 107.62z"/><path fill="#FFCF2D" d="M1258.74 818.08h-84.6a9.76 9.76 0 01-9.69-10.9l10.71-90.51a9.74 9.74 0 019.69-8.58h86.88l-13 109.99zm-73.9-107.63a7.37 7.37 0 00-7.32 6.53l-10.7 90.5a7.56 7.56 0 001.8 5.8 7.44 7.44 0 005.52 2.47h82.47l12.44-105.26h-84.2v-.04z"/><path fill="#FFF" d="M1267.04 816.9h-79.71a8.58 8.58 0 01-8.5-9.57l10.7-90.5a8.59 8.59 0 018.5-7.56h80.74a4.29 4.29 0 014.25 4.8l-11.73 99a4.27 4.27 0 01-4.25 3.82z"/><path fill="#FFCF2D" d="M1267.04 818.08h-79.71a9.76 9.76 0 01-9.69-10.9l10.7-90.51a9.74 9.74 0 019.7-8.58h80.73a5.5 5.5 0 015.43 6.14l-11.73 99a5.46 5.46 0 01-5.43 4.85zm-69-107.63a7.37 7.37 0 00-7.33 6.53l-10.7 90.5a7.56 7.56 0 001.8 5.8 7.44 7.44 0 005.52 2.47h79.71a3.08 3.08 0 003.07-2.75l11.73-99c.12-.91-.15-1.78-.74-2.45a3.14 3.14 0 00-2.33-1.06h-80.74v-.04z"/><path fill="#000838" d="M1012.5 818.08h-34.6V716.04h34.6v102.04zm-32.24-2.37h29.88v-97.3h-29.88v97.3z"/><path fill="#000838" d="M1046.67 818.08h-47.75V716.04h47.75v102.04zm-45.39-2.37h43.03v-97.3h-43.03v97.3z"/><path fill="#000838" d="M1102.26 818.08h-15.12l-47.71-112.98h15.12l47.7 112.98zm-13.55-2.37h10l-45.74-108.25h-10l45.74 108.25z"/><path fill="#000838" d="M1126.23 818.08h-25.94l-41.26-96.18h25.94l41.26 96.18zm-24.4-2.37h20.82l-39.21-91.44h-20.82l39.2 91.44zM959.32 818.08h-34.88V716.04h34.88v102.04zm-32.52-2.37h30.16v-97.3H926.8v97.3zM1078.05 661.44h-153.6v-21.81h153.6v21.8zm-151.25-2.36h148.88v-17.09H926.8v17.09z"/><path fill="#FF6576" d="M925.62 625.93h191.6v15.67h-191.6z"/><path fill="#FFCF2D" d="M925.62 603.33h129.32v22.2H925.62z"/><path fill="#000838" d="M1078.05 604.12h-153.6V585.2h153.6v18.93zm-151.25-2.36h148.88v-14.21H926.8v14.21z"/><g><path fill="#FFF" d="M1337.82 542.67l-.12.67-17.87 116.92h-165.8l17.86-116.92.24-1.65c2.84-5.75 20.16-10.2 41.14-10.2 22.95 0 41.53 5.32 41.53 11.85 0-6.53 18.58-11.85 41.53-11.85 22.16.04 40.23 4.96 41.5 11.18z"/><path fill="#FFCF2D" d="M1320.85 661.44h-168.2l18.34-120.1.08-.16c3.1-6.3 20.86-10.87 42.2-10.87 11.22 0 21.73 1.26 29.68 3.5 5.98 1.7 10 3.86 11.85 6.26 1.85-2.44 5.86-4.56 11.85-6.25 7.95-2.29 18.5-3.5 29.68-3.5 10.79 0 21.06 1.17 28.9 3.3 5.78 1.57 12.87 4.37 13.73 8.82l.04.23-.16.9-17.99 117.87zm-165.45-2.36h163.4l17.72-115.94.08-.47c-.7-2.4-5.16-4.96-12-6.8-7.64-2.05-17.68-3.24-28.27-3.24-23.78 0-40.35 5.63-40.35 10.67h-2.36c0-5.04-16.58-10.67-40.35-10.67-21.89 0-37.44 4.73-40 9.37l-.2 1.46-17.67 115.62z"/><path fill="#FFCF2D" d="M1236 660.19l17.72-116.92 2.33.36-17.71 116.91z"/><path fill="#FFCF2D" d="M1237.12 660.3c0-6.54-18.58-11.85-41.53-11.85-22.95 0-41.53 5.31-41.53 11.85h83.06zM1320.19 660.3c0-6.54-18.59-11.85-41.54-11.85s-41.53 5.31-41.53 11.85h83.07z"/><path fill="#FFCF2D" d="M1237.75 659a1.2 1.2 0 01-1.18-1.14c-.12-3.78 4.25-7.25 12.68-9.96 7.87-2.56 18.34-4.18 29.56-4.57 12.87-.47 26.65 1.1 35 3.94l17.48-109.95c.11-.63.7-1.1 1.33-.99.63.12 1.1.71.99 1.34l-17.95 112.83-1.38-.52c-7.87-3.03-22.12-4.76-35.43-4.29-10.98.4-21.26 1.97-28.93 4.45-7.01 2.28-11.14 5.12-11.02 7.64.03.67-.48 1.18-1.15 1.22.04 0 0 0 0 0z"/></g><g><path fill="#FFF" d="M1324.6 503.66H1175.7v-33.14a5.9 5.9 0 015.9-5.91h137.12a5.9 5.9 0 015.9 5.9v33.15h-.04z"/><path fill="#000838" d="M1325.81 504.84h-151.28v-34.32a7.1 7.1 0 017.09-7.1h137.1a7.1 7.1 0 017.1 7.1v34.32zm-148.92-2.36h146.56v-31.96c0-2.6-2.12-4.73-4.72-4.73h-137.11a4.74 4.74 0 00-4.73 4.73v31.96z"/><path fill="#FFCF2D" d="M1336.48 463.04H1208.2c-2 0-3.58-1.62-3.58-3.59v-13.18c0-2.01 1.61-3.59 3.58-3.59h128.3c2 0 3.58 1.62 3.58 3.59v13.18a3.6 3.6 0 01-3.59 3.59z"/><path fill="#FF6576" d="M1189.3 430.32h152.19v12.36h-152.2z"/><path fill="#FFF" d="M1338.73 430.32h-116.17a2.76 2.76 0 01-2.76-2.75v-9.96a2.76 2.76 0 012.76-2.76h116.17a2.76 2.76 0 012.75 2.76v9.96c0 1.5-1.22 2.75-2.75 2.75z"/><path fill="#000838" d="M1338.73 431.5h-116.17a3.95 3.95 0 01-3.94-3.93v-9.96a3.95 3.95 0 013.94-3.94h116.17a3.95 3.95 0 013.93 3.94v9.96a3.95 3.95 0 01-3.93 3.93zm-116.17-15.47c-.87 0-1.58.71-1.58 1.58v9.96c0 .86.71 1.57 1.58 1.57h116.17c.86 0 1.57-.7 1.57-1.57v-9.96c0-.87-.7-1.58-1.57-1.58h-116.17zM1020.34 504.84h-47.05V380.88h47.05v123.96zm-44.68-2.36h42.31V383.24h-42.31v119.24z"/><path fill="#FFF" d="M956.45 382.06h18.03v121.6h-18.03z"/><path fill="#000838" d="M975.66 504.84h-20.4V380.88h20.4v123.96zm-18.03-2.36h15.66V383.24h-15.66v119.24z"/><path fill="#FFF" d="M926.14 382.06h30.3v121.6h-30.3z"/><path fill="#000838" d="M957.63 504.84h-32.68V380.88h32.68v123.96zm-30.32-2.36h27.95V383.24h-27.95v119.24zM1065.41 504.88h-41.53V402.85h41.53v102.03zm-39.17-2.36h36.8V405.2h-36.8v97.3z"/><g><path fill="#FFF" d="M1027.9 503.66h-15.44a2.76 2.76 0 01-2.75-2.75v-94.2c0-1.5 1.22-2.76 2.75-2.76h15.43c1.5 0 2.76 1.22 2.76 2.75v94.2a2.79 2.79 0 01-2.76 2.76z"/><path fill="#000838" d="M1027.9 504.84h-15.44a3.95 3.95 0 01-3.93-3.93v-94.2a3.95 3.95 0 013.93-3.94h15.43a3.95 3.95 0 013.94 3.93v94.2a3.95 3.95 0 01-3.94 3.94zm-15.44-99.71c-.86 0-1.57.7-1.57 1.57v94.2c0 .87.7 1.58 1.57 1.58h15.43c.87 0 1.54-.7 1.58-1.61V406.7c0-.86-.7-1.57-1.58-1.57h-15.43z"/></g><path fill="#000838" d="M1064.23 404.03v54.64L1043 404.03z"/><g><path fill="#FFF" d="M1154.93 503.66h-62.67a3.34 3.34 0 01-3.11-2.12l-40.7-104.8a3.34 3.34 0 013.1-4.56h62.67c1.38 0 2.64.86 3.11 2.12l40.7 104.8a3.34 3.34 0 01-3.1 4.56z"/><path fill="#FFCF2D" d="M1154.93 504.84h-62.67a4.5 4.5 0 01-4.21-2.87l-40.7-104.8a4.6 4.6 0 01.46-4.2 4.44 4.44 0 013.74-1.97h62.67a4.5 4.5 0 014.22 2.87l40.7 104.8a4.54 4.54 0 01-4.21 6.18zm-103.38-111.48c-.74 0-1.37.35-1.77.94-.4.6-.47 1.34-.23 2.01l40.7 104.8a2.18 2.18 0 002 1.37h62.68c.75 0 1.38-.35 1.77-.94.4-.6.47-1.34.24-2.01l-40.7-104.8a2.18 2.18 0 00-2.02-1.37h-62.67z"/></g><g><path fill="#FFF" d="M1165.16 503.66h-62.67a3.34 3.34 0 01-3.1-2.12l-40.71-104.8a3.34 3.34 0 013.1-4.56h62.68c1.38 0 2.64.86 3.1 2.12l40.71 104.8a3.34 3.34 0 01-3.1 4.56z"/><path fill="#FFCF2D" d="M1165.16 504.84h-62.67a4.5 4.5 0 01-4.21-2.87l-40.7-104.8a4.6 4.6 0 01.47-4.2 4.44 4.44 0 013.74-1.97h62.67a4.5 4.5 0 014.21 2.87l40.7 104.8a4.54 4.54 0 01-4.21 6.18zM1061.8 393.36c-.75 0-1.38.35-1.77.94-.4.6-.48 1.34-.24 2.01l40.7 104.8a2.18 2.18 0 002.01 1.37h62.67c.75 0 1.38-.35 1.77-.94.4-.6.48-1.34.24-2.01l-40.7-104.8a2.18 2.18 0 00-2.01-1.37h-62.67z"/></g></g><g><path fill="#FFCF2D" d="M1256.77 324.2a68.06 68.06 0 01-48.54-20.12 68.22 68.22 0 01-20.12-48.54c0-15.2 4.85-29.57 14.06-41.61a69.3 69.3 0 0135.54-24.37l1.15-.31 37.87 132.03-1.15.31a69.55 69.55 0 01-18.81 2.6zm-19.53-132.04a66.72 66.72 0 00-33.18 23.19 65.51 65.51 0 00-13.58 40.19 66.34 66.34 0 0083.3 64.09l-36.54-127.47z"/><path fill="#FFCF2D" d="M1255.58 323.01h2.36v24.05h-2.36z"/><g transform="translate(1198.3 197.2)"><circle cx="58.46" cy="58.34" r="57.16" fill="#FFF"/><path fill="#3FB1B5" d="M58.46 116.68A58.42 58.42 0 01.12 58.34 58.42 58.42 0 0158.46 0a58.42 58.42 0 0158.34 58.34 58.42 58.42 0 01-58.34 58.34zm0-114.32A56.05 56.05 0 002.48 58.34a56.05 56.05 0 0055.98 55.98 56.05 56.05 0 0055.98-55.98A56.05 56.05 0 0058.46 2.36z"/></g><path fill="#FFF" d="M1280.66 346.9h-47.6l23.63-11.84z"/><path fill="#FFCF2D" d="M1285.7 348.09h-57.63l28.62-14.37 29.01 14.37zm-47.63-2.36h37.55l-18.9-9.33-18.65 9.33z"/></g><path fill="#000838" d="M1342.66 1045.92h-23.9v-51.96a19.32 19.32 0 00-19.28-19.29h-332.1a19.32 19.32 0 00-19.28 19.3v51.95h-23.66V345.88h418.22v700.04zm-21.53-2.36h19.17V348.24H926.8v695.32h18.94v-49.6a21.69 21.69 0 0121.65-21.65h332.09a21.69 21.69 0 0121.65 21.65v49.6z"/><path fill="#3FB1B5" d="M1311.6 955.34H954.71a9.4 9.4 0 01-9.4-9.4V843.23a9.4 9.4 0 019.4-9.4h356.9a9.4 9.4 0 019.4 9.4v102.7a9.4 9.4 0 01-9.4 9.41zM954.71 836.18a7.04 7.04 0 00-7.04 7.05v102.7c0 3.9 3.15 7.05 7.04 7.05h356.9c3.9 0 7.04-3.15 7.04-7.04V843.23c0-3.9-3.15-7.05-7.05-7.05H954.71z"/><g><path fill="#000838" d="M1151.98 251.25v95.81h-33.54z"/><path fill="#FFF" d="M1151.98 251.25l-.24.7-33.1 95.11H964.7l33.1-95.1 1.07-3.03c4.96-7.13 18.7-12.33 35.08-12.6h1.58c19.12 0 36.17 6.65 39.28 15.39 3.07-8.74 19.37-15.4 38.5-15.4 18.74 0 35.15 6.42 38.66 14.93z"/><path fill="#FFCF2D" d="M1119.46 348.24H963.02l34.76-99.87.08-.11c5.35-7.68 19.48-12.84 36.02-13.11h1.61c18.07 0 34.17 5.82 39.29 13.9 5-8.2 20.5-13.9 38.5-13.9 19.29 0 36.02 6.57 39.76 15.66l.16.4-.4 1.14-33.34 95.9zm-153.1-2.36h151.4l32.84-94.32.08-.27c-3.7-7.92-19.6-13.78-37.4-13.78-18.38 0-34.45 6.26-37.4 14.6l-1.1 3.15-1.1-3.15c-2.92-8.18-19.69-14.6-38.19-14.6h-1.57c-15.43.27-29.1 5.08-34.01 11.97l-1.03 2.87-32.51 93.53z"/><path fill="#FFCF2D" d="M1041.36 346.28a1.4 1.4 0 01-.4-.08c-.63-.24-.94-.9-.7-1.5l33.42-93.37c.23-.63.9-.95 1.5-.71.62.23.94.9.7 1.5l-33.42 93.37c-.16.47-.63.79-1.1.79z"/><path fill="#FFCF2D" d="M1041.28 345.88H964.7c2.84-8.85 18.74-15.66 37.87-15.66 19.21 0 35.86 6.8 38.7 15.66zM1118.44 345.88h-76.57c2.83-8.85 18.74-15.66 37.87-15.66 19.21 0 35.86 6.8 38.7 15.66z"/></g><path fill="#000838" d="M1160.48 866.61c-.67 0-1.18-.5-1.18-1.18a4.4 4.4 0 00-4.41-4.4h-41.77a4.4 4.4 0 00-4.4 4.4c0 .67-.52 1.18-1.19 1.18-.67 0-1.18-.5-1.18-1.18a6.77 6.77 0 016.77-6.77h41.77a6.77 6.77 0 016.77 6.77c0 .67-.51 1.18-1.18 1.18zM1341.48 661.48H925.62c-.67 0-1.18-.51-1.18-1.18 0-.67.51-1.18 1.18-1.18h415.86c.67 0 1.18.5 1.18 1.18 0 .67-.5 1.18-1.18 1.18zM1341.48 504.84H925.62c-.67 0-1.18-.51-1.18-1.18 0-.67.51-1.18 1.18-1.18h415.86c.67 0 1.18.51 1.18 1.18 0 .67-.5 1.18-1.18 1.18zM1341.48 818.08H925.62c-.67 0-1.18-.52-1.18-1.19 0-.66.51-1.18 1.18-1.18h415.86c.67 0 1.18.52 1.18 1.18 0 .67-.5 1.19-1.18 1.19zM1341.48 348.24H925.62c-.4 0-.75-.2-.94-.5-.24-.32-.28-.72-.16-1.07l51.18-146.28c.2-.63.9-.95 1.5-.71.62.2.94.9.7 1.5l-50.62 144.7h413.34l50.9-145.5c.2-.62.9-.94 1.5-.7.62.2.94.9.7 1.5l-51.17 146.28c-.12.47-.56.78-1.07.78z"/></g><g><path fill="#FF6576" d="M1439.35 1007.19c0 7.91-1.46 15.5-4.14 22.56a26.42 26.42 0 01-24.76 16.92h-83.34a26.37 26.37 0 01-24.72-16.92 63.36 63.36 0 01-4.13-22.56c0-22.83 12.08-42.99 30.55-55.03v-13.31c0 5.83 17.9 10.55 39.95 10.55 22.09 0 39.96-4.72 39.96-10.55v13.34c18.54 12.01 30.63 32.17 30.63 55z"/><path fill="#FFF" d="M1408.8 948.53v3.55c-6.34 5.04-23.58 7.71-39.96 7.71-16.37 0-33.62-2.67-39.95-7.71v-3.55c.74 1.7 3.93 3.9 11.02 5.75 7.71 2.05 17.99 3.15 28.93 3.15 10.95 0 21.22-1.1 28.94-3.15 7.08-1.89 10.23-4.1 11.02-5.75z"/><path fill="#5A9DFF" d="M1408.8 938.85c0 5.83-17.91 10.55-39.96 10.55-22.04 0-39.95-4.72-39.95-10.55 0-.75.27-1.46.82-2.17 3.78-4.76 19.84-8.38 39.13-8.38 19.3 0 35.35 3.58 39.13 8.38.51.71.83 1.42.83 2.17z"/><g fill="#FFCF2D"><path d="M1315.34 991.64a6.23 6.23 0 01-6.22-6.22c0-3.43 2.8-6.22 6.22-6.22 3.43 0 6.22 2.8 6.22 6.22s-2.8 6.22-6.22 6.22zm0-10.08a3.86 3.86 0 10.02 7.73 3.86 3.86 0 00-.02-7.73zM1332.43 1004.04a6.23 6.23 0 01-6.22-6.22c0-3.43 2.8-6.22 6.22-6.22s6.22 2.8 6.22 6.22-2.8 6.22-6.22 6.22zm0-10.08a3.86 3.86 0 10.01 7.73 3.86 3.86 0 00-.01-7.73zM1353.69 989.32a6.23 6.23 0 01-6.22-6.22c0-3.43 2.8-6.22 6.22-6.22s6.22 2.8 6.22 6.22-2.8 6.22-6.22 6.22zm0-10.08a3.86 3.86 0 100 7.73 3.86 3.86 0 000-7.73zM1350.7 1022.78a6.23 6.23 0 01-6.23-6.22c0-3.43 2.8-6.22 6.22-6.22 3.43 0 6.22 2.8 6.22 6.22s-2.8 6.22-6.22 6.22zm0-10.08a3.86 3.86 0 100 7.73 3.86 3.86 0 000-7.73zM1331.8 1037.46a6.23 6.23 0 01-6.22-6.22c0-3.42 2.8-6.22 6.22-6.22s6.22 2.8 6.22 6.22c0 3.43-2.8 6.22-6.22 6.22zm0-10.08a3.86 3.86 0 10.01 7.73 3.86 3.86 0 00-.01-7.73zM1312.75 1022.78a6.23 6.23 0 01-6.22-6.22c0-3.43 2.79-6.22 6.22-6.22 3.42 0 6.22 2.8 6.22 6.22s-2.8 6.22-6.22 6.22zm0-10.08a3.86 3.86 0 100 7.73 3.86 3.86 0 000-7.73zM1335.18 972.94a6.23 6.23 0 01-6.22-6.22c0-3.42 2.8-6.22 6.22-6.22 3.43 0 6.22 2.8 6.22 6.22 0 3.43-2.8 6.22-6.22 6.22zm0-10.08a3.86 3.86 0 10.02 7.73 3.86 3.86 0 00-.02-7.73zM1375.3 976.76a6.23 6.23 0 01-6.22-6.22c0-3.43 2.8-6.22 6.22-6.22s6.22 2.8 6.22 6.22-2.8 6.22-6.22 6.22zm0-10.08a3.86 3.86 0 10.01 7.73 3.86 3.86 0 00-.01-7.73zM1371.09 1007.3a6.23 6.23 0 01-6.22-6.21c0-3.43 2.79-6.22 6.22-6.22 3.42 0 6.22 2.8 6.22 6.22s-2.8 6.22-6.22 6.22zm0-10.07a3.86 3.86 0 100 7.73 3.86 3.86 0 000-7.73zM1385.65 1027.38a6.23 6.23 0 01-6.22-6.22c0-3.42 2.8-6.22 6.22-6.22 3.43 0 6.22 2.8 6.22 6.22 0 3.43-2.8 6.22-6.22 6.22zm0-10.07a3.86 3.86 0 10.01 7.72 3.86 3.86 0 000-7.72zM1366.76 1042.5a6.23 6.23 0 01-6.22-6.22c0-3.42 2.79-6.22 6.22-6.22 3.42 0 6.21 2.8 6.21 6.22s-2.79 6.22-6.21 6.22zm0-10.08a3.86 3.86 0 100 7.73 3.86 3.86 0 000-7.73zM1391.04 995.26a6.23 6.23 0 01-6.22-6.22c0-3.42 2.8-6.22 6.22-6.22 3.43 0 6.22 2.8 6.22 6.22 0 3.43-2.8 6.22-6.22 6.22zm0-10.08a3.86 3.86 0 10.02 7.73 3.86 3.86 0 00-.02-7.73zM1405.65 974.6a6.23 6.23 0 01-6.22-6.23c0-3.42 2.8-6.22 6.22-6.22s6.22 2.8 6.22 6.22c0 3.43-2.8 6.22-6.22 6.22zm0-10.08a3.86 3.86 0 10.01 7.72 3.86 3.86 0 00-.01-7.72zM1422.26 991.32a6.23 6.23 0 01-6.22-6.22c0-3.42 2.8-6.22 6.22-6.22 3.43 0 6.22 2.8 6.22 6.22 0 3.43-2.8 6.22-6.22 6.22zm0-10.07a3.86 3.86 0 10.01 7.72 3.86 3.86 0 000-7.72zM1403.25 1007.82a6.23 6.23 0 01-6.22-6.22c0-3.43 2.8-6.22 6.22-6.22s6.22 2.8 6.22 6.22-2.8 6.22-6.22 6.22zm0-10.08a3.86 3.86 0 10.01 7.73 3.86 3.86 0 00-.01-7.73zM1426 1018.37a6.23 6.23 0 01-6.22-6.22c0-3.43 2.8-6.22 6.22-6.22 3.43 0 6.22 2.8 6.22 6.22s-2.8 6.22-6.22 6.22zm0-10.08a3.86 3.86 0 10.01 7.73 3.86 3.86 0 000-7.73zM1410.69 1037.74a6.23 6.23 0 01-6.22-6.22c0-3.43 2.8-6.22 6.22-6.22s6.22 2.8 6.22 6.22-2.8 6.22-6.22 6.22zm0-10.08a3.86 3.86 0 10.01 7.73 3.86 3.86 0 00-.01-7.73z"/></g><g><path fill="#FFF" d="M1457.1 877.52s37.4-20.2 43.58 15.07c7.16 40.75-41.5 76.61-41.5 76.61s-10.47-25.94-38.53-48.3c-24.3-19.33-4.14-70.58 36.45-43.38z"/><path fill="#FFCF2D" d="M1458.67 971.05l-.55-1.42c-.12-.27-10.7-25.94-38.18-47.83-6.3-5-10.12-12.44-10.83-20.9-.67-7.91 1.5-15.94 5.95-22 4.29-5.87 10.2-9.37 17.08-10.2 7.72-.9 16.18 1.57 25.08 7.44 3.46-1.73 19.8-9.29 32.08-3.35 6.65 3.23 10.87 9.8 12.6 19.57 1.65 9.53.47 19.52-3.55 29.8-3.18 8.15-8.14 16.5-14.76 24.72a142.54 142.54 0 01-23.66 23.23l-1.26.94zm-23.42-100.15c-.98 0-1.93.04-2.87.16-6.22.75-11.58 3.94-15.47 9.25-10 13.66-5.75 31.53 4.45 39.68 24.24 19.33 35.62 41.61 38.26 47.36 3.3-2.6 13.03-10.67 22.08-21.97 10.12-12.63 21.42-32 17.8-52.59-1.58-8.97-5.36-15-11.3-17.87-3.54-1.73-9.88-3.23-19.88-.51a55.5 55.5 0 00-10.7 4.13l-.64.36-.59-.4c-7.48-5.04-14.6-7.6-21.14-7.6zM1383.68 832.6c17.76.16 43.27-35.9 19.17-75.46-29.09-47.8-34.09-75.47-34.09-75.47s-42.79 56.61-35.5 100.03c7.99 47.56 50.42 50.9 50.42 50.9z"/><path fill="#FFF" d="M1386.75 808.59c25.94 6.85 50.59-8.94 51.1-44.92.9-63.61 12.95-84.32 12.95-84.32s-80.82 29.1-93.06 74.28c-11.65 43.07 29.01 54.96 29.01 54.96z"/><path fill="#FFCF2D" d="M1398.52 811.34a48.4 48.4 0 01-12.08-1.61h-.04a51.76 51.76 0 01-19.37-11.61c-8.19-7.84-16.61-21.97-10.47-44.8 2.83-10.51 9.57-21.02 20.04-31.22 8.3-8.1 18.93-16.02 31.65-23.58 21.57-12.83 41.92-20.23 42.16-20.27l3.07-1.1-1.62 2.8c-.11.19-11.88 21.33-12.79 83.72-.24 17.56-6.38 31.77-17.24 40.04a38.13 38.13 0 01-23.3 7.63zm-11.45-3.9c12.4 3.27 24.2 1.27 33.3-5.62 10.28-7.8 16.06-21.34 16.3-38.19.75-51.33 8.58-74.71 11.77-82.15a279.35 279.35 0 00-39.01 19.05c-19.65 11.7-44.33 30.39-50.55 53.38-4.72 17.4-1.42 31.69 9.8 42.47a50.27 50.27 0 0018.39 11.07zM1278.34 850.47l-3 .24c-55.81 4.17-71.87 55.27-71.87 55.27s-3.43-3.7-2.72-16.5c1.34-32.98 31.69-67.07 66.33-45.42 3.86 2.44 7.64 4.52 11.26 6.41z"/><path fill="#FFF" d="M1341.64 863.03c-9.84.63-32.32 3.35-63.3-12.56-3.62-1.85-7.4-3.97-11.26-6.41-34.64-21.65-64.2 12.44-65.54 45.42-.08 1.62.31 3.23.4 4.8-3.28-28.65-3.2-99.98 83.52-97.58 59.6 1.73 56.18 66.33 56.18 66.33z"/><path fill="#FFCF2D" d="M1200.75 894.4l-.24-2.28c-.08-.55-.11-1.14-.15-1.69-1.7-19.29-.75-50.94 18.85-72.32 14.53-15.82 36.8-23.42 66.25-22.6 17.09.52 30.71 6.15 40.51 16.78 5.28 5.7 12.2 16.06 15.32 32.9 1.85 10.05 1.5 17.57 1.5 17.88l-.05 1.06-1.06.08-1.85.12c-10.6.75-32.6 2.32-62.08-12.8-3.9-1.96-7.72-4.17-11.34-6.45-12.52-7.83-25.27-8.74-36.8-2.64-15.04 7.95-26.1 27.32-26.93 47.12v.8c.04.54.08 1.05.16 1.57 0 .11.04.23.04.35.07.63.15 1.3.2 1.97l-2.33.16zm80.5-96.56c-26.69 0-46.96 7.36-60.3 21.89-15.04 16.37-18.74 39.13-18.82 57.28a65.42 65.42 0 016.45-16.38c5.12-9.1 12.01-16.14 19.92-20.31 8.62-4.53 22.4-7.76 39.17 2.71 3.58 2.29 7.36 4.41 11.18 6.38 28.9 14.84 50.47 13.3 60.82 12.56.28 0 .51-.04.79-.04.08-5.43-.55-31.02-16.22-48.03-9.37-10.15-22.44-15.55-38.81-16.02-1.42-.04-2.8-.04-4.18-.04z"/><path fill="#FFCF2D" d="M1357 936.84l-2.37-.16c0-.15 1.1-16.3-2.56-36.68-3.38-18.74-11.57-45.04-31.53-63.78-21.8-20.47-53.14-28.14-93.14-22.75l-.31-2.32c40.74-5.47 72.7 2.36 95.06 23.38 20.43 19.21 28.82 46.02 32.24 65.11 3.74 20.67 2.6 37.04 2.6 37.2zM1460.33 969.28l-2.36-.24c.07-.74 6.77-73.26-1.97-92.74-9.69-21.58-22.95-31.18-37.44-26.97-11.18 3.23-22.24 14.76-29.64 30.86a102.14 102.14 0 00-9.1 39.02c.36 10.86.95 17.28.95 17.47l-2.36.28a106.96 106.96 0 01-.99-17.75 500.1 500.1 0 013.74-77.8c3.98-30.97 10.87-59.4 20.43-84.55 11.97-31.5 28.23-57.83 48.3-78.34l1.7 1.66c-19.84 20.27-35.9 46.33-47.75 77.47-9.49 24.96-16.34 53.22-20.32 84a486.49 486.49 0 00-3.93 59.37 105.09 105.09 0 017.12-21.85c7.8-16.97 19.14-28.66 31.1-32.16 9.14-2.64 26.46-2.48 40.23 28.3 3.78 8.47 5.32 26.85 4.53 54.68-.51 20.67-2.24 39.1-2.24 39.29z"/></g></g><g><path fill="#FFCF2D" d="M91.72 822.22L80 832.49a43.28 43.28 0 01-5.04-7.44L1.81 688.77a8.54 8.54 0 017.52-12.6h10.23c8.2 0 15.67 4.49 19.53 11.7L96.6 795a22.06 22.06 0 01-4.88 27.2zM290.83 825.2l-170.17 34.97v-3.55a35.73 35.73 0 0128.54-35l109.63-22.51a26.66 26.66 0 0132 26.1z"/><path fill="#000838" d="M53.62 1043.92c-.16 0-.28-.03-.44-.07a1.2 1.2 0 01-.67-1.54l56.42-146.8a39.03 39.03 0 0128.7-24.36l106.87-21.93a23.47 23.47 0 0128.23 23v170.52c0 .67-.52 1.18-1.18 1.18-.67 0-1.19-.5-1.19-1.18V872.25a21.13 21.13 0 00-25.39-20.7L138.1 873.46a36.65 36.65 0 00-26.97 22.87l-56.41 146.84c-.2.47-.63.74-1.1.74zM114.4 861.98a34.5 34.5 0 01-14.88-3.35 34.9 34.9 0 01-16.1-15.23L.32 688.57a1.2 1.2 0 01.47-1.61 1.2 1.2 0 011.61.47l83.1 154.82a32.47 32.47 0 0015.04 14.21 32.69 32.69 0 0020.55 2.45l169.9-34.88c.63-.12 1.26.27 1.38.9.12.63-.28 1.26-.9 1.38l-169.9 34.88c-2.37.55-4.77.79-7.17.79z"/><g><path fill="#5A9DFF" d="M207.38 698.76h143.8v19.21h-143.8z"/><path fill="#FF6576" d="M324.96 677.9c1.74 1.62 2.8 4.53 2.8 6.97 0 4.88-4.25 9.88-9.53 9.88H187.07a4.13 4.13 0 004.13 4.13h158.29c4.25 0 8.07-1.57 10.86-4.17a13.61 13.61 0 004.5-10.08c0-7.87-6.9-14.2-15.36-14.2H191.2a4.13 4.13 0 00-4.13 4.13v.74h131.16c2.64.04 5 1.03 6.73 2.6z"/><path fill="#FF6576" d="M196.55 675.34v19.06h-9.44v1.57h131.6c1.45 0 2.87-.28 4.13-.79a11.13 11.13 0 006.97-10.31c0-6.14-5-11.1-11.1-11.1H187.1v1.57h9.44z"/><path fill="#FFF" d="M192.9 675.34v19.06h125.33a9.5 9.5 0 006.73-16.26 9.46 9.46 0 00-6.73-2.8H192.9z"/><path fill="#FF6576" d="M191.9 675.34h1.98v19.05h-1.97z"/><path fill="#FFCF2D" d="M300.72 688.85v15.9h10.98v-13.86c0-3.3 2.68-5.98 5.98-5.98h4.88v-2.05h-15.9a6 6 0 00-5.94 5.99z"/></g><g fill="#000838"><path d="M455.82 735.61c-.67 0-1.18-.51-1.18-1.18 0-7.71-6.3-14.01-14.02-14.01H141.83c-7.71 0-14 6.3-14 14.01 0 .67-.52 1.18-1.19 1.18-.67 0-1.18-.51-1.18-1.18 0-9.01 7.36-16.38 16.37-16.38h298.8c9 0 16.37 7.37 16.37 16.38 0 .67-.51 1.18-1.18 1.18z"/><path d="M126.4 1043.92c-.11 0-.23 0-.31-.03a1.2 1.2 0 01-.83-1.46l84.32-293.83c3.9-13.5 17.25-22.9 32.48-22.9h98.3c15.23 0 28.58 9.4 32.47 22.9l84.36 293.83c.2.63-.2 1.3-.82 1.46-.63.2-1.3-.2-1.46-.83l-84.36-293.83c-3.58-12.48-16.02-21.18-30.2-21.18h-98.29c-14.17 0-26.61 8.7-30.2 21.18l-84.31 293.83c-.16.51-.63.86-1.15.86z"/></g></g><g><path fill="#FFF" d="M589.87 993.88v42.83a8.01 8.01 0 008.03 8.03h107.08s.63-19.88-15.67-25.43c-27.67-9.4-40.59-25.43-40.59-25.43h-58.85z"/><path fill="#FF6576" d="M706.12 1045.92H597.9a9.22 9.22 0 01-9.2-9.2V992.7h60.57l.36.44c.12.15 13.07 15.86 40.03 25.03 7.05 2.4 12.13 7.76 14.69 15.55 1.93 5.79 1.77 10.83 1.77 11.06v1.14zm-115.07-50.86v41.65a6.85 6.85 0 006.85 6.85h105.86c-.2-4.17-1.77-18.7-14.84-23.14-25.47-8.66-38.43-22.68-40.75-25.36h-57.12z"/><path fill="#FF6576" d="M649.75 1016.95l-.63-2.28c3.74-1.06 13.78-6.81 14.88-11.02.23-.91.04-1.62-.67-2.33-1.62-1.61-6.02-.31-7.4.24l-.9-2.17c.7-.27 6.96-2.75 10 .24 1.29 1.3 1.72 2.87 1.29 4.6-1.54 5.75-12.91 11.7-16.57 12.72zM665.89 1022.86l-.63-2.29c3.46-.98 13.15-7.24 13.97-11.41.2-.9-.08-1.62-.86-2.25-1.46-1.14-3.43-1.02-5.9.44a16.71 16.71 0 00-3.7 2.87l-1.7-1.65c.08-.08 1.8-1.9 4.17-3.27 4.3-2.48 7.05-1.5 8.62-.24a4.38 4.38 0 011.7 4.53c-1.19 5.75-12.13 12.28-15.67 13.27zM652.03 997.35l-62.16 19.33v-22.8h58.9s1.06 1.34 3.26 3.47z"/><path fill="#FFF" d="M724.1 993.88v42.83a8.01 8.01 0 008.04 8.03H839.2s.63-19.88-15.66-25.43c-27.68-9.4-40.59-25.43-40.59-25.43h-58.85z"/><path fill="#FF6576" d="M840.36 1045.92H732.14a9.22 9.22 0 01-9.21-9.2V992.7h60.58l.36.44c.11.15 13.07 15.86 40.03 25.03 7.05 2.4 12.13 7.76 14.68 15.55 1.93 5.79 1.78 10.83 1.78 11.06v1.14zm-115.07-50.86v41.65a6.85 6.85 0 006.85 6.85h105.85c-.2-4.17-1.77-18.7-14.84-23.14-25.47-8.66-38.42-22.68-40.74-25.36h-57.12z"/><path fill="#FF6576" d="M783.98 1016.95l-.63-2.28c3.74-1.06 13.78-6.81 14.88-11.02.24-.91.04-1.62-.66-2.33-1.62-1.61-6.03-.31-7.4.24l-.91-2.17c.7-.27 6.97-2.75 10 .24 1.3 1.3 1.73 2.87 1.3 4.6-1.54 5.75-12.91 11.7-16.58 12.72zM800.12 1022.86l-.63-2.29c3.47-.98 13.15-7.24 13.98-11.41.2-.9-.08-1.62-.87-2.25-1.45-1.14-3.42-1.02-5.9.44a16.71 16.71 0 00-3.7 2.87l-1.7-1.65c.08-.08 1.82-1.9 4.18-3.27 4.29-2.48 7.04-1.5 8.62-.24a4.38 4.38 0 011.7 4.53c-1.19 5.75-12.13 12.28-15.68 13.27zM786.27 997.35l-62.16 19.33v-22.8H783s1.06 1.34 3.27 3.47z"/><g><path fill="#3FB1B5" d="M618.8 567.55L580.04 973.5h81.1l40.74-196.7 16.65 41.92v154.78h84.44V799.93l-45.04-232.38z"/><path fill="#000838" d="M622.12 973.35l37.72-308.42 2.35.3-37.72 308.4zM760.44 973.5h-2.36V800.08L705.21 587.5l2.29-.55 52.94 212.81z"/><path fill="#FFF" d="M716.24 819.1l-50.55-146.8a11.33 11.33 0 00-10.75-7.63v-2.36c5.87 0 11.06 3.7 12.95 9.2l50.55 146.8-2.2.79z"/><path fill="#000838" d="M612.39 634.67l6.42-67.12h139.11l3.98 20.63zM803.12 993.88H718.2a5.8 5.8 0 01-5.78-5.78v-8.82a5.8 5.8 0 015.78-5.79h84.92a5.8 5.8 0 015.78 5.79v8.82a5.82 5.82 0 01-5.78 5.78zM662.58 993.88h-84.91a5.8 5.8 0 01-5.79-5.78v-8.82a5.8 5.8 0 015.79-5.79h84.91a5.8 5.8 0 015.79 5.79v8.82a5.82 5.82 0 01-5.79 5.78z"/></g><g><path fill="#5A9DFF" d="M889.2 579.44L915.83 679l-132.66 35.46-26.65-99.63a11.58 11.58 0 00-5.4-7.05c-2.56-1.5-5.7-2-8.81-1.18a11.63 11.63 0 00-8.23 14.21l26.65 99.64-2.91.79-26.62-99.56a15.11 15.11 0 0110.71-18.5l128.8-34.45a15.17 15.17 0 0118.5 10.71z"/><path fill="#000838" d="M759.46 614.16l26.61 99.56-2.91.78-26.65-99.63a11.58 11.58 0 00-5.4-7.05c-2.56-1.5-5.7-2-8.81-1.18a11.63 11.63 0 00-8.23 14.21l26.65 99.64-2.91.79-26.62-99.56a15.11 15.11 0 0110.24-18.38 15.12 15.12 0 0118.03 10.82z"/><path fill="#FFF" d="M756.5 614.83l25 93.53-22.43 5.99-25-93.54a11.6 11.6 0 1122.44-5.98z"/></g><g><path fill="#FFCF2D" d="M889.6 632.19l-60.35 20.79-47.63-85.43H597c-31.38 0-54.84-28.85-48.42-59.56l19.2-92.27a62.31 62.31 0 0160.98-49.6h126.25a62.26 62.26 0 0161.49 52.4l19.01 89.83 54.1 123.84z"/><path fill="#FFF" d="M828.7 654.43l-47.79-85.7H597a50.38 50.38 0 01-39.29-18.7 50.53 50.53 0 01-10.27-42.27l19.2-92.28a63.63 63.63 0 0122.09-36.3 63.7 63.7 0 0140.03-14.2h126.25c15.08 0 29.68 5.39 41.18 15.15a63.6 63.6 0 0121.5 38.19l18.97 89.67 54.56 124.9-62.52 21.54zM628.76 367.3a61.4 61.4 0 00-38.53 13.7 61.4 61.4 0 00-21.3 34.95l-19.21 92.28c-3 14.29.59 28.97 9.8 40.3A48.09 48.09 0 00597 566.38h185.33l47.48 85.15 58.22-20.04L834.4 508.7l-.04-.12-19.01-89.87a60.96 60.96 0 00-20.7-36.8A61.22 61.22 0 00755 367.3H628.76z"/><path fill="#FFF" d="M587.16 566.57a49.6 49.6 0 01-39.53-44.68 24.01 24.01 0 015.47-2.84c14.3-5.27 30.63 3.39 36.57 19.33 3.67 10 2.4 20.47-2.51 28.19z"/></g><g><path fill="#E57281" d="M724.62 310.77v55.39H663.5l14.09-36.85z"/><path fill="#000838" d="M738.67 287.46c-.04 0-.11.04-.15.04l-18.15 4.8a19.82 19.82 0 00-13.62 12.6h-6.97a8 8 0 00-7.99 8v.11c0 4.18 3.19 7.6 7.28 7.95l-.04.04s-3.23 15.36-22.08 10.2c0 0 .75-40.39 1.53-52.95.67-10.35 55.59-29.95 60.67-21.6 4.48 7.4-.71 10.86-5.12 12.4 7.8-1.66 22.52-3.87 24.01 2.7 1.73 7.64-13.82 14.26-19.37 15.71z"/><path fill="#E57281" d="M742.22 315.77h-1.93l.55 9.45a11.86 11.86 0 01-11.81 12.51h-8.5a14.85 14.85 0 01-14.84-14.84v-1.85h-5.87a8 8 0 01-8-7.99v-.12a8 8 0 018-7.99h6.97a19.74 19.74 0 0113.62-12.6l18.15-4.8 6.22 24.92c.63 1.58-.87 3.3-2.56 3.3z"/><g fill="#000838" transform="translate(697.58 294.43)"><path d="M25.98 45.03a18.74 18.74 0 01-13.5-5.82 12.88 12.88 0 01-3.5-10.08 1 1 0 011.06-.9 1 1 0 01.9 1.06 11 11 0 003 8.58 16.75 16.75 0 0012.04 5.2c.55 0 .99.43.99.98s-.44.98-.99.98zM6.77 20.94a.97.97 0 01-.98-.98 4.57 4.57 0 00-4.57-4.57.97.97 0 01-.98-.98c0-.55.43-.99.98-.99a6.52 6.52 0 016.54 6.54c0 .55-.44.98-.99.98z"/><ellipse cx="37.95" cy="11.3" rx="1.46" ry="3.03"/><path d="M31.65 5.9a.92.92 0 01-.79-.39 1 1 0 01.2-1.38c.2-.15 5.2-3.9 12.36-3.9.55 0 .98.44.98.99s-.43.98-.98.98c-6.5 0-11.14 3.47-11.18 3.5-.16.13-.4.2-.59.2z"/></g></g><g><path fill="#FFF" d="M710.49 592.79s48.22 2.08 65.19-36.62l-8.98-16.41-26.8 10.31-29.41 42.72z"/><path fill="#FF6576" d="M711.9 594c-.86 0-1.33 0-1.45-.03l-2.13-.08 30.83-44.76 28.1-10.83 9.77 17.84-.24.55c-8.94 20.39-26.53 29.44-39.68 33.46a91.86 91.86 0 01-25.2 3.86zm28.74-42.94l-27.95 40.58c4.1-.08 13.39-.63 23.7-3.78 8.07-2.48 15.24-6.02 21.22-10.58a53.78 53.78 0 0016.69-21.03l-8.19-15-25.47 9.8z"/><g fill="#FF6576"><path d="M749.1 356a9.68 9.68 0 00-8.85 9.6v193.96c0 18.5-15 33.5-33.5 33.5h-74.36a33.5 33.5 0 01-33.3-37.08v-.04l26.76-184.11a18.48 18.48 0 0118.3-15.83h104.96z"/><path d="M706.75 594.24h-74.36a34.64 34.64 0 01-25.79-11.5 34.77 34.77 0 01-8.7-26.84v-.16l26.77-184.11a19.57 19.57 0 0119.49-16.85H749.1l.11 2.36a8.36 8.36 0 00-5.27 2.44 8.4 8.4 0 00-2.48 5.99v193.95a34.78 34.78 0 01-34.72 34.72zm-106.49-38.22v.08a32.33 32.33 0 0032.16 35.78h74.37a32.34 32.34 0 0032.32-32.32V365.61a10.76 10.76 0 014.05-8.43H644.2a17.2 17.2 0 00-17.13 14.8l-26.8 184.04z"/></g><path fill="#FFF" d="M741.63 356a9.68 9.68 0 00-6.03 2.8 9.43 9.43 0 00-2.71 5.47c-.04.43-.08.86-.08 1.3l-1.58 14.84-18.9 179.11c0 18.5-14.99 33.5-33.5 33.5h-46.4a33.5 33.5 0 01-33.3-37.08v-.04l12.08-83.22 14.68-100.9a18.47 18.47 0 0118.27-15.83l97.47.05z"/><path fill="#FF6576" d="M678.84 594.2h-46.41a34.64 34.64 0 01-25.79-11.5 34.77 34.77 0 01-8.7-26.84v-.16l12.09-83.22 14.68-100.9a19.75 19.75 0 0119.45-16.85l98.65.01v2.32l-1.07.08a8.36 8.36 0 00-7.63 7.2c-.04.4-.08.8-.08 1.19v.11l-1.58 14.85-18.9 179.03a34.8 34.8 0 01-34.71 34.68zm-78.54-38.18v.08a32.33 32.33 0 0032.16 35.78h46.42a32.34 32.34 0 0032.32-32.32v-.12l18.9-179.11 1.57-14.76c0-.48.04-.95.08-1.34v-.04a10.43 10.43 0 013.07-6.14c.27-.28.59-.55.9-.83H644.2c-7.6 0-14.45 5.08-16.58 12.36-.23.9-.43 1.7-.5 2.44l-14.7 100.9-12.12 83.1z"/><path fill="#FFCF2D" d="M725.05 394.62l-7.04 52.87c-2.33 10.82-10.75 16.6-22.95 18.58l-83.46 12.12 12.17-83.61 101.28.04z"/><g fill="#FF6576"><path d="M738.63 356h-2.08a7.93 7.93 0 00-7.84 6.38l-12.28 79.24a23.5 23.5 0 01-22.95 18.58h-76.8a14.54 14.54 0 01-14.21-17.67l14.8-67.24A24.6 24.6 0 01641.28 356h97.35z"/><path d="M693.48 461.38h-76.8a15.7 15.7 0 01-15.4-19.09l14.8-67.24a25.78 25.78 0 0125.16-20.2h97.39v2.37h-2.24a6.74 6.74 0 00-6.53 5.4l-12.29 79.24v.04a24.75 24.75 0 01-24.09 19.48zm-52.2-104.2a23.57 23.57 0 00-22.87 18.35l-14.8 67.23c-.87 3.98.08 8.07 2.64 11.26 2.56 3.19 6.34 5 10.43 5h76.8a22.4 22.4 0 0021.77-17.6l12.28-79.24a9.19 9.19 0 012.8-4.96h-89.05v-.04z"/></g><path fill="#FFF" d="M675.33 482.25L694.9 362.6a5 5 0 119.84 1.61l-19.56 119.64a5 5 0 11-9.84-1.61z"/><path fill="#FF6576" d="M680.26 489.25a6.23 6.23 0 01-4.73-2.16 6.09 6.09 0 01-1.38-5l19.57-119.63a6.24 6.24 0 016.1-5.2c1.81 0 3.54.79 4.72 2.16a6.09 6.09 0 011.38 5l-19.56 119.64a6.28 6.28 0 01-6.1 5.2zm19.56-129.67a3.8 3.8 0 00-3.74 3.23l-19.56 119.63c-.2 1.1.11 2.25.86 3.11a3.8 3.8 0 006.65-1.89l19.57-119.63a3.84 3.84 0 00-3.78-4.45z"/><g><path fill="#FFF" d="M631.6 482.25l19.56-119.64a5 5 0 119.84 1.61l-19.56 119.64a5 5 0 11-9.84-1.61z"/><path fill="#FF6576" d="M636.52 489.25a6.23 6.23 0 01-4.72-2.16 6.09 6.09 0 01-1.38-5l19.56-119.63a6.24 6.24 0 016.1-5.2c1.82 0 3.55.79 4.73 2.16a6.09 6.09 0 011.38 5l-19.57 119.64a6.28 6.28 0 01-6.1 5.2zm19.56-129.67a3.8 3.8 0 00-3.74 3.23l-19.56 119.63c-.2 1.1.12 2.25.87 3.11a3.8 3.8 0 006.65-1.89l19.56-119.63a3.84 3.84 0 00-3.78-4.45z"/></g><g><path fill="#FFF" d="M759.54 366.2l-19.25.07v-.66a9.45 9.45 0 012.83-6.82 9.59 9.59 0 016.03-2.79h1.57c4.84.4 8.66 4.49 8.82 10.2z"/><path fill="#FF6576" d="M739.1 367.46v-1.85c0-2.92 1.15-5.63 3.2-7.64a10.64 10.64 0 016.73-3.11h1.73c5.55.47 9.72 5.23 9.92 11.34l.04 1.22-21.61.04zm10.08-10.28a8.46 8.46 0 00-7.71 7.91l16.77-.08c-.6-4.33-3.58-7.47-7.6-7.83h-1.46z"/></g></g><g><path fill="#E57281" d="M882.4 634.67l16.22 41.85a12.2 12.2 0 01-8.11 16.14l-35.63 9.76a6.68 6.68 0 01-6.14-1.38l-3.62-3.15 7.4-1.97a7.17 7.17 0 005.31-7.28l-.82-8.34a7.17 7.17 0 00-6.93-6.85h.4c-4.53-.16-8.94-2.96-10.71-7.13l-5.67-15.08 48.3-16.57z"/><path fill="#FFF" d="M845.87 699.9c-.51 0-.99-.35-1.14-.87a1.2 1.2 0 01.82-1.45l5.83-1.58c2.83-.75 4.56-2.99 4.45-5.7l-.44-9.14a5.97 5.97 0 00-5.78-5.7 12.94 12.94 0 01-11.38-7.84l-6.06-14.29c-.24-.6.04-1.3.63-1.54.59-.23 1.3.04 1.53.63l6.07 14.3a10.56 10.56 0 009.25 6.41 8.4 8.4 0 018.07 8l.43 9.12c.2 3.86-2.24 7.05-6.18 8.07l-5.83 1.58h-.27zM864.92 699.82c-.51 0-.98-.35-1.14-.87a1.2 1.2 0 01.83-1.45 7.98 7.98 0 005.94-8.11l-.55-11.65a1.14 1.14 0 011.14-1.22c.67-.04 1.22.47 1.22 1.14l.55 11.65a10.24 10.24 0 01-7.67 10.47c-.12.04-.2.04-.32.04zM880 695.92c-.51 0-.99-.35-1.14-.86a1.2 1.2 0 01.82-1.46 7.98 7.98 0 005.95-8.1l-.55-11.66a1.14 1.14 0 011.14-1.22c.67-.04 1.22.47 1.22 1.14l.55 11.65a10.24 10.24 0 01-7.68 10.47c-.12.04-.2.04-.31.04z"/><path fill="#FFF" d="M828.66 654.43l-.47-.86-65.74-118.65a81.22 81.22 0 01-8.93-24.65l-9.53-49.83 2.32-.44 9.53 49.84a79.1 79.1 0 008.7 23.94l65.27 117.78 59.4-20.47.79 2.24-61.34 21.1z"/><path fill="#FFF" d="M785 573.22l-21.53-38.9a83.04 83.04 0 01-8.07-20.86 28.58 28.58 0 016.42-1.34c17-1.5 32.08 12.8 33.7 31.9.94 11.56-3.27 22.23-10.51 29.2z"/></g></g></g></svg>