<svg width="754" height="709" xmlns="http://www.w3.org/2000/svg"><g fill="none" fill-rule="evenodd"><path d="M245.8 640.8c80.7 53.72 179.9 71.12 289.24 63.42C644.38 696.52 750 565 730 466s5-181 20-262S667.39-20.25 550.8 6.53C434.2 33.3 375.1 126.2 349.31 190.58s-114.38 46.31-121.93-29.5C219.85 85.26 25.47 62.2 5.8 193.72-13.86 325.23 49.72 446.4 70 466c20.3 19.6 95.1 121.09 175.8 174.8z" fill="#EAF9F9"/><g fill-rule="nonzero"><g fill="#5A9DFF"><path d="M50.02 657h675.86v1.4H50.02zM109.06 669.51h387.03v1.4H109.06z"/></g><path d="M690.76 506.25H582.65a9.28 9.28 0 00-9.27 9.29V658.3H700V515.54a9.25 9.25 0 00-9.25-9.29z" fill="#F4F7FC"/><path d="M700.7 659H572.68V515.54a9.99 9.99 0 019.96-9.97h108.1a9.97 9.97 0 017.06 2.92 9.8 9.8 0 012.88 7.05V659zm-126.64-1.37h125.26v-142.1a8.5 8.5 0 00-2.49-6.05 8.53 8.53 0 00-6.07-2.54H582.65a8.61 8.61 0 00-8.59 8.6v142.09z" fill="#000838"/><path d="M715.5 658.98H558.11V345.16h157.37v313.82zm-156.01-1.37h154.63V346.54H559.5V657.6z" fill="#000838"/><path fill="#000838" d="M748.98 346.54H183.2v-40.5H718.9v1.38H184.58v37.74h564.4zM690.76 419.97h-107.9a9.99 9.99 0 01-9.96-9.97v-38.13a9.99 9.99 0 019.95-9.97h107.9a9.99 9.99 0 019.96 9.97v38.16a9.97 9.97 0 01-9.95 9.94zm-107.9-56.7a8.61 8.61 0 00-8.6 8.6V410c0 4.73 3.87 8.6 8.6 8.6h107.9a8.6 8.6 0 008.58-8.57v-38.16c0-4.74-3.86-8.6-8.58-8.6h-107.9zM690.76 489.02h-107.9a9.99 9.99 0 01-9.96-9.97V440.9a9.99 9.99 0 019.95-9.97h107.9a9.99 9.99 0 019.96 9.97v38.14a9.99 9.99 0 01-9.95 9.97zm-107.9-56.7a8.61 8.61 0 00-8.6 8.6v38.13c0 4.73 3.87 8.6 8.6 8.6h107.9a8.61 8.61 0 008.58-8.6V440.9c0-4.73-3.86-8.6-8.58-8.6h-107.9z"/><path d="M637.17 398.57a8.11 8.11 0 11.01-16.23 8.11 8.11 0 01-.01 16.23zm0-14.86a6.74 6.74 0 100 13.48 6.74 6.74 0 000-13.48zM637.17 467.82a8.11 8.11 0 11.01-16.23 8.11 8.11 0 01-.01 16.23zm0-14.86a6.74 6.74 0 100 13.48 6.74 6.74 0 000-13.48z" fill="#5A9DFF"/><g><path fill="#FFF" d="M683.38 553.56l-.16.98-.06.57-2.37 15.16-.25 1.63-1.07 6.9-.38 2.43-1 6.4-.25 1.62-2.44 15.7v.06l-.25 1.62-.13.74-2.32 15-.25 1.62-1.1 7.07v.02l-.38 2.42-.98 6.22-.25 1.63-2.43 15.75-.02.1-.12.73-.02.16h-63.9l-.02-.19-.1-.64-.03-.2-2.46-15.74-.25-1.64-.95-6.1-.37-2.46-1.11-7.18-.25-1.62-2.32-14.89-.14-.84-.25-1.6v-.03l-2.45-15.75-.25-1.63-.98-6.28-.36-2.43-1.1-7.02-.24-1.62-2.35-15.05-.25-1.62z"/><path d="M667.76 658.8h-65.12l-.27-1.7-16.19-104.25h98.02l-16.44 105.94zm-63.91-1.42h62.69l16-103.09h-94.72l16.03 103.09z" fill="#5A9DFF"/><path d="M684.27 553.56c0 .32-.04.66-.16.98-.77 2.4-4.32 4.62-9.89 6.45-.4.14-.82.25-1.23.39a90.99 90.99 0 01-14.12 2.93c-4.27.59-8.93 1.02-13.87 1.28l-1.47.06a197.96 197.96 0 01-14.8.07l-1.58-.07c-5.68-.22-11.05-.7-15.91-1.39-.6-.1-1.16-.16-1.73-.25-8.25-1.26-14.9-3.11-18.96-5.33-2.37-1.28-3.85-2.68-4.32-4.14l-.14-.96c0-6.77 21.97-12.23 49.07-12.23 26.94 0 48.82 5.42 49.07 12.14.04 0 .04.02.04.07z" fill="#5A9DFF"/><g fill="#5A9DFF"><path d="M667.33 657.12v.92l-.16-.11-.02.13h-.6l-7.24-9.42-.76-.98-7.3-9.47-.74-.98-7.3-9.47-.75-.98-7.3-9.47-.75-.98-7.3-9.47-.75-.98-7.28-9.47-.75-.98-7.3-9.47-.75-.99-7.27-9.46-.75-.99-7.28-9.46-.75-.99-6.98-9.05-.11-.66c.45 1.44 1.9 2.8 4.23 4.07l3.59 4.66.75.98 7.3 9.47.75.98 7.3 9.47.75.98 7.3 9.47.75.99 7.3 9.46.74.99 7.3 9.46.75.99 7.3 9.46.75.99 7.3 9.46.75.99 7.3 9.46.75.99 7.25 9.42-.02.04zM670 639.72l-.26 1.63-2.4-3.14-.76-.98-7.3-9.47-.75-.98-7.3-9.47-.75-.98-7.3-9.47-.75-.98-7.3-9.47-.75-.98-7.23-9.38-.75-.98-7.3-9.47-.74-.98-7.3-9.47-.75-.98-.32-.41 1.68.25.11.16 7.3 9.47.75.98 7.3 9.47.75.98 7.3 9.47.75.98 7.3 9.47.75.98 7.3 9.47.75.98 7.3 9.47.75.98 7.3 9.47.75.98 1.86 2.4zM672.7 622.37l-.25 1.62-5.12-6.63-.75-.99-7.3-9.46-.75-.99-7.3-9.46-.75-.99-7.3-9.46-.75-.99-7.3-9.46-.75-.99-7.11-9.24 1.54.07 6.33 8.19.75.98 7.3 9.47.74.98 7.3 9.47.75.98 7.3 9.47.75.98 7.3 9.47.75.98 4.62 6zM675.4 605.01l-.25 1.62-.52-.68-7.3-9.47-.75-.98-7.3-9.47-.75-.98-7.3-9.47-.75-.98-7.11-9.24 1.45-.07 6.41 8.32.75.99 7.3 9.46.75.99 7.3 9.46.75.99 7.3 9.46.02.05zM619.56 657.72l-.45.34-.03.03h-.75l-7.27-9.43-.75-.98-7.28-9.47-.75-.96-2.84-3.68-.37-2.45 3.96 5.15.75.98 7.28 9.45.75.98 7.3 9.47zM603.46 657.72l-.23.18-.1-.64zM635.64 657.72l-.46.34-.02.03h-.75l-7.26-9.43-.75-.98-7.3-9.47-.74-.96-7.3-9.46-.75-.96v-.03l-7.28-9.44-.75-.99-6.89-8.94-.14-.84-.25-1.6.73.96 7.3 9.46.75.96 7.28 9.47.75.99 7.3 9.44.75.98 7.3 9.45.74.98 7.28 9.47zM651.71 657.72l-.45.34-.03.03h-.75l-7.25-9.43-.75-.98-7.3-9.47-.75-.96-7.28-9.46-.75-.96-7.3-9.47-.74-.99-7.3-9.44-.75-.98-7.28-9.47-.75-.96-7.3-9.47-.75-.96-2.9-3.8-.37-2.42 4.02 5.24.75.98 7.3 9.45.75.98 7.28 9.44.75.99 7.3 9.46.75.96 7.3 9.47.74.99 7.28 9.44.75.98 7.3 9.45.75.98 7.28 9.47zM678.09 587.63l-.25 1.62-2.46-3.2-.75-.98-7.3-9.47-.75-.98-7.3-9.47-.75-.98-.09-.12 1.34-.2.25.32 7.3 9.47.75.98 7.3 9.47.75.98 1.96 2.56zM680.8 570.27l-.26 1.63-5.16-6.7-.75-.99-2.3-3c.41-.1.82-.24 1.2-.38l1.85 2.4.75.98 4.66 6.06zM684.04 553.92l-.63.83-.19-.23c.12-.32.16-.64.16-.96v-.12l.03-.02.63.5z"/></g><g fill="#5A9DFF"><path d="M679.47 578.8l-.38 2.43-2.96 3.86-.75.96-7.3 9.47-.75.96-7.27 9.47-.75.98-7.3 9.44-.75.99-7.28 9.47-.75.96-7.3 9.46-.75.96-7.28 9.47-.75.98-7.27 9.43h-.75l-.02-.03-.44-.34.44-.57 7.3-9.47.74-.98 7.28-9.45.75-.98 7.3-9.44.75-.99 7.28-9.47.75-.96 7.3-9.46.75-.99 7.27-9.44.75-.98 7.3-9.45.75-.98zM683.16 555.11l-7.03 9.13-.75.98-7.3 9.47-.75.98-7.3 9.47-.75.98-7.3 9.47-.75.98-7.25 9.38-.75.98-7.3 9.47-.75.98-7.3 9.47-.75.98-7.3 9.47-.75.98-7.3 9.47-.75.98-7.25 9.42h-.55l-.02-.18-.09-.64-.09-.11.07-.1 7.23-9.37.75-.98 7.3-9.47.75-.98 7.3-9.47.75-.99 7.3-9.46.75-.99 7.3-9.46.75-.99 7.3-9.46.74-.99 7.3-9.46.75-.99 7.3-9.46.75-.99 7.28-9.46.75-.99 3.57-4.64c2.34-1.26 3.82-2.63 4.3-4.1l-.16.7zM660.35 563.83l-.32.4-.75.99-7.3 9.47-.75.98-7.3 9.47-.75.98-7.3 9.47-.74.98-7.3 9.47-.75.98-7.3 9.47-.75.98-7.3 9.47-.75.98-7.3 9.47-.75.98-2.39 3.1-.25-1.63 1.89-2.45.75-.98 7.28-9.47.75-.98 7.3-9.47.74-.98 7.28-9.47.75-.98 7.3-9.47.75-.98 7.3-9.47.75-.99 7.3-9.46.75-.99 7.3-9.46.11-.16c.39-.05.77-.12 1.14-.16l.61-.1zM643.05 565.43l-7.12 9.21-.75.99-7.3 9.46-.75.99-7.3 9.46-.75.99-7.3 9.46-.75.99-7.3 9.46-.75.99-5.07 6.58-.25-1.62 4.57-5.95.75-.98 7.3-9.47.75-.98 7.3-9.47.75-.98 7.3-9.47.75-.98 7.3-9.47.75-.98 6.32-8.19c.5 0 1.02-.02 1.55-.04zM671.36 631.08l-.4 2.42-2.88 3.75-.75.96-7.27 9.47-.75.98-7.28 9.43h-.75l-.02-.03-.44-.34.44-.57 7.3-9.47.75-.98 7.27-9.45.75-.98zM675.02 607.37l-6.94 9-.75.99-7.27 9.47-.75.96-7.3 9.46-.75.96-7.28 9.47-.75.98-7.28 9.43h-.75l-.02-.03-.43-.34.43-.57 7.3-9.47.75-.98 7.28-9.45.75-.98 7.3-9.44.75-.99 7.27-9.47.75-.96 7.3-9.46.75-.99.02-.02v.07l-.25 1.62zM626.97 565.4l-7.11 9.24-.75.99-7.3 9.46-.75.99-7.3 9.46-.75.99-7.3 9.46-.48.64-.25-1.57-.02-.03.02-.02 7.28-9.44.75-.99 7.27-9.46.75-.99 7.3-9.47.75-.98 6.41-8.32c.53 0 1 .02 1.48.04zM611.92 564.1l-.09.14-.75.98-7.3 9.47-.75.98-7.3 9.47-.75.98-2.43 3.16-.25-1.63 1.93-2.51.75-.99 7.28-9.46.75-.99 7.3-9.46.25-.32c.36.04.75.11 1.13.16l.23.02zM598.05 561.22l-2.32 3-.75.98-5.14 6.65-.25-1.62 4.64-6.02.75-.98 1.87-2.4c.38.14.8.27 1.2.39z"/></g><g><path d="M688.07 540.13h-20.99v-6.42h12.73c3.98 0 7.3 2.74 8.26 6.42z" fill="#FFF"/><path d="M688.8 540.7H666.5v-7.56h13.3a9.1 9.1 0 018.8 6.86l.19.7zm-21.15-1.14h19.64a7.96 7.96 0 00-7.48-5.28h-12.16v5.28z" fill="#FFCF2D"/><g><path d="M679.95 533.7a13.39 13.39 0 00-12.76 9.86l-4.84 17.68c-.68.12-1.39.23-2.09.32-.45.07-.9.14-1.39.2-4.27.6-8.93 1.04-13.87 1.29l-1.47.07a197.96 197.96 0 01-14.8.07l-1.58-.07-.6-.03 5.36-19.53a13.36 13.36 0 0112.89-9.85h35.15z" fill="#FFF"/><path d="M635.18 563.87c-1.98 0-4.11-.04-6.48-.11l-1.57-.07c-.11 0-.23 0-.32-.02h-1.02l5.57-20.27a13.96 13.96 0 0113.44-10.26h35.15v1.14a12.88 12.88 0 00-12.2 9.44l-4.94 18.02-.37.07a196.34 196.34 0 01-3.5.53c-4.34.6-9.03 1.03-13.91 1.28l-1.48.07c-2.89.11-5.69.18-8.37.18zm-7.89-1.33l1.48.07c2.34.07 4.46.12 6.43.12 2.66 0 5.46-.07 8.33-.19l1.47-.06c4.87-.26 9.53-.69 13.83-1.28l1.38-.21c.6-.07 1.16-.16 1.73-.25l4.75-17.34a13.98 13.98 0 017.96-9.12h-29.8a12.84 12.84 0 00-12.35 9.44l-5.2 18.82z" fill="#FFCF2D"/></g></g></g><g><path fill="#FFE6A1" d="M665.81 152.6l53.98 153.76H522.11l52.55-153.76z"/><path d="M651.23 284.32h-1.38V134.28c0-6.01-4.89-10.9-10.9-10.9h-6.7c-6.01 0-10.9 4.89-10.9 10.9h-1.38A12.3 12.3 0 01632.25 122h6.7a12.3 12.3 0 0112.28 12.28v150.04z" fill="#5A9DFF"/><path d="M666.11 301.47v4.64h-48.88v-4.64a17.15 17.15 0 0117.15-17.15h14.56a17.14 17.14 0 0117.17 17.15z" fill="#FFF"/><path d="M666.8 306.8h-50.26v-5.33c0-4 1.3-7.8 3.75-10.93 3.4-4.4 8.55-6.91 14.09-6.91h14.56c.23 0 .5 0 .75.02 9.58.4 17.1 8.21 17.1 17.82v5.32zm-48.89-1.38h47.51v-3.95a16.4 16.4 0 00-15.8-16.45h-.04c-.2-.02-.41-.02-.64-.02h-14.56c-5.1 0-9.86 2.31-13 6.36a16.31 16.31 0 00-3.47 10.1v3.96zM676.97 153.24h-113.1v-3.55c0-8.48 6.88-15.34 15.34-15.34h82.42c8.48 0 15.34 6.88 15.34 15.34v3.55z" fill="#FF6576"/><path d="M676.97 150.97h-113.1a.57.57 0 01-.58-.57c0-.32.25-.57.57-.57h113.11c.32 0 .57.25.57.57 0 .32-.25.57-.57.57zM665.15 153.24c0 4.04-2.52 7.34-5.65 7.34h-79.15c-3.11 0-5.65-3.3-5.65-7.34h90.45zM650.54 288.8c0 7.34-6.7 13.3-14.95 13.3-7.43 0-13.6-4.82-14.75-11.15a17.15 17.15 0 0113.54-6.63h14.56c.23 0 .48 0 .7.02.6 1.4.9 2.9.9 4.46z" fill="#FFF"/><path d="M635.59 302.8c-7.7 0-14.2-4.95-15.44-11.74l-.04-.3.18-.25c3.4-4.39 8.55-6.9 14.09-6.9h14.56c.25 0 .5 0 .78.02l.4.04.17.37c.62 1.46.94 3.07.94 4.73 0 7.73-7.02 14.02-15.64 14.02zm-14.02-11.67c1.24 6 7.09 10.29 14.02 10.29 7.86 0 14.26-5.67 14.26-12.62 0-1.33-.22-2.61-.68-3.8H634.38c-5.01 0-9.65 2.22-12.8 6.13z" fill="#FF6576"/><path d="M636 281.18v7.18c0 1.47-1.35 2.66-3 2.66-1.64 0-3-1.2-3-2.66v-7.18h.05a2.95 2.95 0 002.93 2.22c1.44 0 2.65-.96 2.93-2.22h.09z" fill="#FF6576"/><g><path d="M635.36 280.93c0 .16-.02.32-.05.48a2.38 2.38 0 01-2.33 1.99c-1.14 0-2.1-.85-2.33-1.99-.02-.16-.05-.32-.05-.48a2.41 2.41 0 012.38-2.47c1.3 0 2.38 1.12 2.38 2.47z" fill="#FFF"/><path d="M632.98 284.09a3.1 3.1 0 01-3-2.54v-.05a3.11 3.11 0 013.02-3.73 3.11 3.11 0 013.02 3.73v.03a3.13 3.13 0 01-3.04 2.56zm-1.65-2.8c.19.83.87 1.42 1.65 1.42.82 0 1.51-.57 1.65-1.41.02-.14.04-.25.04-.37 0-.96-.77-1.78-1.69-1.78-.94 0-1.7.77-1.7 1.78 0 .12.03.23.05.37z" fill="#FF6576"/></g></g><g><path fill="#3FB1B5" d="M549.97 202.09h7.83v104.27h-7.83z"/><path d="M546.7 306.36h-13.42a2.56 2.56 0 01-2.56-2.56v-77.5a2.56 2.56 0 012.56-2.57h13.41a2.56 2.56 0 012.57 2.56v77.5a2.56 2.56 0 01-2.57 2.57z" fill="#FFF"/><path d="M546.7 306.93h-13.42a3.13 3.13 0 01-3.13-3.13v-77.5c0-1.74 1.4-3.14 3.13-3.14h13.41c1.74 0 3.14 1.4 3.14 3.13v77.5c0 1.75-1.4 3.14-3.14 3.14zm-13.42-82.63a2 2 0 00-1.99 2v77.5a2 2 0 002 1.99h13.4a2 2 0 002-2v-77.5a2 2 0 00-2-1.99h-13.4z" fill="#FFCF2D"/><path d="M589.84 305.38h-15.4a3 3 0 01-2.96-2.45l-13.82-71.79a3.05 3.05 0 012.97-3.59h15.4A3 3 0 01579 230l13.83 71.78a3.05 3.05 0 01-2.98 3.6zm-29.23-76.46c-.5 0-.96.21-1.26.6-.32.39-.43.87-.34 1.35l13.82 71.78c.14.78.83 1.35 1.63 1.35h15.4c.5 0 .97-.2 1.26-.6.32-.38.44-.86.35-1.34l-13.83-71.79a1.65 1.65 0 00-1.62-1.35h-15.4z" fill="#000838"/><path d="M527.65 306.36h-72.56a3.07 3.07 0 01-3.07-3.07v-14.84c0-1.7 1.38-3.07 3.07-3.07h72.56c1.7 0 3.07 1.37 3.07 3.07v14.84c0 1.7-1.38 3.07-3.07 3.07z" fill="#FF6576"/></g><g><path d="M256.35 52v47.47c0 9.3-7.52 16.84-16.78 16.84h-52.41a16.8 16.8 0 0016.78-16.84V52h52.4z" fill="#FFF"/><path d="M239.57 116.89h-52.41v-1.15c8.94 0 16.2-7.3 16.2-16.27V51.43h53.56v48.04c0 9.61-7.77 17.42-17.35 17.42zm-46.22-1.15h46.22c8.94 0 16.2-7.3 16.2-16.27v-46.9h-51.26v46.9c0 7.4-4.64 13.77-11.16 16.27z" fill="#FFCF2D"/><path fill="#FF6576" d="M227.91 47.41h4.23v10.12h-4.23z"/><g fill="#FFCF2D"><path d="M241.1 70.04c-.6 0-1.19-.23-1.67-.66l-1.76-1.56a1.34 1.34 0 00-1.82 0l-1.67 1.49c-.99.87-2.36.87-3.36 0l-1.53-1.36a1.34 1.34 0 00-1.83 0l-1.42 1.27c-.98.87-2.35.87-3.36 0l-1.17-1.04a1.34 1.34 0 00-1.82 0l-1.26 1.13c-.98.87-2.36.87-3.36 0l-1.17-1.03a1.34 1.34 0 00-1.83 0c-.22.2-.59.18-.8-.05a.58.58 0 01.05-.8 2.48 2.48 0 013.36 0l1.17 1.03c.54.48 1.28.48 1.82 0l1.26-1.13a2.48 2.48 0 013.36 0l1.17 1.04c.55.48 1.28.48 1.83 0l1.41-1.27a2.48 2.48 0 013.36 0l1.53 1.36c.55.48 1.28.48 1.83 0l1.67-1.5a2.48 2.48 0 013.36 0l1.76 1.57c.55.48 1.28.48 1.83 0l1.83-1.63a2.48 2.48 0 013.36 0c.23.2.25.57.04.8a.57.57 0 01-.8.05 1.34 1.34 0 00-1.82 0l-1.83 1.63c-.55.43-1.12.66-1.72.66zM241.1 79.48c-.6 0-1.19-.23-1.67-.67l-1.76-1.56a1.34 1.34 0 00-1.82 0l-1.67 1.5c-.99.86-2.36.86-3.36 0l-1.53-1.36a1.34 1.34 0 00-1.83 0l-1.42 1.26c-.98.87-2.35.87-3.36 0l-1.17-1.03a1.34 1.34 0 00-1.82 0l-1.26 1.12c-.98.87-2.36.87-3.36 0l-1.17-1.03a1.34 1.34 0 00-1.83 0c-.22.2-.59.18-.8-.05a.58.58 0 01.05-.8 2.48 2.48 0 013.36 0l1.17 1.03c.54.48 1.28.48 1.82 0l1.26-1.12a2.48 2.48 0 013.36 0l1.17 1.03c.55.48 1.28.48 1.83 0l1.41-1.26a2.48 2.48 0 013.36 0l1.53 1.35c.55.48 1.28.48 1.83 0l1.67-1.49a2.48 2.48 0 013.36 0l1.76 1.56c.55.48 1.28.48 1.83 0l1.83-1.63a2.48 2.48 0 013.36 0c.23.2.25.57.04.8a.57.57 0 01-.8.05 1.34 1.34 0 00-1.82 0l-1.83 1.63c-.55.46-1.12.67-1.72.67zM241.1 88.9c-.6 0-1.19-.22-1.67-.66l-1.76-1.56a1.34 1.34 0 00-1.82 0l-1.67 1.5c-.99.87-2.36.87-3.36 0l-1.53-1.36a1.34 1.34 0 00-1.83 0l-1.42 1.26c-.98.87-2.35.87-3.36 0l-1.17-1.03a1.34 1.34 0 00-1.82 0l-1.26 1.12c-.98.88-2.36.88-3.36 0l-1.17-1.03a1.34 1.34 0 00-1.83 0c-.22.2-.59.18-.8-.04a.58.58 0 01.05-.8 2.48 2.48 0 013.36 0l1.17 1.02c.54.49 1.28.49 1.82 0l1.26-1.12a2.48 2.48 0 013.36 0l1.17 1.03c.55.48 1.28.48 1.83 0l1.41-1.26a2.48 2.48 0 013.36 0l1.53 1.35c.55.49 1.28.49 1.83 0l1.67-1.49a2.48 2.48 0 013.36 0l1.76 1.56c.55.49 1.28.49 1.83 0l1.83-1.63a2.48 2.48 0 013.36 0c.23.21.25.58.04.8a.57.57 0 01-.8.05 1.34 1.34 0 00-1.82 0l-1.83 1.63c-.55.46-1.12.67-1.72.67zM241.1 98.36c-.6 0-1.19-.23-1.67-.66l-1.76-1.56a1.34 1.34 0 00-1.82 0l-1.67 1.49c-.99.87-2.36.87-3.36 0l-1.53-1.35a1.34 1.34 0 00-1.83 0l-1.42 1.26c-.98.87-2.35.87-3.36 0l-1.17-1.04a1.34 1.34 0 00-1.82 0l-1.26 1.13c-.98.87-2.36.87-3.36 0l-1.17-1.03a1.34 1.34 0 00-1.83 0c-.22.2-.59.18-.8-.05a.58.58 0 01.05-.8 2.48 2.48 0 013.36 0l1.17 1.03c.54.48 1.28.48 1.82 0l1.26-1.12a2.48 2.48 0 013.36 0l1.17 1.03c.55.48 1.28.48 1.83 0l1.41-1.26a2.48 2.48 0 013.36 0l1.53 1.35c.55.48 1.28.48 1.83 0l1.67-1.5a2.48 2.48 0 013.36 0l1.76 1.57c.55.48 1.28.48 1.83 0l1.83-1.63a2.48 2.48 0 013.36 0c.23.2.25.57.04.8a.57.57 0 01-.8.05 1.34 1.34 0 00-1.82 0l-1.83 1.63c-.55.43-1.12.66-1.72.66z"/></g><g><path fill="#5A9DFF" d="M273.66 52h36.66v36.81h-36.66z"/><path fill="#FFCF2D" d="M269.41 54.97l9.7-7.87 2.65 3.3-9.69 7.87zM302.57 50.38l2.66-3.3 9.69 7.86-2.66 3.3z"/><path fill="#FFF" d="M280.33 60.72h22.24v1.38h-22.24zM280.33 66.67h22.24v1.38h-22.24zM280.33 72.64h22.24v1.38h-22.24zM280.33 78.58h22.24v1.38h-22.24z"/></g></g><g><path fill="#FFF" d="M450.06 306.13h-85.28l16.51-36.46 2.42-5.35h47.42l6.66 14.7z"/><path d="M451.11 306.82h-87.4l19.54-43.19h48.31l6.85 15.11 12.7 28.08zm-85.26-1.37h83.16l-11.84-26.16L430.7 265h-46.53l-2.24 4.94-16.08 35.51z" fill="#000838"/><path fill="#000838" d="M437.79 279.01l-56.5-9.34 2.42-5.35h47.42z"/><path d="M507.93 264.32H307.19A13.32 13.32 0 01293.87 251V120.08c0-7.36 5.97-13.3 13.32-13.3h200.74c7.36 0 13.32 5.97 13.32 13.3v130.9c0 7.37-5.98 13.34-13.32 13.34z" fill="#FFF"/><path d="M507.93 265H307.19a14 14 0 01-14-14V120.09a14 14 0 0114-13.99h200.74a14 14 0 0114 14v130.9c0 7.72-6.27 14.01-14 14.01zM307.19 107.46a12.66 12.66 0 00-12.64 12.62v130.93c0 6.95 5.68 12.62 12.64 12.62h200.74c6.95 0 12.63-5.67 12.63-12.65v-130.9c0-6.95-5.68-12.62-12.63-12.62H307.19z" fill="#000838"/><path d="M447.78 255.06h-80.47a7.08 7.08 0 01-7.1-7.08v-9.73a7.08 7.08 0 017.1-7.1h80.47c3.92 0 7.1 3.18 7.1 7.1v9.73a7.1 7.1 0 01-7.1 7.08z" fill="#5A9DFF"/><g fill="#FFF"><path d="M426.66 248.57h-5.43a2.44 2.44 0 01-2.44-2.44v-4.24c0-1.34 1.1-2.44 2.44-2.44h5.43c1.35 0 2.44 1.1 2.44 2.44v4.24c0 1.34-1.1 2.44-2.44 2.44zM433.57 247.86l-2-1.27a1.91 1.91 0 01-.9-1.62v-1.92c0-.66.35-1.27.9-1.61l2-1.28a.71.71 0 011.1.6v6.49c.02.57-.62.9-1.1.61z"/></g><g fill="#FFF"><path d="M406.09 246.43h-.5a3.61 3.61 0 01-3.61-3.6v-2.12c0-.19.16-.35.34-.35h7c.19 0 .35.16.35.35v2.12a3.58 3.58 0 01-3.58 3.6zm-3.43-5.38v1.78c0 1.6 1.3 2.91 2.92 2.91h.5c1.6 0 2.93-1.3 2.93-2.91v-1.78h-6.35zM405.83 250.37a.35.35 0 01-.34-.34v-2.58c0-.18.16-.34.34-.34.19 0 .35.16.35.34v2.58c0 .18-.16.34-.35.34z"/><path d="M407.64 250.37h-3.58a.35.35 0 01-.35-.34c0-.19.16-.34.35-.34h3.58c.18 0 .34.15.34.34 0 .18-.16.34-.34.34zM406 244.83h-.32a2.04 2.04 0 01-2.06-2.05v-4.15c0-1.14.91-2.05 2.06-2.05h.31c1.15 0 2.06.91 2.06 2.05v4.15c0 1.14-.91 2.05-2.06 2.05z"/></g><g fill="#FFF"><path d="M385.01 242.26l-.02.02c-.44.52-.3 1.32.27 1.8l2.1 1.69c.57.45 1.4.4 1.82-.12l.03-.02c.43-.53 1.25-.55 1.8-.07l1.9 1.71c.59.55.59 1.46 0 1.87-2 1.39-4.57.89-6.7-.82l-3.18-2.58c-2.13-1.73-3.15-4.14-2.22-6.38.3-.68 1.19-.86 1.83-.39l2.07 1.5c.57.46.71 1.26.3 1.79zM390.58 243.58c-.19 0-.32-.14-.35-.32a2.98 2.98 0 00-3.17-2.78.37.37 0 01-.36-.32c-.02-.18.14-.34.32-.37a3.67 3.67 0 013.9 3.42c.02.19-.12.35-.34.37.02 0 .02 0 0 0z"/><path d="M392.72 243.24c-.18 0-.32-.14-.34-.32a5.15 5.15 0 00-5.5-4.83.37.37 0 01-.36-.32c-.03-.19.13-.35.32-.37a5.82 5.82 0 016.23 5.45.34.34 0 01-.35.39c.02 0 .02 0 0 0z"/></g><g fill="#FFCF2D"><path d="M469.86 119.67a2.95 2.95 0 01-2.94-2.94 2.95 2.95 0 015.88 0 2.95 2.95 0 01-2.94 2.94zm0-4.74c-1 0-1.8.8-1.8 1.8s.8 1.8 1.8 1.8 1.8-.8 1.8-1.8-.8-1.8-1.8-1.8zM479.55 119.67a2.95 2.95 0 01-2.94-2.94 2.95 2.95 0 015.89 0 2.95 2.95 0 01-2.95 2.94zm0-4.74c-1 0-1.8.8-1.8 1.8s.8 1.8 1.8 1.8 1.8-.8 1.8-1.8-.8-1.8-1.8-1.8zM489.27 119.67a2.95 2.95 0 01-2.94-2.94 2.95 2.95 0 015.88 0 2.95 2.95 0 01-2.94 2.94zm0-4.74c-1 0-1.8.8-1.8 1.8s.8 1.8 1.8 1.8 1.8-.8 1.8-1.8-.8-1.8-1.8-1.8z"/></g><path d="M399.1 226h-71.48a4.63 4.63 0 01-4.63-4.62v-38.24a4.63 4.63 0 014.63-4.63h71.49a4.63 4.63 0 014.63 4.63v38.24a4.63 4.63 0 01-4.63 4.63zm-71.48-46.12a3.26 3.26 0 00-3.26 3.26v38.24c0 1.8 1.46 3.26 3.26 3.26h71.49c1.8 0 3.26-1.46 3.26-3.26v-38.24c0-1.8-1.46-3.26-3.26-3.26h-71.49z" fill="#5A9DFF"/><g><path d="M489.27 225.32h-71.48a3.95 3.95 0 01-3.95-3.94v-38.24a3.95 3.95 0 013.95-3.94h71.48a3.95 3.95 0 013.95 3.94v38.24a3.95 3.95 0 01-3.95 3.94z" fill="#3FB1B5"/><g transform="translate(428.94 186.67)"><path d="M46.83 38.54H.1a25.73 25.73 0 0120-9.55h6.71a25.8 25.8 0 0120 9.55z" fill="#FF6576"/><path d="M22.01 29.01a7.01 7.01 0 01-13.07 2.53 25.75 25.75 0 0111.15-2.53h1.92zM35.81 30.6A7.01 7.01 0 0122.31 29h4.54c3.14.02 6.15.57 8.96 1.62z" fill="#FFF"/><path d="M30.68 18.85v10.34c0 1.62-3.24 2.92-7.21 2.92-.73 0-1.44-.05-2.1-.11-2.96-.37-5.1-1.49-5.1-2.8V18.84h14.4z" fill="#A0505A"/><path d="M29.72 20.97c0 4.49-3.92 9.93-8.35 11-2.96-.36-5.1-1.48-5.1-2.8V18.82h13.22l.23 2.15z" fill="#73325A"/><path d="M34.37 17.52v.26a3.2 3.2 0 01-3.19 3.19h-3.06A8.74 8.74 0 0120.2 26h-.6a7.08 7.08 0 01-7.1-7.09V11.6c4.55.3 10.32-3.67 10.32-3.67 1.9 7.32 7.3 7.22 9.8 6.75a3.23 3.23 0 011.76 2.84z" fill="#A0505A"/><path d="M29.88 18.64a.35.35 0 01-.34-.34 2.65 2.65 0 012.64-2.64c.19 0 .35.16.35.34 0 .18-.16.34-.35.34-1.07 0-1.96.87-1.96 1.96 0 .18-.16.34-.34.34z" fill="#73325A"/><path d="M30.68 20.97h.5a3.2 3.2 0 003.2-3.2v-.25c0-1.25-.71-2.32-1.76-2.84-.69.13-1.62.22-2.63.16-2.6-.2-5.81-1.62-7.18-6.9 0 0-5.77 3.96-10.31 3.66a5.19 5.19 0 01-2.35-.66C6.39 8.8 15.49-1.23 25.93.27c8.35 1.21 8.17 11.2 8 13.56.42-.04.83-.07 1.24-.07 6.11 0 11.06 4.7 11.06 10.51 0 3.78-2.1 7.11-5.27 8.96-3.03-2-6.52-3.38-10.28-3.95v-8.31z" fill="#FFCF2D"/><path d="M17.1 18.9c-.04 0-.08 0-.1-.03-.19-.07-.28-.27-.21-.43 0-.03.68-1.87-.46-3.85-.98-1.71-3.15-1.42-3.24-1.4-.18.03-.36-.09-.39-.3a.34.34 0 01.3-.38c.12-.02 2.72-.39 3.95 1.73 1.3 2.26.52 4.36.5 4.42-.1.14-.2.23-.34.23zM24.88 14.56a.37.37 0 01-.2-.07c-1.99-1.52-4.63-1.34-4.65-1.34-.19.02-.35-.14-.37-.32-.02-.18.14-.34.32-.36.11 0 2.92-.2 5.11 1.48.16.11.18.32.07.48-.1.09-.18.13-.28.13z" fill="#73325A"/><path d="M15.92 19.67s.55 3.6 4.27.09c0 0-2.6.34-4.27-.1z" fill="#FFF"/><ellipse fill="#73325A" cx="21.65" cy="15.56" rx="1" ry="1.07"/><circle fill="#73325A" cx="14.53" cy="15.56" r="1"/></g></g><g><path d="M488.38 173.07H416.9a3.95 3.95 0 01-3.95-3.94v-38.24a3.95 3.95 0 013.95-3.95h71.48a3.95 3.95 0 013.95 3.95v38.24a3.96 3.96 0 01-3.95 3.94z" fill="#5A9DFF"/><g transform="translate(430.08 136.08)"><path d="M43.75 36.99H.1c4.4-5.86 11.13-9.6 18.68-9.6h6.28c7.55 0 14.28 3.74 18.68 9.6z" fill="#FFCF2D"/><path d="M19.62 35.03h.98a7.74 7.74 0 007.73-7.73v-5.5a.05.05 0 00-.05-.04H13.94a.05.05 0 00-.05.05v7.54a5.72 5.72 0 005.73 5.68z" fill="#FFF"/><path d="M13.91 21.76v7.71c.2 4.24 10.77 2.57 13.94-7.7H13.91z" fill="#FFCF2D"/><path d="M32.5 18.46a3.29 3.29 0 01-3.33 3.3h-3.12a7.84 7.84 0 01-7.35 5.06h-2.44a6.13 6.13 0 01-6.13-6.13v-9.57c3.51.3 6.47-2.53 6.59-2.64-.05.16-1.83 5.17 2.21 5.44 4.02.28 5.34-2.62 5.38-2.73 0 .11.03 3.99 3.2 4.2h1.66c1.85 0 3.33 1.25 3.33 3.07z" fill="#FFF"/><path d="M27.8 15.38h-.27c-3.17-.2-3.2-4.05-3.2-4.2-.04.12-1.38 3.02-5.38 2.74-4.01-.27-2.25-5.28-2.2-5.44-.12.09-3.09 2.94-6.6 2.64a5.91 5.91 0 01-2.35-.7c-5.13-2.79-1.82-8.5 3.22-8.57 4.01-.05 5.72 2.14 5.72 2.14s.87-4.5 5.8-3.72c4.92.78 4.03 5.13 4.03 5.13s4.13-1.91 6.41 1.62c2.7 4.15-1.34 8.36-5.18 8.36z" fill="#FF6576"/><path d="M14.32 19.55h-.09a.34.34 0 01-.25-.4c0-.03.55-2.29-.43-4.13-1.07-1.96-2.92-1.64-2.99-1.64-.18.02-.36-.1-.39-.28a.32.32 0 01.28-.38c.02 0 2.41-.44 3.71 1.98a7.1 7.1 0 01.5 4.6c-.06.14-.2.25-.34.25zM15.53 22.2c-.48 0-.91-.07-1.23-.16a.34.34 0 11.16-.66c.11.02 2.71.7 3.67-1.3.1-.16.28-.25.46-.16s.25.27.16.45c-.66 1.44-2.05 1.83-3.22 1.83z" fill="#FFCF2D"/><ellipse fill="#FFCF2D" cx="18.84" cy="15.75" rx="1" ry="1.07"/><circle fill="#FFCF2D" cx="11.75" cy="15.75" r="1"/><path d="M27.46 19.71a.35.35 0 01-.34-.34 2.65 2.65 0 012.65-2.64c.18 0 .34.16.34.34 0 .18-.16.34-.34.34-1.08 0-1.97.87-1.97 1.96 0 .18-.16.34-.34.34z" fill="#FFCF2D"/></g></g><g><path d="M398.2 173.07H326.7a3.95 3.95 0 01-3.94-3.94v-38.24a3.95 3.95 0 013.94-3.95h71.48a3.95 3.95 0 013.95 3.95v38.24a3.93 3.93 0 01-3.95 3.94z" fill="#FFCF2D"/><path d="M380.93 173.07h-44.34c4.47-6.68 11.31-10.94 18.97-10.94h6.4c7.65 0 14.47 4.26 18.97 10.94z" fill="#FFF"/><g fill="#FEB040"><path d="M380.93 173.07h-44.34l.4-.6c.03-.04.05-.09.1-.1h43.36a25.27 25.27 0 00.48.7zM379.06 170.58h-40.6c.2-.25.4-.47.61-.7h39.37l.62.7zM376.55 167.99h-35.58c.27-.25.54-.48.82-.71h33.94l.82.7zM372.72 165.14h-27.94c.4-.25.84-.48 1.27-.7h25.37c.45.22.86.45 1.3.7z"/></g><path d="M365.83 153.6v10.2c0 1.04-3.24 1.88-7.2 1.88-3.89 0-7.06-.8-7.22-1.82v-10.25h14.42z" fill="#E57281"/><path d="M365.74 153.6v.23c0 5.02-6.23 10.76-10.72 11.42-.71.12-2.9-.32-3.58-1.41v-10.26h14.3v.03z" fill="#9A3B82"/><path d="M369.75 150.4v.22a3.2 3.2 0 01-3.2 3.2h-2.75a7.55 7.55 0 01-7.28 5.5h-2.94a5.93 5.93 0 01-5.93-5.92v-12.97c5.47 1.53 15.26.1 15.26.1s-.9 3.19.8 6.65h2.87a3.23 3.23 0 013.17 3.21z" fill="#E57281"/><g><path d="M366.44 146.8h-2.6c-2.2-3.74-.95-6.23-.95-6.23s-9.79 1.41-15.26-.09c-2.49-.68-4.09-1.98-3.5-4.28 1.9-7.39 22.3.47 23.7 3.14 1.44 2.67-1.39 7.45-1.39 7.45z" fill="#FFF"/><path d="M366.7 147.25h-3.13l-.14-.23c-1.62-2.73-1.48-4.85-1.23-5.9-2.4.3-10.03 1.1-14.71-.2-3.9-1.08-4.22-3.22-3.8-4.84.33-1.3 1.4-2.94 4.67-3.33 6.7-.8 18.7 4.17 19.86 6.39 1.55 2.84-1.27 7.7-1.39 7.9l-.13.2zm-2.58-.91h2.07c.53-.96 2.4-4.68 1.26-6.8-.94-1.77-12.34-6.7-18.96-5.9-2.2.25-3.5 1.17-3.9 2.67-.16.66-.68 2.67 3.17 3.74 5.32 1.46 14.99.09 15.08.07l.87-.12-.4.78c-.06.09-1.06 2.23.8 5.56z" fill="#FEB040"/></g><g transform="translate(347.51 144.51)" fill="#9A3B82"><path d="M8.8 9.28a.3.3 0 01-.22.09.37.37 0 01-.25-.12L8 8.91c-.98.87-1.92 1.3-2.79 1.3-.09 0-.18 0-.25-.02-.96-.1-1.43-.73-1.46-.76-.11-.15-.09-.36.07-.47.16-.12.37-.1.48.06.02.03.34.44 1 .5.73.07 1.58-.31 2.49-1.11l-.18-.2a.33.33 0 01.02-.48.33.33 0 01.48.02l.96 1.05c.13.13.11.34-.03.48zM12.27 2.48a.34.34 0 01-.25-.09C10.02.43 7.46.82 7.44.82c-.19.02-.37-.1-.4-.27-.01-.19.1-.37.28-.39a6.25 6.25 0 015.18 1.75c.14.14.14.35 0 .48-.05.07-.14.1-.23.1zM4.5 7.27c-.03 0-.08 0-.1-.02-.18-.05-.27-.25-.23-.44 0-.02.71-2.34-.43-4.33C2.76.78.54 1.3.52 1.32A.34.34 0 11.36.66c.94-.23 3-.23 3.97 1.5 1.3 2.26.55 4.77.5 4.88-.06.14-.18.23-.34.23z"/><circle cx="1.94" cy="3.71" r="1"/><ellipse cx="9.03" cy="3.71" rx="1" ry="1.07"/><path d="M17.27 7.04a.35.35 0 01-.35-.34 2.7 2.7 0 012.7-2.69c.18 0 .34.16.34.34 0 .19-.16.34-.34.34A2 2 0 0017.6 6.7c0 .18-.14.34-.34.34z"/></g></g></g><g><path d="M482.27 582.5a40.5 40.5 0 00-.96-.27l-7.47 24.46-28.1-7.38c-.24-.2-.35-.32-.35-.32s-113.82-89.22-119.8-132.04c-5.97-42.81 41.71-83.44 41.71-83.44s101.68 192.21 114.26 198.5c.25.13.5.29.7.5z" fill="#A0505A"/><path d="M391.37 428.48c-3.57 19.06-16.08 57.68-29.03 95.04-19.18-20.67-34.66-41.52-36.76-56.59-3.79-27.13 14-53.41 27.52-68.99a120.2 120.2 0 0116.07-10.89c3.54 6.65 11.74 22.04 22.2 41.43z" fill="#73325A"/><path d="M546.16 598.97l-41.81 26.83-12.13-1.83-11.16 7.08 3.6 7.4-18.38 11.8c-24.36-22.17-20.91-51-20.91-51l28.45 7.46 7.47-24.46s25.55 7.47 44.4 6.83c18.91-.64 20.47 9.89 20.47 9.89z" fill="#FFF"/><path d="M466.21 651.13l-.38-.35a64.7 64.7 0 01-19.8-34.18c-2.2-9.98-1.37-17.13-1.32-17.43l.09-.77 28.56 7.49 7.47-24.48.64.18c.25.07 25.66 7.42 44.2 6.8 8.04-.27 14.02 1.38 17.81 4.9 2.9 2.69 3.34 5.45 3.36 5.59l.07.43-.37.23-42.01 26.97-12.13-1.83-10.43 6.62 3.6 7.4-19.36 12.43zm-20.23-51.02a63.26 63.26 0 0020.39 49.28l17.43-11.19-3.61-7.4 11.9-7.53 12.12 1.82 41.2-26.42a9.77 9.77 0 00-2.9-4.43c-4.4-4-11.54-4.63-16.77-4.45-9.82.34-21.42-1.55-29.43-3.2-7.08-1.44-12.7-2.97-14.55-3.47l-7.46 24.44-28.32-7.45z" fill="#FF6576"/><path d="M497.77 586.64c-.64 0-1.44-.23-2.28-.96-3.27-2.74-6.08-11.47-5.12-15.8.37-1.7 1.26-2.26 1.92-2.45a2.24 2.24 0 011.92.37c3.22 2.24 4.66 13.43 5.02 16.8 1.67-1.18 3.54-3.74 5.5-7.49a61.04 61.04 0 003.06-6.78l1.28.48c-.02.02-1.28 3.38-3.12 6.92-2.54 4.87-4.96 7.79-7.17 8.68-.26.14-.6.23-1 .23zm-4.9-17.9c-.08 0-.15 0-.24.02-.43.11-.75.6-.93 1.41-.85 3.82 1.8 12.06 4.66 14.46.7.6 1.23.66 1.57.64-.43-4.25-1.96-14.57-4.5-16.33-.2-.14-.39-.2-.57-.2zM477.93 626.9h-.18l-28.02-.44v-1.37l27.83.44 13.95-8.34 13.2 2.13 39.34-24.58.74 1.15-39.8 24.84-13.2-2.12z" fill="#FF6576"/><g fill="#FF6576"><path d="M489.52 596.46l2.6-12.13 1.34.29-2.6 12.12zM495.18 597.83l2.6-12.13 1.34.29-2.6 12.12zM501.1 598.8l2.6-12.12 1.34.3-2.6 12.11z"/></g><g><path d="M357.64 374.17s16.74 7.81 16.74 36.45c0 27.67-63.89 197.16-63.89 197.16l-19.66 16.67-19.96-21.85c6.1-5.8-2.55-73.44 15.74-135.94 10.98-37.5 31.64-73.17 71.03-92.49z" fill="#A0505A"/><path d="M355.86 656.93l-49.69.04-9.22-8.08-13.22-.07-.96 8.18-19.48.02c-10.6-32.98 7.68-54.44 7.68-54.44l19.81 21.83 19.8-16.65s17.17 20.14 33.38 29.78c16.26 9.66 11.9 19.39 11.9 19.39z" fill="#FFF"/><path d="M262.8 657.7l-.17-.48c-5.52-17.21-3.13-31.26-.14-40 3.25-9.5 7.74-14.85 7.95-15.08l.5-.6 19.91 21.93 19.82-16.67.44.53c.04.04 4.36 5.09 10.57 11.23 5.73 5.67 14.32 13.45 22.63 18.39 6.9 4.1 11.05 8.72 12.35 13.72.98 3.84-.14 6.42-.18 6.53l-.19.41-50.39.05-9.22-8.09-12.36-.06-.96 8.17-20.57.02zm8.21-54.07a51.42 51.42 0 00-7.21 14.06c-2.88 8.48-5.21 22.02 0 38.62l18.35-.02.96-8.18 14.1.07 9.22 8.08 48.93-.04c.23-.8.64-2.74-.05-5.32-.84-3.18-3.56-7.97-11.71-12.79-8.43-5.02-17.1-12.88-22.9-18.61a209.45 209.45 0 01-10.21-10.8l-19.77 16.64-19.7-21.71z" fill="#FF6576"/><path d="M323.92 620.82a4.47 4.47 0 01-2.08-.36c-.62-.34-.92-1.08-.87-2.15.23-4.43 6.23-15.12 11.19-17.24 1.57-.66 2.99-.5 4.13.48.9.78 1.3 1.76 1.21 2.92-.36 5.12-10.98 12.7-14.3 14.94 1.26.11 4.37-.1 11.97-1.94a234 234 0 0010.87-2.95l.39 1.3c-.05.02-5.34 1.6-10.94 2.97-6.35 1.6-9.72 2.03-11.57 2.03zm10.07-18.75c-.4 0-.8.1-1.26.3-4.4 1.87-10.16 12.1-10.37 16.03 4.41-2.97 13.52-9.89 13.82-13.97.04-.73-.18-1.3-.76-1.8a2.18 2.18 0 00-1.43-.56zM356.25 651.86h-46.08l-10.25-8.61h-16.15l-23.47-14.82.73-1.14 23.16 14.59h16.23l10.25 8.6h45.58z" fill="#FF6576"/><g fill="#FF6576"><path d="M308.3 623.03l8.76-8.77.97.97-8.77 8.77zM312.31 627.25l8.77-8.76.97.97-8.77 8.76zM316.74 631.27l8.77-8.76.97.96-8.77 8.77z"/></g></g><path d="M350.13 509.68l68.66 75.59s18.52-1.99 31.83-8.93c13.31-6.94 25.2-19.48 25.2-19.48L369.18 387.03l-19.04 122.65z" fill="#5197ED"/><g fill="#78AFFF"><path d="M357.64 374.17c-39.48 19.37-60.17 55.17-71.1 92.78H166.73c-30.67 0-53.52-28.29-47.06-58.27l8.8-40.83h208.3c7.72 0 14.89 2.32 20.87 6.32z"/><path d="M260.71 578.85s16.4 4.45 35.03 7.83a255.69 255.69 0 0033.54 3.86s37.06-143.8 38.39-148.52c1.32-4.73 6.69-23.52 6.7-31.4.03-12.1-3.4-30.08-18.53-37.6 0 0-25.48 9.28-45.8 39.54-20.3 30.26-43.34 95-49.33 166.29z"/></g><g><path d="M100.47 258.16l21.94 86.1H81.47c-23.84 0-39.18-25.33-28.13-46.45l31.44-60.13A51.6 51.6 0 01130.49 210h7.42a38.61 38.61 0 00-37.44 48.16z" fill="#FFF"/><path d="M122.41 344.94H81.47a32.2 32.2 0 01-27.74-15.64 32.2 32.2 0 01-1-31.81l31.43-60.13a52.23 52.23 0 0146.33-28.04h7.42c.4 0 .69.3.69.68 0 .4-.3.69-.69.69h-.06a37.67 37.67 0 00-29.92 14.64 37.68 37.68 0 00-6.8 32.65l21.94 86.1c.05.2 0 .43-.11.59a.72.72 0 01-.55.27zm4.7-134.14A50.95 50.95 0 0085.4 238l-31.45 60.13a30.8 30.8 0 00.96 30.46 30.84 30.84 0 0026.58 14.98h40.05l-21.71-85.25a39.07 39.07 0 017.05-33.84 38.9 38.9 0 0120.23-13.68z" fill="#6FDDDD"/><path d="M353.14 235.83c12.9 0 23.64-1.71 26.24-4.11l-40.03 86.78a44.32 44.32 0 01-68.09 15.91l-25.23-20.37s-2.51 14.78-20.44 18.55v35.21h-97.15l-27.97-109.66c-6.24-24.43 12.24-48.2 37.44-48.2l63.46 12.65c6 0 16.35-6.42 20.07-10.97 15.62 3.98 31.76 13.68 41.67 26.84l33.25 44.12 29.86-52.2-.02.15c.02 3.04 12.1 5.3 26.94 5.3z" fill="#FFF"/><path d="M225.6 368.48h-97.16c-.32 0-.6-.2-.66-.52L99.8 258.3a39.13 39.13 0 017.06-33.86 39.1 39.1 0 0131.2-15.2l63.38 12.64c5.6-.05 15.66-6.05 19.45-10.71.16-.2.43-.3.7-.23a82.43 82.43 0 0123.18 10.05c7.56 4.77 14.1 10.66 18.89 17.03l32.63 43.3 29.34-51.29a.68.68 0 01.77-.32c.3.07.5.34.5.66l-.02.2c.07.65 1.67 2 7.36 3.1 4.97.95 11.69 1.5 18.9 1.5 14.11 0 23.66-1.99 25.78-3.93.25-.23.6-.25.87-.05.27.19.37.55.23.85l-40.03 86.78a45.11 45.11 0 01-40.87 26.14c-5.12 0-10.16-.86-14.98-2.58a44.68 44.68 0 01-13.29-7.42l-24.39-19.68a24.4 24.4 0 01-3.35 7.03c-2.63 3.84-7.67 8.77-16.83 10.85v34.66c0 .37-.3.66-.69.66zm-96.64-1.37h95.95V332.6c0-.32.23-.6.55-.67 7.24-1.53 12.76-5 16.48-10.34 2.77-4 3.43-7.6 3.43-7.63.04-.23.2-.43.43-.52.23-.1.48-.05.66.11l25.24 20.37a43.5 43.5 0 0027.4 9.68 43.75 43.75 0 0039.64-25.37l39.1-84.79c-4.38 1.9-13.67 3.09-24.7 3.09-8.51 0-23.81-1-27.03-4.57l-29.16 50.97a.69.69 0 01-1.14.07l-33.25-44.12c-4.7-6.24-11.1-12.01-18.52-16.7a79.78 79.78 0 00-22.35-9.77c-3.84 4.4-13.93 10.87-20.3 10.87-.04 0-.09 0-.14-.02l-63.4-12.63a37.71 37.71 0 00-29.92 14.68 37.72 37.72 0 00-6.8 32.68l27.83 109.13z" fill="#6FDDDD"/><path d="M246.26 314.82a.7.7 0 01-.5-.2l-19.1-20.33a.68.68 0 01.03-.96c.27-.25.7-.25.96.02l19.09 20.33c.25.27.25.7-.02.96a.68.68 0 01-.46.18zM379.97 230.44l-.6 1.28c-2.6 2.42-13.33 4.11-26.23 4.11-14.84 0-26.92-2.26-26.92-5.25 0-.05 0-.12.03-.16.4-2.92 12.33-5.44 26.92-5.44 14.56 0 26.4 2.52 26.8 5.46 0-.02 0-.02 0 0zM133.19 332.68a3.66 3.66 0 010-7.3c2 0 3.65 1.63 3.65 3.64a3.66 3.66 0 01-3.65 3.66zm0-5.94a2.29 2.29 0 00-2.29 2.28 2.29 2.29 0 002.29 2.29 2.29 2.29 0 002.28-2.29 2.29 2.29 0 00-2.28-2.28zM123.83 305.73c-2.01 0-3.66-1.64-3.66-3.65a3.66 3.66 0 013.66-3.66c2 0 3.65 1.65 3.65 3.66a3.64 3.64 0 01-3.65 3.65zm0-5.94a2.29 2.29 0 00-2.29 2.29 2.29 2.29 0 002.29 2.28 2.29 2.29 0 002.28-2.28c.02-1.26-1-2.29-2.28-2.29zM149.92 309.57a3.66 3.66 0 010-7.3c2.01 0 3.66 1.63 3.66 3.64a3.66 3.66 0 01-3.66 3.66zm0-5.94a2.29 2.29 0 00-2.28 2.28 2.29 2.29 0 002.28 2.29 2.29 2.29 0 002.29-2.29 2.29 2.29 0 00-2.29-2.28zM137.91 282.05c-2 0-3.65-1.64-3.65-3.65a3.66 3.66 0 013.65-3.66 3.66 3.66 0 010 7.3zm0-5.96a2.29 2.29 0 00-2.28 2.28 2.29 2.29 0 002.28 2.29 2.29 2.29 0 002.29-2.29 2.29 2.29 0 00-2.29-2.28zM112.11 272.03a3.66 3.66 0 010-7.3c2.01-.01 3.66 1.63 3.66 3.64a3.64 3.64 0 01-3.66 3.66zm0-5.96a2.29 2.29 0 00-2.28 2.28 2.29 2.29 0 002.28 2.28 2.29 2.29 0 002.29-2.28c.02-1.26-1-2.28-2.29-2.28zM127.23 255.97c-2.01 0-3.66-1.64-3.66-3.65a3.66 3.66 0 013.66-3.66 3.66 3.66 0 010 7.3zm0-5.96a2.29 2.29 0 00-2.29 2.29 2.29 2.29 0 002.29 2.28 2.29 2.29 0 002.28-2.28 2.29 2.29 0 00-2.28-2.29zM90.83 255.97c-2 0-3.65-1.64-3.65-3.65a3.66 3.66 0 013.65-3.66 3.66 3.66 0 010 7.3zm0-5.96a2.29 2.29 0 00-2.28 2.29 2.29 2.29 0 002.28 2.28 2.29 2.29 0 002.28-2.28 2.29 2.29 0 00-2.28-2.29zM79.69 276.09c-2.01 0-3.66-1.64-3.66-3.65a3.66 3.66 0 013.66-3.66 3.66 3.66 0 010 7.3zm0-5.94a2.29 2.29 0 00-2.29 2.29 2.29 2.29 0 002.29 2.28 2.29 2.29 0 002.28-2.28 2.29 2.29 0 00-2.28-2.29zM93.8 279.08c-2.01 0-3.65-1.64-3.65-3.65a3.66 3.66 0 013.65-3.66 3.66 3.66 0 010 7.3zm0-5.96a2.29 2.29 0 00-2.28 2.29 2.29 2.29 0 002.28 2.28 2.29 2.29 0 002.28-2.28 2.29 2.29 0 00-2.28-2.29zM85.65 294.9c-2.01 0-3.66-1.64-3.66-3.65a3.66 3.66 0 013.66-3.65c2 0 3.65 1.64 3.65 3.65a3.66 3.66 0 01-3.65 3.66zm0-5.95a2.29 2.29 0 00-2.29 2.28 2.29 2.29 0 002.29 2.28 2.29 2.29 0 002.28-2.28 2.29 2.29 0 00-2.28-2.28zM64.02 299.8a3.66 3.66 0 010-7.3c2.01-.01 3.66 1.63 3.66 3.64a3.64 3.64 0 01-3.66 3.65zm0-5.97a2.29 2.29 0 00-2.28 2.29 2.29 2.29 0 002.28 2.28 2.29 2.29 0 002.29-2.28c.02-1.26-1-2.29-2.29-2.29zM102.23 309.57a3.66 3.66 0 010-7.3c2 0 3.65 1.63 3.65 3.64a3.66 3.66 0 01-3.65 3.66zm0-5.94a2.29 2.29 0 00-2.29 2.28 2.29 2.29 0 002.29 2.29 2.29 2.29 0 002.28-2.29 2.29 2.29 0 00-2.28-2.28zM85.65 319.55a3.66 3.66 0 010-7.3c2-.01 3.65 1.63 3.65 3.64a3.66 3.66 0 01-3.65 3.66zm0-5.94a2.29 2.29 0 00-2.29 2.28 2.29 2.29 0 002.29 2.29 2.29 2.29 0 002.28-2.29 2.29 2.29 0 00-2.28-2.28zM85.65 337.61c-2.01 0-3.66-1.64-3.66-3.65a3.66 3.66 0 013.66-3.66 3.66 3.66 0 010 7.3zm0-5.96a2.29 2.29 0 00-2.29 2.28 2.29 2.29 0 002.29 2.29 2.29 2.29 0 002.28-2.29 2.29 2.29 0 00-2.28-2.28zM62.68 322.54c-2.01 0-3.66-1.65-3.66-3.65a3.66 3.66 0 013.66-3.66c2 0 3.65 1.65 3.65 3.66a3.64 3.64 0 01-3.65 3.65zm0-5.96a2.29 2.29 0 00-2.29 2.28 2.29 2.29 0 002.29 2.29 2.29 2.29 0 002.28-2.29c.02-1.25-1-2.28-2.28-2.28zM102.23 335.67c-2.01 0-3.66-1.64-3.66-3.65a3.66 3.66 0 013.66-3.66 3.66 3.66 0 010 7.3zm0-5.96a2.29 2.29 0 00-2.29 2.28 2.29 2.29 0 002.29 2.29 2.29 2.29 0 002.28-2.29 2.29 2.29 0 00-2.28-2.28zM112.11 239.48c-2 0-3.65-1.64-3.65-3.65a3.66 3.66 0 013.65-3.65c2.01 0 3.66 1.64 3.66 3.65a3.64 3.64 0 01-3.66 3.65zm0-5.93a2.29 2.29 0 00-2.28 2.28 2.29 2.29 0 002.28 2.28 2.29 2.29 0 002.29-2.28c.02-1.26-1-2.28-2.29-2.28zM126.82 224.32c-2.01 0-3.66-1.64-3.66-3.65a3.66 3.66 0 013.66-3.66 3.66 3.66 0 010 7.3zm0-5.96a2.29 2.29 0 00-2.29 2.28 2.29 2.29 0 002.29 2.29 2.29 2.29 0 002.28-2.29 2.3 2.3 0 00-2.28-2.28zM103.8 224.32c-2 0-3.65-1.64-3.65-3.65a3.66 3.66 0 013.65-3.66c2.01 0 3.65 1.65 3.65 3.66a3.64 3.64 0 01-3.65 3.65zm0-5.96a2.29 2.29 0 00-2.28 2.28 2.29 2.29 0 002.28 2.29 2.29 2.29 0 002.28-2.29c.03-1.23-1-2.28-2.28-2.28zM90.83 236.52a3.66 3.66 0 010-7.3c2.01-.01 3.65 1.63 3.65 3.64a3.66 3.66 0 01-3.65 3.66zm0-5.96a2.29 2.29 0 00-2.28 2.28 2.29 2.29 0 002.28 2.28 2.29 2.29 0 002.28-2.28 2.29 2.29 0 00-2.28-2.28zM223.65 219.64c-2 0-3.65-1.64-3.65-3.65a3.66 3.66 0 013.65-3.66c2.01 0 3.66 1.65 3.66 3.66a3.64 3.64 0 01-3.66 3.65zm0-5.96a2.29 2.29 0 00-2.28 2.28 2.29 2.29 0 002.28 2.29 2.29 2.29 0 002.29-2.29c.02-1.25-1-2.28-2.29-2.28zM192.33 279.08c-2.01 0-3.66-1.64-3.66-3.65a3.66 3.66 0 013.66-3.66c2 0 3.65 1.65 3.65 3.66a3.64 3.64 0 01-3.65 3.65zm0-5.96a2.29 2.29 0 00-2.29 2.29 2.29 2.29 0 002.29 2.28 2.29 2.29 0 002.28-2.28c.02-1.26-1-2.29-2.28-2.29zM206.92 258.94c-2.01 0-3.66-1.64-3.66-3.65a3.66 3.66 0 013.66-3.66 3.66 3.66 0 010 7.3zm0-5.96a2.29 2.29 0 00-2.29 2.28 2.29 2.29 0 002.29 2.29 2.29 2.29 0 002.28-2.29 2.29 2.29 0 00-2.28-2.28zM215.75 279.08c-2 0-3.65-1.64-3.65-3.65a3.66 3.66 0 013.65-3.66 3.66 3.66 0 010 7.3zm0-5.96a2.29 2.29 0 00-2.28 2.29 2.29 2.29 0 002.28 2.28 2.29 2.29 0 002.29-2.28 2.29 2.29 0 00-2.29-2.29zM212.76 297.88a3.66 3.66 0 010-7.3c2.01-.01 3.66 1.63 3.66 3.64a3.64 3.64 0 01-3.66 3.66zm0-5.96a2.29 2.29 0 00-2.28 2.28 2.29 2.29 0 002.28 2.28 2.29 2.29 0 002.29-2.28c.02-1.23-1-2.28-2.29-2.28zM239.32 288.01c-2.01 0-3.66-1.64-3.66-3.65a3.66 3.66 0 013.66-3.66 3.66 3.66 0 010 7.3zm0-5.96a2.29 2.29 0 00-2.29 2.28 2.29 2.29 0 002.29 2.29 2.29 2.29 0 002.28-2.29 2.29 2.29 0 00-2.28-2.28zM230.37 262.41c-2.01 0-3.66-1.64-3.66-3.65a3.66 3.66 0 013.66-3.66c2 0 3.65 1.65 3.65 3.66a3.64 3.64 0 01-3.65 3.65zm0-5.96a2.29 2.29 0 00-2.29 2.29 2.29 2.29 0 002.29 2.28 2.29 2.29 0 002.28-2.28c.02-1.26-1-2.29-2.28-2.29zM220.69 238.05a3.66 3.66 0 010-7.3c2-.01 3.65 1.63 3.65 3.64a3.66 3.66 0 01-3.65 3.66zm0-5.96a2.29 2.29 0 00-2.29 2.28 2.29 2.29 0 002.29 2.28 2.29 2.29 0 002.28-2.28 2.29 2.29 0 00-2.28-2.28zM158.05 272.03a3.66 3.66 0 010-7.3c2.01-.01 3.66 1.63 3.66 3.64a3.66 3.66 0 01-3.66 3.66zm0-5.96a2.29 2.29 0 00-2.28 2.28 2.29 2.29 0 002.28 2.28 2.29 2.29 0 002.29-2.28 2.29 2.29 0 00-2.29-2.28zM242.29 235.08a3.66 3.66 0 010-7.3c2-.01 3.65 1.63 3.65 3.64a3.64 3.64 0 01-3.65 3.66zm0-5.96a2.29 2.29 0 00-2.29 2.28 2.29 2.29 0 002.29 2.28 2.29 2.29 0 002.28-2.28c.02-1.26-1-2.28-2.28-2.28zM248.25 255.56c-2.01 0-3.66-1.64-3.66-3.65a3.66 3.66 0 013.66-3.66 3.66 3.66 0 010 7.3zm0-5.96a2.29 2.29 0 00-2.29 2.28 2.29 2.29 0 002.29 2.29 2.29 2.29 0 002.28-2.29 2.29 2.29 0 00-2.28-2.28zM267.9 254.97a3.66 3.66 0 010-7.3c2.01-.01 3.66 1.63 3.66 3.64a3.66 3.66 0 01-3.65 3.66zm0-5.96a2.29 2.29 0 00-2.28 2.28 2.29 2.29 0 002.29 2.28 2.29 2.29 0 002.28-2.28 2.29 2.29 0 00-2.28-2.28zM260.71 276.09c-2 0-3.65-1.64-3.65-3.65a3.66 3.66 0 013.65-3.66 3.66 3.66 0 010 7.3zm0-5.94a2.29 2.29 0 00-2.28 2.29 2.29 2.29 0 002.28 2.28 2.29 2.29 0 002.29-2.28 2.29 2.29 0 00-2.29-2.29zM257.72 299.8a3.66 3.66 0 010-7.3c2.01-.01 3.65 1.63 3.65 3.64a3.64 3.64 0 01-3.65 3.65zm0-5.97a2.29 2.29 0 00-2.28 2.29 2.29 2.29 0 002.28 2.28 2.29 2.29 0 002.28-2.28c.03-1.26-1-2.29-2.28-2.29z" fill="#6FDDDD"/><path d="M242.29 308.72c-2.01 0-3.66-1.64-3.66-3.65a3.66 3.66 0 013.66-3.65c2 0 3.65 1.64 3.65 3.65a3.64 3.64 0 01-3.65 3.65zm0-5.96a2.29 2.29 0 00-2.29 2.29 2.29 2.29 0 002.29 2.28 2.29 2.29 0 002.28-2.28c.02-1.26-1-2.29-2.28-2.29zM264.91 329.7c-2 0-3.65-1.63-3.65-3.64a3.66 3.66 0 013.65-3.66c2.01 0 3.66 1.65 3.66 3.66a3.64 3.64 0 01-3.66 3.65zm0-5.95a2.29 2.29 0 00-2.28 2.28 2.29 2.29 0 002.28 2.29 2.29 2.29 0 002.29-2.29c.02-1.25-1-2.28-2.29-2.28zM278.64 313.61c-2.01 0-3.66-1.64-3.66-3.65a3.66 3.66 0 013.66-3.66 3.66 3.66 0 010 7.3zm0-5.96a2.29 2.29 0 00-2.29 2.28 2.29 2.29 0 002.29 2.29 2.29 2.29 0 002.28-2.29 2.29 2.29 0 00-2.28-2.28zM278.64 285.04c-2.01 0-3.66-1.64-3.66-3.65a3.66 3.66 0 013.66-3.66 3.66 3.66 0 010 7.3zm0-5.96a2.29 2.29 0 00-2.29 2.29 2.29 2.29 0 002.29 2.28 2.29 2.29 0 002.28-2.28 2.29 2.29 0 00-2.28-2.29zM290.76 302.76c-2 0-3.65-1.64-3.65-3.65a3.66 3.66 0 013.65-3.65c2.01 0 3.66 1.64 3.66 3.65a3.66 3.66 0 01-3.66 3.65zm0-5.96a2.29 2.29 0 00-2.28 2.29 2.29 2.29 0 002.28 2.28 2.29 2.29 0 002.29-2.28 2.29 2.29 0 00-2.29-2.29zM314.55 294.9c-2 0-3.65-1.64-3.65-3.65a3.66 3.66 0 013.65-3.65 3.65 3.65 0 110 7.3zm0-5.95a2.29 2.29 0 00-2.28 2.28 2.29 2.29 0 002.28 2.28 2.29 2.29 0 002.29-2.28c0-1.26-1-2.28-2.29-2.28zM300.63 285.04c-2.01 0-3.66-1.64-3.66-3.65a3.66 3.66 0 013.66-3.66c2 0 3.65 1.65 3.65 3.66a3.64 3.64 0 01-3.65 3.65zm0-5.96a2.29 2.29 0 00-2.29 2.29 2.29 2.29 0 002.29 2.28 2.29 2.29 0 002.28-2.28c.02-1.26-1-2.29-2.28-2.29zM317.55 277.26a3.66 3.66 0 010-7.3c2-.01 3.65 1.63 3.65 3.64a3.66 3.66 0 01-3.65 3.66zm0-5.97a2.29 2.29 0 00-2.29 2.29 2.29 2.29 0 002.29 2.28 2.29 2.29 0 002.28-2.28 2.29 2.29 0 00-2.28-2.29zM314.55 262.41c-2 0-3.65-1.64-3.65-3.65a3.66 3.66 0 013.65-3.66c2.01 0 3.66 1.65 3.66 3.66a3.64 3.64 0 01-3.66 3.65zm0-5.96a2.29 2.29 0 00-2.28 2.29 2.29 2.29 0 002.28 2.28 2.29 2.29 0 002.29-2.28c.02-1.26-1-2.29-2.29-2.29zM336.5 258.94c-2.01 0-3.66-1.64-3.66-3.65a3.66 3.66 0 013.66-3.66 3.66 3.66 0 010 7.3zm0-5.96a2.29 2.29 0 00-2.29 2.28 2.29 2.29 0 002.29 2.29 2.29 2.29 0 002.28-2.29 2.29 2.29 0 00-2.28-2.28zM328.05 238.41c-2.01 0-3.65-1.64-3.65-3.65a3.66 3.66 0 013.65-3.66 3.66 3.66 0 010 7.3zm0-5.96a2.29 2.29 0 00-2.28 2.28 2.29 2.29 0 002.28 2.29 2.29 2.29 0 002.28-2.29 2.29 2.29 0 00-2.28-2.28zM369.7 242.7c-2.01 0-3.66-1.64-3.66-3.65a3.66 3.66 0 013.66-3.65c2 0 3.65 1.64 3.65 3.65a3.66 3.66 0 01-3.65 3.65zm0-5.96a2.29 2.29 0 00-2.29 2.29 2.29 2.29 0 002.29 2.28 2.29 2.29 0 002.28-2.28 2.29 2.29 0 00-2.28-2.29zM351.36 248.32c-2 0-3.65-1.64-3.65-3.65a3.66 3.66 0 013.65-3.66 3.66 3.66 0 010 7.3zm0-5.96a2.29 2.29 0 00-2.28 2.29 2.29 2.29 0 002.28 2.28 2.29 2.29 0 002.29-2.28 2.29 2.29 0 00-2.29-2.29zM358.21 265.38c-2 0-3.65-1.64-3.65-3.65a3.66 3.66 0 013.65-3.66 3.65 3.65 0 110 7.3zm0-5.96a2.29 2.29 0 00-2.28 2.28 2.29 2.29 0 002.28 2.29 2.29 2.29 0 002.29-2.29c0-1.25-1-2.28-2.29-2.28zM340.88 277.26a3.66 3.66 0 010-7.3c2.01-.01 3.65 1.63 3.65 3.64a3.66 3.66 0 01-3.65 3.66zm0-5.97a2.29 2.29 0 00-2.28 2.29 2.29 2.29 0 002.28 2.28 2.29 2.29 0 002.28-2.28 2.29 2.29 0 00-2.28-2.29zM333.53 296.8c-2.01 0-3.65-1.64-3.65-3.65a3.66 3.66 0 013.65-3.65c2 0 3.65 1.64 3.65 3.65a3.66 3.66 0 01-3.65 3.65zm0-5.96a2.29 2.29 0 00-2.28 2.29 2.29 2.29 0 002.28 2.28 2.29 2.29 0 002.28-2.28 2.29 2.29 0 00-2.28-2.29zM339.47 311.7a3.66 3.66 0 010-7.3 3.65 3.65 0 110 7.3zm0-5.97a2.29 2.29 0 00-2.29 2.29 2.29 2.29 0 002.29 2.28 2.29 2.29 0 002.28-2.28c0-1.26-1-2.29-2.28-2.29zM320.51 311.7a3.66 3.66 0 010-7.3 3.65 3.65 0 110 7.3zm0-5.97a2.29 2.29 0 00-2.28 2.29 2.29 2.29 0 002.28 2.28 2.29 2.29 0 002.29-2.28c0-1.26-1-2.29-2.29-2.29zM303.62 318.47c-2.01 0-3.66-1.64-3.66-3.65a3.66 3.66 0 013.66-3.65c2 0 3.65 1.64 3.65 3.65a3.66 3.66 0 01-3.65 3.65zm0-5.93a2.29 2.29 0 00-2.29 2.28 2.29 2.29 0 002.29 2.28 2.29 2.29 0 002.28-2.28 2.29 2.29 0 00-2.28-2.28zM287.77 329.8c-2 0-3.65-1.64-3.65-3.65a3.66 3.66 0 013.65-3.66 3.65 3.65 0 110 7.3zm0-5.96a2.29 2.29 0 00-2.28 2.28 2.29 2.29 0 002.28 2.29 2.29 2.29 0 002.28-2.29c0-1.25-1-2.28-2.28-2.28zM317.55 328.5c-2.01 0-3.66-1.65-3.66-3.65a3.66 3.66 0 013.66-3.66 3.66 3.66 0 010 7.3zm0-5.96a2.29 2.29 0 00-2.29 2.28 2.29 2.29 0 002.29 2.29 2.29 2.29 0 002.28-2.29 2.29 2.29 0 00-2.28-2.28zM303.62 344.74a3.66 3.66 0 010-7.3c2-.01 3.65 1.63 3.65 3.64a3.66 3.66 0 01-3.65 3.66zm0-5.96a2.29 2.29 0 00-2.29 2.28 2.29 2.29 0 002.29 2.28 2.29 2.29 0 002.28-2.28 2.29 2.29 0 00-2.28-2.28zM186.2 299.8a3.66 3.66 0 010-7.3c2.02-.01 3.66 1.63 3.66 3.64a3.64 3.64 0 01-3.65 3.65zm0-5.97a2.29 2.29 0 00-2.28 2.29 2.29 2.29 0 002.29 2.28 2.29 2.29 0 002.28-2.28c.02-1.26-1-2.29-2.28-2.29zM174.88 316.58a3.66 3.66 0 010-7.3c2.01 0 3.65 1.64 3.65 3.64a3.64 3.64 0 01-3.65 3.66zm0-5.96a2.29 2.29 0 00-2.28 2.28 2.29 2.29 0 002.28 2.29 2.29 2.29 0 002.28-2.29c.03-1.25-1-2.28-2.28-2.28zM161.02 337.61c-2 0-3.65-1.64-3.65-3.65a3.66 3.66 0 013.65-3.66c2.01 0 3.65 1.65 3.65 3.66a3.64 3.64 0 01-3.65 3.65zm0-5.96a2.29 2.29 0 00-2.28 2.28 2.29 2.29 0 002.28 2.29 2.29 2.29 0 002.28-2.29c.03-1.25-1-2.28-2.28-2.28zM144.67 350.01c-2 0-3.65-1.64-3.65-3.65a3.66 3.66 0 013.65-3.66 3.66 3.66 0 010 7.3zm0-5.94a2.29 2.29 0 00-2.28 2.29 2.29 2.29 0 002.28 2.28 2.29 2.29 0 002.29-2.28 2.29 2.29 0 00-2.29-2.29zM175.54 362.5c-2 0-3.65-1.64-3.65-3.65a3.66 3.66 0 013.65-3.66 3.66 3.66 0 010 7.3zm0-5.94a2.29 2.29 0 00-2.28 2.29 2.29 2.29 0 002.28 2.28 2.29 2.29 0 002.29-2.28 2.29 2.29 0 00-2.29-2.29zM141.68 368.46c-2 0-3.65-1.64-3.65-3.65a3.66 3.66 0 013.65-3.66c2.01 0 3.65 1.65 3.65 3.66a3.64 3.64 0 01-3.65 3.65zm0-5.96a2.29 2.29 0 00-2.28 2.29 2.29 2.29 0 002.28 2.28 2.29 2.29 0 002.28-2.28c.03-1.26-1-2.29-2.28-2.29zM192.33 341.74c-2.01 0-3.66-1.64-3.66-3.65a3.66 3.66 0 013.66-3.65 3.65 3.65 0 110 7.3zm0-5.96a2.29 2.29 0 00-2.29 2.29 2.29 2.29 0 002.29 2.28 2.29 2.29 0 002.28-2.28c0-1.26-1-2.29-2.28-2.29zM200.36 319.55a3.66 3.66 0 010-7.3c2.01-.01 3.66 1.63 3.66 3.64a3.66 3.66 0 01-3.66 3.66zm0-5.94a2.29 2.29 0 00-2.28 2.28 2.29 2.29 0 002.28 2.29 2.29 2.29 0 002.29-2.29 2.29 2.29 0 00-2.29-2.28zM224.4 319.55a3.66 3.66 0 010-7.3c2.02-.01 3.66 1.63 3.66 3.64a3.64 3.64 0 01-3.65 3.66zm0-5.94a2.29 2.29 0 00-2.28 2.28 2.29 2.29 0 002.29 2.29 2.29 2.29 0 002.28-2.29c.02-1.25-1-2.28-2.28-2.28zM215.75 343.57c-2 0-3.65-1.64-3.65-3.65a3.66 3.66 0 013.65-3.66 3.66 3.66 0 010 7.3zm0-5.96a2.29 2.29 0 00-2.28 2.28 2.29 2.29 0 002.28 2.29 2.29 2.29 0 002.29-2.29 2.29 2.29 0 00-2.29-2.28zM204.5 360.65c-2.01 0-3.66-1.64-3.66-3.65a3.66 3.66 0 013.66-3.66c2 0 3.65 1.65 3.65 3.66a3.64 3.64 0 01-3.65 3.65zm0-5.96a2.29 2.29 0 00-2.29 2.29 2.29 2.29 0 002.29 2.28 2.29 2.29 0 002.28-2.28c.02-1.26-1-2.29-2.28-2.29zM164.01 288.01c-2 0-3.65-1.64-3.65-3.65a3.66 3.66 0 013.65-3.66 3.66 3.66 0 010 7.3zm0-5.96a2.29 2.29 0 00-2.28 2.28 2.29 2.29 0 002.28 2.29 2.29 2.29 0 002.29-2.29 2.29 2.29 0 00-2.29-2.28z" fill="#6FDDDD"/></g><g><path d="M391.94 186.6a7.92 7.92 0 01-3.45 6.55l-.53.37-4.08 21.8a13.08 13.08 0 01-5.8 8.61l-5.6 3.57-4.43 2.83-2.05 4.9c-3.81.4-8.18.62-12.83.62-4.7 0-9.14-.22-13-.64V201.4a10 10 0 01.94-4.22l7.44-16.03s8.13 2 4.39 11.99c-3.4 9.06 4.36 6.73 8.72 5.11 3.9-1.46 20.96-10.14 27.63-13.31 1.23-.6 2.65.32 2.65 1.67z" fill="#A0505A"/><g fill="#73325A"><path d="M368.99 222.59a.56.56 0 01-.48-.28.59.59 0 01.18-.8l10.03-6.4c2.9-1.84 4.9-4.83 5.55-8.21.06-.32.36-.5.66-.46.32.07.52.37.45.66a13.63 13.63 0 01-6.05 8.95l-10.02 6.4a.4.4 0 01-.32.14zM370.63 213.34a.56.56 0 01-.48-.28.59.59 0 01.19-.8l10.02-6.39c2.9-1.85 4.91-4.84 5.55-8.22.07-.32.36-.5.66-.46.32.07.53.37.46.66a13.63 13.63 0 01-6.05 8.96l-10.03 6.39a.4.4 0 01-.32.14zM371.11 204.57a.56.56 0 01-.48-.28.59.59 0 01.19-.8l16.12-10.23c.27-.16.61-.09.8.19.16.27.09.61-.19.8l-16.14 10.23c-.1.07-.18.09-.3.09z"/></g><path d="M373.35 226.92l-.89.58-4.43 2.83-2.05 4.9c-3.82.4-8.18.62-12.84.62-4.7 0-9.13-.22-12.99-.64v-9.5c3.86-.45 8.29-.7 13-.7 8.05-.03 15.27.73 20.2 1.91z" fill="#73325A"/></g><g><path d="M221.05 211.08c-4.89 4.29-12.51 14.63-54.02 14.63-53.41 0-21.97-15.68-21.97-15.68l22.65-37.84 24.3 14.9v12c0 6.05 4.9 10.94 10.93 10.94h1.58c5.66-.03 11.12-.32 16.53 1.05z" fill="#A0505A"/><path fill="#73325A" d="M191.98 187.08v3.06L145.04 210l22.65-37.84z"/><g transform="translate(176.18 151.04)"><path d="M17.08 37.52h5.16c4.75 0 8.6-3.86 8.6-8.61V.16H.05v20.32c0 9.41 7.63 17.04 17.04 17.04z" fill="#A0505A"/><path d="M30.19 27.81c-3.61 0-5.07-2.46-5.14-2.55a.56.56 0 01.2-.78.56.56 0 01.78.2c.05.07 1.23 2.02 4.13 2.02.32 0 .57.25.57.57 0 .32-.22.54-.54.54z" fill="#73325A"/><ellipse fill="#73325A" cx="27.19" cy="15.92" rx="1.1" ry="2.12"/></g><path d="M182.07 154.21s25.42 15.35 33.68 2c7.26-11.72-24.9-17.75-36.14-17.8-12.22-.04-25.74 4.82-31.79 24.3-5.13 16.53-14.06 36.29-13.54 62.91.37 18.73-1.23 34.92 26.51 42.96 12.04 3.5 31.54 3.4 40.88-27.89 10.04-33.68-27.77-41.21-28.66-61.56-.9-20.35 9.06-24.92 9.06-24.92z" fill="#000838"/><path d="M170.84 270.66c-3.01 0-6.42-.44-10.2-1.53-26.45-7.65-26.65-22.68-26.88-40.08-.02-1.12-.02-2.26-.05-3.43-.4-21.76 5.32-38.61 10.4-53.5 1.13-3.36 2.2-6.53 3.17-9.6 2.8-9.01 7.44-15.68 13.81-19.77 5.07-3.26 11.23-4.93 18.34-4.93h.18c8.36.02 32.38 3.81 36.99 12.15 1.14 2.08 1.03 4.27-.37 6.5-3.54 5.71-10.64 7.18-20.6 4.28a67.24 67.24 0 01-13.58-5.9c-.68.4-2.6 1.7-4.43 4.57-3.81 5.96-4.31 13.98-4.06 19.66.34 7.95 6.62 14 13.24 20.44 10.07 9.75 21.49 20.83 15.37 41.31-4.18 14.02-10.83 23.2-19.73 27.34-2.7 1.3-6.6 2.49-11.6 2.49zm8.6-131.68c-6.86 0-12.82 1.6-17.71 4.75-6.14 3.95-10.62 10.4-13.34 19.16-.95 3.09-2.03 6.26-3.2 9.64-5.04 14.8-10.75 31.56-10.34 53.1.03 1.13.05 2.28.05 3.42.11 8.5.2 16.5 3.5 23.18 3.62 7.4 10.8 12.42 22.55 15.82 5.4 1.56 13.4 2.67 21.06-.87 8.6-3.97 15.02-12.94 19.1-26.62 2.66-8.86 2.15-16.67-1.52-23.84-3.25-6.35-8.5-11.42-13.54-16.33-6.8-6.6-13.22-12.81-13.59-21.2-.25-5.88.28-14.2 4.3-20.4 2.44-3.8 5-4.99 5.1-5.05l.28-.14.25.16c.19.11 12.33 7.35 22.33 7.35 4.3 0 8.2-1.35 10.58-5.16 1.16-1.9 1.28-3.65.34-5.37-4.18-7.53-27.13-11.5-36-11.55-.08-.05-.15-.05-.2-.05z" fill="#FFF"/><g fill="#FF6576"><path d="M180.31 165.73h18.18v1.37h-18.18z"/><path d="M204.09 174.4c-3.22 0-5.85-3.29-5.85-7.3 0-4.02 2.63-7.31 5.85-7.31 3.22 0 5.84 3.29 5.84 7.3 0 4.02-2.62 7.31-5.84 7.31zm0-13.24c-2.47 0-4.48 2.67-4.48 5.93 0 3.27 2.01 5.94 4.48 5.94 2.46 0 4.47-2.67 4.47-5.94 0-3.26-2-5.93-4.47-5.93z"/></g><g><path d="M171.37 158.26H170v-19.23a5.92 5.92 0 015.9-5.92h5.72a5.92 5.92 0 015.91 5.92h-1.37a4.54 4.54 0 00-4.54-4.55h-5.71a4.54 4.54 0 00-4.54 4.55v19.23z" fill="#5A9DFF"/><path d="M176.18 179.43H165.2a5.1 5.1 0 01-5.1-5.1v-10.98a5.1 5.1 0 015.1-5.1h10.98a5.1 5.1 0 015.1 5.1v10.98a5.11 5.11 0 01-5.1 5.1z" fill="#FFF"/><path d="M176.18 180.11H165.2a5.77 5.77 0 01-5.78-5.78v-10.98c0-3.2 2.58-5.78 5.78-5.78h10.98c3.2 0 5.78 2.58 5.78 5.78v10.98a5.81 5.81 0 01-5.78 5.78zm-10.98-21.17a4.42 4.42 0 00-4.4 4.4v11c0 2.41 1.98 4.4 4.4 4.4h10.98a4.44 4.44 0 004.41-4.4v-11c0-2.41-1.99-4.4-4.4-4.4H165.2z" fill="#5A9DFF"/><path d="M173.33 175.8h-5.37a4.2 4.2 0 01-4.2-4.2v-5.37a4.2 4.2 0 014.2-4.2h5.37a4.2 4.2 0 014.2 4.2v5.36a4.2 4.2 0 01-4.2 4.2z" fill="#FFF"/><path d="M173.33 176.48h-5.37a4.9 4.9 0 01-4.88-4.89v-5.36a4.9 4.9 0 014.88-4.9h5.37a4.9 4.9 0 014.89 4.9v5.36a4.9 4.9 0 01-4.9 4.89zm-5.37-13.77a3.52 3.52 0 00-3.51 3.52v5.36a3.52 3.52 0 003.51 3.52h5.37a3.52 3.52 0 003.52-3.52v-5.36a3.52 3.52 0 00-3.52-3.52h-5.37z" fill="#5A9DFF"/><g fill="#5A9DFF"><path d="M165.35 174.86l9.54-12.7 1.1.82-9.55 12.7zM163.48 172.7l8.26-10.95 1.1.82-8.27 10.96zM168.48 175.4l8.26-10.96 1.1.83-8.27 10.96zM171.8 175.4l5.18-6.88 1.1.83-5.19 6.87zM163.21 168.56l5.17-6.83 1.1.82-5.17 6.84z"/></g></g></g><path d="M296.4 586.84l-1.32-.34c.25-1 25.55-101.9 36.17-137.81 3.83-12.95 3.06-22.59-2.36-29.42-12.35-15.64-47.35-13.77-81.17-11.96-10.6.57-21.58 1.16-31.46 1.16-21.01 0-34.62-4.84-40.44-14.4-2.95-4.87-3.82-11-2.5-17.75a35.8 35.8 0 012.93-8.82l1.21.64c-.07.14-7.2 14.18-.48 25.21 5.55 9.14 18.77 13.75 39.28 13.75 9.86 0 20.8-.6 31.4-1.16 34.17-1.83 69.52-3.73 82.33 12.46 5.69 7.22 6.53 17.25 2.58 30.65-10.62 35.94-35.92 136.79-36.17 137.8z" fill="#FFF"/></g><g transform="translate(63 343)"><path d="M89 160.91H60.8v-1.37H89c5.69 0 10.32-4.64 10.32-10.34v-12.6h1.37v12.6c0 6.45-5.25 11.71-11.68 11.71zM109.84 136.74h1.37v115.61h-1.37z" fill="#5A9DFF"/><path d="M162.09 289.42h-1.37c0-20.06-20.01-36.39-44.6-36.39h-11.37c-24.6 0-44.6 16.33-44.6 36.39h-1.38c0-20.82 20.63-37.76 45.98-37.76h11.36c25.35 0 45.98 16.94 45.98 37.76z" fill="#5A9DFF"/><path d="M216.91 138.43l-163.54.07a14.96 14.96 0 01-14.88-15.05l183.44-.16-5.02 15.14z" fill="#FFCF2D"/><ellipse fill="#FFCF2D" cx="58.45" cy="301.67" rx="12.23" ry="12.26"/><path d="M52.23 163.36h24.55c2 0 3.62-1.63 3.62-3.64v-.27a3.63 3.63 0 00-3.62-3.64H52.23c-2.01 0-3.63 1.62-3.63 3.64v.27a3.63 3.63 0 003.63 3.64zM158.1 124.6h-119L.99 17.53A13 13 0 012.62 5.58 12.96 12.96 0 0113.32.02h86.39c8.37 0 15.9 5.33 18.73 13.24l39.65 111.33zm-118.04-1.38h116.07l-38.97-109.5A18.6 18.6 0 0099.71 1.4H13.3a11.6 11.6 0 00-9.6 4.96 11.6 11.6 0 00-1.45 10.72l37.8 106.14z" fill="#FFCF2D"/><path d="M148.56 124.6H45.4v-1.38h101.2L108.94 17.38A17.93 17.93 0 0092.1 5.48H4.63V4.13h87.48a19.3 19.3 0 0118.11 12.8l38.34 107.67z" fill="#FFCF2D"/><ellipse fill="#FFCF2D" cx="161.2" cy="301.67" rx="12.23" ry="12.26"/></g></g></g></svg>