<svg width="200" height="217" xmlns="http://www.w3.org/2000/svg"><g fill="none" fill-rule="evenodd"><path d="M100 216.6a99.7 99.7 0 110-199.4 99.7 99.7 0 010 199.4z" fill="#FFF7DA"/><path d="M71.8 175A31 31 0 0068 153l-3.4-4.9a9.4 9.4 0 017.8-14.7h2.3c5 .5 9.4 5 9.8 10.2l.2-2c.4-4.7 4-8.5 8.5-9.3h-.1c40-6.4 56.8-38 56.8-38 3.3 5.9 5.2 12.7 5.2 20v24.2c0 4.8 1.8 9.4 5 13l2.7 3c1.3 1.4.7 3.6-1.2 3.6-1.4 0-3.1.6-4 1.5-1 1-1.6 2.3-1.6 3.7v13c0 5.6-4.6 10.2-10.2 10.2h-15.4v25.5a99.6 99.6 0 01-66.7-2l8.1-34.8" fill="#F2CCD1"/><path d="M63.7 209.8a100 100 0 01-60.5-69 49 49 0 0136.2-2A54 54 0 0153 83.2a53.8 53.8 0 0151.6-13.8l20 5.2c10.2 2.7 18.7 9 24 17.5l1.3 2s-16.9 31.7-56.8 38h.1c-4.6 1-8 4.7-8.5 9.3l-.2 2.1c-.4-5.1-4.7-9.7-9.8-10.2h-2.3c-7.5 0-12 8.4-7.8 14.7L68 153a31 31 0 013.9 22l-8.2 35" fill="#16797D"/><path d="M108.6 180.3l21.8 18.9v-12.9c-16.4-2.4-21.8-6-21.8-6z" fill="#E9BAC1"/><path d="M169.6 125.8c-5.2 0-9.4 5.3-9.4 11.9 0 6.5 4.2 11.8 9.4 11.8s9.4-5.3 9.4-11.8c0-6.6-4.2-11.9-9.4-11.9zm0 25c-5.9 0-10.6-6-10.6-13.1 0-7.2 4.7-13.1 10.6-13.1 5.8 0 10.6 5.9 10.6 13 0 7.3-4.8 13.1-10.6 13.1zM136.2 124.7a12.8 12.8 0 100 25.6 12.8 12.8 0 000-25.6zm0 26.8a14 14 0 110-28 14 14 0 010 28z" fill="#1167FE"/><path d="M78.4 145.3a.5.5 0 01-.5-.5c0-2.4-2-4.4-4.4-4.4a.5.5 0 110-1c3 0 5.4 2.4 5.4 5.4 0 .3-.2.5-.5.5M143 138c-.2 0-.4 0-.5-.2a7.4 7.4 0 00-6.3-3.5c-2.6 0-5 1.3-6.3 3.5a.5.5 0 01-.9-.6 8.4 8.4 0 0114.4 0 .5.5 0 01-.5.8" fill="#000838"/><path d="M136.2 134.3a.5.5 0 01-.5-.6v-2.1a.5.5 0 111 0v2.1c0 .3-.2.6-.5.6M138.8 134.5h-.3a.5.5 0 01-.2-.8l.8-1.7a.5.5 0 111 .4l-.9 1.8c0 .2-.3.3-.4.3M141.3 135.8c-.1 0-.2 0-.3-.2a.5.5 0 010-.7l1.2-1.5c.2-.3.5-.3.7-.1.3.2.3.5.1.7l-1.3 1.6-.4.2M131.3 135.8l-.4-.2-1.3-1.6a.5.5 0 01.8-.6l1.3 1.5a.5.5 0 01-.4.9M133.8 134.5a.5.5 0 01-.4-.3l-.9-1.8a.5.5 0 111-.4l.8 1.7a.5.5 0 01-.5.8" fill="#000838"/><path d="M150 53.2l-8.8 46a.5.5 0 01-.6.4.5.5 0 01-.4-.6l8.7-46a1 1 0 00-.9-1h-3.5l-9 47.1H64l-9-47.2h-3.6a1 1 0 00-.9 1L59.4 99a.5.5 0 01-1 .2l-8.8-46a2 2 0 012-2.3h3.8c2.8-3.6 12.4-7.6 23.6-7.6 8.8 0 16.4 3.2 20.8 5.4 4.3-2.2 12-5.4 20.7-5.4 11.3 0 20.8 4 23.7 7.6h3.8a2 2 0 012 2.3" fill="#FFF"/><path d="M99.8 99a.4.4 0 01-.5-.4V48.7a.4.4 0 111 0v49.9c0 .2-.3.4-.5.4" fill="#000838"/><path d="M100.4 99.1H64c3-3.1 10-5.3 18.2-5.3 8 0 15 2.2 18 5.3" fill="#000838"/><path d="M135.5 99.1H99.2c3-3.1 10-5.3 18.2-5.3 8.1 0 15.1 2.2 18.1 5.3" fill="#000838"/><path d="M119.4 41.5c0 6.2-2.7 11.7-7.1 15.3-3 2.4-4.6 6-4.6 9.9v3.9c0 3.6-3 6.5-6.5 6.5h-2.8a6.5 6.5 0 01-6.5-6.5v-4a13 13 0 00-4.7-10 19.6 19.6 0 1132.2-15" fill="#FDD042"/><path d="M99.8 22.6a19 19 0 00-19.1 19 19 19 0 006.8 14.7c3.1 2.6 4.9 6.4 4.9 10.4v3.9a6 6 0 006 6h2.8a6 6 0 006-6v-4c0-4 1.7-7.7 4.7-10.2a19 19 0 00-12.1-33.8zm1.4 55h-2.8a7 7 0 01-7-7v-4c0-3.6-1.7-7.1-4.6-9.5a20.1 20.1 0 1125.8.1 12.2 12.2 0 00-4.4 9.5v3.9a7 7 0 01-7 7z" fill="#FFF"/><path d="M86.4 35.8a.7.7 0 01-.6-1 15 15 0 019.4-8 .7.7 0 11.4 1.3c-3.8 1-6.9 3.7-8.5 7.3-.2.2-.4.4-.7.4M84.8 42.7a.7.7 0 01-.7-.7c0-.7 0-1.4.2-2.2a.7.7 0 111.3.2v2c0 .4-.4.7-.8.7" fill="#FFF"/><path d="M104.9 80.3H94.7a.6.6 0 110-1.2h10.2a.6.6 0 010 1.2M104.9 83H94.7a.6.6 0 110-1.3h10.2a.6.6 0 010 1.2M103 85.6h-6.4a.6.6 0 110-1.2h6.3a.6.6 0 010 1.2" fill="#FDD042"/><path d="M99.9 43c-1 0-2.1-.3-3-1.1l-.2-.4a3 3 0 00-4.3 0 .5.5 0 11-.7-.7 4 4 0 015.7 0l.3.3a3 3 0 004.3 0l.2-.1a4 4 0 015.7 0 .5.5 0 01-.7.7 3 3 0 00-4.3 0l-.2.2A4 4 0 01100 43M99.8 10.8a.9.9 0 01-.9-.9V1.6a.9.9 0 011.7 0V10c0 .5-.4 1-.8 1M112 12.7a.9.9 0 01-.6-1.3l4.1-6.1a.9.9 0 011.4 1l-4 6c-.3.3-.5.4-.8.4M87.6 12.7a.9.9 0 01-.7-.3l-4.1-6.1a.9.9 0 111.4-1l4.2 6a.9.9 0 01-.8 1.4" fill="#000838"/></g></svg>