<?xml version="1.0" encoding="UTF-8" standalone="no"?> <svg id="Layer_1" data-name="Layer 1" xmlns="http://www.w3.org/2000/svg" viewBox="0 0 128 128"><defs><style>.cls-1{fill:#2e79bd;}.cls-2{fill:#2d3e50;}</style></defs><title>b</title><path class="cls-1" d="M35.25621,59.33077A2.33353,2.33353,0,0,0,36.694,58.9577c.1796-.1032.35572-.21647.52944-.32823a6.10509,6.10509,0,0,1,.7971-.461,1.83993,1.83993,0,0,1,.196-.0732,10.9005,10.9005,0,0,1,.0021,3.23027c-.05084.53567-.09895,1.04181-.11263,1.53206-.05282,1.58983-.08113,3.32368-.08648,5.29922-.00454.45734.00524.95853.0191,1.5076.00408.19882.00821.3984.0226.6055.01176.34011.02562.69559.04292,1.08933-.0145.01287-.031.02621-.04921.04106l-.03669.03127a3.16061,3.16061,0,0,1-.8579.35676l-.184.05754c-.15544.05113-.345.098-.55011.14874-.96762.24058-2.4295.60357-2.28257,1.933a1.82444,1.82444,0,0,0,.76012,1.17459,1.37274,1.37274,0,0,0,1.58587.0382c.07524-.03226.15153-.06482.2301-.09563l.19579-.07944c.12236-.05032.24466-.10087.38268-.149a14.57206,14.57206,0,0,1,1.41547-.50428c.00641-.008.03325.00565.07548.03226a1.95175,1.95175,0,0,1,.33638.30441,1.54941,1.54941,0,0,0,.49729.39968,1.96763,1.96763,0,0,0,.86285.06162,2.66268,2.66268,0,0,0,1.26678-.45361.88763.88763,0,0,0,.39567-.82389c-.01083-.09877-.03675-.227-.0686-.38041l-.0251-.12125c-.02-.08683-.032-.16149-.043-.22736l-.02166-.12795a4.1293,4.1293,0,0,1,1.39386-.50364l.30144-.07408a4.198,4.198,0,0,0,1.56782-.61808c.29387-.21111.27948-.67416.243-1.0039a1.79,1.79,0,0,0-.06627-.31332,2.89672,2.89672,0,0,0-.45443-.93186.59.59,0,0,0-.382-.225,1.36845,1.36845,0,0,0-.68546.17413c-.05568.025-.10838.049-.155.06651q-.4132.15488-.82831.30406a15.6476,15.6476,0,0,1-1.54627.48867c-.04321.01066-.07891.01858-.108.02417L41.24,70.25091l-.01281-.04636a3.5,3.5,0,0,1-.07379-.4433,2.09374,2.09374,0,0,1-.01526-.21926l-.01735-.15474c-.00355-.07122-.00874-.14012-.0138-.20669-.00524-.06756-.01048-.13278-.01275-.197-.00291-.06552-.0074-.12667-.01147-.18368-.00425-.05853-.00821-.1124-.01077-.18659-.00617-.05515-.00868-.10273-.01095-.144-.00221-.04053-.00443-.07635-.00792-.10751a44.86346,44.86346,0,0,1,.15072-8.444c.03069-.36387.04729-.72308.06371-1.07938a14.348,14.348,0,0,1,.1732-1.916,5.5579,5.5579,0,0,1,.17885-.80758,4.42449,4.42449,0,0,0,.12177-.59222,3.14175,3.14175,0,0,0-.20051-1.74608,1.13659,1.13659,0,0,0-1.04566-.68889.69434.69434,0,0,0-.26446.00128,2.64211,2.64211,0,0,0-1.19888.68132c-.08823.07262-.17075.14041-.24355.19451-.34284.25194-.68208.51307-1.02248.77543-.31064.23889-.62192.47889-.93832.71294l-.09132.0732c-.29981.22119-.60526.43387-.912.64731l-.36381.254c-.2252.1598-.4514.31081-.67789.46194-.05393.03611-.11933.07239-.18735.11059a1.622,1.622,0,0,0-.53887.40924.94885.94885,0,0,0-.09825.967A1.80938,1.80938,0,0,0,35.25621,59.33077Z"/><path class="cls-1" d="M47.794,64.55177a3.54016,3.54016,0,0,1,.35356-.07053c.78108-.09429,1.54609-.18071,2.30633-.2008.13517-.0032.25875-.01235.36934-.02056l.03552-.00245.00536.14565c.01549.42845.02964.81946.034,1.16953l.00262.06756a.2528.2528,0,0,0,.00215.052,7.34912,7.34912,0,0,0,.15421,1.94688c.16091.57719.63427.82651,1.407.74107l.0067-.00076A1.03623,1.03623,0,0,0,53.218,68.047a.90614.90614,0,0,0,.10483-.71755c-.024-.13727-.04-.28362-.05929-.4585l-.008-.07122a18.21257,18.21257,0,0,1-.12585-2.38128c.01829-.13476.03785-.25345.0728-.40522.09947-.01171.18822-.024.25438-.03716a2.425,2.425,0,0,0,.39159-.044,10.09194,10.09194,0,0,1,1.69233-.18356c.12935-.00408.26329.00017.39852.00408a3.40583,3.40583,0,0,0,.95516-.0608.929.929,0,0,0,.61458-.40469,1.264,1.264,0,0,0,.015-.96447,1.24114,1.24114,0,0,0-.95562-1.01316,5.31573,5.31573,0,0,0-2.04886.06971,7.4007,7.4007,0,0,1-1.265.13534c-.09417-.00146-.1849-.00722-.26213-.01316a13.27938,13.27938,0,0,1-.21822-1.35694c-.00973-.08672-.01235-.22381-.01648-.39077-.02324-.94659-.08491-1.90507-.5532-2.314a.75913.75913,0,0,0-.59793-.18415,1.17763,1.17763,0,0,0-.84858.45868c-.48943.66071-.26539,1.85085-.08538,2.80723a6.10658,6.10658,0,0,1,.138.96849,2.96065,2.96065,0,0,1-.03116.3945l-.00489.03087q-.32147.04036-.67305.1004l-.28036.04816c-.59315.10244-1.20511.21006-1.81131.26353-.08118.00757-.18619.00786-.30278.009-.53363.00454-1.2648.01118-1.50183.53066a1.39884,1.39884,0,0,0,.17838,1.53229A1.43808,1.43808,0,0,0,47.794,64.55177Z"/><path class="cls-1" d="M60.66412,72.65484a1.157,1.157,0,0,0,.72407.16079,2.76461,2.76461,0,0,0,1.33871-.75948,4.50859,4.50859,0,0,1,.52839-.40493,11.24431,11.24431,0,0,1,2.83518-1.17331A15.87863,15.87863,0,0,1,68.47588,70a27.59546,27.59546,0,0,1,3.64923-.16021c.0887.00128.17436.00629.25694.01136a1.31642,1.31642,0,0,0,1.24326-.41442,2.20122,2.20122,0,0,0,.45548-1.5193l-.0081-.17436a1.02222,1.02222,0,0,0-.35187-.74905.96285.96285,0,0,0-.75406-.10675c-.05469.0085-.10855.01718-.163.02067-.15631.01281-.31262.0233-.46922.03413-.15887.01054-.3178.02131-.47207.034-1.16976.07577-2.37971.15392-3.56595.28507l-.17058.01864c-.46841.05055-.8696.10419-1.21309.1506.42246-.32718.8452-.68394,1.26306-1.06621.07355-.06342.14682-.1322.221-.2022.06045-.05719.12189-.115.18555-.17128l.00949-.00885c.33871-.33038.68447-.67975,1.00961-1.02918a2.25684,2.25684,0,0,0,.16883-.17151l.093-.09953a25.7857,25.7857,0,0,0,2.289-2.878c.442-.63863.8229-1.22887,1.16539-1.80542l.18654-.31559a7.09851,7.09851,0,0,0,1.37348-3.86849,4.2669,4.2669,0,0,0-.16592-.97758,7.24437,7.24437,0,0,0-3.60339-4.11035,6.1441,6.1441,0,0,0-1.73269-.58529A7.0969,7.0969,0,0,0,64.52452,51.152a1.11743,1.11743,0,0,0-.16248.09761,15.21937,15.21937,0,0,0-1.90827,1.29124l-.05113.03978-.02714.05835a1.5254,1.5254,0,0,0-.07734,1.037,2.03359,2.03359,0,0,0,.628,1.06126,1.35109,1.35109,0,0,0,1.1888.36614l.06977-.01386.05381-.04653c.10366-.0905.21647-.18182.32933-.2697a11.27166,11.27166,0,0,1,1.1393-.84445l.05894-.0385a.59437.59437,0,0,0,.07111-.04583,4.8983,4.8983,0,0,1,1.23033-.58535,2.72041,2.72041,0,0,1,.51628-.08206,3.421,3.421,0,0,1,2.825,1.30109,3.19322,3.19322,0,0,1,.5854,2.8816A14.80175,14.80175,0,0,1,67.94388,62.31c-.278.33685-.56444.67462-.86139,1.00495-.38693.43212-.79081.8547-1.19806,1.25409a18.02373,18.02373,0,0,1-2.56228,2.07279c-.40108.26393-.76827.50632-1.1071.75435a6.59979,6.59979,0,0,0-1.89785,2.112l-.029.05556c-.016.02947-.032.05923-.04315.08345C59.84122,70.484,59.59785,72.04037,60.66412,72.65484Z"/><path class="cls-1" d="M80.162,58.74542q.11068-.0124.22136-.034c.723-.1421,1.44843-.30377,2.1757-.46561a44.28713,44.28713,0,0,1,4.3712-.82063,29.33959,29.33959,0,0,1,3.92982-.118l.86069.0099c1.53113.00926,1.77584-.842,1.78545-1.35193a1.81711,1.81711,0,0,0-.02877-.35379,2.05,2.05,0,0,0-1.20529-1.5175,4.88422,4.88422,0,0,0-2.658-.13505c-.62815.10739-1.25426.22369-1.88061.3397-1.40906.26172-2.88247.52932-4.3182.69245a22.13148,22.13148,0,0,0-4.01834.72978,1.74417,1.74417,0,0,0-1.18426.85365,1.39658,1.39658,0,0,0,.06808,1.54778A2.12463,2.12463,0,0,0,80.162,58.74542Z"/><path class="cls-1" d="M90.23847,59.60612c-.6299.10756-1.25782.2241-1.886.34057-1.40725.26125-2.88224.54237-4.31308.69157a22.08534,22.08534,0,0,0-4.01781.72948,1.74419,1.74419,0,0,0-1.1845.85371,1.39706,1.39706,0,0,0,.06779,1.54778,2.12554,2.12554,0,0,0,1.88166.62343c.07355-.00827.14752-.01968.22084-.034.72244-.14227,1.44715-.30359,2.17419-.46514a44.31628,44.31628,0,0,1,4.37271-.82133,29.65578,29.65578,0,0,1,3.92772-.11776l.863.0099c1.53345.01083,1.7759-.842,1.78533-1.35135a1.80922,1.80922,0,0,0-.02859-.35467,2.04964,2.04964,0,0,0-1.20534-1.51721A4.87888,4.87888,0,0,0,90.23847,59.60612Z"/><path class="cls-2" d="M119.07692,14.20075H68.52171V7.759a4.52171,4.52171,0,1,0-9.04343,0v6.44178H8.92308a5.85134,5.85134,0,0,0-5.85137,5.85131v1.095a5.8513,5.8513,0,0,0,5.85137,5.85131V97.239a4.89812,4.89812,0,0,0,4.89808,4.89813H35.92868l-4.551,16.60815a4.75928,4.75928,0,0,0,9.18029,2.51505l2.13866-7.81153,1.00454-3.66629,2.09469-7.64538H82.20418l2.09463,7.64538,1.0046,3.66629,2.1386,7.81153a4.75683,4.75683,0,0,0,4.58283,3.50247,4.81074,4.81074,0,0,0,1.26364-.171,4.75652,4.75652,0,0,0,3.33387-5.84647l-4.5511-16.60815h22.11a4.89571,4.89571,0,0,0,4.89569-4.89569v-70.243a5.85134,5.85134,0,0,0,5.85137-5.85131v-1.095A5.85137,5.85137,0,0,0,119.07692,14.20075Zm-8.06574,79.87063H16.98881V31.35149h94.02237Z"/></svg>