<svg xmlns="http://www.w3.org/2000/svg" width="883" height="639"><g fill="none" fill-rule="evenodd"><g fill-rule="nonzero"><g fill="#377FFF"><path d="M238.59 632.64h-.09a.82.82 0 01-.73-.9l29.06-293.36a.82.82 0 01.9-.73c.44.05.79.43.74.9L239.4 631.9c-.05.4-.4.74-.81.74zM415 632.64a.85.85 0 01-.81-.74l-29.07-293.36a.82.82 0 01.74-.9.8.8 0 01.9.74l29.06 293.36a.82.82 0 01-.73.9H415z"/><path d="M406.18 546.85c-.11 0-.22-.03-.33-.06a210.38 210.38 0 00-61.83-15.5 200.74 200.74 0 00-50.11 1.72c-28.14 4.54-45.71 13.67-45.9 13.75-.4.22-.9.06-1.12-.35a.82.82 0 01.36-1.11c.16-.09 17.95-9.33 46.3-13.92a202.93 202.93 0 0150.55-1.74 212 212 0 0162.35 15.63c.4.16.63.65.44 1.06-.09.33-.38.52-.71.52z"/></g><path fill="#D0F0E4" d="M402.37 338.46H254.85c-9.8 0-17.76-7.94-17.76-17.72v-7.4h183.03v7.37c0 9.81-7.95 17.75-17.75 17.75z"/><path fill="#377FFF" d="M402.37 339.28H254.85a18.58 18.58 0 01-18.58-18.54v-7.4a.8.8 0 01.82-.81h183.03a.8.8 0 01.82.81v7.37a18.59 18.59 0 01-18.57 18.57zM237.9 314.16v6.58c0 9.32 7.6 16.9 16.95 16.9h147.52c9.34 0 16.94-7.58 16.94-16.93v-6.55H237.9z"/></g><g fill-rule="nonzero"><path fill="#9A3B82" d="M272.56 548.09c-2.93 0-5.7-1.2-7.9-3.38a14.15 14.15 0 01-4-9.26c-.18-3.57.86-7.03 2.96-9.71l7.25-9.18.38.5c1.9 2.54 4.14 5.1 6.69 7.67 2.45 2.45 4.9 3.57 7.24 4.62 1.21.55 2.35 1.05 3.45 1.75l.28.16v.35s0 .62-.03 1.2v1.44l-.14.15-7.25 9.18a11.35 11.35 0 01-8.2 4.5c-.25-.03-.49 0-.73 0zm-1.7-29.78l-6.44 8.17a13.25 13.25 0 00-2.73 8.9 12.84 12.84 0 003.66 8.43 10.07 10.07 0 007.86 3.07 10.5 10.5 0 007.52-4.12l7.11-9.02v-1-.86c-.97-.58-2-1.01-3.07-1.52-2.35-1.05-4.97-2.25-7.55-4.86a74.13 74.13 0 01-6.35-7.19z"/><path fill="#FFF" d="M240.89 534.6l32.94-34.01 38.33 15.47-38.01 61.68c-3.04 4.94-9.11 6.1-13.46 2.6l-18.25-14.84c-9.04-7.42-9.83-22.39-1.55-30.9z"/><path fill="#45BBC0" d="M266.25 583.34a9.46 9.46 0 01-6.08-2.21l-18.24-14.85c-4.56-3.73-7.32-9.49-7.63-15.82-.3-6.3 1.86-12.32 6-16.56l33.33-34.4 39.88 16.1-38.67 62.73c-1.6 2.6-4 4.31-6.77 4.86-.58.07-1.2.15-1.82.15zm7.8-81.62l-32.57 33.62a20.22 20.22 0 00-5.45 15.04c.27 5.75 2.8 11 6.93 14.38l18.25 14.85a7.86 7.86 0 006.59 1.67 8.74 8.74 0 005.66-4.04l37.36-60.64-36.78-14.88z"/><g><path fill="#D66372" d="M399.95 326.02c2.18 11.98.63 25-5.51 36.66l-81 153.34c-.76 3.46-10.52 4-21.77 1.01-11.28-3-19.8-8.32-19.08-11.78l37.7-180.78c5.8-27.8 30.5-45.05 55.2-38.52 18.42 4.9 31.05 21.22 34.46 40.07z"/><path fill="#000838" d="M400.78 340.1a43.39 43.39 0 00-17.83-9.6c-24.67-6.54-49.37 10.68-55.2 38.51L296.64 518.2a52.53 52.53 0 01-5-1.13c-11.29-3-19.8-8.32-19.08-11.78l37.7-180.78c5.8-27.8 30.5-45.05 55.2-38.52 18.42 4.9 31.04 21.22 34.5 40.07.86 4.55 1.13 9.3.82 14.04z"/><path fill="#16797D" d="M289 431l-16.4 74.25c-.73 3.46 7.79 8.83 19.07 11.78 11.28 3 21.04 2.45 21.77-1.01L349 448l-60-17z"/><path fill="#FFF" d="M349.24 449.24c-.06 0-.17 0-.24-.04L287.87 433c-.55-.16-.9-.78-.75-1.4.13-.63.69-1.02 1.24-.86l61.13 16.2c.55.16.9.79.75 1.4-.1.55-.51.9-1 .9zM342.38 462.03c-.07 0-.17 0-.24-.04l-57.16-15.12c-.55-.15-.9-.78-.76-1.4.14-.62.69-1 1.24-.85l57.16 15.12c.55.15.9.77.76 1.4-.1.54-.52.89-1 .89zM335.51 474.82c-.06 0-.17 0-.24-.04l-53.16-14.07c-.55-.16-.9-.78-.75-1.4.13-.62.68-1.01 1.24-.86l53.16 14.07c.55.16.9.78.76 1.4-.1.55-.52.9-1 .9zM328.68 487.6c-.06 0-.17 0-.24-.03l-49.22-13.02c-.56-.16-.9-.78-.76-1.4.14-.63.69-1.01 1.24-.86l49.23 13.02c.55.16.9.78.75 1.4-.1.55-.51.9-1 .9zM321.82 500.4c-.07 0-.17 0-.24-.04l-45.26-11.98c-.55-.15-.9-.77-.76-1.4.14-.62.69-1 1.24-.85l45.26 11.97c.55.16.9.78.76 1.4-.1.54-.52.9-1 .9zM315.47 513.34c-.07 0-.17 0-.24-.04l-41.8-11.08c-.56-.15-.9-.78-.77-1.4.14-.62.7-1 1.24-.85l41.81 11.07c.56.16.9.78.76 1.4-.1.55-.51.9-1 .9z" opacity=".7"/></g></g><path fill="#E57281" fill-rule="nonzero" d="M326.5 585.33l4.93-220.73c0-25.12-7.23-50.31-32.58-50.31l-8.5-1.06c-31.05 0-33.54 22.2-30.35 54.77l23 161 12.66 45.16c-1.83 10.87-8.5 15.8 2.1 19.12l13.26 4.17c10.09 3.14 15.48-1.63 15.48-12.12z"/><path fill="#45BBC0" fill-rule="nonzero" d="M329.3 451.22v106.06c0 3.58-9.39 6.57-20.99 6.57-11.57 0-21-3.03-21-6.61l-10.79-75.48h53.17l-.38-30.54z"/><path fill="#FFF" fill-rule="nonzero" d="M329.65 554.56c-.59 0-1.03-.36-1.03-.82l-.35-71.74h-70.65c-.6 0-1.04-.36-1.04-.82 0-.47.45-.82 1.04-.82h72.72l.35 73.38c0 .43-.45.82-1.04.82z"/><g fill-rule="nonzero"><path fill="#FFF" d="M280.34 603.58c-1.83 12.37 4.7 24.4 15.3 28.17l13.26 4.75c10.08 3.61 20.4-4.87 20.4-16.81l-1.17-62.41c0 3.58-8.22 6.57-19.79 6.57-11.56 0-20.2-3.93-20.23-7.5l-7.77 47.23z"/><path fill="#45BBC0" d="M313.7 638.32c-1.7 0-3.39-.3-5.04-.89l-13.27-4.75c-10.94-3.89-17.78-16.46-15.88-29.26l7.73-47.27 1.73.16c.04 2.6 7.77 6.53 19.37 6.53 5.43 0 10.4-.66 13.99-1.9 3.66-1.25 4.94-2.73 4.94-3.7l1.73-.04 1.17 62.41c0 6.03-2.45 11.48-6.77 15.06a15.07 15.07 0 01-9.7 3.65zm-32.5-34.58c-1.76 11.82 4.6 23.46 14.71 27.08l13.26 4.74c4.56 1.64 9.36.74 13.23-2.41 3.87-3.2 6.08-8.1 6.08-13.46l-1.1-59.18c-3.4 2.96-11.4 4.32-19 4.32-8.95 0-16.85-2.42-19.82-5.64l-7.36 44.55z"/></g><path fill="#45BBC0" fill-rule="nonzero" d="M317.88 571.56v11.6c0 7.11-5.12 12.87-11.43 12.87-3.15 0-6.01-1.44-8.09-3.77a13.72 13.72 0 01-3.35-9.1v-12.3-.08c3.63.93 8.26 1.52 13.27 1.52 3.48 0 6.73-.27 9.6-.74z"/><path fill="#FFF" fill-rule="nonzero" d="M328.4 482.96H275.9c-.5 0-.88-.5-.88-1.16 0-.66.38-1.17.88-1.17h52.48c.5 0 .88.5.88 1.17 0 .66-.38 1.16-.88 1.16zM328.24 497.17h-57.95c-.59 0-1.04-.51-1.04-1.17 0-.66.45-1.17 1.04-1.17h57.95c.58 0 1.03.5 1.03 1.17 0 .66-.45 1.17-1.03 1.17zM328.24 511.4h-53.88c-.58 0-1.03-.5-1.03-1.16 0-.66.45-1.17 1.03-1.17h53.88c.58 0 1.03.5 1.03 1.17 0 .66-.45 1.17-1.03 1.17zM328.24 525.65h-49.77c-.58 0-1.03-.5-1.03-1.17 0-.66.45-1.17 1.03-1.17h49.77c.58 0 1.03.5 1.03 1.17 0 .66-.45 1.17-1.03 1.17zM328.24 539.89h-45.7c-.58 0-1.03-.5-1.03-1.17 0-.66.45-1.17 1.04-1.17h45.69c.58 0 1.03.5 1.03 1.17 0 .66-.45 1.17-1.03 1.17zM328.24 554.13H286.1c-.6 0-1.04-.5-1.04-1.17 0-.66.45-1.17 1.04-1.17h42.13c.58 0 1.03.5 1.03 1.17 0 .66-.45 1.17-1.03 1.17z"/><path fill="#000838" d="M259 357c5.94-17.33 17.5-26 34.68-26 17.17 0 29.61 8.67 37.32 26 4.6-23.16 3.06-38.49-4.62-46-7.68-7.51-23.87-9.51-48.56-6-8.59 2-14.2 8-16.84 18-2.65 10-3.3 21.33-1.99 34z"/><g fill-rule="nonzero"><path fill="#377FFF" d="M559.2 604.79a.76.76 0 01-.76-.77c0-9.78 7.95-17.73 17.72-17.73h8.06a28.67 28.67 0 0028.62-28.62V433.9a28.67 28.67 0 00-28.62-28.62h-20.5a.76.76 0 01-.77-.77c0-.44.34-.77.77-.77h20.5a30.21 30.21 0 0130.16 30.16v123.76a30.21 30.21 0 01-30.16 30.16h-8.06a16.2 16.2 0 00-16.18 16.19c0 .43-.34.77-.77.77z"/><g transform="translate(544.54 598.14)"><circle cx="15.44" cy="15.54" r="14.62" fill="#FFF"/><path fill="#377FFF" d="M15.44 30.93a15.4 15.4 0 010-30.78 15.4 15.4 0 010 30.78zm0-29.24a13.86 13.86 0 10.02 27.72 13.86 13.86 0 00-.02-27.72z"/></g><path fill="#D0F0E4" d="M557.1 404.52h125.4a10.2 10.2 0 0010.21-10.21v-8.6a10.2 10.2 0 00-10.2-10.2H557.1a11.75 11.75 0 00-11.75 11.74v5.5c0 6.5 5.25 11.77 11.74 11.77z"/><path fill="#377FFF" d="M682.5 405.29H557.1c-6.9 0-12.51-5.62-12.51-12.55v-5.49c0-6.9 5.61-12.51 12.51-12.51h125.4c6.06 0 10.98 4.92 10.98 10.97v8.6c0 6.05-4.92 10.98-10.98 10.98zm-125.4-29.01a10.99 10.99 0 00-10.97 10.97v5.5a11 11 0 0010.97 11h125.4c5.21 0 9.44-4.24 9.44-9.44v-8.6c0-5.2-4.23-9.43-9.44-9.43H557.1z"/><g><path fill="#377FFF" d="M678.94 604.79a.76.76 0 01-.77-.77 16.2 16.2 0 00-16.19-16.19h-8.05a30.21 30.21 0 01-30.16-30.16V433.9a30.21 30.21 0 0130.16-30.16h20.5c.43 0 .76.33.76.77 0 .43-.33.77-.77.77h-20.49a28.67 28.67 0 00-28.62 28.62v123.76a28.67 28.67 0 0028.62 28.62h8.05c9.78 0 17.73 7.95 17.73 17.73 0 .43-.34.77-.77.77z"/><g transform="translate(662.78 598.14)"><circle cx="15.42" cy="15.54" r="14.62" fill="#FFF"/><path fill="#377FFF" d="M15.42 30.93a15.4 15.4 0 010-30.78 15.4 15.4 0 010 30.78zm0-29.24a13.86 13.86 0 10.01 27.72 13.86 13.86 0 00-.01-27.72z"/></g></g><g><path fill="#FFF" d="M446.2 573l9.23 18.91a46.38 46.38 0 014.72 20.34v14.34a4.58 4.58 0 01-4.64 4.51H350.04c-2.8 0-5.06-2.2-5.06-4.92v-4.44c0-1.8 1-3.44 2.62-4.3 10.95-5.88 46.32-24.25 53.17-43.87l45.43-.56z"/><path fill="#FFCF2D" d="M455.5 631.87H350.05a5.78 5.78 0 01-5.83-5.7v-4.43a5.64 5.64 0 013.03-4.98l1.16-.61c6.05-3.23 17.33-9.29 27.98-16.88 12.93-9.26 20.9-17.98 23.67-25.93l.18-.51 46.45-.57 9.44 19.34a47.61 47.61 0 014.8 20.68v14.33c0 2.9-2.44 5.26-5.41 5.26zm-54.19-57.53c-7.13 19.06-39.8 36.55-52.2 43.14l-1.15.62a4.16 4.16 0 00-2.2 3.64v4.44a4.23 4.23 0 004.28 4.15H455.5a3.81 3.81 0 003.87-3.74v-14.34c0-6.87-1.62-13.77-4.64-20l-9.03-18.47-44.4.56z"/><path fill="#FFF" d="M459.5 604.6h-8.25a22.16 22.16 0 00-18.75 10.21l-3.51 5.6a11.6 11.6 0 01-9.83 5.36h-74.12"/><path fill="#FFCF2D" d="M419.16 626.54h-74.12V625h74.12c3.72 0 7.23-1.93 9.18-5l3.52-5.6a23.08 23.08 0 0119.39-10.56h8.26v1.54h-8.26a21.53 21.53 0 00-18.1 9.85l-3.52 5.59a12.24 12.24 0 01-10.47 5.72zM453.12 587.2c-7.92.25-18.44-.57-31.14-2.88a135.55 135.55 0 01-23.16-6.41c.8-1.44 1.44-2.88 1.95-4.31l45.43-.6 6.92 14.2z"/><g fill="#FF6576"><path d="M378.79 599.14h-.08a.78.78 0 01-.64-.51l-5.18-14.8a8.36 8.36 0 018.1-11.08 8.16 8.16 0 017.11 4.41 8.21 8.21 0 01-.3 8.36l-8.37 13.26a.73.73 0 01-.64.36zm1.95-24.85c-2.18 0-4.16 1-5.46 2.8a6.74 6.74 0 00-.95 6.25l4.64 13.29 7.51-11.9a6.77 6.77 0 00-5.54-10.42c-.05-.02-.12-.02-.2-.02z"/><path d="M365.58 601.84a6.46 6.46 0 01-6.41-7.47 6.37 6.37 0 014.08-5.05 6.38 6.38 0 016.43 1.05l9.14 7.52c.23.18.33.48.25.77a.78.78 0 01-.59.56l-11.57 2.49c-.43.08-.87.13-1.33.13zm0-11.44a4.94 4.94 0 101 9.77l10-2.16-7.9-6.51a4.88 4.88 0 00-3.1-1.1z"/><path d="M398.26 598.84H377.5a.76.76 0 01-.77-.77c0-.44.33-.77.77-.77h20.75c.43 0 .77.33.77.77 0 .43-.34.77-.77.77zM392.18 604.63h-20.73a.76.76 0 01-.77-.77c0-.43.34-.77.77-.77h20.73c.43 0 .77.34.77.77 0 .44-.34.77-.77.77zM407.03 592.76h-20.21a.76.76 0 01-.77-.77c0-.44.33-.77.77-.77h20.21c.44 0 .77.33.77.77 0 .43-.33.77-.77.77z"/></g><g><path fill="#FFF" d="M569.5 308.64l-47.59 18-45.76 238.31c-1.84 4.36-26.1 10.62-48.75 10.62-23.86 0-43.17-6.64-43.17-11.34l28.1-218.89a57.84 57.84 0 0157.39-50.55h98.87l.47 13.82.43.03z"/><path fill="#3FB1B5" d="M427.4 576.34c-11 0-21.9-1.41-30.76-3.95-3.97-1.15-13.18-4.23-13.18-8.16v-.1l28.1-218.89a58.6 58.6 0 0158.15-51.22h99.63l.46 13.87 3.33.21-50.55 19.13-45.68 237.98-.03.08c-1.46 3.43-12.46 6.3-17.1 7.38a151.28 151.28 0 01-32.37 3.67zM385 564.3c.07 1.56 3.84 4.28 12.08 6.64 8.7 2.51 19.47 3.87 30.32 3.87 10.28 0 21.95-1.33 32-3.64 10.03-2.3 15.24-4.87 16.01-6.44l45.81-238.64 47.04-17.8-.43-12.72h-98.14a57.08 57.08 0 00-56.6 49.89l-28.1 218.84z"/></g><path fill="#3FB1B5" d="M426.09 576.29h-.1a.78.78 0 01-.67-.87l27.75-216.1c1.87-14.72 9.39-27.31 21.73-36.42 12.97-9.6 30.65-14.67 51.06-14.67.44 0 .77.33.77.77 0 .43-.33.77-.77.77-20.08 0-37.45 4.97-50.14 14.36-12 8.88-19.29 21.11-21.11 35.4l-27.75 216.1a.77.77 0 01-.77.66z"/><path fill="#3FB1B5" d="M547.4 306.07L496.2 462.71l-19.96-63.81c-12.31-40.8 9.88-92.83 71.18-92.83z"/><g><path fill="#FFF" d="M603.58 572.06L622.02 618c2.57 6.36-2.49 13.15-9.77 13.15h-69.46c-3.44 0-6.23-2.59-6.23-5.82v-4.62c0-2.1.67-4.13 1.95-5.87l12.18-13.31c7.1-7.75 11-17.62 11-27.8v-.13l41.9-1.54z"/><path fill="#FFCF2D" d="M612.25 631.92h-69.46c-3.87 0-7-2.95-7-6.59v-4.62c0-2.28.72-4.46 2.1-6.33l.05-.05 12.19-13.31a40.32 40.32 0 0010.8-27.3v-.87l43.16-1.59 18.65 46.45c1.26 3.1.9 6.52-1 9.31a11.35 11.35 0 01-9.49 4.9zm-73.15-16.6a9.15 9.15 0 00-1.77 5.4v4.61c0 2.8 2.46 5.05 5.46 5.05h69.46a9.82 9.82 0 008.2-4.2 8.24 8.24 0 00.85-7.88l-18.23-45.42-40.6 1.49a41.96 41.96 0 01-11.21 27.7l-12.16 13.26z"/><path fill="#FFF" d="M541.07 612.12a29.31 29.31 0 0112.4-2.74h22.28c3.95 0 7.85.8 11.44 2.33l8.16 3.46"/><path fill="#FFCF2D" d="M595.04 615.9l-8.16-3.47a27.98 27.98 0 00-11.13-2.28h-22.29c-4.15 0-8.3.92-12.05 2.66l-.64-1.38a30.19 30.19 0 0112.72-2.82h22.29c4.07 0 8.02.8 11.74 2.38l8.16 3.47-.64 1.43zM604.45 574.16c-1.43 5.67-20.5 10.18-43.78 10.18h-.39a40.2 40.2 0 001.44-10.64v-.13l41.89-1.51.84 2.1z"/><g fill="#FF6576"><path d="M568.18 595.78a.74.74 0 01-.66-.4.8.8 0 01.02-.8l8.06-12.19c0-.02.02-.02.02-.05a8.32 8.32 0 016.98-3.2 8.24 8.24 0 016.72 12.23 8.22 8.22 0 01-7.13 4.26l-14 .15zm8.67-12.51l-7.23 10.95 12.6-.1a6.66 6.66 0 005.8-3.47 6.68 6.68 0 00-.14-6.74 6.5 6.5 0 00-5.33-3.2 6.68 6.68 0 00-5.7 2.56z"/><path d="M556.46 595.86a6.42 6.42 0 01-1.05-12.75c2.3-.38 4.57.49 6.03 2.31l7.33 9.1a.77.77 0 01-.59 1.26l-11.7.08h-.02zm0-11.29c-.25 0-.54.03-.82.08a4.89 4.89 0 00.77 9.7h.03l10.1-.08-6.33-7.87a4.66 4.66 0 00-3.75-1.83z"/></g><path fill="#FF6576" d="M590.78 601.02h-30.4a.76.76 0 01-.76-.77c0-.44.33-.77.77-.77h30.4c.43 0 .76.33.76.77 0 .43-.33.77-.77.77z"/><g><path fill="#FFF" d="M619.69 559.85c0 5.56-20.11 16-41.1 16-18.84 0-34.46-3.74-37.41-8.49l-51.87-165.9c-14.39-47.63 21.27-95.64 71-95.64h8.52l-1.21-42.79h106.5l10.49 43.53c8.46 35.14-18.16 69.82-54.3 69.82H582.5l37.19 183.47z"/><path fill="#3FB1B5" d="M578.6 576.62c-18.88 0-34.89-3.72-38.07-8.85l-.05-.07-.02-.1-51.87-165.9a74.13 74.13 0 01-2-35.43 75.56 75.56 0 0139.27-52.89 73.86 73.86 0 0134.45-8.33h7.72l-1.2-42.79H674.7l.15.6 10.5 43.52a57.38 57.38 0 01-10.86 49.12c-10.85 13.75-26.93 21.65-44.2 21.65h-46.85l37 182.62v.08c0 3.77-6.79 8.05-13.12 10.8a75.22 75.22 0 01-28.73 5.97zm-36.73-9.59c1.38 2.08 5.82 4.13 12.2 5.6 6.86 1.56 15.55 2.43 24.5 2.43 9.26 0 19.5-2.13 28.11-5.85 8.29-3.6 12.14-7.31 12.21-9.31l-37.37-184.32h48.76a54.5 54.5 0 0042.99-21.05 55.77 55.77 0 0010.57-47.82l-10.34-42.93H568.4l1.2 42.78h-9.3a72.45 72.45 0 00-33.73 8.16 74.12 74.12 0 00-25.2 21.5 73.74 73.74 0 00-13.28 30.33 72.66 72.66 0 001.95 34.68l51.84 165.8z"/><path fill="#3FB1B5" d="M586.63 575.83a.77.77 0 01-.75-.54l-49.01-156.82c-4.47-12.9-6.62-24.57-6.39-34.6.23-9.88 2.77-18.26 7.54-24.96 4.46-6.26 10.9-11.05 19.14-14.26 8.15-3.15 18.1-4.77 29.62-4.77h42.86a23.82 23.82 0 0023.8-23.8v-52.94c0-.44.34-.77.77-.77.44 0 .77.33.77.77v52.94a25.36 25.36 0 01-25.34 25.34h-42.86c-11.31 0-21.08 1.56-29.06 4.64-7.95 3.08-14.16 7.7-18.44 13.7-4.6 6.44-7.03 14.54-7.26 24.1-.23 9.86 1.9 21.35 6.3 34.1l49.02 156.84c.13.41-.1.85-.5.98-.06.05-.14.05-.21.05z"/></g></g></g></g><g fill-rule="nonzero"><path fill="#FFF" d="M830.7 327.8H35.77c-3.13 0-4.31-4.1-1.67-5.77l140.56-68.38h523.5l134 69.3c2.2 1.46 1.17 4.85-1.44 4.85z"/><path fill="#377FFF" d="M830.7 328.57H35.77a3.84 3.84 0 01-3.75-2.82 3.83 3.83 0 011.67-4.39c.02-.02.05-.02.07-.05l140.56-68.38c.1-.05.23-.08.34-.08h523.5c.13 0 .26.03.36.08l134 69.3c.02 0 .04.03.07.05a3.4 3.4 0 011.4 3.85 3.38 3.38 0 01-3.27 2.44zm-796.23-5.88a2.29 2.29 0 00-.97 2.62c.23.82.95 1.7 2.26 1.7H830.7c1.02 0 1.59-.7 1.8-1.34.17-.64.1-1.51-.75-2.1l-133.79-69.2H174.83L34.47 322.68z"/><path fill="#D0F0E4" d="M809.5 320.18H55.96c-3.5 0-4.83-4.59-1.85-6.46l121.3-59.3h521.52l114.48 59.35c2.87 1.9 1.54 6.41-1.93 6.41z"/><g fill="#377FFF"><path d="M24.88 629.08h-.13a.77.77 0 01-.61-.9l52.2-300.51c.07-.41.45-.7.89-.62.41.08.7.47.62.9l-52.2 300.48a.8.8 0 01-.77.65zM156.49 629.08a.8.8 0 01-.77-.65l-52.2-300.5a.78.78 0 01.62-.9c.4-.08.82.2.9.61l52.2 300.51c.07.41-.21.82-.63.9-.05.03-.07.03-.12.03z"/></g><g fill="#377FFF"><path d="M707.85 629.08h-.13a.77.77 0 01-.62-.9l52.2-300.51c.07-.41.46-.7.9-.62.4.08.69.47.61.9l-52.2 300.51a.8.8 0 01-.76.62zM839.45 629.08a.8.8 0 01-.77-.65l-52.2-300.5a.78.78 0 01.62-.9c.41-.08.82.2.9.61l52.2 300.51c.07.41-.2.82-.62.9-.05.03-.08.03-.13.03z"/></g></g><g fill-rule="nonzero"><path fill="#3FB1B5" d="M739.98 527.6h50.84a13.5 13.5 0 0113-9.87H753a13.5 13.5 0 00-13 9.88z"/><path fill="#FFF" d="M753.42 518.55a13.5 13.5 0 0113.5 13.5v13.49h50.83v-13.5a13.5 13.5 0 00-13.49-13.49h-50.84z"/><path fill="#3FB1B5" d="M818.52 546.3h-52.37v-14.26c0-7-5.7-12.72-12.73-12.72v-1.54h50.84c7.88 0 14.26 6.39 14.26 14.26v14.27zm-50.83-1.53h49.3v-12.73c0-7-5.73-12.72-12.73-12.72h-44.4a14.28 14.28 0 017.83 12.72v12.73z"/><path fill="#FFF" d="M843.76 526.56h-46.4l2.82 12.87h46.4z"/><path fill="#FFCF2D" d="M847.53 540.2h-47.96l-3.16-14.41h47.97l3.15 14.41zm-46.73-1.54h44.83l-2.48-11.33H798.3l2.49 11.33z"/><path fill="#FFF" d="M867.59 628.28H759.37c8.7 0 15.16-8.05 13.27-16.54l-14.86-66.72a7.16 7.16 0 00-7-5.61H859a7.19 7.19 0 017 5.61l14.85 66.72a13.58 13.58 0 01-13.26 16.54z"/><path fill="#FFCF2D" d="M867.59 629.05H759.37v-1.54c3.93 0 7.57-1.74 10-4.8a12.78 12.78 0 002.52-10.8l-14.85-66.7a6.45 6.45 0 00-6.26-5.03v-1.54H859a7.9 7.9 0 017.74 6.2l14.85 66.72a14.38 14.38 0 01-14 17.49zm-101.73-1.54H867.6c3.92 0 7.57-1.74 10-4.8a12.78 12.78 0 002.52-10.8l-14.85-66.7a6.4 6.4 0 00-6.26-5.03H755.48a8.03 8.03 0 013.07 4.69l14.85 66.71c.95 4.29-.07 8.67-2.8 12.11a15.08 15.08 0 01-4.74 3.82z"/><path fill="#D0F0E4" d="M822.37 592.94h-4.54a37.93 37.93 0 01-23.6-8.29A37.87 37.87 0 01781 563.41l-5.06-22.67 2.52-.56 5.05 22.67a35.39 35.39 0 0012.34 19.8 35.32 35.32 0 0022 7.72h4.55c6.38 0 12.36-2.87 16.36-7.87s5.51-11.44 4.1-17.7l-5.36-24.09 2.52-.56 5.36 24.08c1.56 7-.13 14.24-4.62 19.86a23.41 23.41 0 01-18.4 8.85z"/><path fill="#FFCF2D" d="M827.76 592.68h-4.54a37.93 37.93 0 01-23.6-8.29 37.87 37.87 0 01-13.24-21.23l-5.05-22.68a1.3 1.3 0 012.51-.56l5.06 22.67a35.39 35.39 0 0012.33 19.8 35.32 35.32 0 0022.01 7.72h4.54c6.39 0 12.36-2.87 16.37-7.87 4-5 5.51-11.44 4.1-17.7l-5.36-24.08a1.3 1.3 0 012.51-.57l5.36 24.09c1.57 7-.12 14.23-4.61 19.85a23.41 23.41 0 01-18.4 8.85z"/><g fill="#FFCF2D"><path d="M759.37 628.28h-17.85c-8.7 0-15.16-8.05-13.26-16.54l14.85-66.72a7.16 7.16 0 017-5.61h.72a7.19 7.19 0 017 5.61l14.86 66.72a13.64 13.64 0 01-13.32 16.54z"/><path d="M759.37 629.05h-17.85c-4.38 0-8.46-1.95-11.2-5.39a14.19 14.19 0 01-2.8-12.1l14.85-66.72c.8-3.59 4.05-6.2 7.75-6.2h.71a7.9 7.9 0 017.75 6.2l14.85 66.72c.92 4.28-.1 8.7-2.87 12.1a14.2 14.2 0 01-11.19 5.39zm-9.25-88.87a6.45 6.45 0 00-6.26 5L729 611.89a12.7 12.7 0 002.5 10.8c2.45 3.05 6.11 4.8 10.01 4.8h17.85a12.86 12.86 0 0012.57-15.62l-14.85-66.72a6.4 6.4 0 00-6.26-5.03h-.71v.06z"/></g><path fill="#FFF" d="M750 539.43h1.55v73.41H750z"/><path fill="#FFF" d="M767.63 626.74a.84.84 0 01-.48-.15l-16.42-12.95-16.5 12.87a.77.77 0 01-1.07-.13.77.77 0 01.13-1.07l17.47-13.6 17.34 13.72c.33.26.38.75.12 1.08a.88.88 0 01-.59.23z"/></g><g fill-rule="nonzero" transform="translate(0 415.78)"><path fill="#3FB1B5" d="M40.7 99.88S8.53 58.53 13.63 45.76c4.36-10.9 14.29-.75 14.29-.75l12.8 54.87zM64.38 143.43S97.9 106.5 97.13 93.21c-.77-13.29-12.9-7.05-12.9-7.05l-19.85 57.27z"/><path fill="#FFCF2D" d="M99.37 175.93c0 11.13-4.72 21.29-12.47 29.03a33.27 33.27 0 01-23.5 9.65H36.1c-8.8 0-17.26-3.44-23.5-9.65C4.85 197.24.13 187.06.13 175.93c0-15.85 9.54-29.73 23.85-37.42h51.56c14.28 7.67 23.83 21.57 23.83 37.42z"/><ellipse cx="49.76" cy="140.17" fill="#3FB1B5" rx="26.39" ry="7"/><path fill="#FFF" d="M64.38 143.43c-4.18.75-9.2 1.18-14.62 1.18-5.13 0-9.93-.38-13.95-1.05-9.55-10.13-32.78-37.01-24.2-50.3 10.73-16.6 29.12 6.64 29.12 6.64s-21.7-66.63-10.2-81.43C42 3.67 51.01 29.96 51.01 29.96s5.8-31.9 21.36-28.86c14.85 2.93-8.15 76.93-10.3 83.75 1.1-3.29 7.76-21.4 20.77-19.73 12.3 1.57-11.7 61.87-18.47 78.31z"/><path fill="#3FB1B5" d="M49.76 145.38c-5.03 0-9.88-.36-14.08-1.05l-.26-.05-.18-.18c-10.23-10.88-33.09-37.63-24.26-51.25 2.59-4 5.85-6.13 9.67-6.3 7.2-.37 14.57 6.25 18.26 10.15-1.8-5.85-5.46-18.4-8.36-31.78-5.34-24.8-5.57-40.58-.64-46.91 2.82-3.65 5.8-5.24 8.85-4.72 5.87.97 10.2 9.64 12.03 14 1.36-5.8 5.3-19.75 13.08-25.06A11.1 11.1 0 0172.54.36c1.51.3 2.72 1.2 3.61 2.74 3.39 5.7 2.39 20.47-2.95 43.86a490.6 490.6 0 01-7.33 27.99c3.56-5.75 9.18-11.57 17.08-10.57 1.28.15 2.28.85 3 2.05 2.62 4.49.64 16.96-5.87 37.1-5.06 15.66-11.57 31.92-14.98 40.23l-.16.39-.4.08a90.66 90.66 0 01-14.78 1.15zm-13.57-2.54c4.05.64 8.75 1 13.57 1 5.03 0 9.87-.38 14.08-1.1A582.1 582.1 0 0078.62 103c7.92-24.52 7.64-33.01 6-35.83a2.41 2.41 0 00-1.85-1.31C70.46 64.27 64 81.59 62.82 85.07l-1.47-.48a528.6 528.6 0 0010.37-38.01c5.18-22.7 6.25-37.47 3.12-42.73-.66-1.13-1.5-1.8-2.59-2a9.62 9.62 0 00-7.49 1.61C55.58 9.72 51.84 29.88 51.81 30.1l-.54 2.9-.95-2.8c-.05-.15-4.97-14.29-11.77-15.42-2.44-.4-4.92 1-7.39 4.16-11.1 14.31 10.11 80.05 10.34 80.72l1.33 4.08-2.66-3.36c-.1-.13-10.21-12.78-19.4-12.32-3.3.16-6.15 2.06-8.46 5.62-3.54 5.46-1.74 14.03 5.31 25.52 5.85 9.6 14.06 18.85 18.57 23.65z"/><path fill="#3FB1B5" d="M49.76 145.38a.77.77 0 01-.77-.77 509.08 509.08 0 0111.57-102.9C66.07 16.39 71.59.97 71.64.82a.75.75 0 01.97-.46c.41.15.62.59.47.97-.06.16-5.55 15.5-11.03 40.7a508.47 508.47 0 00-11.52 102.58c0 .44-.36.77-.77.77z"/><path fill="#3FB1B5" d="M54.38 81.85h-.13a.76.76 0 01-.64-.88c2.54-16.77-3.34-50.55-3.39-50.88a.78.78 0 01.62-.9c.4-.08.82.2.9.61.05.34 5.97 34.37 3.38 51.4a.75.75 0 01-.74.65zM55 145.23h-.06a.76.76 0 01-.72-.82c1.46-24.47 8.98-44.86 15.03-57.64 6.57-13.85 12.9-22.06 12.96-22.13a.77.77 0 011.07-.13c.34.25.39.74.13 1.08-.05.07-6.3 8.18-12.8 21.9-6 12.65-13.44 32.83-14.87 57.04 0 .39-.34.7-.75.7zM44.48 145.25a.77.77 0 01-.77-.77c-.26-18.03-8.42-31.65-15.24-39.9-7.39-8.96-14.77-13.7-14.82-13.73a.75.75 0 01-.24-1.05.75.75 0 011.06-.23c.3.2 7.67 4.9 15.2 14.05 6.96 8.44 15.32 22.4 15.58 40.86 0 .41-.34.77-.77.77z"/><path fill="#FFCF2D" d="M24.55 82.03A6.01 6.01 0 1124.56 70a6.01 6.01 0 01-.01 12.02zm0-10.47a4.47 4.47 0 100 8.93 4.47 4.47 0 000-8.93zM12.44 74.13a3.2 3.2 0 01-3.18-3.18 3.2 3.2 0 013.18-3.18 3.2 3.2 0 013.18 3.18 3.2 3.2 0 01-3.18 3.18zm0-4.83c-.9 0-1.64.75-1.64 1.65 0 .9.74 1.64 1.64 1.64.9 0 1.64-.75 1.64-1.64 0-.9-.74-1.65-1.64-1.65zM15.9 134.76a3.2 3.2 0 01-3.18-3.18 3.2 3.2 0 013.18-3.18 3.2 3.2 0 013.18 3.18 3.2 3.2 0 01-3.18 3.18zm0-4.82c-.9 0-1.64.74-1.64 1.64 0 .9.74 1.64 1.64 1.64.9 0 1.64-.74 1.64-1.64 0-.9-.74-1.64-1.64-1.64zM80.08 60.28a6.01 6.01 0 11.01-12.02 6.01 6.01 0 01-.01 12.02zm0-10.47a4.47 4.47 0 100 8.93 4.47 4.47 0 000-8.93zM81.62 40.94a3.2 3.2 0 01-3.18-3.18 3.2 3.2 0 013.18-3.18 3.2 3.2 0 013.18 3.18 3.2 3.2 0 01-3.18 3.18zm0-4.83c-.9 0-1.65.75-1.65 1.65 0 .9.75 1.64 1.65 1.64.9 0 1.64-.75 1.64-1.64 0-.9-.75-1.65-1.64-1.65zM90.36 60.28a3.2 3.2 0 01-3.18-3.18 3.2 3.2 0 013.18-3.19 3.2 3.2 0 013.18 3.19 3.2 3.2 0 01-3.18 3.18zm0-4.83c-.9 0-1.64.75-1.64 1.65 0 .9.74 1.64 1.64 1.64.9 0 1.64-.75 1.64-1.64 0-.9-.74-1.65-1.64-1.65z"/></g><g fill-rule="nonzero"><path fill="#FF6576" d="M621 102.14l51.63 14.56a56.03 56.03 0 0141.04 49.12l7.87 87.08H448.3l25.24-97.85a47.83 47.83 0 0132.6-34.09l60.3-18.82H621z"/><g fill="#FFF"><g transform="translate(461.18 240.33)"><circle cx="2.49" cy="2.56" r="2.49"/><circle cx="28.39" cy="2.56" r="2.49"/><circle cx="54.3" cy="2.56" r="2.49"/><circle cx="80.21" cy="2.56" r="2.49"/><circle cx="106.11" cy="2.56" r="2.49"/><circle cx="132.02" cy="2.56" r="2.49"/><circle cx="157.92" cy="2.56" r="2.49"/><circle cx="183.83" cy="2.56" r="2.49"/><circle cx="209.73" cy="2.56" r="2.49"/><circle cx="235.64" cy="2.56" r="2.49"/></g><g transform="translate(474.51 222.9)"><circle cx="2.49" cy="2.56" r="2.49"/><circle cx="28.39" cy="2.56" r="2.49"/><circle cx="54.3" cy="2.56" r="2.49"/><circle cx="80.21" cy="2.56" r="2.49"/><circle cx="106.11" cy="2.56" r="2.49"/><circle cx="132.02" cy="2.56" r="2.49"/><circle cx="157.92" cy="2.56" r="2.49"/><circle cx="183.83" cy="2.56" r="2.49"/><circle cx="209.73" cy="2.56" r="2.49"/><circle cx="235.64" cy="2.56" r="2.49"/></g><g transform="translate(461.18 204.94)"><circle cx="2.49" cy="2.56" r="2.49"/><circle cx="28.39" cy="2.56" r="2.49"/><circle cx="54.3" cy="2.56" r="2.49"/><circle cx="80.21" cy="2.56" r="2.49"/><circle cx="106.11" cy="2.56" r="2.49"/><circle cx="132.02" cy="2.56" r="2.49"/><circle cx="157.92" cy="2.56" r="2.49"/><circle cx="183.83" cy="2.56" r="2.49"/><circle cx="209.73" cy="2.56" r="2.49"/><circle cx="235.64" cy="2.56" r="2.49"/></g><g transform="translate(474.51 188.27)"><circle cx="2.49" cy="2.56" r="2.49"/><circle cx="28.39" cy="2.56" r="2.49"/><circle cx="54.3" cy="2.56" r="2.49"/><circle cx="80.21" cy="2.56" r="2.49"/><circle cx="106.11" cy="2.56" r="2.49"/><circle cx="132.02" cy="2.56" r="2.49"/><circle cx="157.92" cy="2.56" r="2.49"/><circle cx="184.6" cy="2.56" r="2.49"/><circle cx="209.73" cy="2.56" r="2.49"/><circle cx="235.64" cy="2.56" r="2.49"/></g><g transform="translate(487.08 171.08)"><circle cx="2.49" cy="2.56" r="2.49"/><circle cx="54.3" cy="2.56" r="2.49"/><circle cx="80.21" cy="2.56" r="2.49"/><circle cx="106.11" cy="2.56" r="2.49"/><circle cx="132.02" cy="2.56" r="2.49"/><circle cx="157.92" cy="2.56" r="2.49"/><circle cx="183.83" cy="2.56" r="2.49"/><circle cx="209.73" cy="2.56" r="2.49"/></g><g transform="translate(474.51 154.15)"><circle cx="2.49" cy="2.56" r="2.49"/><circle cx="28.39" cy="2.56" r="2.49"/><circle cx="54.3" cy="2.56" r="2.49"/><circle cx="80.21" cy="2.56" r="2.49"/><circle cx="106.11" cy="2.56" r="2.49"/><circle cx="132.02" cy="2.56" r="2.49"/><circle cx="157.92" cy="2.56" r="2.49"/><circle cx="183.83" cy="2.56" r="2.49"/><circle cx="209.73" cy="2.56" r="2.49"/><circle cx="234.36" cy="2.56" r="2.49"/></g><g transform="translate(487.08 137.48)"><circle cx="2.49" cy="2.56" r="2.49"/><circle cx="28.39" cy="2.56" r="2.49"/><circle cx="54.3" cy="2.56" r="2.49"/><circle cx="80.21" cy="2.56" r="2.49"/><circle cx="106.11" cy="2.56" r="2.49"/><circle cx="132.02" cy="2.56" r="2.49"/><circle cx="157.92" cy="2.56" r="2.49"/><circle cx="183.83" cy="2.56" r="2.49"/><circle cx="209.73" cy="2.56" r="2.49"/></g><g transform="translate(564.8 106.19)"><circle cx="2.49" cy="2.56" r="2.49"/><circle cx="28.39" cy="2.56" r="2.49"/><circle cx="54.3" cy="2.56" r="2.49"/><path d="M82.57 3.39a2.49 2.49 0 01-4.8-1.36l4.8 1.36z"/></g><g transform="translate(500.42 118.5)"><circle cx="2.49" cy="5.9" r="2.49"/><circle cx="28.39" cy="5.9" r="2.49"/><circle cx="51.84" cy="2.59" r="2.49"/><circle cx="80.21" cy="5.9" r="2.49"/><circle cx="106.11" cy="5.9" r="2.49"/><circle cx="132.02" cy="5.9" r="2.49"/><circle cx="157.92" cy="5.9" r="2.49"/><circle cx="183.83" cy="5.9" r="2.49"/></g></g><g fill="#FFF"><path d="M662.06 254.42a.76.76 0 01-.77-.72l-5.64-76.77a.76.76 0 01.72-.82c.43-.03.8.28.82.72l5.64 76.77c.03.43-.28.79-.72.82h-.05zM528.56 254.42a.76.76 0 01-.77-.77v-22.83l-4.95-2.9a24.55 24.55 0 01-11.55-26.78l8.19-35.7a.8.8 0 01.92-.6c.41.11.67.52.59.93l-8.18 35.7a22.97 22.97 0 0010.82 25.1l5.72 3.35v23.7c-.02.46-.36.8-.8.8zM581.93 152.82l-17.54-50.79a.77.77 0 01.49-.97c.4-.13.84.08.97.49l16.62 48.17 38.76-48.4a.77.77 0 011.07-.13c.34.25.39.74.13 1.07l-40.5 50.56z"/><path d="M627.56 135.94l-17.41-20.18a.77.77 0 01.07-1.08.77.77 0 011.08.08l16.13 18.7 16.8-23.94a.75.75 0 011.08-.18c.36.26.44.72.18 1.08l-17.93 25.52zM550.1 133.07l-11.85-22.42a.79.79 0 01.3-1.05.79.79 0 011.06.3l10.98 20.73 18.83-15.98a.77.77 0 011.07.08c.29.33.23.82-.07 1.08l-20.32 17.26zM516.45 182.78a.77.77 0 01-.74-.62l-3.52-16.39a.8.8 0 01.6-.92c.4-.1.81.18.92.59l3.5 16.39a.8.8 0 01-.58.92c-.08.03-.13.03-.18.03z"/></g><path fill="#FFCF2D" d="M584.93 320.18h-70.3l-31.09-48.55h70.3z"/><path fill="#FFF" d="M542.54 309.64H472.2l-31.06-48.53h70.3z"/><path fill="#3FB1B5" d="M542.54 310.4H472.2a.73.73 0 01-.64-.35l-31.06-48.53a.8.8 0 01-.02-.8.74.74 0 01.66-.4h70.3c.26 0 .52.12.65.35l31.09 48.53a.8.8 0 01.02.8.74.74 0 01-.66.4zm-69.93-1.53h68.51l-30.08-46.99h-68.49l30.06 46.99z"/><g fill="#3FB1B5"><path d="M497.96 271.06c-.77 0-1.7-.2-2.67-.61l-3.98-1.75c-1.69-.74-2.87-.59-3.13-.23l-1.25 1.6c-.8.97-2.6 1.02-4.65.12l-3.46-1.51c-1.7-.75-2.87-.6-3.13-.23l-1.05 1.36c-.8.97-2.59 1.02-4.67.15l-2.61-1.13c-1.7-.74-2.88-.59-3.13-.26l-.95 1.21c-.8.97-2.6 1.03-4.64.15l-2.62-1.12a.62.62 0 01-.33-.85.62.62 0 01.84-.33l2.62 1.12c1.54.67 2.82.65 3.15.23l.95-1.2c.77-1 2.62-1.05 4.67-.13l2.62 1.13c1.54.67 2.82.64 3.15.23l1.05-1.33c.77-1 2.62-1.05 4.67-.16l3.46 1.52c1.54.66 2.83.64 3.16.23l1.26-1.6c.77-1 2.61-1.04 4.66-.12l3.98 1.74c1.54.67 2.82.64 3.16.23l1.35-1.72c.21-.28.62-.33.9-.1.28.2.34.62.1.9l-1.35 1.74c-.6.47-1.29.72-2.13.72zM505.98 281.32c-.76 0-1.69-.2-2.66-.61l-3.98-1.75c-1.7-.74-2.87-.59-3.13-.23l-1.25 1.6c-.8.97-2.6 1.02-4.65.12l-3.46-1.51c-1.7-.75-2.87-.6-3.13-.23l-1.05 1.36c-.8.97-2.6 1.02-4.67.15l-2.61-1.13c-1.7-.74-2.88-.59-3.13-.26l-.95 1.21c-.8.97-2.6 1.03-4.65.15a.62.62 0 01-.33-.84.62.62 0 01.85-.34c1.54.67 2.82.64 3.15.23l.95-1.2c.77-1 2.62-1.05 4.67-.13l2.62 1.13c1.53.67 2.82.64 3.15.23l1.05-1.33c.77-1 2.62-1.06 4.67-.16l3.46 1.52c1.54.66 2.82.64 3.16.23l1.25-1.6c.77-1 2.62-1.05 4.67-.12l3.98 1.74c1.54.67 2.82.64 3.15.23l1.36-1.72c.2-.28.62-.33.9-.1.28.2.33.62.1.9l-1.36 1.74c-.59.47-1.28.72-2.13.72zM514.01 291.56c-.77 0-1.69-.2-2.66-.62l-3.98-1.74c-1.7-.75-2.87-.6-3.13-.23l-1.26 1.59c-.8.97-2.59 1.02-4.64.12l-3.46-1.5c-1.7-.75-2.87-.6-3.13-.24l-1.05 1.36c-.8.97-2.6 1.03-4.67.15l-2.62-1.13c-1.69-.74-2.87-.59-3.13-.25l-.94 1.2c-.8.98-2.6 1.03-4.65.16l-2.61-1.13a.62.62 0 01-.34-.85c.13-.33.52-.48.85-.33l2.62 1.13c1.53.66 2.82.64 3.15.23l.95-1.2c.77-1 2.62-1.06 4.67-.14l2.61 1.13c1.54.67 2.83.64 3.16.23l1.05-1.33c.77-1 2.62-1.05 4.67-.15l3.46 1.51c1.54.67 2.82.64 3.16.23l1.25-1.59c.77-1 2.62-1.05 4.67-.13l3.98 1.75c1.54.66 2.82.64 3.15.23l1.36-1.75c.2-.28.62-.33.9-.1.28.2.33.62.1.9l-1.36 1.74c-.59.49-1.28.75-2.13.75zM522.04 301.82c-.77 0-1.7-.2-2.67-.62l-3.97-1.74c-1.7-.75-2.87-.6-3.13-.23l-1.26 1.59c-.8.97-2.59 1.02-4.64.12l-3.46-1.5c-1.7-.75-2.88-.6-3.13-.24l-1.05 1.36c-.8.97-2.6 1.03-4.67.15l-2.62-1.13c-1.7-.74-2.87-.59-3.13-.25l-.95 1.2c-.8.98-2.59 1.03-4.64.16l-2.62-1.13c-.33-.13-.48-.51-.33-.85.13-.33.51-.48.85-.33l2.61 1.13c1.62.69 2.83.64 3.16.23l.95-1.2c.77-1 2.61-1.06 4.67-.14l2.61 1.13c1.54.67 2.82.64 3.16.23l1.05-1.33c.77-1 2.61-1.05 4.67-.15l3.46 1.51c1.54.67 2.82.64 3.15.23l1.26-1.59c.77-1 2.62-1.05 4.67-.13l3.97 1.75c1.6.69 2.83.64 3.16.23l1.36-1.72c.2-.28.61-.33.9-.1.28.2.33.61.1.9l-1.36 1.74c-.59.46-1.28.72-2.13.72z"/></g><g><path fill="#A0505A" d="M556.33 281.73H691.2a30.26 30.26 0 0030.14-33.11 30.3 30.3 0 00-35.96-26.88l-155.2 21.62a18.59 18.59 0 00-13.83 9.62l-13.75 25.55a6.18 6.18 0 00-1.03 2.15l-5.15 19.93h2.9c4.48 0 8.64-2.49 10.74-6.46l2.6-4.85 29.82 3.23c5.6.7 10.9-3.13 12.9-8.36l.95-2.44z"/><g fill="#73325A"><path d="M512.94 289.2a.77.77 0 01-.7-1.1l9-18.65a.77.77 0 111.4.66l-9.01 18.65a.76.76 0 01-.7.44zM524.94 290.38a.77.77 0 01-.7-1.1l9.01-18.65a.77.77 0 111.39.66l-9 18.65a.76.76 0 01-.7.44zM536.69 291.84a.77.77 0 01-.7-1.1l8.98-18.65a.77.77 0 111.39.67l-8.98 18.64a.76.76 0 01-.7.44zM556.33 282.5c-.07 0-.15-.02-.25-.05a.77.77 0 01-.49-.97l4.1-12.24a.77.77 0 01.98-.49c.41.13.61.57.49.98l-4.1 12.23a.74.74 0 01-.73.54z"/></g></g><g><path fill="#FFF" d="M589.52 14.31s17.65-11.08 34.89 2.9c16.26 13.21 8.67 39.24 2.72 34.88-5.1-3.72 34.67-16.41 47.14 13.06 14.13 33.4-17.7 52.35-54 35.83h-52.65l-56 17.47s-28.44-14.47-12.97-42.68c14.29-26.04 48.42-16.75 44.58-10.31-5.41 9.03-28.55-19.55-12.29-46.53 17.19-28.52 56.22-17.9 58.58-4.62z"/><path fill="#FFCF2D" d="M511.55 119.27l-.28-.15c-.51-.26-12.9-6.7-16.85-19.45-2.34-7.56-1.16-15.75 3.54-24.31 8.7-15.83 23.8-17.67 29.88-17.73h1.23a40.13 40.13 0 01-4.6-17.36c-.25-7.67 1.7-15 5.8-21.78 4.62-7.67 11.06-13.08 19.09-16.03a41.6 41.6 0 0121.62-1.7c9.7 1.8 17.31 6.78 19.06 12.35a33.56 33.56 0 0110.36-3.39c6.16-.95 15.39-.54 24.52 6.85 5.67 4.62 9.2 11.44 9.93 19.21.38 4.13-.05 7.85-.9 10.75 2.28-.57 4.85-.95 7.49-1.1 7.44-.42 25.62.61 33.55 19.36 2.97 7.03 4.05 13.65 3.2 19.67a24.69 24.69 0 01-7.25 14.5c-5.24 5.1-12.68 8.1-21.55 8.69-9.18.62-19.29-1.44-29.27-5.95h-52.37l-56.2 17.57zM528.2 59.2h-.34c-5.82.05-20.26 1.82-28.54 16.93-4.5 8.15-5.62 15.93-3.42 23.1 3.42 11.11 13.98 17.37 15.8 18.4l55.8-17.42h52.96l.15.08c9.8 4.46 19.73 6.49 28.68 5.9 8.49-.57 15.6-3.44 20.57-8.26a22.98 22.98 0 006.82-13.6c.8-5.74-.26-12.08-3.1-18.85-3.57-8.41-9.65-14.05-18.11-16.77-8.88-2.85-17.29-1.49-20.5-.75-.56.13-1.1.26-1.58.41a13.08 13.08 0 01-1.67 3.13c-1.52 1.98-3.39 2.47-5 1.29-.65-.47-.9-1.16-.7-1.85.41-1.39 2.83-2.8 6.19-3.82a27.54 27.54 0 001.12-11.1c-.69-7.37-4.02-13.83-9.36-18.17-6.97-5.64-14.82-7.85-23.29-6.54-6.33.98-10.64 3.67-10.7 3.7l-.97.61-.2-1.13c-.95-5.33-8.4-10.33-18.06-12.13A39.84 39.84 0 00549.95 4c-7.7 2.82-13.85 8-18.29 15.4a37.6 37.6 0 00-5.57 20.95 38.36 38.36 0 004.67 17.13c.08.13.13.26.2.36 6.16.46 11.47 2.51 12.99 5.13.56.97.56 2.03.02 2.95a3.93 3.93 0 01-3.59 2.08c-3.18-.05-7.16-3.41-10.31-8.67-.67-.1-1.26-.13-1.87-.13zm3.7.2c2.7 4.16 6.02 6.95 8.43 6.98.95.03 1.7-.41 2.23-1.33.26-.44.26-.9-.02-1.39-1.03-1.77-5.16-3.64-10.65-4.26zm95.53-8.05s.03.05.13.13c.9.67 1.88.33 2.88-.98.33-.4.64-.95.94-1.56-2.74 1-3.95 2.05-3.95 2.41z"/><path fill="#FFCF2D" d="M600.89 52.3a.79.79 0 01-.34-.08c-.18-.07-4.15-2-7.84-5.9-3.85-4.08-5.85-8.77-5.98-13.77a37.77 37.77 0 01-4.93 6.82C577.37 44.22 569.5 50 557.13 50h-.26c-4.43-.03-7.56-1.87-8.85-5.18-1.5-3.98.08-9.5 3.72-12.8.31-.28.8-.26 1.08.05.28.3.26.8-.05 1.08-3.2 2.92-4.62 7.7-3.31 11.1 1.05 2.72 3.62 4.19 7.41 4.21h.26c9.46 0 17.39-3.41 23.55-10.1 4.61-5.06 6.43-10.16 6.46-10.21a.76.76 0 01.92-.49c.39.1.64.49.57.9-1.18 6.18.56 11.8 5.18 16.72 3.49 3.72 7.39 5.6 7.41 5.62.39.18.54.64.36 1.02a.8.8 0 01-.7.39z"/><g><path fill="#A0505A" d="M620.71 102.06L607.25 66.3h-38.27l-3 35.76 16.5 47.4z"/><path fill="#73325A" d="M589.8 94.5l-20.18 17.82-3.64-10.26 3-35.76h33.9v.67a35.57 35.57 0 01-13.07 27.52z"/></g><g><path fill="#A0505A" d="M616 59.35v1.44a7.1 7.1 0 01-7.08 7.08h-7.7a22.28 22.28 0 01-37.8 12.82 22.2 22.2 0 01-6.52-15.75V49.96c23.67.18 30.47-19.28 30.47-19.28-1.56 14.62 11.77 20.9 13.8 21.75v-.16h7.75a7.1 7.1 0 017.07 7.08z"/><g fill="#73325A" transform="translate(549.15 44.89)"><path d="M43.12 5.64a.8.8 0 01-.57-.23c-3.43-3.67-8.64-3.82-8.7-3.82a.74.74 0 01-.74-.8c0-.43.36-.76.8-.74.23 0 5.87.16 9.77 4.28.28.31.28.8-.02 1.08a.78.78 0 01-.54.23z"/><ellipse cx="32.73" cy="15.85" rx="1.56" ry="2.74"/><ellipse cx="11.36" cy="15.85" rx="1.56" ry="2.74"/><path d="M23.6 30.37h-.2a7.98 7.98 0 01-2.9-.62.77.77 0 11.66-1.38c.15.08 3.8 1.72 7.16-1.54.3-.3.8-.28 1.07.02.31.31.29.8-.02 1.08a8.1 8.1 0 01-5.77 2.44zM54.04 18.03a.76.76 0 01-.77-.77 6.82 6.82 0 016.83-6.82c.43 0 .77.33.77.77 0 .43-.34.77-.77.77a5.28 5.28 0 00-5.29 5.28c0 .44-.33.77-.77.77zM.95 5.9a.88.88 0 01-.54-.2.74.74 0 01-.03-1.08C4.28.49 9.93.33 10.16.33c.43-.02.77.34.8.75 0 .43-.34.77-.75.8-.05 0-5.26.15-8.7 3.81a.9.9 0 01-.56.2z"/></g><g fill="#FF6576"><path d="M559.67 71.46c-5.28 0-9.57-4.98-9.57-11.1 0-6.14 4.29-11.11 9.57-11.11s9.57 4.97 9.57 11.1-4.29 11.1-9.57 11.1zm0-20.67c-4.44 0-8.03 4.28-8.03 9.56 0 5.29 3.6 9.57 8.03 9.57 4.44 0 8.03-4.28 8.03-9.57 0-5.28-3.6-9.56-8.03-9.56zM583.3 71.46c-5.3 0-9.58-4.98-9.58-11.1 0-6.14 4.29-11.11 9.57-11.11 5.29 0 9.57 4.97 9.57 11.1s-4.28 11.1-9.57 11.1zm0-20.67c-4.45 0-8.04 4.28-8.04 9.56 0 5.29 3.6 9.57 8.03 9.57 4.44 0 8.03-4.28 8.03-9.57 0-5.28-3.6-9.56-8.03-9.56z"/><path d="M574.08 60.97c-.1-.08-2.74-1.9-5.13-.03l-.95-1.2c2.65-2.05 5.72-.93 6.98-.03l-.9 1.26z"/></g></g></g></g><g fill-rule="nonzero"><path fill="#0054CB" d="M295.98 142.25h60.26c29.48 0 57.88 11.27 79.3 31.5l35.43 33.43-52.64 14.72-10.13-9.55a6.56 6.56 0 00-10.87 3.26l-4.4 18.52H275.55l-5.33-31.07a6.56 6.56 0 00-11.33-2.42l-4.12 4.93-80.54-1.49 53.04-39.22a115.68 115.68 0 0168.72-22.61z"/><path fill="#9A3B82" d="M459.78 297.4h-233.5l49.4-63.78h138.33l.12.19 45.65 63.6zm-231.58-.92h229.78l-44.44-61.92H276.15l-47.95 61.92z"/><path fill="#FFF" d="M458.88 296.94H227.24l48.7-62.85h137.85z"/><path fill="#3FB1B5" d="M458.88 297.88H227.24a.97.97 0 01-.84-.53.96.96 0 01.1-1l48.69-62.85a.97.97 0 01.74-.38H413.8c.31 0 .59.16.74.38l45.1 62.85a.9.9 0 01.06.97.83.83 0 01-.8.56zM229.13 296h227.92l-43.76-60.99H276.37l-47.24 60.99z"/><path fill="#3FB1B5" d="M343.06 296.94H227.24c68.84-41.92 115.82 0 115.82 0zM343.06 296.94h115.82c-68.83-41.92-115.82 0-115.82 0z"/><path fill="#3FB1B5" d="M343.06 297.88a.92.92 0 01-.93-.94V234.1c0-.53.4-.93.93-.93s.93.4.93.93v62.85c0 .53-.4.94-.93.94z"/><g><path fill="#E57281" d="M395.63 254.14l33.2-46.82a26.83 26.83 0 0121.1-10.29 26.84 26.84 0 0126.82 26.84v.93c0 9.54-5.08 18.37-13.32 23.18l-44.36 25.4-12.26 21.11a12.75 12.75 0 01-11.03 6.36h-38.75s-.12-7.04 7.62-9.4c7.74-2.35 9.04-10 9.04-10s-3.84 2.97-11.49.15l14.75-21.17a14.62 14.62 0 0112.02-6.29h6.66z"/><path fill="#9A3B82" d="M389.24 300.38a.62.62 0 01-.61-.62c0-.34.27-.62.61-.62a9.6 9.6 0 008.24-4.74l9.76-16.77c.19-.3.56-.4.84-.21.3.18.4.55.22.83l-9.76 16.77a10.77 10.77 0 01-9.3 5.36zM378.8 300.38a.62.62 0 01-.61-.62c0-.34.28-.62.62-.62a9.6 9.6 0 008.24-4.74l9.75-16.77c.19-.3.56-.4.84-.21.3.18.4.55.22.83l-9.76 16.77a10.77 10.77 0 01-9.3 5.36zM368.37 300.38a.62.62 0 01-.62-.62c0-.34.28-.62.62-.62a9.6 9.6 0 008.24-4.74l9.75-16.77c.19-.3.56-.4.84-.21.31.18.4.55.22.83l-9.76 16.77a10.77 10.77 0 01-9.3 5.36zM402.66 254.76h-7.03a.62.62 0 01-.62-.62c0-.34.28-.62.62-.62h7.03c.34 0 .62.28.62.62 0 .34-.28.62-.62.62z"/><g><path fill="#E57281" d="M346.53 225.6a.5.5 0 000 .84 3.11 3.11 0 011.55 2.73v2.97c0 1.18-.62 2.17-1.55 2.73a.5.5 0 000 .83 3.11 3.11 0 011.55 2.73v2.98c0 1.17-.62 2.17-1.55 2.72a.5.5 0 000 .84 3.11 3.11 0 011.55 2.73v2.97a3.09 3.09 0 01-3.07 3.13H197.97c-19.33 0-35.2-16.4-31.2-35.73 3.04-14.69 15.7-24.7 29.77-24.7 2.26 0 4.59.28 6.91.8l104.85 22.7h36.25a3.56 3.56 0 013.53 3.59v2.48c0 1.08-.62 2.1-1.55 2.66z"/><path fill="#9A3B82" d="M346.06 226.63h-16.48a.62.62 0 01-.61-.62c0-.35.27-.62.61-.62h16.48c.34 0 .62.27.62.62 0 .34-.28.62-.62.62zM346.06 235.86h-16.48a.62.62 0 01-.61-.62c0-.34.27-.62.61-.62h16.48c.34 0 .62.28.62.62 0 .34-.28.62-.62.62zM346.06 245.1h-16.48a.62.62 0 01-.61-.62c0-.35.27-.62.61-.62h16.48c.34 0 .62.27.62.61 0 .35-.28.62-.62.62z"/><path fill="#FFF" d="M317.47 216.93s-23.3-34.19-16.88-34.8c6.41-.63 22.9 34.64 22.9 34.64l-6.02.16z"/></g></g><g><path fill="#E57281" d="M374.6 139.2a8.15 8.15 0 01-8.1 8.36h-6.95a25.5 25.5 0 01-25.32 23.27h-7.44a25.53 25.53 0 01-25.33-23.27h-6.97a8.15 8.15 0 01-8.11-8.37 8.28 8.28 0 018.3-8.02h6.7v-4.63c0-5.75 4.62-10.39 10.3-10.39h37.66c5.7 0 10.3 4.67 10.3 10.39v4.63h6.67c4.47 0 8.2 3.55 8.3 8.03z"/><g fill="#9A3B82" transform="translate(291.04 136.5)"><path d="M71.17 8.24a.77.77 0 01-.77-.78c0-3.95 3.2-7.18 7.12-7.18.43 0 .77.34.77.78 0 .43-.34.77-.77.77a5.6 5.6 0 00-5.58 5.63c0 .44-.34.78-.77.78zM58.24 11.6c-.18 0-.4-.06-.52-.22-3.52-3.45-9.57-2.3-9.63-2.27a.73.73 0 01-.9-.62.74.74 0 01.63-.9c.27-.06 6.87-1.34 10.98 2.7.3.32.3.78 0 1.1a.96.96 0 01-.56.21zM39 24.91c-2.97 0-4.67-1.77-4.7-1.8l-.18-.19-.03-.28c-.56-7.4-2.5-12.35-5.28-13.56a8.99 8.99 0 00-9.19.81.77.77 0 01-1.08-.1.79.79 0 01.1-1.08c.18-.16 4.62-3.8 10.79-1.06 4.44 1.96 5.77 9.83 6.17 14.56.7.59 3.42 2.42 7.68-.28.37-.22.83-.13 1.05.24.22.38.12.84-.25 1.06A9.2 9.2 0 0139 24.91zM7.13 8.24a.77.77 0 01-.78-.78A5.6 5.6 0 00.77 1.83.77.77 0 010 1.06C0 .62.34.28.77.28A7.18 7.18 0 017.9 7.46c0 .44-.34.78-.77.78z"/><ellipse cx="26.81" cy="17.01" rx="1.17" ry="2.27"/><ellipse cx="51.18" cy="17.01" rx="1.17" ry="2.27"/></g><path fill="#FFCF2D" d="M368.22 120.29c-1.39 6.5-3.6 10.95-3.6 10.95s-3.12 1.27-8.58 2.58c.67-2.24 2.28-10.2-5.28-17.57 0 0 5.24 10.48-2.4 18.72-.16.15-.31.34-.44.5-12.83 2.08-31.83 2.86-52.63-4.23 0 0-7.8-12.94-3.94-26.53 3.98-13.68 11.2-20.95 18.42-25.8 8.41-2.43 24.44-5.9 36.08-1.21 30.06 12.12 23.94 44.11 22.37 42.59z"/></g></g><g fill-rule="nonzero"><path fill="#FFF" d="M789.75 253.7l-7.39 52.3a6.25 6.25 0 01-6.2 5.38H761.7a6.27 6.27 0 01-6.2-5.39l-7.39-52.3c0 4.7 9.31 8.5 20.8 8.5 11.52 0 20.83-3.83 20.83-8.5z"/><path fill="#377FFF" d="M776.15 312.15h-14.44a7.07 7.07 0 01-6.97-6.05l-7.24-51.28c-.1-.36-.15-.74-.15-1.13 0-.4.3-.74.72-.77.4-.02.77.26.82.67l.13.9c1.05 3.49 8.77 6.92 19.9 6.92 11.16 0 18.9-3.43 19.93-6.92l.13-.9c.05-.4.41-.7.82-.67.41.03.72.36.72.77 0 .39-.05.77-.16 1.13l-7.23 51.28a6.98 6.98 0 01-6.98 6.05zm-26.67-54.38l6.8 48.12a5.52 5.52 0 005.43 4.72h14.44a5.43 5.43 0 005.44-4.72l6.8-48.12c-3.46 3.1-10.8 5.18-19.47 5.18-8.67 0-16-2.1-19.44-5.18z"/><path fill="#377FFF" d="M785.1 259.29l-6.59 46.3a7.07 7.07 0 01-6.97 6.05h-4.95a7.07 7.07 0 01-6.98-6.06l-6.6-46.17c.52.23 1.09.44 1.65.65l6.46 45.32a5.52 5.52 0 004.83 4.7c.2.02.4.04.64.04h4.95a5.5 5.5 0 005.44-4.75l6.46-45.42c.61-.2 1.15-.43 1.67-.66z"/><path fill="#377FFF" d="M778.3 261.34l-5.86 48.7-.08.67a.77.77 0 01-.77.67h-.1a.75.75 0 01-.67-.85l.05-.4 5.85-48.51 1.59-.28zM766.9 311.38h-.1a.77.77 0 01-.78-.67l-.07-.64-5.88-48.63c.52.1 1.05.18 1.6.26l5.84 48.42.05.41c.05.41-.25.8-.66.85z"/><g fill="#377FFF"><path d="M790.5 253.7c0 2.15-2.03 4.1-5.37 5.61-.51.23-1.08.46-1.64.67a35.62 35.62 0 01-5.16 1.38c-.5.1-1.05.18-1.59.29-2.23.33-4.66.53-7.2.56h-1.44a50.1 50.1 0 01-8-.74c-1.98-.36-3.8-.82-5.41-1.39-.57-.2-1.13-.41-1.65-.64-3.5-1.51-5.64-3.51-5.64-5.72 0-.18.03-.36.05-.54.72-4.44 10.06-7.92 21.5-7.92s20.8 3.5 21.5 7.92c.02.16.04.33.04.51z"/><path d="M769.84 309.94c0 .05 0 .13-.02.18a.77.77 0 01-.74.6.77.77 0 01-.75-.6c-.02-.05-.02-.1-.02-.15l-.26-47.5c0-.1.02-.18.05-.29h1.44c.02.08.05.16.05.26l.25 47.5z"/></g><path fill="#FFCF2D" d="M769.08 260.62a43.88 43.88 0 01-12.14-1.92l-12.1-50.76h11.67l12.57 52.68z"/><g fill="#FFF"><path d="M758.02 214.35h-4.77a.64.64 0 01-.64-.64c0-.36.28-.64.64-.64h4.46l.31 1.28zM759.3 219.73h-4.77a.64.64 0 01-.64-.64c0-.36.28-.64.64-.64H759l.3 1.28zM760.59 225.12h-4.78a.64.64 0 01-.64-.64c0-.36.29-.64.64-.64h4.47l.3 1.28zM761.9 230.5h-4.78a.64.64 0 01-.64-.63c0-.36.28-.65.64-.65h4.47l.3 1.29zM763.18 235.9h-4.77a.64.64 0 01-.65-.65c0-.36.29-.64.65-.64h4.46l.3 1.28zM764.46 241.28h-4.54a.64.64 0 01-.64-.64c0-.36.28-.64.64-.64h4.23l.3 1.28zM765.74 246.67h-4.8a.64.64 0 01-.64-.65c0-.35.29-.64.64-.64h4.5l.3 1.29zM767.02 252.05h-4.8a.64.64 0 01-.63-.64c0-.36.28-.64.64-.64h4.49l.3 1.28zM768.3 257.41c-.05.03-.1.03-.17.03h-4.88a.64.64 0 01-.64-.64c0-.36.28-.64.64-.64H768l.3 1.25z"/></g><g><path fill="#FF6576" d="M648.67 307.56s-.03.03 0 0l-1.08 3.93c-.03.1-.1.15-.18.12l-55.4-16.54c-.08-.03-.1-.13-.08-.2l1.05-3.9c0-.06.05-.08.08-.1.03-.03.08-.03.1-.03l55.4 16.54c.03 0 .06.05.08.08.03.02.03.08.03.1z"/><path fill="#FFCF2D" d="M593.8 291.07l-1.12 4.18c-.08.28-.31.46-.54.41l-1.26-.39c-.2-.05-.33-.35-.26-.64l1.13-4.18c.08-.28.31-.46.54-.4l1.26.38c.2.05.33.33.25.64z"/><path fill="#FF6576" d="M588.7 290.76l-.51 1.95c-.16.54.18 1.1.74 1.28l1.77.52 1.05-3.93-1.77-.51a1.03 1.03 0 00-1.28.7z"/><path fill="#FFF" d="M648.51 307.54l1.67 1.69 1.28 1.3-1.74.42-2.26.51z"/><path fill="#FF6576" d="M651.6 310.56c-.03.1-.09.16-.14.16l-4 .92c-.05 0-.1 0-.13-.05-.02-.05-.02-.1-.02-.16l1.05-3.9c.03-.05.05-.1.1-.12.05-.03.1-.03.13.02l2.95 3c.05 0 .08.06.05.13zm-3.93.67l3.46-.8-2.54-2.59-.92 3.39z"/><g><path fill="#F0E1D4" d="M650.18 309.23l1.28 1.3-1.74.42z"/><path fill="#FF6576" d="M651.6 310.56c-.03.1-.09.16-.14.16l-1.74.4c-.05 0-.1 0-.13-.05-.02-.05-.02-.1-.02-.15l.46-1.7c.02-.04.05-.1.1-.12.05-.03.1-.03.13.03l1.28 1.3c.05 0 .08.06.05.13z"/></g></g><path fill="#FF6576" d="M778.46 226.53c0 .16 0 .33-.02.49l-4.18 33.34a48.2 48.2 0 01-5.18.29l2.05-34.35a3.68 3.68 0 017.33.23z"/></g><g fill-rule="nonzero"><path fill="#FFF" d="M237.79 296.93H114.63a8.07 8.07 0 01-7.5-5.13l-33.7-84.52a6.16 6.16 0 015.61-8.47h123.17c3.3 0 6.26 2.04 7.49 5.14l33.7 84.51a6.14 6.14 0 01-5.61 8.47z"/><path fill="#FFCF2D" d="M237.79 297.7H114.63a8.8 8.8 0 01-8.2-5.62l-33.7-84.52a7.02 7.02 0 01.67-6.48 6.8 6.8 0 015.64-3.05h123.17a8.8 8.8 0 018.19 5.61l33.7 84.52a6.96 6.96 0 01-.65 6.46 6.77 6.77 0 01-5.66 3.07zM79.04 199.57c-1.78 0-3.38.86-4.38 2.36a5.43 5.43 0 00-.53 5.06l33.7 84.52a7.3 7.3 0 006.8 4.65h123.16c1.8 0 3.4-.87 4.41-2.4 1-1.5 1.18-3.35.5-5.03L209 204.23a7.3 7.3 0 00-6.8-4.65H79.05z"/><path fill="#FFCF2D" d="M232.21 297h-117.5a7.71 7.71 0 01-7.14-4.85L75.42 212A5.82 5.82 0 0180.8 204h117.5a7.71 7.71 0 017.14 4.85L237.58 289a5.83 5.83 0 01-5.37 8.01z"/><path fill="#FFF" d="M159.43 261c-3.5 0-6.8-1.4-9.28-3.94a10.98 10.98 0 01-3.15-7.72 10.9 10.9 0 013.15-7.72 8.62 8.62 0 0112.38 0 7.48 7.48 0 010 10.41 5.89 5.89 0 01-8.45 0c-.4-.41-.4-1.06 0-1.47a1 1 0 011.45 0 3.88 3.88 0 005.58 0 5.37 5.37 0 000-7.5 6.65 6.65 0 00-9.54 0 9 9 0 000 12.54 10.86 10.86 0 007.84 3.33c2.97 0 5.76-1.17 7.84-3.32a1 1 0 011.45 0c.4.41.4 1.06 0 1.48a12.9 12.9 0 01-9.27 3.91z"/><g><path fill="#FFF" d="M281.54 306.04h-167.1a3.56 3.56 0 01-3.49-3.64v-1.76a3.56 3.56 0 013.49-3.64h167.1a3.56 3.56 0 013.48 3.64v1.76a3.6 3.6 0 01-3.48 3.64z"/><path fill="#FFCF2D" d="M281.54 306.83h-167.1c-2.33 0-4.24-2-4.24-4.43v-1.76c0-2.44 1.9-4.43 4.24-4.43h167.1c2.33 0 4.23 2 4.23 4.43v1.76c-.02 2.44-1.93 4.43-4.23 4.43zm-167.1-9.05a2.8 2.8 0 00-2.74 2.86v1.76a2.8 2.8 0 002.74 2.86h167.1c1.47 0 2.7-1.29 2.73-2.86v-1.76a2.8 2.8 0 00-2.73-2.86h-167.1z"/></g></g></g></svg>