<svg width="160" height="148" xmlns="http://www.w3.org/2000/svg"><g fill="none" fill-rule="evenodd"><path d="M147.58 73.79c0 40.753-33.037 73.79-73.79 73.79C33.037 147.58 0 114.543 0 73.79 0 33.037 33.037 0 73.79 0c40.753 0 73.79 33.037 73.79 73.79" fill="#FFF1C1"/><path d="M113.428 121.118c1.14 3.94-8.73 7.432-8.73 7.432l-1.031 12.73a73.367 73.367 0 01-26.615 6.23h-6.524a73.64 73.64 0 01-17.386-2.858 198.59 198.59 0 00-3.163-18.536c-1.661-7.488-4.02-15.75-7.28-22.677C34.372 85.756 22.08 86.881 22.08 86.881a28.91 28.91 0 0119.835-15.214l11.544-2.428c40.223 12.17 57.005 0 57.005 0l4.498 1.4a14.93 14.93 0 019.575 9.097l1.586 4.305c-8.477 1.979-14.879 7.346-17.185 10.932l4.49 26.145" fill="#000838"/><path d="M100.157 128.8c-1.188 0-1.948-.094-2.005-.1a.322.322 0 01.081-.639c.098.012 9.798 1.166 14.603-5.24a.322.322 0 01.515.386c-2.086 2.78-5.38 4.612-9.522 5.295a22.73 22.73 0 01-3.672.298" fill="#000838"/><path d="M83.162 138.951c.007 1.252-1.047 2.26-2.356 2.252l-26.545-.166c-.647-.003-1.175-.507-1.181-1.126l.001.174-2.427-.015.003.314c.002.397-.461.638-.809.415-.323-.206-.516-.47-.52-1.003l-.262-40.282a1.453 1.453 0 011.458-1.463l29.456.077c.55.002.991-.262.987-.59-.001-.164-.113-.311-.296-.42a1.38 1.38 0 00-.702-.176L49.8 96.846c-.345-.001-.59-.353-.456-.67.238-.566.793-.752 1.55-.747l29.614.181c1.309.008 2.377 1.03 2.385 2.282l.268 41.06" fill="#FD6679"/><path d="M80.967 97.538c.004.328-.437.592-.987.59l-28.864-.081-.001-1.195 28.854.09c.275 0 .523.069.702.177.183.108.295.255.296.42" fill="#FFF"/><path d="M89.843 102.781l.267 41.06c.009 1.253-1.045 2.26-2.354 2.253l-26.546-.166c-.648-.004-1.177-.51-1.18-1.13l-.262-40.096c-.004-.667.557-1.205 1.254-1.2l25.868.16c.529.004.993-.372 1.024-.878a.926.926 0 00-.293-.737 1.009 1.009 0 00-.703-.284l-28.335-.176c-.697-.005-1.258.533-1.254 1.2l.277 42.487c.002.398-.46.638-.808.416-.323-.206-.516-.471-.52-1.004l-.274-42.114c-.008-1.253 1.046-2.262 2.355-2.254l29.1.182c1.309.009 2.375 1.03 2.384 2.281" fill="#007FFF"/><path d="M87.917 102.72c.002.523-.438.947-.987.943l-25.908-.16c-.697-.006-1.258.53-1.254 1.199l.263 40.274-2.427-.016-.275-42.173c-.004-.668.557-1.205 1.254-1.2l28.335.176c.276.002.523.108.703.284.183.17.293.409.296.673" fill="#FFF"/><path d="M10.454 11.894c-4.77 0-8.652 3.882-8.652 8.653v8.994c0 4.77 3.881 8.652 8.652 8.652h20.82c1.868 0 3.567.95 4.547 2.539.012.02.023.04.033.061l.627 1.42v-1.86c0-1.133.816-2.09 1.94-2.276a8.618 8.618 0 007.228-8.536v-8.994c0-4.771-3.882-8.653-8.653-8.653H10.454zm26.542 33.269a.515.515 0 01-.47-.307l-1.6-3.613a4.284 4.284 0 00-3.652-2.02h-20.82c-5.338 0-9.682-4.344-9.682-9.682v-8.994c0-5.339 4.344-9.682 9.682-9.682h26.542c5.339 0 9.682 4.343 9.682 9.682v8.994a9.644 9.644 0 01-8.09 9.551 1.277 1.277 0 00-1.077 1.26v4.296a.515.515 0 01-.515.515z" fill="#000838"/><path d="M19.599 20.476a2.546 2.546 0 01-1.806-.747l-.16-.16a1.912 1.912 0 00-2.702 0l-.098.098a2.556 2.556 0 01-3.611 0l-.202-.202c-.36-.36-.84-.56-1.35-.56-.51 0-.99.2-1.351.56a.322.322 0 01-.455-.455 2.537 2.537 0 011.806-.748c.682 0 1.323.266 1.805.748l.202.202c.36.36.84.56 1.35.56.51 0 .99-.2 1.351-.56l.098-.098a2.536 2.536 0 011.806-.748c.682 0 1.323.265 1.806.748l.16.16a1.912 1.912 0 002.701 0l.285-.285a2.556 2.556 0 013.611 0 1.913 1.913 0 002.702 0l.129-.129a2.537 2.537 0 011.805-.748c.682 0 1.324.266 1.806.748l.196.196a1.913 1.913 0 002.701 0l.1-.1a2.537 2.537 0 011.807-.748c.682 0 1.323.265 1.805.748a.322.322 0 11-.455.455c-.36-.361-.84-.56-1.35-.56-.51 0-.99.199-1.351.56l-.1.1a2.536 2.536 0 01-1.806.748 2.536 2.536 0 01-1.806-.748l-.196-.196c-.36-.36-.84-.56-1.35-.56-.51 0-.99.2-1.351.56l-.13.13a2.556 2.556 0 01-3.61 0 1.913 1.913 0 00-2.702 0l-.285.284a2.546 2.546 0 01-1.805.747M19.599 25.398a2.546 2.546 0 01-1.806-.746l-.16-.16a1.912 1.912 0 00-2.702 0l-.098.097a2.556 2.556 0 01-3.611 0l-.202-.201c-.36-.361-.84-.56-1.35-.56-.51 0-.99.199-1.351.56a.322.322 0 11-.455-.455 2.537 2.537 0 011.806-.748c.682 0 1.323.265 1.805.748l.202.202c.36.36.84.559 1.35.559.51 0 .99-.199 1.351-.56l.098-.098a2.536 2.536 0 011.806-.747c.682 0 1.323.265 1.806.747l.16.16a1.912 1.912 0 002.701 0l.285-.284a2.556 2.556 0 013.611 0 1.913 1.913 0 002.702 0l.129-.13a2.537 2.537 0 011.805-.747c.682 0 1.324.265 1.806.748l.196.196a1.913 1.913 0 002.701 0l.1-.1a2.537 2.537 0 011.807-.748c.682 0 1.323.265 1.805.748a.322.322 0 11-.455.455c-.36-.361-.84-.56-1.35-.56-.51 0-.99.199-1.351.56l-.1.1a2.536 2.536 0 01-1.806.748 2.536 2.536 0 01-1.806-.748l-.196-.196c-.36-.361-.84-.56-1.35-.56-.51 0-.99.199-1.351.56l-.13.129a2.556 2.556 0 01-3.61 0 1.913 1.913 0 00-2.702 0l-.285.285a2.546 2.546 0 01-1.805.746M19.599 30.258a2.537 2.537 0 01-1.806-.748l-.16-.16a1.912 1.912 0 00-2.702 0l-.098.098a2.536 2.536 0 01-1.805.748 2.536 2.536 0 01-1.806-.748l-.202-.202c-.36-.36-.84-.56-1.35-.56-.51 0-.99.2-1.351.56a.322.322 0 01-.455-.455 2.537 2.537 0 011.806-.748c.682 0 1.323.266 1.805.748l.202.202c.36.36.84.56 1.35.56.51 0 .99-.2 1.351-.56l.098-.098a2.556 2.556 0 013.612 0l.16.16c.36.36.84.56 1.35.56.51 0 .99-.2 1.351-.56l.285-.285a2.556 2.556 0 013.611 0 .321.321 0 11-.455.455 1.913 1.913 0 00-2.701 0l-.285.285a2.537 2.537 0 01-1.805.748" fill="#000838"/><path d="M92.533 126c.59-.146 1.11.418.933.998l-3.149 10.338a7.598 7.598 0 01-5.027 5.106l-5.57 1.734c9.609 0 8.586 3.334 8.586 3.334H22.494c-14.274 0-23.524-15.063-17.068-27.794l16.655-32.835s12.292-1.125 20.618 16.558l-11.657 21.03a1.11 1.11 0 00.97 1.647h48.605s.514 3.334-5.252 3.334c-3.843 0 .348 2.64 7.817 2.175 4.781-.299 5.952-4.79 9.351-5.626" fill="#94545C"/><path d="M80.621 140.895a.322.322 0 01-.096-.63l5.57-1.735a7.263 7.263 0 004.814-4.889.322.322 0 11.617.183 7.905 7.905 0 01-5.24 5.322l-5.57 1.734a.356.356 0 01-.095.015" fill="#000838"/><path d="M82.037 137.034a.322.322 0 01-.097-.63l5.57-1.734c2.153-.67 3.815-2.501 4.557-5.018a.322.322 0 11.617.182c-.805 2.728-2.62 4.713-4.982 5.45l-5.57 1.736a.356.356 0 01-.095.014M58.454 126.567v7.805a4.976 4.976 0 012.153 0v-7.805h-2.153zm2.816 8.677l-.437-.142a4.265 4.265 0 00-2.605 0l-.437.142v-9.32h3.479v9.32zM58.454 147.06h2.153v-3.658a4.976 4.976 0 01-2.153 0v3.657zm2.816.643H57.79v-5.174l.437.143c.834.271 1.77.271 2.605 0l.437-.143v5.174z" fill="#000838"/><path d="M59.48 134.897c-2.2 0-3.99 1.79-3.99 3.99s1.79 3.99 3.99 3.99 3.99-1.79 3.99-3.99-1.79-3.99-3.99-3.99zm0 8.623a4.638 4.638 0 01-4.634-4.633 4.638 4.638 0 014.634-4.633 4.638 4.638 0 014.633 4.633 4.638 4.638 0 01-4.633 4.633z" fill="#000838"/><path d="M62.555 139.209h-4.157l2.488-2.292a.32.32 0 11.436.472l-1.276 1.176h2.509a.322.322 0 010 .644" fill="#000838"/><path d="M159.304 42.843l-8.644 92.143c-.663 7.072-6.61 12.376-13.574 12.376-.427 0-.857-.02-1.29-.06-4.697-.442-8.554-3.186-10.655-6.954l-11.773-17.741c.173-.485.208-.983.062-1.49l-4.49-26.144c2.306-3.586 8.707-8.953 17.184-10.932l5.307 14.416 6.473-27.183-2.187-1a8.531 8.531 0 01-4.971-7.351l-.638-13.414.49.046a4.008 4.008 0 013.449 2.781l1.012 3.192a2.39 2.39 0 002.057 1.656l.614.058a2.825 2.825 0 003.024-3.412l-.363-1.672a2.094 2.094 0 00-1.852-1.642l-5.47-.513a2.904 2.904 0 01-2.556-2.223l-.29-1.585a.536.536 0 01.578-.63l10.628.996a3.48 3.48 0 012.348 1.238l-6.43-9.394a2.193 2.193 0 01.905-3.238l6.424 5.73-.446-5.5a2.195 2.195 0 012.393-2.363l6.787 19.257 2.63-7.37a3.152 3.152 0 013.264-2.078" fill="#94545C"/><path d="M126.177 120.016a.322.322 0 01-.313-.396l4.911-20.71a.321.321 0 11.626.15l-4.911 20.708a.321.321 0 01-.313.248M148.959 61.541a.322.322 0 01-.289-.465l4.452-8.928a.322.322 0 01.576.287l-4.451 8.928a.322.322 0 01-.288.178M137.904 71.273l3.96.372-5.576 6.734 1.616-7.106M152.839 72.98c-.128 0-.256-.006-.385-.019a.322.322 0 11.06-.64 3.45 3.45 0 003.753-3.11.322.322 0 11.641.06 4.096 4.096 0 01-4.07 3.708M145.401 50.19a.322.322 0 01-.32-.296l-.714-8.959a.322.322 0 01.642-.051l.713 8.96a.322.322 0 01-.32.347M63.68 51.72a6.632 6.632 0 01-1.71-8.524c4.695-8.257 14.651-23.976 21.99-23.135 9.541 1.095 21.147 5.35 21.58 8.399.43 3.049 1.991 19.307 9.636 24.515 0 0-19.84 23.255-51.495-1.256z" fill="#000838"/><path d="M117.099 51.641a.32.32 0 01-.152-.039c-7.696-4.148-11-18.17-12.086-22.779-.077-.33-.142-.603-.194-.813a.322.322 0 01.624-.155c.053.211.118.488.197.82.518 2.202 1.597 6.782 3.494 11.344 2.332 5.609 5.114 9.316 8.27 11.017a.322.322 0 01-.153.605" fill="#000838"/><path d="M110.466 69.24s-16.782 12.169-57.006 0l12.262-3.118a14.301 14.301 0 009.772-8.594l5.508-13.91h15.756v21.138l13.708 4.483" fill="#94545C"/><path d="M96.968 43.767l-.238 14.517c-10.1-3.155-12.198-8.362-12.198-8.362l-.058-5.991 12.494-.164" fill-opacity=".328" fill="#000838"/><path d="M83.144 41.217l.529 6.19a5.025 5.025 0 002.606 3.99c2.342 1.271 6.505 2.802 12.988 2.809a5.44 5.44 0 005.361-4.56c1.103-6.696 2.196-18.994-3.757-22.072 0 0-10.887 8.238-15.657 10.658-1.22.62-2.188 1.622-2.07 2.985" fill="#94545C"/><path d="M78.81 46.532h4.9l-.386-5.904c0-1.727-1.4-3.126-3.126-3.126h-1.389a4.516 4.516 0 100 9.03" fill="#94545C"/><path d="M81.65 42.416a.322.322 0 01-.321-.321c0-1.22-.992-2.213-2.212-2.213a.322.322 0 010-.643 2.859 2.859 0 012.855 2.856.322.322 0 01-.321.321" fill="#000838"/><path d="M87.335 87.47a.319.319 0 01-.256-.127L69.633 64.415a.322.322 0 11.513-.39l17.113 22.493 9.59-21.892a.321.321 0 11.59.259l-9.81 22.392a.326.326 0 01-.294.193" fill="#FFF"/><path d="M87.405 87.47c-1.4 0-2.538 1.388-2.538 3.094s1.139 3.094 2.538 3.094c1.4 0 2.539-1.388 2.539-3.094s-1.14-3.094-2.54-3.094zm0 6.832c-1.754 0-3.182-1.677-3.182-3.738s1.428-3.737 3.182-3.737c1.755 0 3.182 1.676 3.182 3.737 0 2.06-1.427 3.738-3.182 3.738z" fill="#FFF"/><path d="M97.475 32.376a.322.322 0 01-.25-.525 224.943 224.943 0 013.79-4.488.32.32 0 11.486.422c-.022.025-2.193 2.528-3.776 4.472a.323.323 0 01-.25.119M100.83 44.392h-1.65a.322.322 0 010-.644h1.298c-.277-3.282.263-5.767 1.608-7.387 1.287-1.55 2.833-1.699 2.899-1.705a.321.321 0 01.055.641c-.02.002-1.364.145-2.471 1.49-1.269 1.542-1.747 3.981-1.418 7.25a.32.32 0 01-.083.249.32.32 0 01-.238.106" fill="#000838"/><path d="M101.017 46.453s-2.5.661-5.647-.402c0 0 .242 2.446 2.996 2.589 2.17.112 2.65-2.187 2.65-2.187" fill="#FFF"/><path d="M95.438 39.983c.045.537-.234 1-.627 1.033-.391.033-.745-.375-.791-.912-.047-.537.234-.999.625-1.032.393-.034.747.374.793.911M104.569 39.846c.04.46-.2.857-.537.886-.336.029-.64-.321-.68-.782-.038-.46.201-.856.537-.885.336-.029.641.321.68.781M90.692 36.912a.322.322 0 01-.211-.565c.099-.085 2.449-2.078 5.639-1.547a.321.321 0 01-.106.635c-2.884-.48-5.09 1.38-5.113 1.4a.32.32 0 01-.21.077" fill="#000838"/><path d="M94.731 37.02a3.516 3.516 0 00-2.709 1.259 3.52 3.52 0 00-.82 2.58 3.517 3.517 0 001.246 2.406c.724.609 1.64.9 2.582.82a3.543 3.543 0 003.225-3.828 3.545 3.545 0 00-3.524-3.237zm-.01 7.721a4.15 4.15 0 01-2.687-.984 4.155 4.155 0 01-1.472-2.842 4.151 4.151 0 01.969-3.051 4.152 4.152 0 012.841-1.473 4.155 4.155 0 013.052.97 4.155 4.155 0 011.472 2.841 4.188 4.188 0 01-4.175 4.54zM106.057 37.02a3.516 3.516 0 00-2.709 1.259 3.52 3.52 0 00-.82 2.58 3.517 3.517 0 001.245 2.406c.724.609 1.64.9 2.582.82a3.543 3.543 0 003.225-3.828 3.545 3.545 0 00-3.523-3.237zm-.01 7.721a4.15 4.15 0 01-2.688-.984 4.155 4.155 0 01-1.472-2.842 4.151 4.151 0 01.969-3.051 4.152 4.152 0 012.841-1.473 4.155 4.155 0 013.052.97 4.155 4.155 0 011.472 2.841 4.188 4.188 0 01-4.175 4.54zM99.737 94.79h-.02a.97.97 0 01-.87-.591l-1.736-4.12a.966.966 0 011.779-.751l.897 2.13 3.033-6.42a.966.966 0 011.747.825l-3.958 8.373a.966.966 0 01-.872.554" fill="#FFF"/><path d="M96.82 87.418a.966.966 0 01-.875-.557l-.467-1.001a.965.965 0 011.75-.816l.468 1a.966.966 0 01-.875 1.374" fill="#007FFF"/><path d="M104.457 94.79h-.02a.968.968 0 01-.869-.591l-1.736-4.12a.966.966 0 011.779-.751l.897 2.13 3.034-6.42a.965.965 0 011.745.825l-3.957 8.373a.964.964 0 01-.873.554" fill="#FFF"/></g></svg>