<svg width="244" height="200" xmlns="http://www.w3.org/2000/svg" xmlns:xlink="http://www.w3.org/1999/xlink"><defs><path d="M99.72 199.43C44.64 199.43 0 154.8 0 99.72 0 44.64 44.64 0 99.72 0c55.07 0 99.71 44.64 99.71 99.72 0 55.07-44.64 99.71-99.71 99.71z" id="a"/></defs><g fill="none" fill-rule="evenodd"><path d="M121.72 199.43C66.64 199.43 22 154.8 22 99.72 22 44.64 66.64 0 121.72 0c55.07 0 99.71 44.64 99.71 99.72 0 55.07-44.64 99.71-99.71 99.71z" fill="#C3F3F5"/><g opacity=".98"><path d="M80.27 53.44h79.75a48.9 48.9 0 0140.31 21.2l36.54 53.78c3.01 4.37.28 10.33-5.03 10.33h-40.67l-16.24-21.21a3.54 3.54 0 00-6.42 1.79l-3.27 39.95H78.25l-7.33-40.62a3.55 3.55 0 00-6.4-1.53l-14.93 19.2H.96L38.9 76.24a48.95 48.95 0 0141.37-22.8" fill="#FFF"/><path d="M79.62 160.01h85.64l3.23-39.65a4.14 4.14 0 017.49-2.13l16.01 21.11h40.24c2.13 0 4-1.12 4.98-2.99a6.32 6.32 0 00-.45-6.45l-36.43-54.15a48.04 48.04 0 00-39.67-21.08H81.14a47.9 47.9 0 00-23.23 6.04 48.67 48.67 0 00-17.5 16.63L3.15 136.91h47.08l14.7-19.1a4.07 4.07 0 014.36-1.65 4.09 4.09 0 013.13 3.46l7.2 40.4zm86.78 1.23H78.6l-7.4-41.44a2.88 2.88 0 00-2.2-2.43 2.87 2.87 0 00-3.08 1.16l-.02.02-15.06 19.59H.96l38.42-61.45c4.44-7.11 10.63-13 17.92-17.06a49.1 49.1 0 0123.82-6.19h79.52a49.23 49.23 0 0140.69 21.6l36.42 54.17a7.56 7.56 0 01.53 7.72 6.73 6.73 0 01-6.05 3.64h-40.85l-16.4-21.63a2.84 2.84 0 00-3.14-1.12 2.9 2.9 0 00-2.15 2.62l-3.3 40.8z" fill="#3FB1B5"/><path fill="#FF6576" d="M129.39 75l12.69 52.92h-31.36L124.65 75z"/><g fill="#FFF"><path d="M119.54 93.62v34.3h-.98V96.99l.33-1.14zM127.38 127.92h.98V71.08h-.98zM137.18 105.31v22.61h-.98v-26.46z"/><path d="M140.12 120.08H111.7l.28-.98h27.88zM138.16 109.3h-22.54l.28-.98h22zM135.22 96.56h-16.66l.28-.98h16.12zM132.28 84.8H121.5l.27-.98h10.25zM129.34 72.06h-5.88l.3-.98h5.31z"/></g><path fill="#FFF" d="M134.24 74.4l5.34 5.5 17.2-25.48h-15.24z"/><path d="M135.63 74.16l4.36 4.75 15.56-24.25h-13.17l-6.75 19.5zm4.54 6.72l-5.93-6.42 7.3-21.02h16.22l-17.59 27.44z" fill="#3FB1B5"/><path fill="#FFF" d="M119.54 74.4l-5.25 5.5-18.27-25.48h16.35z"/><path d="M97.4 54.66l17.22 24.3 4.49-4.77-6.93-19.53H97.4zm17.07 26.22L95.04 53.44h18.02l7.46 21.04-6.05 6.4z" fill="#3FB1B5"/><path d="M244 144.43a21.5 21.5 0 01-18.42 21.32l-45.97 6.75-10.09 1.48v-39.02l3.1-.73 44.85-10.63a21.53 21.53 0 0122.71 8.74 21.06 21.06 0 013.82 12.09M0 144.43a21.5 21.5 0 0018.42 21.32l45.97 6.75 10.09 1.48v-39.02l-3.1-.73-44.85-10.63a21.53 21.53 0 00-22.71 8.74A21.06 21.06 0 000 144.43l41.5 15.07" fill="#D2948E"/><path d="M115.28 146.61c-.92 0-1.62.76-1.62 1.75v5.18c0 .99.7 1.75 1.62 1.75h11.46c.9 0 1.62-.78 1.62-1.75v-5.18c0-.99-.7-1.75-1.62-1.75h-11.46zm11.46 9.73h-11.46c-1.43 0-2.6-1.26-2.6-2.8v-5.18c0-1.54 1.17-2.8 2.6-2.8h11.46c1.43 0 2.6 1.26 2.6 2.8v5.18c0 1.54-1.17 2.8-2.6 2.8z" fill="#FFF"/><path d="M150.9 57.3a5.03 5.03 0 01-5.02 4.76h-4.57l-.29 4.85c-.25 4-4.2 8.09-8.32 8.09h-11.56c-4.1 0-8.07-4.08-8.32-8.09l-.29-4.85h-4.63a5.04 5.04 0 01-5-4.77 5.1 5.1 0 015.1-5.34h3.9l-.43-7.4a2.71 2.71 0 012.7-2.87h25.53a2.7 2.7 0 012.69 2.88l-.44 7.4h3.95a5.06 5.06 0 015 5.35" fill="#D2948E"/><path d="M141.12 52.46h4.08s3.9-14.27.15-17.94c-3.76-3.66-26.83-12.1-34.29-6.84-5.44 3.85-2.47 24.78-2.47 24.78h3s12.13-8.76 14.04-8c1.9.75-5.49 4.44-4 5.15 5.54 2.69 15.51-7.04 17.8-7.04 2.3 0 1.7 9.89 1.7 9.89" fill="#000838"/><path d="M136.73 56.38c-.1 0-.21-.02-.3-.08a7.65 7.65 0 00-6.46-.66c-.23.08-.5-.02-.6-.22-.09-.2.03-.43.26-.5a8.59 8.59 0 017.37.78c.21.13.24.39.07.54a.49.49 0 01-.34.14M127.84 70.1a5.5 5.5 0 01-2.18-.51c-.18-.09-.29-.33-.22-.56.07-.22.27-.34.46-.26 3.5 1.54 4.66-1.24 4.72-1.37.08-.22.3-.3.48-.2.17.11.24.37.17.58-.03.03-.96 2.32-3.43 2.32M126.27 67.16c-.46 0-.92 0-1.34-.04-.96-.06-1.13-1.72-1.34-4.85-.12-1.87-.27-3.98-.7-4.88-1.51-3.06-6.7-1.96-6.76-1.94a.43.43 0 01-.5-.31.42.42 0 01.31-.5c.06-.02 1.46-.31 3.1-.19 2.23.17 3.82 1.06 4.57 2.6.5 1.03.65 3.14.8 5.18.1 1.49.27 3.75.6 4.08 1.15.08 2.89 0 2.9 0 .24-.02.43.17.45.4.02.22-.17.4-.4.43-.04-.02-.83.02-1.7.02M132.28 58.34c.54 0 .98.66.98 1.47 0 .81-.44 1.47-.98 1.47s-.98-.66-.98-1.47c0-.81.44-1.47.98-1.47" fill="#73325A"/><path d="M120.52 58.34c.54 0 .98.66.98 1.47 0 .81-.44 1.47-.98 1.47s-.98-.66-.98-1.47c0-.81.44-1.47.98-1.47M110.37 58.34c-.17 0-.33-.15-.35-.35a2.95 2.95 0 00-2.87-2.84.36.36 0 01-.35-.36c0-.2.16-.37.35-.37a3.68 3.68 0 013.57 3.54c.02.2-.14.38-.33.38h-.02zM142.5 58.34h-.02c-.23-.02-.4-.17-.4-.37.15-1.98 2.1-3.55 4.48-3.55.23 0 .42.16.42.35 0 .19-.19.35-.42.35-1.94 0-3.54 1.27-3.65 2.89-.02.2-.18.33-.41.33" fill="#73325A"/></g><g transform="translate(22)"><mask id="b" fill="#fff"><use xlink:href="#a"/></mask><path d="M152 200H48v-63.13c0-4.91 3.94-8.87 8.77-8.87h86.44a8.82 8.82 0 018.77 8.87L152 200z" fill="#FFCF2D" mask="url(#b)"/><circle stroke="#FFF" stroke-width="1.5" mask="url(#b)" cx="101" cy="160" r="8"/></g></g></svg>