<svg width="724" height="500" viewBox="0 0 724 500" fill="none" xmlns="http://www.w3.org/2000/svg">
<ellipse cx="360" cy="484.118" rx="110.588" ry="15.8824" fill="#EEF3FF"/>
<path d="M502.135 472.585C490.37 472.585 524.118 420.581 539.319 398.126L549.921 403.757C549.921 403.757 515.186 472.584 502.135 472.585Z" fill="#8397CC"/>
<path d="M709.662 473.761C721.427 473.762 687.68 421.758 672.479 399.302L661.877 404.933C661.877 404.933 696.611 473.761 709.662 473.761Z" fill="#8397CC"/>
<rect x="489.411" y="312.941" width="234.118" height="116.471" fill="#DEE5F5"/>
<rect x="501.176" y="323.529" width="210.588" height="95.2941" fill="#EFF2FA"/>
<path d="M605.882 318.824V422.941" stroke="#DEE5F5" stroke-width="5"/>
<path d="M585.882 369.412C585.882 373.31 582.721 376.471 578.823 376.471C574.924 376.471 571.764 373.31 571.764 369.412C571.764 365.513 574.924 362.353 578.823 362.353C582.721 362.353 585.882 365.513 585.882 369.412Z" fill="#8397CC"/>
<path d="M639.999 369.412C639.999 373.31 636.839 376.471 632.94 376.471C629.042 376.471 625.882 373.31 625.882 369.412C625.882 365.513 629.042 362.353 632.94 362.353C636.839 362.353 639.999 365.513 639.999 369.412Z" fill="#8397CC"/>
<rect x="144.853" y="2.5" width="116.176" height="177.353" stroke="#DEE5F5" stroke-width="5"/>
<path d="M152.941 95.8823V171.765H252.353V62.3529L217.058 78.2353L201.764 62.3529L152.941 95.8823Z" fill="#E8EBF2"/>
<path d="M68.2671 481.588C78.7698 422.947 94.524 297.79 94.524 297.79H109.228L87.172 481.588H68.2671Z" fill="#E8EBF2"/>
<path d="M127.081 481.588L135.484 297.79H150.187L143.361 481.588H127.081Z" fill="#DEE5F5"/>
<path d="M369.696 481.588C359.194 422.947 343.439 297.79 343.439 297.79H328.736L350.791 481.588H369.696Z" fill="#E8EBF2"/>
<path d="M310.882 481.588L302.48 297.79H287.776L294.603 481.588H310.882Z" fill="#DEE5F5"/>
<rect x="63.0166" y="285.186" width="300.379" height="15.7541" rx="7.87706" fill="#EFF2FA"/>
<rect x="451.764" y="257.646" width="152.941" height="143.529" rx="25" fill="#FFB754"/>
<path fill-rule="evenodd" clip-rule="evenodd" d="M452.051 278.841L534.255 257.646H546.271L451.772 282.011C451.798 280.936 451.893 279.878 452.051 278.841ZM451.764 359.687V357.802L566.405 257.646H567.445L553.975 341.014L458.909 393.675C458.496 393.254 458.098 392.818 457.716 392.369L543.934 315.987L542.258 313.528L451.764 359.687ZM542.112 401.176C542.381 400.821 542.637 400.478 542.876 400.15C543.599 399.158 544.158 398.323 544.529 397.674C544.715 397.349 544.839 397.098 544.912 396.916C544.949 396.823 544.964 396.769 544.97 396.748L553.975 341.014L604.705 312.912V340.035C599.873 344.746 595.115 349.396 590.534 353.89C578.587 365.609 567.841 376.26 560.084 384.149C556.204 388.094 553.082 391.339 550.934 393.677C549.857 394.848 549.041 395.774 548.501 396.439C548.228 396.775 548.047 397.018 547.941 397.178L547.94 397.179C547.893 397.498 547.792 397.792 547.696 398.031C547.553 398.389 547.358 398.772 547.133 399.164C546.793 399.758 546.35 400.436 545.831 401.176H542.112Z" fill="#E8992B" fill-opacity="0.4"/>
<path d="M483.067 330.994C488.528 323.853 508.099 317.866 514.05 318.917L524.553 321.542C526.478 320.667 531.485 318.497 536.106 316.816C541.882 314.715 559.737 326.269 566.564 334.671C572.025 341.392 580.392 354.976 578.117 368.279L560 375.882L566.564 401.176H488.824L494.118 378.235L471.514 373.005C467.838 349.374 477.606 338.136 483.067 330.994Z" fill="#F65D6D"/>
<path fill-rule="evenodd" clip-rule="evenodd" d="M470.979 357.681C471.023 357.248 471.073 356.821 471.128 356.4L475.806 353.424C476.039 353.275 476.348 353.344 476.496 353.577C476.645 353.81 476.576 354.119 476.343 354.267L470.979 357.681ZM515.678 401.176H514.206C514.206 401.007 514.293 400.841 514.449 400.748L520.331 397.218C520.568 397.076 520.875 397.153 521.017 397.39C521.159 397.627 521.083 397.934 520.846 398.076L515.678 401.176ZM565.206 401.176H563.805L559.135 398.063C558.905 397.91 558.843 397.599 558.996 397.37C559.149 397.14 559.46 397.078 559.69 397.231L564.984 400.76C565.128 400.857 565.206 401.015 565.206 401.176ZM575.733 350.214C575.885 350.604 576.034 350.997 576.177 351.394C576.08 351.414 575.976 351.406 575.878 351.364L571.76 349.599C571.506 349.49 571.389 349.196 571.497 348.943C571.606 348.689 571.9 348.571 572.154 348.68L575.733 350.214ZM552.457 322.754C552.798 322.973 553.139 323.196 553.479 323.422L549.79 324.898C549.533 325 549.242 324.876 549.14 324.619C549.037 324.363 549.162 324.072 549.418 323.969L552.457 322.754ZM483.711 330.228C484.019 329.891 484.356 329.557 484.72 329.228H487.839C488.115 329.228 488.339 329.452 488.339 329.728C488.339 330.004 488.115 330.228 487.839 330.228H483.722C483.718 330.228 483.715 330.228 483.711 330.228ZM503.499 324.681C503.311 324.479 502.994 324.468 502.792 324.656C502.59 324.845 502.58 325.161 502.768 325.363L503.11 325.043L502.768 325.363L502.768 325.363L502.768 325.363L502.77 325.365L502.776 325.371L502.799 325.396L502.887 325.492C502.965 325.575 503.077 325.696 503.216 325.847C503.494 326.15 503.878 326.571 504.305 327.047C505.163 328.002 506.182 329.167 506.856 330.035C507.026 330.253 507.34 330.292 507.558 330.122C507.776 329.953 507.815 329.639 507.646 329.421C506.948 328.523 505.908 327.335 505.05 326.379C504.619 325.899 504.232 325.475 503.952 325.171C503.812 325.018 503.699 324.896 503.621 324.812L503.531 324.715L503.507 324.689L503.501 324.683L503.5 324.681L503.499 324.681L503.499 324.681L503.14 325.016L503.499 324.681ZM524.664 325.845C524.468 325.65 524.152 325.65 523.956 325.845C523.761 326.04 523.761 326.357 523.956 326.552L526.309 328.905C526.505 329.1 526.821 329.1 527.016 328.905C527.212 328.71 527.212 328.393 527.016 328.198L524.664 325.845ZM541.869 327.375C541.869 327.099 541.645 326.875 541.369 326.875C541.093 326.875 540.869 327.099 540.869 327.375V332.081C540.869 332.357 541.093 332.581 541.369 332.581C541.645 332.581 541.869 332.357 541.869 332.081V327.375ZM522.234 338.967C522.464 338.814 522.526 338.504 522.373 338.274C522.22 338.044 521.909 337.982 521.68 338.135L516.386 341.665C516.156 341.818 516.094 342.128 516.247 342.358C516.4 342.588 516.71 342.65 516.94 342.497L522.234 338.967ZM569.174 340.79C569.436 340.703 569.577 340.42 569.49 340.158C569.403 339.896 569.12 339.754 568.858 339.842L563.564 341.606C563.302 341.694 563.16 341.977 563.247 342.239C563.335 342.501 563.618 342.642 563.88 342.555L569.174 340.79ZM556.956 389.291C556.889 389.023 556.618 388.86 556.35 388.927C556.082 388.994 555.919 389.265 555.986 389.533L557.162 394.239C557.229 394.507 557.501 394.67 557.769 394.603C558.037 394.536 558.2 394.264 558.133 393.996L556.956 389.291ZM494.03 390.588C494.03 390.312 493.806 390.088 493.53 390.088C493.254 390.088 493.03 390.312 493.03 390.588V395.882C493.03 396.159 493.254 396.382 493.53 396.382C493.806 396.382 494.03 396.159 494.03 395.882V390.588ZM532.853 392.941C532.853 392.665 532.63 392.441 532.353 392.441C532.077 392.441 531.853 392.665 531.853 392.941V396.471C531.853 396.747 532.077 396.971 532.353 396.971C532.63 396.971 532.853 396.747 532.853 396.471V392.941ZM543.937 393.82C544.097 393.595 544.045 393.283 543.82 393.123C543.596 392.962 543.283 393.014 543.123 393.239L540.182 397.356C540.021 397.581 540.073 397.893 540.298 398.054C540.523 398.214 540.835 398.162 540.996 397.938L543.937 393.82ZM502.57 393.667C502.321 393.547 502.022 393.652 501.903 393.901C501.783 394.15 501.888 394.449 502.137 394.568L507.035 396.921C507.284 397.041 507.582 396.936 507.702 396.687C507.821 396.438 507.717 396.14 507.468 396.02L502.57 393.667Z" fill="white"/>
<path d="M537.154 316.815C530.012 313.875 531.378 305.437 532.953 301.586C526.477 298.086 513.943 293.394 515.624 302.637C517.304 311.879 514.923 317.691 513.523 319.441C525.706 324.903 534.354 319.966 537.154 316.815Z" fill="#FFB09E"/>
<path d="M524.825 321.542L537.153 316.291C546.08 316.816 543.415 323.118 537.954 325.218C532.492 327.319 526.226 322.943 524.825 321.542C523.25 323.643 514.283 325.907 511.172 324.168C504.594 320.492 512.747 318.567 514.323 318.392L524.825 321.542Z" fill="white"/>
<path d="M559.5 283C560.215 278.399 556.465 275.956 554.104 277.624C557.882 250.942 542.299 252.325 527.661 248.572C513.023 244.82 506.102 261.1 504.686 273.191C503.269 285.281 502.797 303.625 520.74 306.543C535.095 308.878 544.66 296.795 547.493 290.68C550.799 291.097 558.47 289.619 559.5 283Z" fill="#FFCFBF"/>
<mask id="mask0" mask-type="alpha" maskUnits="userSpaceOnUse" x="504" y="248" width="57" height="59">
<path d="M560.714 282.758C561.43 278.156 556.464 275.955 554.103 277.623C557.881 250.941 542.298 252.324 527.66 248.571C513.022 244.819 506.101 261.099 504.685 273.19C503.268 285.28 502.796 303.624 520.74 306.542C535.094 308.877 544.659 296.794 547.492 290.679C550.798 291.096 559.684 289.377 560.714 282.758Z" fill="#FFCFBF"/>
</mask>
<g mask="url(#mask0)">
<g filter="url(#filter0_f)">
<path d="M557.912 293.75C557.755 301.289 551.516 307.273 543.977 307.116C536.438 306.959 530.454 300.72 530.611 293.181C530.768 285.642 537.007 279.658 544.546 279.815C552.085 279.972 558.069 286.211 557.912 293.75Z" fill="#EF4646" fill-opacity="0.6"/>
<path d="M515.901 283.247C515.744 290.786 509.505 296.77 501.966 296.613C494.427 296.456 488.443 290.217 488.6 282.678C488.757 275.139 494.996 269.155 502.535 269.312C510.074 269.469 516.058 275.708 515.901 283.247Z" fill="#EF4646" fill-opacity="0.6"/>
</g>
</g>
<ellipse cx="515.357" cy="278.648" rx="1.99805" ry="3.50196" transform="rotate(3.78803 515.357 278.648)" fill="#3F3333"/>
<ellipse cx="530.075" cy="281.31" rx="1.99805" ry="3.50196" transform="rotate(9.60318 530.075 281.31)" fill="#3F3333"/>
<path d="M511.368 269.727C512.741 268.159 516.427 265.845 520.192 269.139M531.368 272.08C533.721 271.492 537.839 275.61 537.251 279.139" stroke="#3F3333" stroke-width="1.5" stroke-linecap="round"/>
<path d="M520.372 281.215C520.16 281.673 519.041 283.202 516.262 285.659C513.482 288.116 517.068 289.957 519.208 290.57" stroke="#FF877A" stroke-linecap="round"/>
<path d="M530.192 293.257C524.075 296.551 519.016 294.629 517.251 293.257C517.839 297.374 521.199 299.055 521.957 299.139C527.251 299.728 530.388 295.218 530.192 293.257Z" fill="white"/>
<path fill-rule="evenodd" clip-rule="evenodd" d="M506.257 255.5C502.5 264 500.5 270.5 501 284.5C501.342 294.066 501.83 300.274 503.984 304.5C504.567 305.643 505.303 306.636 506.257 307.5C505.843 309.5 505.263 314 506.257 316C503.338 316.5 496.2 318.4 491 322C485.8 325.6 481.833 332.5 480.5 335.5L517 351C520 345.666 530 335.3 546 336.5C555.577 337.218 560.797 339.197 564.131 340.461C567.76 341.837 569.155 342.366 571.5 339.5C569 333.333 560.9 319.9 548.5 315.5C554.333 305.666 564.6 280.9 559 260.5C552 235 517.5 233.999 506.257 255.5ZM503.984 281.5C503.984 273.5 505.995 267.167 507 265L513 255L519 250.5L541 257.5L547 280C548.5 290 542.7 304.1 527.5 306.5C508.5 309.5 503.984 291.5 503.984 281.5Z" fill="#C63636"/>
<path fill-rule="evenodd" clip-rule="evenodd" d="M548.654 315.238C548.185 315.588 547.473 316.194 546.56 316.971C540.723 321.937 526.65 333.912 515 331C504.137 328.284 501.176 320.959 501.008 317.327C500.981 317.336 500.953 317.345 500.926 317.353C499.552 324.289 501.198 337.393 518.5 337C535.267 336.619 550.643 326.224 557.104 320.341C554.529 318.322 551.653 316.619 548.5 315.5C548.551 315.414 548.602 315.326 548.654 315.238ZM505.718 313.205C525.12 318.581 536.725 309.497 537.915 308.566L537.973 308.521L538 308.5C537.993 308.505 537.984 308.512 537.973 308.521C527.973 316.091 512.827 310.997 506.5 307.5C506.418 307.498 506.335 307.497 506.252 307.495C506.254 307.497 506.256 307.498 506.257 307.5C505.988 308.802 505.648 311.163 505.718 313.205Z" fill="#AF3030"/>
<path d="M522 253C511.2 253 505.833 268 504.5 275.5C507.5 227 544 247.5 546.5 264.999C548.387 278.207 547.5 290.5 547.5 290.5C548 267 535.5 253 522 253Z" fill="#A82B2B"/>
<path d="M474.663 342.024L481.49 332.571C491.993 329.595 514.258 328.685 519.3 348.85C522.451 339.398 535.579 322.803 562.886 332.046V343.074L519.3 348.85L474.663 342.024Z" fill="white"/>
<path d="M470.463 344.692L485.692 395.104C497.77 386.177 515.8 390.379 529.278 395.104C543.142 389.223 565.863 392.654 575.49 395.104L566.038 337.865C547.553 323.582 527.178 338.915 519.301 348.368C497.035 326.522 477.465 336.815 470.463 344.692Z" fill="#0CAF80"/>
<path fill-rule="evenodd" clip-rule="evenodd" d="M516.854 346.086L526.36 394.117C527.353 394.441 528.326 394.772 529.278 395.105C530.487 394.592 531.763 394.15 533.092 393.772L522.69 344.734C521.394 345.99 520.255 347.222 519.3 348.368C518.481 347.565 517.665 346.804 516.854 346.086Z" fill="#07936A"/>
<path d="M575.364 373.283C579.438 372.112 579.823 366.912 579.506 364.458C579.542 363.766 579.149 361.697 577.287 358.96C576.658 358.037 575.853 357.233 574.935 356.556C574.453 354.715 572.846 351.07 570.278 351.216C567.71 351.362 567.921 353.15 568.348 354.026C567.641 353.944 566.918 353.765 566.265 353.947C562.054 355.123 559.74 356.197 559.21 357.747C558.57 359.617 560.342 360.046 561.498 360.025C560.47 360.113 559.941 360.599 559.8 360.849C557.843 364.684 561.667 365.085 562.247 365.191C560.973 365.557 560.513 366.371 560.518 367.869C560.524 369.728 561.895 369.976 562.96 369.843C561.946 370.208 560.738 371.175 562.157 373.26C564.485 376.682 570.271 374.746 575.364 373.283Z" fill="#FFCEBF"/>
<mask id="mask1" mask-type="alpha" maskUnits="userSpaceOnUse" x="559" y="351" width="21" height="25">
<path d="M575.364 373.283C579.438 372.112 579.823 366.912 579.506 364.458C579.543 363.766 579.15 361.697 577.287 358.96C576.659 358.037 575.853 357.234 574.935 356.557C574.453 354.716 572.847 351.07 570.278 351.216C567.71 351.362 567.922 353.151 568.348 354.026C567.641 353.944 566.941 353.917 566.265 353.947C562.327 354.125 560.013 355.198 559.211 357.747C558.618 359.629 560.345 360.047 561.494 360.026C560.469 360.115 559.942 360.599 559.8 360.85C557.843 364.684 561.667 365.085 562.247 365.191C560.974 365.557 560.513 366.371 560.518 367.869C560.524 369.728 561.895 369.976 562.96 369.843C561.946 370.208 560.738 371.175 562.157 373.261C564.485 376.682 570.272 374.746 575.364 373.283Z" fill="#FFCEBF"/>
</mask>
<g mask="url(#mask1)">
<path d="M571.362 367.31C568.401 368.924 564.573 369.761 563.029 369.977C561.176 370.237 558.19 371.068 561.067 372.313C563.944 373.559 569.129 369.497 571.362 367.31Z" fill="#FFB09E"/>
<path d="M568.945 363.435C567.353 364.328 562.995 365.11 560.929 365.4C559.77 365.187 557.8 365.126 559.195 366.579C560.556 367.998 566.134 365.149 568.945 363.435C569.018 363.394 569.086 363.352 569.147 363.311C569.082 363.351 569.014 363.393 568.945 363.435Z" fill="#FFB09E"/>
<path d="M559.289 360.008C562.767 360.645 567.161 358.155 567.508 357.919C566.816 358.891 565.779 360.597 562.653 361.223C560.656 361.623 559.795 360.999 559.289 360.008Z" fill="#FFB09E"/>
<path d="M572.016 354.851C570.066 353.776 567.959 354.108 566.8 353.896C565.641 353.684 567.21 351.815 568.415 351.796C569.62 351.777 570.931 353.754 572.016 354.851Z" fill="#FFB09E"/>
</g>
<path d="M479.09 381.035C474.954 381.963 472.12 377.586 471.22 375.281C470.856 374.691 470.208 372.688 470.528 369.393C470.636 368.281 470.957 367.19 471.438 366.155C470.977 364.309 470.637 360.34 472.96 359.235C475.283 358.131 475.956 359.801 476.002 360.774C476.583 360.362 477.131 359.858 477.791 359.705C482.05 358.715 484.595 358.547 485.804 359.652C487.263 360.986 485.914 362.212 484.891 362.749C485.834 362.333 486.532 362.505 486.776 362.657C490.333 365.081 487.171 367.268 486.713 367.64C488.006 367.35 488.801 367.843 489.516 369.159C490.403 370.793 489.319 371.669 488.321 372.064C489.385 371.897 490.91 372.165 490.665 374.676C490.265 378.795 484.26 379.874 479.09 381.035Z" fill="#FFCEBF"/>
<mask id="mask2" mask-type="alpha" maskUnits="userSpaceOnUse" x="470" y="358" width="21" height="24">
<path d="M479.09 381.035C474.954 381.964 472.12 377.586 471.22 375.281C470.856 374.692 470.208 372.688 470.528 369.393C470.636 368.281 470.957 367.19 471.438 366.156C470.977 364.309 470.636 360.34 472.96 359.236C475.283 358.131 475.956 359.801 476.002 360.774C476.583 360.362 477.184 360.003 477.791 359.705C481.331 357.97 483.876 357.802 485.804 359.652C487.227 361.019 485.913 362.214 484.894 362.747C485.836 362.334 486.532 362.505 486.776 362.657C490.333 365.081 487.171 367.269 486.713 367.64C488.006 367.35 488.801 367.843 489.516 369.16C490.403 370.794 489.319 371.669 488.321 372.064C489.385 371.897 490.909 372.165 490.665 374.676C490.265 378.795 484.26 379.875 479.09 381.035Z" fill="#FFCEBF"/>
</mask>
<g mask="url(#mask2)">
<path d="M479.735 373.874C483.107 373.869 486.867 372.766 488.325 372.214C490.075 371.553 493.094 370.848 491.168 373.322C489.241 375.796 482.743 374.721 479.735 373.874Z" fill="#FFB09E"/>
<path d="M479.995 369.315C481.821 369.334 486.019 367.928 487.97 367.191C488.886 366.448 490.584 365.449 490.058 367.393C489.544 369.291 483.284 369.469 479.995 369.315C479.911 369.314 479.832 369.31 479.758 369.303C479.835 369.307 479.914 369.311 479.995 369.315Z" fill="#FFB09E"/>
<path d="M486.821 361.674C484.076 363.902 479.026 363.827 478.608 363.786C479.682 364.306 481.411 365.306 484.453 364.354C486.397 363.746 486.853 362.786 486.821 361.674Z" fill="#FFB09E"/>
<path d="M473.181 363.259C474.375 361.379 476.383 360.66 477.298 359.917C478.213 359.175 475.94 358.288 474.874 358.85C473.807 359.412 473.606 361.776 473.181 363.259Z" fill="#FFB09E"/>
</g>
<rect y="63.5781" width="182.748" height="203.753" rx="25" fill="#4DEABD"/>
<path fill-rule="evenodd" clip-rule="evenodd" d="M92.3448 63.5781L96.1267 63.5781C89.1683 81.7002 77.8952 108.012 65.7581 131.401C64.4231 133.974 63.0758 136.515 61.7207 139.009C62.4969 140.15 63.2321 141.386 63.9213 142.72C68.8625 152.283 66.7853 163.932 61.2578 175.704C55.7038 187.533 46.4792 199.904 36.3926 211.247C26.2924 222.605 15.2579 233.01 6.00851 240.91C4.23576 242.424 2.52699 243.848 0.901348 245.17C0.573706 243.877 0.331635 242.551 0.181519 241.196C1.32389 240.253 2.50423 239.262 3.71624 238.226C12.8677 230.41 23.7818 220.117 33.7552 208.901C43.7422 197.67 52.7162 185.592 58.063 174.204C63.4364 162.76 64.9622 152.423 60.7857 144.34C60.4611 143.712 60.1268 143.11 59.7832 142.533C52.5215 155.582 45.1009 167.091 38.2152 174.747C33.8527 179.597 29.4981 183.14 25.3431 184.355C23.2125 184.978 21.0817 185.004 19.0573 184.225C17.0458 183.451 15.3132 181.951 13.8437 179.828C2.53573 163.495 10.3794 144.838 22.963 135.077C29.2896 130.169 37.0299 127.303 44.516 128.098C49.9539 128.676 55.1068 131.171 59.3563 135.962C60.4503 133.93 61.5408 131.866 62.6253 129.776C74.4591 106.971 85.4283 81.4491 92.3448 63.5781ZM44.1432 131.608C48.9636 132.12 53.6655 134.434 57.5457 139.288C50.0694 152.867 42.4913 164.715 35.5911 172.386C31.323 177.132 27.5205 180.041 24.3524 180.967C22.8215 181.415 21.4992 181.383 20.3242 180.931C19.1364 180.474 17.9232 179.52 16.7456 177.819C6.87713 163.565 13.4452 146.927 25.1263 137.865C30.9321 133.361 37.7874 130.933 44.1432 131.608Z" fill="#84FFDC"/>
<path d="M182.749 141.171C179.255 143.575 175.315 145.782 171.223 147.573C165.336 150.15 159.039 151.906 153.227 152.092C147.413 152.277 141.902 150.887 137.892 146.949C135.712 144.809 134.066 142.005 133.041 138.488C129.99 144.451 129.308 151.435 130.352 158.964C133.051 178.429 147.196 200.701 159.582 215.331L161.449 217.536L158.635 218.19C127.848 225.347 82.2535 235.819 45.5297 243.973C29.3271 247.571 14.8422 250.719 4.11561 252.932C3.49339 251.886 2.93423 250.798 2.44337 249.673C13.2274 247.458 28.074 244.233 44.7647 240.528C80.3804 232.62 124.35 222.529 155.05 215.399C142.975 200.608 129.557 178.929 126.856 159.449C125.542 149.974 126.743 140.848 132.046 133.325C131.868 131.681 131.794 129.923 131.827 128.047C131.982 119.291 134.491 107.781 140.115 92.9056C144.404 81.5615 148.863 71.8461 153.431 63.5783C154.75 63.5824 156.048 63.6733 157.321 63.8457C152.586 72.2169 147.923 82.2353 143.416 94.1538C137.864 108.837 135.501 119.92 135.356 128.11C135.348 128.545 135.347 128.973 135.351 129.391C142.074 122.618 152.821 117.856 168.607 115.896C174.249 115.196 178.935 114.981 182.749 115.197V118.732C179.251 118.518 174.742 118.691 169.042 119.399C152.225 121.486 141.979 126.766 136.237 133.656C136.064 133.864 135.894 134.074 135.728 134.286C136.448 138.99 138.141 142.247 140.364 144.43C143.458 147.468 147.888 148.73 153.115 148.564C158.343 148.397 164.188 146.8 169.808 144.34C174.514 142.28 178.997 139.644 182.749 136.826V141.171Z" fill="#84FFDC"/>
<path d="M30.027 183.021C40.9002 171.609 85.4086 179.701 86.9396 180.073C76.1236 187.536 52.3511 202.377 43.7895 202.029C33.0876 201.596 19.1539 194.434 30.027 183.021Z" fill="#CB7500"/>
<path d="M35.6561 186.548C48.2756 187.987 32.1729 178.629 81.7122 179.345C70.4113 190.293 45.0754 210.987 34.1388 206.173C20.468 200.156 21.0104 186.778 27.8466 180.871C33.3156 176.146 48.8333 176.775 52.5295 177.131C45.5288 177.775 24.0285 185.221 35.6561 186.548Z" fill="#EE8F0D"/>
<path d="M71.2799 182.784C78.4218 179.844 77.0564 171.406 75.481 167.555C81.9577 164.054 94.491 159.363 92.8105 168.606C91.1301 177.848 93.5107 183.66 94.9111 185.41C82.7279 190.871 74.0806 185.935 71.2799 182.784Z" fill="#643F34"/>
<path d="M94.9115 185.411C83.5686 190.032 74.4312 185.586 71.2804 182.785C68.7597 184.045 59.7273 185.061 55.5262 185.411V265.232C68.1295 269.012 94.7365 269.258 106.465 268.907L104.364 188.036C101.843 186.776 97.0121 185.761 94.9115 185.411Z" fill="white"/>
<path fill-rule="evenodd" clip-rule="evenodd" d="M98.5354 186.151C97.0993 185.811 95.7743 185.555 94.9108 185.411C83.5678 190.032 74.4305 185.586 71.2796 182.785C70.4775 183.186 69.0159 183.562 67.2605 183.9C72.2945 190.425 84.4551 198.807 98.3474 186.321C98.4109 186.264 98.4736 186.207 98.5354 186.151Z" fill="#DCE7F1"/>
<path d="M52.8804 241.457C58.1449 245.89 68.7772 261.31 83.883 251.053C98.5445 241.097 97.2113 215.8 97.0246 213.878C97.0201 213.841 97.0157 213.805 97.0112 213.769C97.0143 213.783 97.0189 213.82 97.0246 213.878C100.155 239.561 97.5083 261.031 77.5813 261.556C63.7161 261.92 52.8151 243.497 52.8804 241.457Z" fill="#DCE7F1"/>
<path d="M166.455 164.23C161.141 171.37 155.975 184.608 155.827 191.004L168.669 195.913L173.54 189.666C182.397 187.435 191.696 170.032 193.91 167.354C196.124 164.677 193.467 158.429 187.711 165.569C183.105 171.281 173.688 171.221 169.998 170.477C169.998 170.477 172.351 167.018 174.426 164.23C177.083 160.66 173.429 154.859 166.455 164.23Z" fill="#6E4B40"/>
<path fill-rule="evenodd" clip-rule="evenodd" d="M194.614 164.315C192.985 162.432 188.879 166.546 186.81 169.132C185.129 171.233 175.957 174.383 171.581 175.433C175.257 174.733 183.239 172.493 185.76 171.232C187.263 170.48 188.407 169.131 189.478 167.869C190.652 166.485 191.738 165.205 193.112 164.93C194.293 164.694 194.312 165.887 193.914 167.35C194.604 166.513 194.819 165.33 194.614 164.315ZM183.191 182.451L186.285 178.584C186.285 177.936 187.18 176.843 188.133 175.68C189.569 173.927 191.135 172.015 189.961 171.232C189.013 170.6 185.978 172.247 182.109 174.346C179.544 175.737 176.613 177.328 173.681 178.584C178.017 178.584 182.034 175.9 184.896 173.988C186.888 172.658 188.32 171.701 188.91 172.282C189.659 173.018 188.211 174.833 186.426 177.07C184.837 179.063 182.98 181.39 182.17 183.589C182.514 183.218 182.855 182.838 183.191 182.451Z" fill="#543329"/>
<path d="M111.716 193.813C107.515 188.771 102.964 187.511 101.213 187.511L105.939 268.382C113.116 269.258 129.991 269.958 140.073 265.757C150.156 261.556 169.131 216.044 177.358 193.813C168.536 193.813 158.628 189.612 154.777 187.511L127.47 230.572C123.969 220.42 115.917 198.854 111.716 193.813Z" fill="#EFA641"/>
<path fill-rule="evenodd" clip-rule="evenodd" d="M149.718 195.489L154.778 187.511C158.629 189.611 168.536 193.813 177.359 193.813C176.419 196.351 175.339 199.194 174.149 202.243C157.444 202.28 152.185 197.866 149.718 195.489Z" fill="#EE900D"/>
<path d="M105.939 268.907L97.5367 185.936L103.838 187.511L110.665 268.907H105.939Z" fill="#FFC97D"/>
<path d="M102.264 259.455C95.9621 257.355 89.1353 259.98 86.5096 261.556C93.1614 263.831 106.99 268.067 109.091 266.807C111.716 265.232 110.141 262.081 102.264 259.455Z" fill="#57372D"/>
<path d="M83.0751 261.564C86.7511 260.163 96.2035 258.413 104.606 262.614C115.108 267.865 118.26 272.066 114.583 274.167C113.799 274.615 113.222 274.705 112.812 274.619C113.651 275.645 114.084 276.642 112.483 277.843C111.119 278.866 110.11 278.369 109.498 277.76C110.262 278.7 110.818 279.385 108.807 280.994C106.347 282.962 105.131 278.893 97.2538 277.318C89.3768 275.742 82.55 275.217 81.4997 271.016C80.6595 267.655 82.1999 263.314 83.0751 261.564Z" fill="#6E4B40"/>
<path fill-rule="evenodd" clip-rule="evenodd" d="M112.031 278.136C111.414 278.47 110.88 278.489 110.434 278.35C106.23 275.21 99.4999 271.979 95.9628 270.483C105.402 272.253 110.043 275.507 112.031 278.136ZM115.369 273.592C115.156 273.798 114.895 273.99 114.586 274.167C113.979 274.513 113.497 274.646 113.12 274.648C112.811 274.489 112.511 274.32 112.242 274.159C111.192 272.233 107.726 267.857 102.264 265.757C105.923 267.15 113.639 270.66 115.369 273.592Z" fill="#57372D"/>
<path d="M68.0535 252.609C69.734 229.923 61.8281 202.565 59.2024 184.885C54.8263 184.71 44.6036 187.826 38.7221 201.69C31.3702 219.019 20.3423 251.578 24.0182 259.455C27.6942 267.332 47.6495 279.41 86.5097 279.41L87.0348 258.93C81.0833 255.954 67.6048 252.609 68.0535 252.609Z" fill="#EFA641"/>
<path fill-rule="evenodd" clip-rule="evenodd" d="M78.3569 255.641C77.2201 261.917 76.1225 272.783 78.3033 279.223C80.939 279.345 83.6744 279.41 86.5105 279.41L87.0357 258.929C84.8179 257.82 81.5549 256.66 78.3569 255.641Z" fill="#EE900D"/>
<path fill-rule="evenodd" clip-rule="evenodd" d="M68.1883 250.388C68.1535 251.133 68.1091 251.874 68.0546 252.61C67.9645 252.61 68.435 252.744 69.2927 252.983L69.1794 253.153C66.9298 252.903 62.4674 251.821 57.1398 250.528C51.2744 249.105 44.3604 247.428 38.1963 246.327C44.1659 245.843 59.5636 246.073 68.1883 250.388Z" fill="#EE8F0D"/>
<path fill-rule="evenodd" clip-rule="evenodd" d="M68.4757 252.753L63.9281 252.103C63.578 246.677 62.6677 233.933 61.8275 226.372C61.0173 219.079 56.8864 196.877 54.709 185.57C56.4884 185.022 58.0481 184.839 59.2017 184.885L59.2018 184.886L59.2021 184.886C59.9329 189.806 61.0726 195.476 62.3007 201.586C65.4857 217.431 69.2658 236.237 68.0531 252.609C67.9981 252.609 68.1521 252.659 68.4757 252.753Z" fill="#FFC97D"/>
<path d="M53.6866 146.55C50.2856 141.862 43.9695 130.351 45.9129 121.814C47.8564 113.278 58.3833 121.814 63.4039 127.15L61.4604 143.64L63.929 148.126C70.2306 156.178 80.3133 171.022 70.2306 165.981C60.148 160.939 55.0002 150.927 53.6866 146.55Z" fill="#111111"/>
<path d="M52.94 145.882C52.2108 141.199 57.0067 141.244 59.4114 142.941C55.5638 115.782 67.5268 115.219 82.436 111.4C97.3452 107.581 104.394 124.152 105.837 136.458C107.28 148.764 107.761 167.436 89.4848 170.406C74.8641 172.782 65.1223 160.483 62.2366 154.26C58.87 154.684 53.989 152.62 52.94 145.882Z" fill="#6F4B40"/>
<ellipse rx="1.76471" ry="3.09298" transform="matrix(-0.997815 0.0660654 0.0660654 0.997815 95.2565 142.169)" fill="#2D2424"/>
<ellipse rx="1.76471" ry="3.09298" transform="matrix(-0.997815 0.0660654 0.0660654 0.997815 95.2565 142.169)" fill="#2D2424"/>
<ellipse rx="1.76471" ry="3.09298" transform="matrix(-0.985987 0.166823 0.166823 0.985987 82.2549 144.521)" fill="#2D2424"/>
<path d="M99.0061 136.463C98.7151 134.491 96.1874 131.687 92.1164 134.162M83.0429 135.222C82.5335 134.797 78.0698 132.795 75.5281 138.018" stroke="#2D2424" stroke-width="1.5" stroke-linecap="round"/>
<path d="M90.5893 145.017C90.8013 145.475 91.9202 147.004 94.6997 149.461C97.4792 151.918 93.8939 153.759 91.7539 154.372" stroke="#603F34" stroke-linecap="round"/>
<path d="M49.9357 127.582C48.1711 128.062 44.2569 127.582 42.7169 121.83C41.1768 116.079 45.6044 112.723 48.0107 111.765C47.6897 110.806 47.7217 108.122 50.4167 105.054C53.1117 101.987 57.3147 102.498 59.0793 103.137C58.598 100.101 60.0418 93.8385 69.6669 93.0716C79.2919 92.3047 80.094 96.9061 79.2919 99.3027C79.7732 97.8648 81.602 95.2765 85.067 96.4269C87.9996 97.4004 88.6111 98.9005 88.5353 99.8228C89.2163 97.2474 91.8775 93.5287 98.0609 96.4269C106.242 100.261 108.648 104.096 104.798 107.451C108.648 109.368 111.44 115.695 103.355 117.996C103.836 121.191 102.488 126.72 93.2483 123.269C88.2753 128.062 76.4044 135.635 68.7043 127.582C64.2128 132.375 54.1709 139.086 49.9357 127.582Z" fill="#282828"/>
<ellipse cx="90.5883" cy="160" rx="2.35294" ry="3.52941" fill="#D74848"/>
<path fill-rule="evenodd" clip-rule="evenodd" d="M92.7758 158.71C91.2787 157.72 89.4799 158.287 88.3396 158.943C88.6391 157.511 89.5312 156.471 90.5852 156.471C91.581 156.471 92.4323 157.399 92.7758 158.71Z" fill="white"/>
<path d="M325.747 459.128L325.398 412.39L346.229 414.88L345.68 460.066C352.937 466.716 352.534 482.178 348.792 489.127L284.615 487.178C284.03 487.161 283.583 486.649 283.678 486.071C284.946 478.311 290.671 468.016 302.672 469.083C312.724 469.976 322.243 462.819 325.747 459.128Z" fill="#F28B67"/>
<mask id="mask3" mask-type="alpha" maskUnits="userSpaceOnUse" x="283" y="412" width="69" height="78">
<path d="M325.747 459.127L325.398 412.388L346.229 414.879L345.68 460.065C352.938 466.715 352.535 482.177 348.793 489.125L284.615 487.177C284.031 487.159 283.584 486.647 283.678 486.07C284.947 478.309 290.671 468.014 302.673 469.081C312.725 469.975 322.244 462.817 325.747 459.127Z" fill="#F28B67"/>
</mask>
<g mask="url(#mask3)">
<path d="M337.165 462.294C342.038 457.056 345.239 458.293 346.231 459.566L352.963 468.067L351.786 487.451L278.843 486.414C281.098 483.191 287.502 469.735 287.962 468.915C288.421 468.096 311.896 463.032 323.576 460.602C326.075 463.349 332.292 467.532 337.165 462.294Z" fill="#373232"/>
<path d="M303.787 478.932C317.95 479.599 330.674 470.609 338.262 461.293C338.354 461.18 338.441 461.068 338.523 460.956C338.086 461.346 337.632 461.79 337.164 462.294C335.079 464.535 334.768 463.03 334.269 460.617C333.602 457.39 332.599 452.54 326.568 452.858C319.375 454.354 306.574 459.786 297.693 463.931L292.278 470.344L303.787 478.932Z" fill="#5B5353"/>
<path d="M350.153 486.814C350.606 497.104 288.818 492.532 278.807 487.59L288.964 469.152L293.764 470.43C297.142 469.935 304.371 476.364 307.707 485.525L351.252 485.67L350.783 486.833L350.153 486.814Z" fill="white"/>
<path d="M312.055 478.007C311.787 476.242 308.812 468.215 303.796 467.558M320.375 475.317C320.108 473.552 317.659 467.895 314.361 466.478M328.767 470.275C328.842 468.701 324.501 463.275 320.329 462.553" stroke="white" stroke-width="2" stroke-linecap="round"/>
</g>
<path d="M323.526 461.652C319.362 460.755 311.504 457.932 313.38 453.814C315.256 449.697 320.926 457.324 323.526 461.652ZM323.526 461.652C323.666 458.679 324.655 453.293 327.494 455.53C330.333 457.766 326.031 460.543 323.526 461.652Z" stroke="black"/>
<path d="M386.105 458.858L380.584 412.445L401.563 412.614L406.02 457.583C413.969 463.389 415.281 478.8 412.331 486.12L348.332 491.289C347.749 491.337 347.248 490.877 347.278 490.293C347.68 482.44 352.229 471.574 364.275 471.306C374.364 471.081 383.032 462.913 386.105 458.858Z" fill="#F28B67"/>
<mask id="mask4" mask-type="alpha" maskUnits="userSpaceOnUse" x="347" y="412" width="67" height="80">
<path d="M386.104 458.857L380.583 412.444L401.562 412.613L406.019 457.582C413.968 463.388 415.279 478.799 412.33 486.119L348.331 491.288C347.748 491.336 347.247 490.876 347.277 490.292C347.679 482.439 352.228 471.573 364.274 471.305C374.363 471.08 383.031 462.913 386.104 458.857Z" fill="#F28B67"/>
</mask>
<g mask="url(#mask4)">
<path d="M397.803 460.74C402.066 454.995 405.385 455.87 406.511 457.025L414.143 464.728L415.119 484.124L342.51 491.169C344.394 487.716 349.27 473.634 349.635 472.769C350.001 471.903 372.771 464.271 384.11 460.564C386.898 463.016 393.54 466.486 397.803 460.74Z" fill="#373232"/>
<path d="M366.473 480.972C380.623 480.066 392.274 469.723 398.784 459.624C398.862 459.502 398.936 459.381 399.005 459.26C398.614 459.696 398.213 460.188 397.803 460.74C395.979 463.198 395.503 461.737 394.74 459.394C393.72 456.261 392.186 451.551 386.227 452.535C379.244 454.818 367.123 461.635 358.756 466.737L354.084 473.71L366.473 480.972Z" fill="#5B5353"/>
<path d="M413.426 483.671C415.016 493.848 353.102 496.145 342.605 492.342L350.658 472.893L355.57 473.631C358.872 472.766 366.769 478.355 371.098 487.09L414.391 482.413L414.055 483.62L413.426 483.671Z" fill="white"/>
<path d="M374.587 479.136C374.126 477.412 370.28 469.764 365.222 469.667M382.559 475.542C382.097 473.817 379.038 468.467 375.603 467.424M390.341 469.602C390.24 468.03 385.325 463.118 381.099 462.862" stroke="white" stroke-width="2" stroke-linecap="round"/>
</g>
<path d="M384.176 461.612C379.939 461.182 371.816 459.246 373.225 454.946C374.634 450.646 381.113 457.598 384.176 461.612ZM384.176 461.612C383.986 458.642 384.373 453.18 387.442 455.088C390.511 456.997 386.543 460.233 384.176 461.612Z" stroke="black"/>
<path d="M324.428 425.233L327.461 223.184L388.346 225.115L409.476 424.912C411.855 424.716 413.82 426.743 413.551 429.115L412.269 440.404C412.029 442.514 410.483 444.242 408.412 444.714L407.647 444.889L379.241 446.923C377.976 446.897 376.858 446.093 376.431 444.902L372.39 433.635C371.502 431.16 373.068 428.483 375.661 428.043L358.895 288.924L349.07 427.494L349.852 427.566C353.017 427.856 355.111 430.987 354.171 434.024L351.141 443.814C350.681 445.299 349.293 446.3 347.739 446.267C347.739 446.267 338.273 446.225 324.135 444.725C322.024 444.681 320.263 443.097 319.997 441.002L318.704 430.814C318.301 427.642 320.937 424.913 324.121 425.205L324.428 425.233Z" fill="#ECDBD3"/>
<path d="M377.634 224.775C377.63 232.424 379.035 248.216 390.588 246.471C390.593 246.47 390.599 246.469 390.604 246.468L388.346 225.115L377.634 224.775Z" fill="#EAD1C9"/>
<path d="M327.093 247.633L327.46 223.184L336.698 223.477C339.578 226.318 341.468 230.57 341.176 236.47C340.828 243.517 332.674 246.943 327.093 247.633Z" fill="#EAD1C9"/>
<path d="M321.623 426.133C322.447 425.631 323.403 425.326 324.426 425.285L324.475 422.018C329.002 424.508 335.16 427.183 340.801 427.709L321.623 426.133Z" fill="#EAD1C9"/>
<path d="M374.874 428.255C375.124 428.161 375.386 428.09 375.66 428.043L374.502 417.969C380.157 421.31 392.166 426.775 402.061 425.887L374.898 428.449L374.874 428.255Z" fill="#EAD1C9"/>
<path d="M341.297 427.75C341.132 427.738 340.966 427.724 340.801 427.709L341.297 427.75Z" fill="#EAD1C9"/>
<path d="M412.632 155.055L393.032 163.051L410.412 185.998C406.47 186.342 394.957 185.183 392.561 185.627L395.974 198.304C413.639 207.601 440.404 208.684 436.992 196.007C433.579 183.329 412.632 155.055 412.632 155.055Z" fill="#F28B68"/>
<path d="M294.033 162.13L304.829 148.173L319.716 164.766C313.948 172.699 300.631 188.32 293.508 187.331C286.385 186.342 257.405 147.01 243.806 127.468C237.881 126.119 228.512 118.13 228.963 108.775C229.232 107.218 230.499 103.481 233.419 100.989C233.203 100.662 233.005 100.309 232.824 99.9263C232.23 98.6742 233.98 98.0399 236.543 97.8955C235.543 95.426 233.038 89.6361 231.007 86.2323C228.47 81.9774 228.931 78.9682 232.167 81.0035C234.76 82.6337 238.128 89.0234 242.318 98.0158C244.287 98.4285 247.586 99.517 248.574 100.254C251.471 102.416 254.047 114.9 254.973 120.872L294.033 162.13Z" fill="#F28B68"/>
<path d="M243.485 105.31C238.856 105.634 235.697 100.946 233.094 99.8409C234.067 103.538 239.226 108.022 241.833 108.952C242.249 114.213 245.519 116.908 247.434 117.473C242.481 113.168 242.737 107.57 243.485 105.31Z" fill="#E37651"/>
<path d="M242.588 97.9376L236.813 97.8173L241.582 95.8156L242.588 97.9376Z" fill="#E37651"/>
<path d="M240.193 112.069C242.722 111.702 241.83 109.127 240.805 107.88L242.873 109.499L243.321 113.185C239.099 114.148 234.44 110.899 232.416 107.18C234.133 108.792 237.664 112.437 240.193 112.069Z" fill="#E37651"/>
<path d="M241.146 116.816C243.666 116.869 243.297 114.41 242.797 113.174C243.326 113.01 244.375 113.102 244.34 114.782C244.315 115.941 244.274 117.932 240.074 117.844C240.052 118.894 239.164 121.502 237.372 121.465C236.322 121.443 234.508 121.161 232.691 119.266L232.177 118.73C234.248 120.174 237.177 120.41 237.919 120.426C238.444 120.437 239.666 118.17 239.024 117.822C239.024 117.822 238.419 117.588 236.946 116.729C233.209 114.55 231.291 110.833 230.798 109.247L232.319 111.905C233.839 114.563 237.996 116.75 241.146 116.816Z" fill="#E37651"/>
<path d="M339.917 115.675C346.271 113.212 344.925 106.408 343.457 103.314C351.204 99.1497 366.4 91.9134 363.052 101.359C359.704 110.805 363.539 116.347 366.146 117.302C350.731 126.064 342.237 119.868 339.917 115.675Z" fill="#E37651"/>
<path d="M403.885 86.8648C409.112 81.5617 385.764 60.0033 375.901 48.7149L369.159 73.4753C372.359 78.7236 378.424 84.3483 381.323 87.4025C384.946 91.2203 397.352 93.4937 403.885 86.8648Z" fill="#3146CC"/>
<path d="M380.808 68.1041C377.101 64.8521 374.701 67.6462 373.965 69.4498L371.055 83.279C372.281 83.1392 375.371 82.476 377.92 80.9416C381.105 79.0237 385.442 72.1691 380.808 68.1041Z" fill="#E37651"/>
<path d="M334.009 96.6896C327.018 89.4006 325.065 63.7627 324.963 51.8549C348.523 30.2849 372.675 45.9152 373.9 47.6215C375.431 49.7544 379.074 76.618 367.687 93.7142C356.301 110.81 342.749 105.801 334.009 96.6896Z" fill="#F3956C"/>
<path d="M351.914 44.0127C330.073 43.5579 324.978 60.1365 325.831 69.6088C324.048 54.3394 321.692 32.3531 350.153 27.6931C379.469 22.8931 384.097 53.9624 381.852 69.323C380.224 66.7679 376.645 67.1135 375.584 67.6167C375.792 57.6412 373.755 44.4675 351.914 44.0127Z" fill="#4B3838"/>
<path d="M380.616 78.2265C377.606 81.5254 374.046 82.6419 372.642 82.7877C370.4 89.5693 368.037 93.7221 366.068 95.7821C376.208 88.1145 376.999 83.7539 380.616 78.2265Z" fill="#4B3838"/>
<path d="M373.418 45.5112C360.931 39.7886 336.739 41.2451 328.244 45.6204L324.81 59.2056C324.81 59.2056 333.582 41.5304 375.31 55.5303L373.418 45.5112Z" fill="#3D58FF"/>
<g opacity="0.7">
<mask id="mask5" mask-type="alpha" maskUnits="userSpaceOnUse" x="323" y="39" width="54" height="67">
<path d="M334.009 96.6896C327.018 89.4006 325.065 63.7627 324.963 51.8549C348.523 30.2849 372.675 45.9152 373.9 47.6215C375.431 49.7544 379.074 76.618 367.687 93.7142C356.301 110.81 342.749 105.801 334.009 96.6896Z" fill="#F7A582"/>
</mask>
<g mask="url(#mask5)">
<g filter="url(#filter1_f)">
<circle cx="373.092" cy="86.4733" r="13.6536" transform="rotate(1.19302 373.092 86.4733)" fill="#EF4646" fill-opacity="0.6"/>
</g>
<g filter="url(#filter2_f)">
<circle cx="319.54" cy="85.3574" r="13.6536" transform="rotate(1.19302 319.54 85.3574)" fill="#EF4646" fill-opacity="0.6"/>
</g>
</g>
</g>
<path d="M365.616 117.459C351.187 124.302 342.468 119.253 339.912 115.873C333.087 115.731 320.349 116.995 313.401 127.776C306.454 138.557 302.573 143.284 300.404 146.565L321.93 172.226L327.323 165.51L325.293 222.353C336.016 228.704 356.847 236.406 388.234 222.353L389.8 166.811L415.803 154.07C413.645 148.423 407.733 138.04 399.56 126.944C391.387 115.849 372.314 115.322 365.616 117.459Z" fill="#373232"/>
<path d="M377.134 116.594C385.078 117.2 394.451 120.005 399.561 126.944C407.734 138.039 413.646 148.422 415.804 154.07L389.968 166.729C381.492 154.515 367.57 128.127 377.134 116.594Z" fill="#262626"/>
<path d="M338.917 115.862C331.952 123.569 328.224 151.77 327.183 165.685L321.932 172.225L300.406 146.565C301.122 145.481 302.026 144.239 303.165 142.673C305.473 139.499 308.75 134.994 313.403 127.775C320.025 117.5 331.908 115.869 338.917 115.862Z" fill="#262626"/>
<path d="M410.939 144.409L385.299 158.976L386.462 161.022L412.085 146.463C411.722 145.798 411.34 145.112 410.939 144.409Z" fill="white"/>
<path d="M327.314 166.396L327.396 166.332L327.32 166.235L327.314 166.396Z" fill="white"/>
<path d="M327.066 165.912L305.923 138.957C305.417 139.67 304.942 140.332 304.496 140.949L325.544 167.784L325.599 167.741L327.066 165.912Z" fill="white"/>
<path d="M367.191 166.465L334.622 185.798L366.853 238.812L399.374 217.856L367.191 166.465Z" fill="#F1E8E8"/>
<path d="M378.728 161.373L343.142 174.427L365.131 234.052L400.967 219.356L378.728 161.373Z" fill="white"/>
<path d="M363.804 166.847C370.931 164.993 377.425 164.494 378.745 168.005C380.415 172.445 387.769 188.211 394.337 202.072L378.727 161.373L363.804 166.847Z" fill="#F2E9E9"/>
<path d="M384.335 177.05C384.335 177.05 386.232 176.027 387.485 177.116C389.019 178.449 392.904 181.536 393.866 183.409C398.12 185.327 401.246 189.984 400.53 193.567C401.138 201.879 393.696 201.407 386.927 203.893C381.551 205.866 381.618 202.259 382.767 200.689C382.576 200.942 381.337 202.503 380.135 202.175C378.046 201.607 377.986 199.838 378.636 198.467C374.153 198.849 374.179 195.193 375.26 193.04C372.154 192.976 371.619 188.812 377.894 185.977C382.914 183.709 386.654 183.194 386.654 183.194L384.335 177.05Z" fill="#F28B68"/>
<mask id="mask6" mask-type="alpha" maskUnits="userSpaceOnUse" x="373" y="176" width="28" height="29">
<path d="M384.335 177.05C384.335 177.05 386.232 176.027 387.485 177.116C389.019 178.449 392.904 181.536 393.866 183.409C398.12 185.327 401.246 189.984 400.53 193.567C401.138 201.879 393.696 201.407 386.927 203.893C381.551 205.866 381.618 202.259 382.767 200.689C382.576 200.942 381.337 202.503 380.135 202.175C378.046 201.607 377.986 199.838 378.636 198.467C374.153 198.849 374.179 195.193 375.26 193.04C372.154 192.976 371.619 188.812 377.894 185.977C382.914 183.709 386.654 183.194 386.654 183.194L384.335 177.05Z" fill="#F28B68"/>
</mask>
<g mask="url(#mask6)">
<path d="M387.802 187.102C381.546 184.871 375.278 191.569 374.545 193.13C372.923 195.372 370.645 198.827 374.512 194.705C378.38 190.584 385.166 187.573 387.802 187.102Z" fill="#E37651"/>
<path d="M389.793 192.397C384.072 189.652 377.597 197.921 376.503 199.999C375.749 202.61 375.197 207.22 376.974 202.635C378.75 198.05 385.068 192.299 389.793 192.397Z" fill="#E37651"/>
<path d="M393.391 196.149C387.135 193.917 382.457 199.948 381.721 201.683C380.962 204.469 379.892 208.789 381.677 203.784C383.462 198.778 390.941 196.098 393.391 196.149Z" fill="#E37651"/>
</g>
<path d="M384.181 58.3413L374.785 55.519C369.812 39.4709 354.287 30.9305 343.688 35.4371C337.109 38.2344 332.532 41.5078 328.704 48.7815L324.81 59.2055C324.81 59.2055 324.882 51.5663 325.007 49.7551C327.081 30.9433 335.894 24.9285 350.688 23.2119C365.482 21.4953 375.911 29.1782 379.366 37.3489C382.13 43.8855 385.452 55.3307 384.181 58.3413Z" fill="#3D58FF"/>
<ellipse cx="338.822" cy="72.3525" rx="2.35294" ry="4.11765" fill="#3F3333"/>
<ellipse cx="338.822" cy="72.3525" rx="2.35294" ry="4.11765" fill="#3F3333"/>
<ellipse cx="355.293" cy="73.529" rx="2.35294" ry="4.11765" fill="#3F3333"/>
<ellipse cx="355.293" cy="73.529" rx="2.35294" ry="4.11765" fill="#3F3333"/>
<path d="M333.528 65.8817C333.724 63.3327 336.587 59.5288 341.763 62.3523M352.94 62.9406C353.528 62.3523 358.822 59.4114 362.352 65.882" stroke="#3F3333" stroke-width="1.5" stroke-linecap="round"/>
<path d="M345.088 75.2937C344.891 75.8819 343.793 77.8819 340.97 81.1761C338.146 84.4702 342.146 86.4702 344.499 87.0584" stroke="#EE6549" stroke-linecap="round"/>
<path d="M358.234 88.2349C352.116 92.9408 345.881 91.7643 343.528 90.5878C344.313 92.7447 347.175 96.8231 352.352 95.882C357.528 94.9408 358.43 90.3918 358.234 88.2349Z" fill="#D74848"/>
<path d="M358.052 90.5603C353.845 93.3492 347.84 93.1825 344.602 92.5891C344.093 91.8731 343.737 91.1623 343.528 90.5878C345.881 91.7643 352.116 92.9408 358.234 88.2349C358.291 88.8584 358.256 89.6819 358.052 90.5603Z" fill="white"/>
<rect x="212.156" y="278.884" width="111.329" height="6.30165" rx="2" fill="#697DB5"/>
<path d="M177.922 229.906C176.736 227.259 178.672 224.27 181.572 224.27H263.045C264.664 224.27 266.123 225.245 266.741 226.74L290.926 285.185H205.293C203.717 285.185 202.288 284.26 201.643 282.822L177.922 229.906Z" fill="#8397CC"/>
<path fill-rule="evenodd" clip-rule="evenodd" d="M261.407 224.27L202.702 280.985L205.949 285.186H219.468L270.946 236.903L266.741 226.741C266.122 225.246 264.664 224.27 263.045 224.27H261.407Z" fill="url(#paint0_linear)"/>
<circle cx="231.177" cy="254.706" r="4.11765" fill="#5B73B3"/>
<path d="M487.507 59.1163C492.123 61.7109 489.896 68.6299 488.206 71.7651H478.992C479.284 70.8462 481.492 68.0677 482.611 64.3055C484.01 59.6028 470.721 52.4676 477.19 49.3865C483.66 46.3054 477.89 42.2514 472.994 36.0891C468.098 29.9269 479.114 18.089 483.66 23.9269C488.206 29.7648 482.961 29.9269 482.611 36.0891C482.261 42.2513 491.703 42.5756 490.479 49.3865C489.255 56.1974 481.737 55.8731 487.507 59.1163Z" fill="#EFF2FA"/>
<path d="M485.36 60.5579C488.78 63.4165 486.257 69.2205 484.568 71.7651H482.351C483.459 70.1409 485.613 66.2102 485.36 63.4815C485.043 60.0706 481.401 58.6088 481.084 55.3604C480.767 52.1119 487.577 50.0004 479.817 41.0671C473.609 33.9205 477.441 29.5351 480.134 28.2357C478.867 28.9937 476.903 31.8415 479.183 37.169C482.034 43.8283 486.627 46.7519 484.885 50.9749C483.143 55.1979 481.084 56.9846 485.36 60.5579Z" fill="#E8EBF2"/>
<path d="M478.619 58.8424C484.962 62.2023 481.812 68.8575 479.445 71.7651H474.655C474.655 69.1804 473.499 69.3423 471.186 66.5962C468.874 63.8501 473.829 63.3655 467.552 58.8424C461.276 54.3193 463.588 50.7658 463.423 48.1813C463.258 45.5967 458.633 47.2119 455.825 40.589C453.017 33.9661 462.102 33.6431 465.735 39.1352C469.369 44.6274 469.7 43.9812 474.655 47.6965C479.61 51.4118 470.691 54.6425 478.619 58.8424Z" fill="#3D58FF"/>
<path d="M478.619 58.8424C484.962 62.2023 481.812 68.8575 479.445 71.7651H474.655C474.655 69.1804 473.499 69.3423 471.186 66.5962C468.874 63.8501 473.829 63.3655 467.552 58.8424C461.276 54.3193 463.588 50.7658 463.423 48.1813C463.258 45.5967 458.633 47.2119 455.825 40.589C453.017 33.9661 462.102 33.6431 465.735 39.1352C469.369 44.6274 469.7 43.9812 474.655 47.6965C479.61 51.4118 470.691 54.6425 478.619 58.8424Z" fill="#EFF2FA"/>
<path fill-rule="evenodd" clip-rule="evenodd" d="M477.583 72.0183C478.59 68.4375 479.559 62.8624 477.229 62.2797C473.97 61.4651 470.712 57.3923 471.852 53.6452C472.993 49.8982 468.92 46.314 465.662 45.4995C462.602 44.7346 457.532 38.0808 457.329 35.6529C459.624 34.5183 463.851 35.7082 466.052 39.1095C468.817 43.3824 469.643 43.9714 472.12 45.7375C472.854 46.2608 473.732 46.8875 474.85 47.744C477.047 49.4286 476.478 51.0145 475.897 52.6348C475.185 54.6184 474.455 56.6537 478.76 58.9851C485.016 62.3737 481.909 69.0858 479.574 72.0183H477.583Z" fill="#E8EBF2"/>
<path d="M487.994 62.3255C484.409 64.168 486.189 67.8177 487.527 69.4122H490.234C490.234 67.9948 490.888 68.0835 492.195 66.5776C493.502 65.0717 490.701 64.8059 494.249 62.3255C497.796 59.8451 496.489 57.8964 496.583 56.4791C496.676 55.0618 499.29 55.9475 500.877 52.3156C502.464 48.6837 497.33 48.5065 495.276 51.5184C493.222 54.5302 493.035 54.1759 490.234 56.2133C487.434 58.2507 492.475 60.0223 487.994 62.3255Z" fill="#3D58FF"/>
<path d="M487.994 62.3255C484.409 64.168 486.189 67.8177 487.527 69.4122H490.234C490.234 67.9948 490.888 68.0835 492.195 66.5776C493.502 65.0717 490.701 64.8059 494.249 62.3255C497.796 59.8451 496.489 57.8964 496.583 56.4791C496.676 55.0618 499.29 55.9475 500.877 52.3156C502.464 48.6837 497.33 48.5065 495.276 51.5184C493.222 54.5302 493.035 54.1759 490.234 56.2133C487.434 58.2507 492.475 60.0223 487.994 62.3255Z" fill="#EFF2FA"/>
<path fill-rule="evenodd" clip-rule="evenodd" d="M488.566 69.724C488.009 67.7466 487.474 64.6677 488.761 64.346C490.56 63.8961 492.36 61.647 491.73 59.5779C491.1 57.5087 493.349 55.5295 495.149 55.0797C496.838 54.6573 499.638 50.9823 499.75 49.6419C498.483 49.0163 496.149 49.6736 494.934 51.5512C493.407 53.9108 492.951 54.236 491.584 55.2113C491.178 55.5003 490.693 55.8463 490.076 56.3193C488.863 57.2496 489.177 58.1253 489.498 59.0201C489.891 60.1155 490.294 61.2394 487.917 62.5268C484.462 64.3981 486.178 68.1046 487.467 69.724H488.566Z" fill="#E8EBF2"/>
<path d="M490.588 81.1774C488.235 75.5304 490.981 69.4122 492.942 67.0592H468.824C471.569 69.6083 475.529 76.4715 471.765 83.5304C467.059 92.3539 467.059 115.295 482.941 112.942C498.824 110.589 493.529 88.2362 490.588 81.1774Z" fill="#E8EBF2"/>
<rect x="561.177" y="17.6475" width="17.6471" height="97.6471" fill="#E8EBF2"/>
<rect x="587.059" y="20.0004" width="17.6471" height="97.6471" fill="#E8EBF2"/>
<rect x="545.757" y="18.8239" width="17.6471" height="97.6471" transform="rotate(29.5173 545.757 18.8239)" fill="#E8EBF2"/>
<rect x="454.118" y="112.942" width="163.529" height="17.6471" fill="#EFF2FA"/>
<path d="M108.85 234.732C108.85 242.219 102.781 248.288 95.2948 248.288C87.8084 248.288 81.7394 242.219 81.7394 234.732C81.7394 227.246 87.8084 221.177 95.2948 221.177C102.781 221.177 108.85 227.246 108.85 234.732Z" fill="#FE101D"/>
<path opacity="0.6" d="M72.9937 234.732C72.9937 242.219 66.9247 248.288 59.4383 248.288C51.9518 248.288 45.8828 242.219 45.8828 234.732C45.8828 227.246 51.9518 221.177 59.4383 221.177C66.9247 221.177 72.9937 227.246 72.9937 234.732Z" fill="black"/>
<path d="M95.5136 232.546C89.3913 232.546 87.8607 235.594 87.8607 236.919H91.4024C91.7175 236.919 91.9978 236.742 92.1762 236.483C92.6058 235.857 93.312 235.329 95.5136 235.329C97.0364 235.329 97.9034 235.855 98.3351 236.351C98.5919 236.647 98.9348 236.919 99.3261 236.919H102.716C102.866 235.594 101.636 232.546 95.5136 232.546Z" fill="white"/>
<path d="M144.705 234.732C144.705 242.219 138.636 248.288 131.15 248.288C123.663 248.288 117.594 242.219 117.594 234.732C117.594 227.246 123.663 221.177 131.15 221.177C138.636 221.177 144.705 227.246 144.705 234.732Z" fill="white"/>
<path d="M93.108 236.919C93.108 237.885 91.9333 238.668 90.4844 238.668C89.0354 238.668 87.8607 237.885 87.8607 236.919C87.8607 235.953 89.0354 235.169 90.4844 235.169C91.9333 235.169 93.108 235.953 93.108 236.919Z" fill="white"/>
<path d="M102.729 236.919C102.729 237.885 101.554 238.668 100.105 238.668C98.6562 238.668 97.4816 237.885 97.4816 236.919C97.4816 235.953 98.6562 235.169 100.105 235.169C101.554 235.169 102.729 235.953 102.729 236.919Z" fill="white"/>
<path d="M124.591 232.546C124.591 231.58 125.374 230.797 126.34 230.797H130.713C131.679 230.797 132.462 231.58 132.462 232.546V236.919C132.462 237.885 131.679 238.668 130.713 238.668H126.34C125.374 238.668 124.591 237.885 124.591 236.919V232.546Z" fill="#272727"/>
<path d="M137.271 231.671L134.184 233.601C133.928 233.761 133.773 234.041 133.773 234.342V235.504C133.773 235.835 133.96 236.138 134.256 236.286L137.271 237.793V231.671Z" fill="#272727"/>
<path d="M58.125 229.922C58.125 228.956 58.9081 228.173 59.8741 228.173C60.8401 228.173 61.6232 228.956 61.6232 229.922V235.169C61.6232 236.135 60.8401 236.919 59.8741 236.919C58.9081 236.919 58.125 236.135 58.125 235.169V229.922Z" fill="white"/>
<path fill-rule="evenodd" clip-rule="evenodd" d="M62.987 232.547C63.2278 232.529 63.438 232.709 63.4566 232.95C63.6369 235.294 63.1537 236.835 62.4038 237.799C61.799 238.577 61.042 238.95 60.397 239.065V240.854H62.146C62.3875 240.854 62.5833 241.05 62.5833 241.291C62.5833 241.533 62.3875 241.729 62.146 241.729H57.7733C57.5318 241.729 57.336 241.533 57.336 241.291C57.336 241.05 57.5318 240.854 57.7733 240.854H59.5225V239.085C58.7637 239.015 58.146 238.759 57.6533 238.368C57.0749 237.908 56.6998 237.286 56.4571 236.634C55.9762 235.343 55.9817 233.846 56.0248 232.962C56.0366 232.721 56.2416 232.535 56.4828 232.546C56.7241 232.558 56.9101 232.763 56.8983 233.004C56.8561 233.87 56.8617 235.215 57.2766 236.329C57.4818 236.879 57.7786 237.35 58.1974 237.683C58.6104 238.011 59.1729 238.23 59.9597 238.23C60.4118 238.23 61.1355 238.005 61.7134 237.262C62.2899 236.521 62.754 235.22 62.5846 233.017C62.5661 232.776 62.7463 232.566 62.987 232.547Z" fill="white"/>
<path d="M540.616 375.909C540.616 383.395 534.547 389.464 527.06 389.464C519.574 389.464 513.505 383.395 513.505 375.909C513.505 368.422 519.574 362.353 527.06 362.353C534.547 362.353 540.616 368.422 540.616 375.909Z" fill="#FE101D"/>
<path opacity="0.6" d="M504.758 375.909C504.758 383.395 498.689 389.464 491.202 389.464C483.716 389.464 477.647 383.395 477.647 375.909C477.647 368.422 483.716 362.353 491.202 362.353C498.689 362.353 504.758 368.422 504.758 375.909Z" fill="black"/>
<path d="M527.279 373.722C521.157 373.722 519.626 376.77 519.626 378.095H523.168C523.483 378.095 523.763 377.919 523.941 377.659C524.371 377.033 525.077 376.505 527.279 376.505C528.802 376.505 529.669 377.032 530.1 377.528C530.357 377.823 530.7 378.095 531.091 378.095H534.482C534.632 376.77 533.401 373.722 527.279 373.722Z" fill="white"/>
<path d="M576.47 375.909C576.47 383.395 570.401 389.464 562.915 389.464C555.428 389.464 549.359 383.395 549.359 375.909C549.359 368.422 555.428 362.353 562.915 362.353C570.401 362.353 576.47 368.422 576.47 375.909Z" fill="white"/>
<path d="M524.873 378.095C524.873 379.061 523.699 379.844 522.25 379.844C520.801 379.844 519.626 379.061 519.626 378.095C519.626 377.129 520.801 376.346 522.25 376.346C523.699 376.346 524.873 377.129 524.873 378.095Z" fill="white"/>
<path d="M534.494 378.095C534.494 379.061 533.319 379.844 531.87 379.844C530.421 379.844 529.247 379.061 529.247 378.095C529.247 377.129 530.421 376.346 531.87 376.346C533.319 376.346 534.494 377.129 534.494 378.095Z" fill="white"/>
<path d="M556.356 373.722C556.356 372.756 557.139 371.973 558.105 371.973H562.478C563.444 371.973 564.227 372.756 564.227 373.722V378.095C564.227 379.061 563.444 379.844 562.478 379.844H558.105C557.139 379.844 556.356 379.061 556.356 378.095V373.722Z" fill="#272727"/>
<path d="M569.036 372.848L565.949 374.777C565.693 374.937 565.538 375.217 565.538 375.519V376.68C565.538 377.011 565.725 377.314 566.022 377.462L569.036 378.97V372.848Z" fill="#272727"/>
<path d="M489.89 371.099C489.89 370.133 490.673 369.35 491.639 369.35C492.605 369.35 493.388 370.133 493.388 371.099V376.346C493.388 377.312 492.605 378.095 491.639 378.095C490.673 378.095 489.89 377.312 489.89 376.346V371.099Z" fill="white"/>
<path fill-rule="evenodd" clip-rule="evenodd" d="M494.752 373.724C494.993 373.705 495.203 373.885 495.222 374.126C495.402 376.471 494.919 378.012 494.169 378.976C493.564 379.753 492.807 380.127 492.162 380.242V382.031H493.911C494.153 382.031 494.349 382.226 494.349 382.468C494.349 382.709 494.153 382.905 493.911 382.905H489.539C489.297 382.905 489.101 382.709 489.101 382.468C489.101 382.226 489.297 382.031 489.539 382.031H491.288V380.262C490.529 380.191 489.911 379.936 489.419 379.544C488.84 379.085 488.465 378.462 488.222 377.81C487.741 376.519 487.747 375.022 487.79 374.138C487.802 373.897 488.007 373.711 488.248 373.723C488.489 373.735 488.675 373.94 488.664 374.181C488.621 375.046 488.627 376.391 489.042 377.505C489.247 378.056 489.544 378.527 489.963 378.86C490.376 379.188 490.938 379.407 491.725 379.407C492.177 379.407 492.901 379.182 493.479 378.439C494.055 377.698 494.519 376.396 494.35 374.193C494.331 373.952 494.512 373.742 494.752 373.724Z" fill="white"/>
<path d="M577.515 272.095C577.515 269.54 579.587 267.469 582.142 267.469C584.697 267.469 586.768 269.54 586.768 272.095C586.768 274.651 584.697 276.722 582.142 276.722C579.587 276.722 577.515 274.651 577.515 272.095Z" fill="#253493"/>
<path d="M576.59 258.215V262.842H589.545V258.215C594.48 256.981 604.35 250.813 604.35 236.007C604.35 221.202 590.778 216.576 583.993 216.576C576.899 216.884 562.71 221.943 562.71 236.007C562.71 250.072 571.964 256.673 576.59 258.215Z" fill="#FFD954"/>
<path fill-rule="evenodd" clip-rule="evenodd" d="M580.411 245.988C580.711 251.345 580.551 257.423 580.291 261.969L578.444 261.864C578.708 257.242 578.864 251.079 578.544 245.749C575.666 245.236 573.445 244.117 572.004 242.677C570.565 241.237 569.877 239.424 570.281 237.627C570.683 235.838 572.108 234.314 574.365 233.311C575.278 232.905 576.189 232.942 576.983 233.455C577.709 233.923 578.232 234.72 578.626 235.611C579.419 237.404 579.899 240.061 580.188 243.018C580.223 243.38 580.255 243.747 580.285 244.12C581.637 244.249 583.147 244.243 584.81 244.061C584.888 242.315 585.023 240.676 585.242 239.255C585.403 238.21 585.613 237.258 585.89 236.454C586.163 235.664 586.527 234.941 587.04 234.428C588.31 233.159 590.125 233.13 591.652 233.623C593.191 234.12 594.685 235.21 595.568 236.587C596.47 237.994 596.776 239.797 595.67 241.487C594.617 243.095 592.411 244.394 588.833 245.236C588.071 245.415 587.328 245.563 586.605 245.682C586.596 245.991 586.59 246.303 586.584 246.618C586.528 249.843 586.607 253.239 586.678 256.328C586.725 258.372 586.769 260.281 586.769 261.917H584.919C584.919 260.38 584.876 258.506 584.83 256.474C584.758 253.332 584.678 249.813 584.734 246.586C584.738 246.365 584.742 246.146 584.747 245.927C583.195 246.081 581.746 246.094 580.411 245.988ZM586.675 243.793C587.238 243.693 587.816 243.574 588.409 243.434C591.822 242.631 593.458 241.487 594.121 240.474C594.731 239.542 594.624 238.544 594.01 237.586C593.377 236.599 592.248 235.761 591.083 235.384C589.903 235.003 588.93 235.155 588.349 235.736C588.122 235.963 587.873 236.383 587.64 237.058C587.411 237.719 587.222 238.554 587.071 239.537C586.879 240.782 586.753 242.227 586.675 243.793ZM578.405 243.837C578.386 243.622 578.366 243.409 578.346 243.197C578.061 240.271 577.599 237.865 576.933 236.36C576.598 235.601 576.261 235.191 575.98 235.01C575.768 234.873 575.525 234.821 575.117 235.002C573.209 235.85 572.321 236.987 572.087 238.032C571.854 239.068 572.208 240.263 573.313 241.368C574.368 242.423 576.079 243.347 578.405 243.837Z" fill="#FFE381"/>
<path d="M570.112 264.692C570.112 263.159 571.354 261.916 572.888 261.916H591.394C592.927 261.916 594.17 263.159 594.17 264.692V266.543C594.17 268.076 592.927 269.319 591.394 269.319H572.888C571.354 269.319 570.112 268.076 570.112 266.543V264.692Z" fill="#3146CC"/>
<path d="M574.737 269.319H589.542L587.321 272.28C586.972 272.746 586.423 273.021 585.841 273.021H578.438C577.856 273.021 577.307 272.746 576.958 272.28L574.737 269.319Z" fill="#3146CC"/>
<path fill-rule="evenodd" clip-rule="evenodd" d="M583.992 195.294C584.503 195.294 584.917 195.708 584.917 196.219V210.099C584.917 210.61 584.503 211.024 583.992 211.024C583.481 211.024 583.066 210.61 583.066 210.099V196.219C583.066 195.708 583.481 195.294 583.992 195.294ZM549.922 211.419C550.215 211 550.792 210.898 551.211 211.192L560.464 217.669C560.883 217.962 560.985 218.539 560.692 218.957C560.398 219.376 559.822 219.478 559.403 219.185L550.15 212.708C549.731 212.415 549.629 211.838 549.922 211.419ZM612.481 211.382C612.795 211.785 612.723 212.366 612.319 212.68L603.991 219.157C603.588 219.471 603.007 219.398 602.693 218.995C602.379 218.591 602.452 218.01 602.855 217.696L611.183 211.219C611.586 210.905 612.168 210.978 612.481 211.382ZM542.353 234.157C542.353 233.646 542.767 233.232 543.278 233.232H553.456C553.967 233.232 554.382 233.646 554.382 234.157C554.382 234.668 553.967 235.082 553.456 235.082H543.278C542.767 235.082 542.353 234.668 542.353 234.157ZM610.826 234.157C610.826 233.646 611.24 233.232 611.751 233.232H623.78C624.291 233.232 624.705 233.646 624.705 234.157C624.705 234.668 624.291 235.082 623.78 235.082H611.751C611.24 235.082 610.826 234.668 610.826 234.157ZM602.614 252.214C602.863 251.767 603.426 251.606 603.873 251.855L612.2 256.481C612.647 256.729 612.808 257.293 612.56 257.739C612.312 258.186 611.748 258.347 611.302 258.099L602.974 253.472C602.527 253.224 602.366 252.661 602.614 252.214Z" fill="#FFD954"/>
<circle cx="150.588" cy="109.412" r="25.8824" fill="white"/>
<path d="M131.766 143.529C136.472 139.765 135.687 132.549 134.707 129.412L161.766 132.941L131.766 143.529Z" fill="white"/>
<path d="M143.409 103.367C143.409 102.625 143.647 101.875 144.123 101.117C144.6 100.351 145.295 99.7184 146.209 99.2184C147.123 98.7184 148.19 98.4684 149.409 98.4684C150.541 98.4684 151.541 98.6793 152.409 99.1012C153.276 99.5153 153.944 100.082 154.412 100.8C154.889 101.519 155.127 102.3 155.127 103.144C155.127 103.808 154.991 104.39 154.717 104.89C154.452 105.39 154.131 105.824 153.756 106.191C153.389 106.55 152.725 107.16 151.764 108.019C151.498 108.261 151.284 108.476 151.12 108.664C150.963 108.843 150.846 109.011 150.768 109.168C150.69 109.316 150.627 109.468 150.58 109.625C150.541 109.773 150.479 110.039 150.393 110.422C150.245 111.234 149.78 111.64 148.998 111.64C148.592 111.64 148.248 111.507 147.967 111.242C147.694 110.976 147.557 110.582 147.557 110.058C147.557 109.402 147.659 108.836 147.862 108.359C148.065 107.875 148.334 107.453 148.67 107.093C149.006 106.726 149.459 106.293 150.03 105.793C150.53 105.355 150.889 105.027 151.108 104.808C151.334 104.582 151.522 104.332 151.67 104.058C151.827 103.785 151.905 103.488 151.905 103.168C151.905 102.543 151.67 102.015 151.202 101.586C150.741 101.156 150.143 100.941 149.409 100.941C148.549 100.941 147.916 101.16 147.51 101.597C147.104 102.027 146.76 102.664 146.479 103.507C146.213 104.39 145.709 104.832 144.967 104.832C144.53 104.832 144.159 104.679 143.854 104.375C143.557 104.062 143.409 103.726 143.409 103.367ZM149.127 116.211C148.651 116.211 148.233 116.058 147.873 115.754C147.522 115.441 147.346 115.007 147.346 114.453C147.346 113.961 147.518 113.547 147.862 113.211C148.205 112.875 148.627 112.707 149.127 112.707C149.62 112.707 150.034 112.875 150.37 113.211C150.705 113.547 150.873 113.961 150.873 114.453C150.873 115 150.698 115.429 150.346 115.742C149.995 116.054 149.588 116.211 149.127 116.211Z" fill="black"/>
<defs>
<filter id="filter0_f" x="468.597" y="249.309" width="109.318" height="77.81" filterUnits="userSpaceOnUse" color-interpolation-filters="sRGB">
<feFlood flood-opacity="0" result="BackgroundImageFix"/>
<feBlend mode="normal" in="SourceGraphic" in2="BackgroundImageFix" result="shape"/>
<feGaussianBlur stdDeviation="10" result="effect1_foregroundBlur"/>
</filter>
<filter id="filter1_f" x="339.157" y="52.5385" width="67.8698" height="67.8698" filterUnits="userSpaceOnUse" color-interpolation-filters="sRGB">
<feFlood flood-opacity="0" result="BackgroundImageFix"/>
<feBlend mode="normal" in="SourceGraphic" in2="BackgroundImageFix" result="shape"/>
<feGaussianBlur stdDeviation="10" result="effect1_foregroundBlur"/>
</filter>
<filter id="filter2_f" x="285.605" y="51.4225" width="67.8698" height="67.8698" filterUnits="userSpaceOnUse" color-interpolation-filters="sRGB">
<feFlood flood-opacity="0" result="BackgroundImageFix"/>
<feBlend mode="normal" in="SourceGraphic" in2="BackgroundImageFix" result="shape"/>
<feGaussianBlur stdDeviation="10" result="effect1_foregroundBlur"/>
</filter>
<linearGradient id="paint0_linear" x1="264.669" y1="230.047" x2="217.406" y2="280.46" gradientUnits="userSpaceOnUse">
<stop stop-color="#8DA0D5"/>
<stop offset="1" stop-color="#8397CC"/>
</linearGradient>
</defs>
</svg>
