<?xml version="1.0" encoding="utf-8"?>
<!-- Generator: Adobe Illustrator 24.0.2, SVG Export Plug-In . SVG Version: 6.00 Build 0)  -->
<svg version="1.1" id="Layer_1" xmlns="http://www.w3.org/2000/svg" xmlns:xlink="http://www.w3.org/1999/xlink" x="0px" y="0px"
	 viewBox="0 0 512 512" enable-background="new 0 0 512 512" xml:space="preserve">
<g>
	<g>
		<polygon fill="#F77B55" points="483,299.5 386.9,299.5 386.9,244.3 483,244.3 452.9,271.9 		"/>
	</g>
</g>
<g>
	<g>
		<path fill="#606466" d="M386.9,413.7c-2.3,0-4.1-1.9-4.1-4.1V244.3c0-2.3,1.9-4.1,4.1-4.1c2.3,0,4.1,1.9,4.1,4.1v165.3
			C391,411.9,389.2,413.7,386.9,413.7z"/>
	</g>
</g>
<g>
	<g>
		<polygon fill="#7699CE" points="15,223.8 111,223.8 111,168.7 15,168.7 45,196.3 		"/>
	</g>
</g>
<g>
	<g>
		<path fill="#606466" d="M111,397.3c-2.3,0-4.1-1.9-4.1-4.1V168.7c0-2.3,1.9-4.1,4.1-4.1c2.3,0,4.1,1.9,4.1,4.1v224.5
			C115.2,395.5,113.3,397.3,111,397.3z"/>
	</g>
</g>
<g>
	<g>
		<path fill="#FCD751" d="M366.8,170.3c-0.5-2.9-1.4-5.8-3.3-9c-2-3.2-4.3-5.2-7.5-7.1c-3.1-1.7-6.8-2.5-10.1-2.4
			c-3.3,0.1-6.2,0.8-8.7,1.9c-5.1,2.1-9,5-12.4,8.2c-2.1,2-4,4.1-5.7,6.4c-5.6-1.8-11.4-3.2-17.3-4.3c-9.2-5.6-17.8-13.4-23.5-23.2
			c0.8-0.5,1.3-1.2,1.3-2.2c0-1.4-1.2-2.6-2.6-2.6h-11.6c-1.9-2.9-4.8-7.9-5.7-12.1c0.6,0,1.2,0,1.8-0.1c0-0.5,0-0.9,0-1.4
			c-3.6,0.3-7.2,0.5-10.8,0.5c3.7-0.1,7.5-0.2,11.2-0.6c0.9-0.1,1.6-0.8,1.6-1.5c0-0.7-0.7-1.3-1.6-1.2c0,0,0,0,0,0
			c0.3-0.9,0.6-1.8,0.9-2.7c0.1-0.2,0.1-0.3,0.2-0.5c0.3-1,0.7-2.1,1-3.1c0.4-1.3,0.8-2.6,1.2-3.9l0,0c0.1-0.3,0.2-0.5,0.3-0.8v0
			c0.2-0.7,0.5-1.5,0.7-2.2c0.1-0.2,0.1-0.3,0.2-0.5c0.5-1.5,0.9-2.9,1.4-4.4c0.3-1,0.6-2,1-3c-1,0.6-2.1,1.3-3.1,1.9
			c-2.6,1.5-5.2,3-7.8,4.3c-0.2,0.1-0.5,0.2-0.7,0.3c-2-3-4-6-5.9-9c-0.6-1-1.3-2-1.9-3c-0.6,1-1.3,2-1.9,3c-2,3.1-4,6.1-5.9,9.1
			c-3.3-1.5-6.5-3.2-9.8-5c-1-0.5-1.9-1.1-2.9-1.6c0.3,1,0.7,2,1.1,3c0.5,1.4,1.1,2.9,1.6,4.3c0.1,0.2,0.1,0.3,0.2,0.5
			c0.2,0.6,0.5,1.3,0.7,1.9c0.3,0.9,0.6,1.7,0.9,2.5l0,0c0.3,0.9,0.7,1.9,1,2.8c0.3,1,0.7,1.9,1.1,2.9c0.1,0.2,0.1,0.3,0.2,0.5
			c0.4,1,0.7,1.9,1.1,2.9c2.2,0.2,4.3,0.2,6.5,0.3c-2.2-0.1-4.4-0.1-6.5-0.3c-0.9-0.1-1.6,0.5-1.6,1.2c0,0.7,0.7,1.4,1.6,1.5
			c3.8,0.3,7.6,0.5,11.3,0.5c-3.7,0-7.3-0.1-11-0.4c0,0.5,0,0.9,0,1.4c0.5,0,1.1,0,1.6,0.1c-1,4.2-3.8,9.1-5.7,12h-11.6
			c-1.4,0-2.6,1.2-2.6,2.6c0,0.9,0.5,1.7,1.3,2.2c-5.7,9.8-14.3,17.6-23.5,23.2c-5.9,1.1-11.7,2.5-17.3,4.3
			c-1.7-2.2-3.6-4.4-5.7-6.4c-3.4-3.2-7.3-6.2-12.4-8.2c-2.5-1-5.4-1.8-8.7-1.9c-3.2-0.1-6.9,0.7-10.1,2.4c-3.2,1.9-5.4,3.9-7.5,7.1
			c-2,3.2-2.8,6.1-3.3,9c-1,5.7-0.5,10.8,0.2,15.6c0.8,4.8,2,9.4,3.4,13.8c2.9,8.8,6.8,17,11.2,24.9c4.3,7.9,9.5,15.4,14.7,22.3
			c5.2,7.1,10.6,13.9,16.2,20.6c10.3,12.5,21.2,24.4,32.4,35.9c3.6,5.5,7.6,10.6,12,15.3c-0.3,0.3-0.6,0.7-0.8,1.2
			c-0.4,1.4,0.2,2.9,1.4,3.4c1.2,0.5,2.8,0.9,4.6,1.2c10.4,12,10,30.1-1.4,41.5h47.6c-5.1-5.1-8-11.6-8.8-18.3
			c-0.9-8.2,1.5-16.6,7.2-23.2c1.9-0.3,3.5-0.8,4.8-1.2c1.2-0.5,1.8-2,1.4-3.4c-0.2-0.5-0.4-0.9-0.8-1.2c4.4-4.7,8.3-9.8,11.9-15.2
			c11.3-11.5,22.2-23.4,32.5-35.9c5.6-6.7,11-13.5,16.2-20.6c5.2-6.9,10.4-14.4,14.7-22.3c4.3-7.9,8.3-16.1,11.2-24.9
			c1.4-4.4,2.6-9,3.4-13.8C367.3,181,367.7,176,366.8,170.3z M186,260.7c-9.4-14.3-19.3-28.5-26.7-43.2c-3.7-7.4-6.9-15-9.2-22.7
			c-2.3-7.5-3.9-15.7-2.8-21.6c0.2-1.4,0.8-2.6,1.1-3.1c0.3-0.5,1.2-1.5,1.8-1.8c1.1-0.8,3.1-1.2,6.4-0.6c3.2,0.6,6.9,1.9,10.7,3.4
			c3.3,1.3,6.8,2.8,10.5,4.2c0.3,30.9,4.5,65.9,15.9,96.5L186,260.7z M348,194.8c-2.3,7.7-5.5,15.3-9.2,22.7
			c-7.4,14.7-17.3,28.9-26.7,43.2l-7.6,11.1c11.4-30.5,15.5-65.6,15.9-96.5c3.7-1.3,7.2-2.8,10.5-4.2c3.8-1.5,7.5-2.9,10.7-3.4
			c3.3-0.6,5.2-0.1,6.4,0.6c0.5,0.3,1.5,1.3,1.8,1.8c0.3,0.5,0.9,1.7,1.1,3.1C351.9,179.1,350.4,187.3,348,194.8z"/>
	</g>
</g>
<g>
	<g>
		<g>
			<g>
				<g>
					<rect x="185.3" y="365.8" fill="#606466" width="127.6" height="116.5"/>
				</g>
			</g>
		</g>
		<g>
			<g>
				<g>
					<rect x="57.7" y="393.2" fill="#606466" width="127.6" height="89.1"/>
				</g>
			</g>
		</g>
		<g>
			<g>
				<g>
					<rect x="312.8" y="409.6" fill="#606466" width="127.6" height="72.7"/>
				</g>
			</g>
		</g>
	</g>
	<g>
		<g>
			<g>
				<g>
					<rect x="246.8" y="400.8" fill="#DFDFDF" width="4.6" height="40.1"/>
				</g>
			</g>
		</g>
		<g>
			<g>
				<g>
					<rect x="242.3" y="438.9" fill="#DFDFDF" width="13.4" height="4.6"/>
				</g>
			</g>
		</g>
		<g>
			<g>
				<g>
					<rect x="242.3" y="398.6" fill="#DFDFDF" width="13.4" height="4.6"/>
				</g>
			</g>
		</g>
	</g>
	<g>
		<g>
			<g>
				<g>
					<g>
						<rect x="113.7" y="417.5" fill="#DFDFDF" width="4.6" height="40.2"/>
					</g>
				</g>
			</g>
			<g>
				<g>
					<g>
						<rect x="124.7" y="417.5" fill="#DFDFDF" width="4.6" height="40.2"/>
					</g>
				</g>
			</g>
		</g>
		<g>
			<g>
				<g>
					<rect x="108.8" y="455.6" fill="#DFDFDF" width="25.4" height="4.6"/>
				</g>
			</g>
		</g>
		<g>
			<g>
				<g>
					<rect x="108.8" y="415.3" fill="#DFDFDF" width="25.4" height="4.6"/>
				</g>
			</g>
		</g>
	</g>
	<g>
		<g>
			<g>
				<g>
					<g>
						<rect x="363.4" y="425.7" fill="#DFDFDF" width="4.6" height="40.1"/>
					</g>
				</g>
			</g>
			<g>
				<g>
					<g>
						<rect x="374.4" y="425.7" fill="#DFDFDF" width="4.6" height="40.1"/>
					</g>
				</g>
			</g>
			<g>
				<g>
					<g>
						<rect x="385.3" y="425.7" fill="#DFDFDF" width="4.6" height="40.1"/>
					</g>
				</g>
			</g>
		</g>
		<g>
			<g>
				<g>
					<rect x="358.5" y="463.9" fill="#DFDFDF" width="36.3" height="4.6"/>
				</g>
			</g>
		</g>
		<g>
			<g>
				<g>
					<rect x="358.5" y="423.5" fill="#DFDFDF" width="36.3" height="4.6"/>
				</g>
			</g>
		</g>
	</g>
</g>
<g>
	<g>
		<path fill="#DFDFDF" d="M393.5,206.7c-1.5,0-2.8-1.2-2.8-2.8V100.5c0-1.5,1.2-2.8,2.8-2.8h11.3L368,65.8l-36.8,31.9h11.9
			c1.5,0,2.8,1.2,2.8,2.8v38.6c0,1.5-1.2,2.8-2.8,2.8c-1.5,0-2.8-1.2-2.8-2.8v-35.8h-16.6c-1.2,0-2.2-0.7-2.6-1.8
			c-0.4-1.1-0.1-2.3,0.8-3l44.1-38.3c1-0.9,2.6-0.9,3.6,0L414,98.5c0.9,0.8,1.2,2,0.8,3c-0.4,1.1-1.4,1.8-2.6,1.8h-15.9V204
			C396.2,205.5,395,206.7,393.5,206.7z"/>
	</g>
</g>
<g>
	<g>
		<g>
			<g>
				<polygon fill="#606466" points="140.8,65.9 136.7,63 138.7,60.1 142.9,63 				"/>
			</g>
		</g>
		<g>
			<g>
				<polygon fill="#606466" points="143.8,63.7 137.7,59.4 141,54.6 147.2,58.9 				"/>
			</g>
		</g>
	</g>
	<g>
		<g>
			<g>
				<rect x="114.6" y="51.1" fill="#606466" width="7.4" height="7.7"/>
			</g>
		</g>
		<g>
			<g>
				<rect x="107.6" y="45.1" fill="#606466" width="21.5" height="6"/>
			</g>
		</g>
	</g>
	<g>
		<g>
			<g>
				<g>
					<rect x="117.5" y="59.8" fill="#606466" width="1.6" height="6"/>
				</g>
			</g>
			<g>
				<g>
					<polygon fill="#606466" points="104,69.9 101,64.6 102.4,63.8 105.4,69.1 					"/>
				</g>
			</g>
			<g>
				<g>
					<polygon fill="#606466" points="94.4,80.1 89.2,77.1 90,75.7 95.2,78.7 					"/>
				</g>
			</g>
			<g>
				<g>
					<rect x="85.1" y="92.2" fill="#606466" width="6" height="1.6"/>
				</g>
			</g>
			<g>
				<g>
					<polygon fill="#606466" points="90,110.2 89.2,108.9 94.4,105.8 95.2,107.2 					"/>
				</g>
			</g>
			<g>
				<g>
					<polygon fill="#606466" points="102.4,122.1 101,121.3 104,116.1 105.4,116.8 					"/>
				</g>
			</g>
			<g>
				<g>
					<rect x="117.5" y="120.1" fill="#606466" width="1.6" height="6"/>
				</g>
			</g>
			<g>
				<g>
					<polygon fill="#606466" points="134.2,122.1 131.2,116.8 132.5,116.1 135.5,121.3 					"/>
				</g>
			</g>
			<g>
				<g>
					<polygon fill="#606466" points="146.6,110.2 141.4,107.2 142.2,105.8 147.4,108.9 					"/>
				</g>
			</g>
			<g>
				<g>
					<rect x="145.4" y="92.2" fill="#606466" width="6" height="1.6"/>
				</g>
			</g>
			<g>
				<g>
					<polygon fill="#606466" points="142.2,80.1 141.4,78.7 146.6,75.7 147.4,77.1 					"/>
				</g>
			</g>
			<g>
				<g>
					<polygon fill="#606466" points="132.5,69.9 131.2,69.1 134.2,63.8 135.5,64.6 					"/>
				</g>
			</g>
		</g>
		<g>
			<g>
				<path fill="#606466" d="M122,56.8c-1.2-0.1-2.4-0.2-3.7-0.2c-1.2,0-2.5,0.1-3.7,0.2C96.3,58.7,82,74.1,82,93
					c0,20.1,16.3,36.3,36.3,36.3c20.1,0,36.3-16.3,36.3-36.3C154.6,74.1,140.3,58.7,122,56.8z M118.3,125.1
					c-17.7,0-32.1-14.4-32.1-32.1c0-17.7,14.4-32.1,32.1-32.1c17.7,0,32.1,14.4,32.1,32.1C150.4,110.7,136,125.1,118.3,125.1z"/>
			</g>
		</g>
	</g>
	<g>
		<g>
			<path fill="#F7D14D" d="M118.3,71.1c0,0-4.3,19.4-4.3,21.8c0,2.4,1.9,4.3,4.3,4.3c2.4,0,4.3-1.9,4.3-4.3
				C122.6,90.6,118.3,71.1,118.3,71.1z"/>
		</g>
	</g>
</g>
</svg>
